<?xml version="1.0" encoding="utf-8"?>
<!-- Generator: Adobe Illustrator 16.0.0, SVG Export Plug-In . SVG Version: 6.00 Build 0)  -->
<!DOCTYPE svg PUBLIC "-//W3C//DTD SVG 1.1//EN" "http://www.w3.org/Graphics/SVG/1.1/DTD/svg11.dtd">
<svg version="1.1" id="Layer_1" xmlns="http://www.w3.org/2000/svg" xmlns:xlink="http://www.w3.org/1999/xlink" x="0px" y="0px"
	 width="128px" height="100px" viewBox="4 10 128 100" enable-background="new 4 10 128 100" xml:space="preserve">
<g>
	<g>
		<rect x="38.782" y="66.201" fill="#AD8651" width="34.413" height="15.252"/>
		<polygon fill="#977251" points="73.195,81.453 38.782,66.201 73.195,66.201 		"/>
		<polygon fill="#963306" points="80.387,67.512 31.591,67.512 38.557,53.134 73.289,53.134 		"/>
		<rect x="47.702" y="36.79" fill="#B68142" width="16.579" height="16.579"/>
		<polygon fill="#977251" points="64.281,36.79 47.702,36.79 64.281,53.368 		"/>
		<polygon fill="#9E2F05" points="56.146,24.552 45.333,37.972 66.645,37.972 		"/>
		<g>
			<rect x="44.243" y="69.551" fill="#68481E" width="2.766" height="7.102"/>
			<rect x="51.152" y="69.551" fill="#68481E" width="2.766" height="7.102"/>
			<rect x="58.06" y="69.551" fill="#68481E" width="2.762" height="7.102"/>
			<rect x="64.969" y="69.551" fill="#68481E" width="2.766" height="7.102"/>
		</g>
		<g>
			<rect x="51.152" y="41.13" fill="#68481E" width="2.766" height="7.107"/>
			<rect x="58.06" y="41.13" fill="#68481E" width="2.762" height="7.107"/>
		</g>
	</g>
	<path fill="#CCA97C" d="M30.581,95c5.611,0.459,11.629,0.904,16.83,3.182c2.1,0.916,4.156,1.9,6.203,2.898
		c0.066-0.01,0.132-0.027,0.203-0.035c6.808-0.879,10.015-0.869,16.614,0.348c1.531,0.283,2.941,0.75,4.287,1.324V80.721h-5.244
		v-3.144h-3.419v3.144H63.16v-3.144h-3.423v3.144h-2.89v-3.144h-3.419v3.144H50.53v-3.144h-3.419v3.144h-2.898v-3.144h-3.419v3.144
		H37.9v-3.144h-3.423v3.144h-2.895v-3.144h-3.415v3.144h-2.898v-3.144h-3.423v3.144h-2.894v-3.144h-3.419v3.144h-2.898v-3.144H9.216
		v3.144H7.919v13.953C15.471,94.859,23.042,94.383,30.581,95z"/>
	<g>
		<rect x="81.07" y="57.974" fill="#AD8651" width="37.705" height="16.706"/>
		<polygon fill="#977251" points="118.775,74.68 81.07,57.974 118.775,57.974 		"/>
		<polygon fill="#963306" points="126.65,59.404 73.195,59.404 81.549,43.654 118.732,43.654 		"/>
		<rect x="71.762" y="72.293" fill="#B68142" width="56.318" height="37.707"/>
		<rect x="90.848" y="25.751" fill="#B68142" width="18.156" height="18.158"/>
		<polygon fill="#977251" points="109.006,25.751 90.848,25.751 109.006,43.909 		"/>
		<polygon fill="#9E2F05" points="100.098,12.345 88.248,27.049 111.6,27.049 		"/>
		<g>
			<rect x="75.711" y="77.209" fill="#68481E" width="3.025" height="7.781"/>
			<rect x="83.281" y="77.209" fill="#68481E" width="3.021" height="7.781"/>
			<rect x="90.848" y="77.209" fill="#68481E" width="3.025" height="7.781"/>
			<rect x="98.412" y="77.209" fill="#68481E" width="3.021" height="7.781"/>
			<rect x="105.979" y="77.209" fill="#68481E" width="3.025" height="7.781"/>
			<rect x="113.545" y="77.209" fill="#68481E" width="3.025" height="7.781"/>
			<rect x="121.109" y="77.209" fill="#68481E" width="3.031" height="7.781"/>
		</g>
		<g>
			<rect x="87.063" y="61.641" fill="#68481E" width="3.025" height="7.785"/>
			<rect x="94.629" y="61.641" fill="#68481E" width="3.025" height="7.785"/>
			<rect x="102.197" y="61.641" fill="#68481E" width="3.021" height="7.785"/>
			<rect x="109.764" y="61.641" fill="#68481E" width="3.025" height="7.785"/>
		</g>
		<g>
			<rect x="94.629" y="30.507" fill="#68481E" width="3.025" height="7.782"/>
			<rect x="102.197" y="30.507" fill="#68481E" width="3.021" height="7.782"/>
		</g>
	</g>
</g>
</svg>
