<?xml version="1.0" encoding="utf-8"?>
<!-- Generator: Adobe Illustrator 16.0.0, SVG Export Plug-In . SVG Version: 6.00 Build 0)  -->
<!DOCTYPE svg PUBLIC "-//W3C//DTD SVG 1.1//EN" "http://www.w3.org/Graphics/SVG/1.1/DTD/svg11.dtd">
<svg version="1.1" id="Layer_1" xmlns="http://www.w3.org/2000/svg" xmlns:xlink="http://www.w3.org/1999/xlink" x="0px" y="0px"
	 width="260px" height="150px" viewBox="11 6 260 150" enable-background="new 11 6 260 150" xml:space="preserve">
<g>
	<g>
		<g>
			
				<rect x="145.65" y="71.518" transform="matrix(-1 0.0042 -0.0042 -1 375.2582 163.9119)" fill="#C5804A" width="83.614" height="21.663"/>
			
				<rect x="188.631" y="80.835" transform="matrix(-1 0.0041 -0.0041 -1 417.3245 172.2856)" fill="#A46233" width="39.709" height="11.472"/>
			<path fill="#903A3A" d="M141.776,67.897c-2.107,0.008-3.809,0.65-3.805,1.433l0.027,6.499l7.623-0.031l-0.028-6.5
				C145.588,68.516,143.882,67.888,141.776,67.897z"/>
			<path fill="#E8A875" d="M145.621,75.798c-0.006-0.781-1.713-1.412-3.818-1.402c-2.105,0.009-3.809,0.652-3.804,1.434
				l0.103,24.894l7.52-0.029C145.621,100.692,145.621,75.909,145.621,75.798z"/>
			<path fill="#903A3A" d="M175.64,67.755c-2.104,0.01-3.81,0.65-3.808,1.434l0.027,6.5l7.625-0.033l-0.029-6.498
				C179.455,68.374,177.746,67.747,175.64,67.755z"/>
			<path fill="#E8A875" d="M179.485,75.655c-0.004-0.78-1.715-1.409-3.819-1.4c-2.104,0.009-3.81,0.652-3.806,1.434l0.105,24.893
				l7.52-0.03C179.485,100.55,179.485,75.767,179.485,75.655z"/>
			<polygon fill="#4F512C" points="194.474,79.007 180.66,79.063 180.627,72.326 194.443,72.27 			"/>
			
				<rect x="145.697" y="88.789" transform="matrix(-1 0.0042 -0.0042 -1 304.2767 188.8182)" fill="none" width="12.484" height="11.883"/>
			
				<rect x="159.387" y="88.732" transform="matrix(-1 0.0042 -0.0042 -1 331.6562 188.6452)" fill="none" width="12.484" height="11.881"/>
			<polygon fill="#68381B" points="164.728,87.152 164.697,80.079 163.33,80.085 163.358,87.158 159.521,87.171 159.492,80.101 
				158.121,80.108 158.151,87.177 151.039,87.206 151.011,80.136 149.642,80.142 149.67,87.212 145.668,87.229 145.672,88.81 
				149.679,88.792 149.729,100.675 151.097,100.669 151.047,88.786 158.158,88.759 158.205,100.64 159.576,100.634 159.526,88.751 
				163.367,88.736 163.416,100.617 164.787,100.613 164.735,88.731 171.845,88.701 171.838,87.119 			"/>
			<path fill="#903A3A" d="M128.902,85.144c0.008,2.244-1.805,4.072-4.046,4.08c-2.246,0.01-4.073-1.803-4.083-4.049
				c-0.01-2.243,1.801-4.073,4.047-4.083C127.065,81.083,128.894,82.898,128.902,85.144z"/>
			<path fill="#E8A875" d="M128.909,86.685l-0.006-1.541c0,0-1.5,0.783-4.173,0.795c-2.672,0.013-3.956-0.764-3.956-0.764
				l0.017,1.496C123.046,87.38,126.475,87.384,128.909,86.685z"/>
			<path fill="#903A3A" d="M160.248,85.011c0.011,2.246-1.801,4.074-4.047,4.084s-4.072-1.805-4.08-4.051
				c-0.012-2.243,1.801-4.073,4.047-4.083C158.412,80.952,160.24,82.768,160.248,85.011z"/>
			<path fill="#E8A875" d="M160.254,86.552l-0.006-1.541c0,0-1.5,0.787-4.172,0.797c-2.674,0.013-3.955-0.764-3.955-0.764
				l0.014,1.496C154.397,87.247,157.822,87.251,160.254,86.552z"/>
			<path fill="none" d="M191.527,84.88c0.012,2.246-1.801,4.074-4.049,4.082c-2.24,0.012-4.07-1.803-4.08-4.047
				c-0.009-2.245,1.805-4.075,4.049-4.084C189.692,80.821,191.521,82.639,191.527,84.88z"/>
			<path fill="none" d="M191.535,86.423l-0.008-1.543c0,0-1.496,0.787-4.169,0.797c-2.675,0.012-3.96-0.762-3.96-0.762l0.018,1.496
				C185.675,87.119,189.104,87.122,191.535,86.423z"/>
			<path fill="none" d="M183.416,86.411l0.158,14.121l8.02-0.033l-0.059-14.076C189.104,87.122,185.675,87.119,183.416,86.411z"/>
			<path fill="#903A3A" d="M233.011,67.516c2.103-0.008,3.812,0.619,3.813,1.4l0.026,6.501l-7.621,0.031l-0.026-6.5
				C229.199,68.167,230.906,67.524,233.011,67.516z"/>
			<path fill="#E8A875" d="M229.23,75.449c-0.003-0.782,1.7-1.426,3.807-1.435c2.104-0.008,3.813,0.621,3.814,1.403l0.104,24.893
				l-7.52,0.031C229.437,100.341,229.23,75.559,229.23,75.449z"/>
			<path fill="#903A3A" d="M199.146,67.657c2.104-0.008,3.813,0.62,3.815,1.4l0.029,6.501l-7.623,0.032l-0.027-6.5
				C195.338,68.308,197.039,67.667,199.146,67.657z"/>
			<path fill="#E8A875" d="M195.369,75.591c-0.004-0.783,1.698-1.426,3.805-1.434c2.104-0.01,3.813,0.62,3.816,1.401l0.104,24.892
				l-7.522,0.033C195.572,100.483,195.369,75.701,195.369,75.591z"/>
			
				<rect x="203.058" y="71.397" transform="matrix(1 -0.0042 0.0042 1 -0.317 0.912)" fill="#75441A" width="26.172" height="8.463"/>
			
				<rect x="216.742" y="72.16" transform="matrix(1 -0.0041 0.0041 1 -0.3083 0.9134)" fill="#4F512C" width="11.058" height="6.738"/>
			
				<rect x="204.008" y="72.205" transform="matrix(1 -0.0042 0.0042 1 -0.3162 0.8831)" fill="#4F512C" width="11.371" height="6.736"/>
			
				<rect x="216.818" y="88.491" transform="matrix(1 -0.0044 0.0044 1 -0.4114 0.9777)" fill="none" width="12.488" height="11.881"/>
			
				<rect x="203.137" y="88.539" transform="matrix(1 -0.0042 0.0042 1 -0.3972 0.8852)" fill="none" width="12.485" height="11.882"/>
			<polygon fill="#68381B" points="225.275,86.897 225.246,79.827 223.875,79.833 223.906,86.904 216.793,86.933 216.764,79.862 
				215.396,79.868 215.425,86.938 211.588,86.953 211.559,79.884 210.188,79.89 210.218,86.96 203.106,86.992 203.115,88.57 
				210.222,88.54 210.271,100.423 211.643,100.415 211.593,88.535 215.432,88.519 215.481,100.402 216.848,100.396 216.801,88.513 
				223.912,88.483 223.961,100.365 225.33,100.358 225.281,88.478 229.285,88.46 229.281,86.88 			"/>
			<path fill="#903A3A" d="M246.025,84.654c0.012,2.245,1.838,4.06,4.082,4.049c2.245-0.011,4.059-1.838,4.049-4.082
				c-0.01-2.245-1.837-4.059-4.084-4.05C247.83,80.579,246.019,82.41,246.025,84.654z"/>
			<path fill="#E8A875" d="M246.033,86.195l-0.008-1.541c0,0,1.506,0.772,4.18,0.762s3.951-0.795,3.951-0.795l-0.006,1.494
				C251.898,86.841,248.473,86.874,246.033,86.195z"/>
			<circle fill="#903A3A" cx="218.742" cy="84.768" r="4.064"/>
			<path fill="#E8A875" d="M214.685,86.326l-0.006-1.541c0,0,1.505,0.772,4.178,0.763c2.675-0.013,3.949-0.796,3.949-0.796
				l-0.001,1.496C220.552,86.974,217.123,87.005,214.685,86.326z"/>
			<path fill="#903A3A" d="M183.398,84.915c0.01,2.244,1.84,4.059,4.08,4.047c2.248-0.008,4.061-1.836,4.049-4.082
				c-0.006-2.243-1.835-4.059-4.08-4.049C185.203,80.841,183.39,82.672,183.398,84.915z"/>
			<path fill="#E8A875" d="M183.406,86.454l-0.008-1.539c0,0,1.506,0.773,4.182,0.762c2.672-0.012,3.947-0.797,3.947-0.797
				l-0.004,1.496C189.271,87.103,185.845,87.136,183.406,86.454z"/>
			<path fill="#6D645A" d="M269,154.931l-14.864-48.801l-66.584,0.277l-66.58,0.277l-14.459,48.924l65.68-0.275
				c0,0-3.917-34.313,15.421-34.393s15.709,34.264,15.709,34.264L269,154.931z"/>
			
				<rect x="145.617" y="71.644" transform="matrix(1 -0.0042 0.0042 1 -0.3171 0.6668)" fill="#A26728" width="26.173" height="8.464"/>
			
				<rect x="147.051" y="72.44" transform="matrix(-1 0.0041 -0.0041 -1 305.4683 150.989)" fill="#4F512C" width="11.057" height="6.736"/>
			
				<rect x="159.475" y="72.393" transform="matrix(-1 0.0042 -0.0042 -1 330.6367 150.8286)" fill="#4F512C" width="11.369" height="6.738"/>
			
				<rect x="216.102" y="87.835" transform="matrix(-1 0.0042 -0.0042 -1 438.2012 183.4537)" fill="#D7A880" width="5.615" height="8.698"/>
			<path fill="#C87F46" d="M141.85,75.131l0.07,17.389l3.185-0.071c0,0-0.065-15.671-0.069-16.536
				C145.031,75.052,141.85,75.131,141.85,75.131z"/>
			<path fill="#6B2124" d="M141.822,68.632c0,0,0.012,3.184,0.021,4.842c1.655-0.271,3.187,0.782,3.187,0.782
				s-0.017-3.979-0.021-4.839C145.004,68.552,141.822,68.632,141.822,68.632z"/>
			<path fill="#C87F46" d="M175.455,74.991l0.071,17.387l3.185-0.07c0,0-0.064-15.669-0.066-16.535
				C178.64,74.911,175.455,74.991,175.455,74.991z"/>
			<path fill="#6B2124" d="M175.429,68.49c0,0,0.012,3.185,0.021,4.843c1.657-0.272,3.188,0.782,3.188,0.782
				s-0.016-3.979-0.021-4.839C178.611,68.411,175.429,68.49,175.429,68.49z"/>
			<path fill="#C87F46" d="M198.99,74.892l0.073,17.39l3.183-0.072c0,0-0.063-15.67-0.067-16.534
				C202.175,74.812,198.99,74.892,198.99,74.892z"/>
			<path fill="#6B2124" d="M198.961,68.393c0,0,0.015,3.184,0.021,4.842c1.657-0.271,3.188,0.781,3.188,0.781
				s-0.016-3.979-0.021-4.84C202.146,68.313,198.961,68.393,198.961,68.393z"/>
			<path fill="#C87F46" d="M232.791,74.751l0.072,17.389l3.18-0.069c0,0-0.063-15.67-0.067-16.536
				C235.972,74.672,232.791,74.751,232.791,74.751z"/>
			<path fill="#6B2124" d="M232.762,68.251c0,0,0.015,3.186,0.021,4.844c1.653-0.271,3.187,0.78,3.187,0.78
				s-0.017-3.978-0.021-4.839C235.945,68.172,232.762,68.251,232.762,68.251z"/>
			<path fill="#F0D5B9" d="M246.033,86.195l0.014,3.038l-23.249,0.099l0.008-3.084c-2.253,0.728-5.681,0.759-8.12,0.078l0.014,3.039
				l-23.185,0.096l0.01-3.084c-2.252,0.728-5.679,0.761-8.118,0.078l0.014,3.041l-23.149,0.097l-0.014-3.039
				c-2.435,0.698-5.857,0.694-8.12-0.013l0.033,3.086l-23.247,0.097l-0.013-3.037c-2.435,0.699-5.862,0.695-8.119-0.014
				l0.158,14.122l0.024,5.892l133.164-0.555l-0.021-5.892l0.037-14.125C251.898,86.841,248.473,86.874,246.033,86.195z
				 M128.936,93.427l-0.007-1.848l23.264-0.098l0.019,1.848L128.936,93.427z M160.276,91.447l23.15-0.097l0.007,1.851l-23.148,0.097
				L160.276,91.447z M214.713,93.07l-23.207,0.096l0.004-1.851l23.195-0.096L214.713,93.07z M246.061,92.938l-23.275,0.099
				l0.004-1.851l23.266-0.098L246.061,92.938z"/>
			<path fill="#6B2124" d="M124.957,81.563l-0.544,3.933c0,0,3.8-0.08,3.795-0.951C127.825,81.93,124.957,81.563,124.957,81.563z"/>
			<path fill="#6B2124" d="M156.5,81.433l-0.547,3.931c0,0,3.806-0.08,3.801-0.951C159.369,81.797,156.5,81.433,156.5,81.433z"/>
			<path fill="#6B2124" d="M187.543,81.305L187,85.236c0,0,3.803-0.08,3.799-0.951C190.414,81.667,187.543,81.305,187.543,81.305z"
				/>
			<path fill="#6B2124" d="M218.716,81.174l-0.548,3.93c0,0,3.806-0.077,3.802-0.952C221.584,81.537,218.716,81.174,218.716,81.174z
				"/>
			<path fill="#6B2124" d="M250.074,81.043l-0.547,3.933c0,0,3.805-0.082,3.799-0.953C252.939,81.407,250.074,81.043,250.074,81.043
				z"/>
			<polygon fill="#A26728" points="187.261,36.382 142.271,36.569 142.344,53.702 187.332,53.514 232.32,53.325 232.248,36.193 			
				"/>
			<path fill="#E8A875" d="M232.132,53.327l-44.8,0.187l-44.801,0.187c-7.307,12.258-21.081,11.365-21.081,11.365l3.812,3.901
				l62.131-0.259l62.131-0.26l3.783-3.932C253.31,64.516,239.541,65.525,232.132,53.327z"/>
			<path fill="#903A3A" d="M146.093,38.183c-2.107,0.009-3.81,0.653-3.808,1.435l0.028,6.497l7.623-0.031l-0.026-6.499
				C149.906,38.804,148.197,38.175,146.093,38.183z"/>
			<path fill="#E8A875" d="M149.937,46.084c-0.004-0.782-1.711-1.409-3.817-1.4c-2.107,0.008-3.81,0.651-3.805,1.432l0.044,10.849
				l7.523-0.031C149.881,56.932,149.937,46.194,149.937,46.084z"/>
			<path fill="#903A3A" d="M175.516,38.061c-2.105,0.008-3.811,0.651-3.807,1.433l0.027,6.499l7.623-0.033l-0.027-6.497
				C179.33,38.681,177.621,38.053,175.516,38.061z"/>
			<path fill="#E8A875" d="M179.36,45.96c-0.004-0.78-1.713-1.408-3.817-1.399c-2.104,0.009-3.81,0.649-3.805,1.433l0.045,10.847
				l7.521-0.032C179.303,56.807,179.36,46.071,179.36,45.96z"/>
			
				<rect x="152.275" y="38.439" transform="matrix(-1 0.0042 -0.0042 -1 321.8973 89.5821)" fill="#4F512C" width="17.159" height="13.377"/>
			
				<rect x="180.514" y="38.419" transform="matrix(-1 0.0042 -0.0042 -1 375.0345 89.3507)" fill="#4F512C" width="13.818" height="13.301"/>
			<polygon fill="#F0D5B9" points="187.154,11.228 154.894,11.364 154.914,16.059 187.177,15.925 219.437,15.791 219.416,11.095 			
				"/>
			<path fill="#E8A875" d="M242.058,30.966c-4.767-0.417-14.108-2.926-22.621-15.175l-32.26,0.134l-32.263,0.135
				c-8.41,12.318-17.732,14.908-22.496,15.364l-3.185,0.013l3.062,3.27l54.955-0.23l54.959-0.229l3.035-3.295L242.058,30.966z"/>
			<polygon fill="#F0D5B9" points="187.252,34.475 132.297,34.706 133.96,36.603 187.261,36.382 240.562,36.158 242.211,34.247 			
				"/>
			<path fill="#903A3A" d="M228.445,37.84c2.104-0.009,3.815,0.62,3.817,1.401l0.028,6.499l-7.625,0.03l-0.026-6.498
				C224.637,38.492,226.338,37.849,228.445,37.84z"/>
			<path fill="#E8A875" d="M224.666,45.77c-0.002-0.781,1.701-1.422,3.805-1.431c2.107-0.009,3.814,0.618,3.82,1.4l0.043,10.848
				l-7.521,0.031C224.814,56.619,224.668,45.883,224.666,45.77z"/>
			<path fill="#903A3A" d="M199.023,37.964c2.104-0.009,3.811,0.62,3.814,1.4l0.025,6.499l-7.619,0.03l-0.028-6.497
				C195.215,38.615,196.914,37.972,199.023,37.964z"/>
			<path fill="#E8A875" d="M195.246,45.893c-0.004-0.78,1.696-1.422,3.804-1.431c2.104-0.009,3.813,0.619,3.815,1.4l0.049,10.847
				l-7.524,0.032C195.389,56.742,195.244,46.007,195.246,45.893z"/>
			<polygon fill="#F0D5B9" points="187.396,68.708 125.265,68.967 126.578,70.266 187.399,70.013 248.227,69.759 249.526,68.448 			
				"/>
			
				<rect x="205.164" y="38.224" transform="matrix(1 -0.0041 0.0041 1 -0.1823 0.8763)" fill="#4F512C" width="17.158" height="13.379"/>
			<polygon fill="#F0D5B9" points="187.332,53.514 142.344,53.702 138.968,58.288 187.351,58.207 235.863,58.005 232.32,53.325 			
				"/>
			<g>
				<line fill="none" x1="182.485" y1="15.944" x2="180.972" y2="34.067"/>
				<line fill="none" x1="169.47" y1="15.999" x2="156.422" y2="34.605"/>
				<line fill="none" x1="174.758" y1="15.977" x2="165.524" y2="34.567"/>
				<line fill="none" x1="178.675" y1="15.96" x2="173.883" y2="34.532"/>
				<line fill="none" x1="164.705" y1="16.018" x2="146.688" y2="34.645"/>
				<path fill="none" d="M159.099,16.042c-16.853,19.353-26.801,18.664-26.801,18.664"/>
				<line fill="none" x1="187.177" y1="15.925" x2="187.252" y2="34.475"/>
				<line fill="none" x1="191.869" y1="15.905" x2="193.531" y2="34.015"/>
				<line fill="none" x1="204.884" y1="15.85" x2="218.082" y2="34.348"/>
				<line fill="none" x1="195.681" y1="15.89" x2="200.623" y2="34.421"/>
				<line fill="none" x1="209.647" y1="15.831" x2="227.817" y2="34.307"/>
			</g>
			<g>
				<line fill="none" x1="187.351" y1="58.207" x2="187.396" y2="68.708"/>
				<path fill="none" d="M143.613,58.28c-7.569,7.632-18.349,10.687-18.349,10.687"/>
				<line fill="none" x1="158.343" y1="58.256" x2="146.757" y2="68.878"/>
				<line fill="none" x1="176.983" y1="58.224" x2="173.274" y2="68.765"/>
				<line fill="none" x1="182.238" y1="58.219" x2="180.406" y2="68.737"/>
				<line fill="none" x1="151.093" y1="58.266" x2="136.751" y2="68.917"/>
				<line fill="none" x1="164.849" y1="58.245" x2="155.888" y2="68.839"/>
				<line fill="none" x1="171.103" y1="58.227" x2="164.894" y2="68.802"/>
				<line fill="none" x1="216.357" y1="58.015" x2="228.035" y2="68.538"/>
				<line fill="none" x1="197.72" y1="58.138" x2="201.517" y2="68.649"/>
				<line fill="none" x1="192.371" y1="58.187" x2="194.912" y2="68.241"/>
				<line fill="none" x1="203.599" y1="58.093" x2="209.898" y2="68.614"/>
				<path fill="none" d="M231.09,57.915c7.632,7.569,18.437,10.533,18.437,10.533"/>
				<line fill="none" x1="223.613" y1="57.964" x2="238.041" y2="68.496"/>
			</g>
			<path fill="#C87F46" d="M228.404,45.11l0.031,7.494l3.186,0.053c0,0-0.025-5.902-0.028-6.763
				C231.588,45.03,228.404,45.11,228.404,45.11z"/>
			<path fill="#6B2124" d="M228.375,38.609c0,0,0.015,3.188,0.021,4.842c1.658-0.269,3.188,0.784,3.188,0.784
				s-0.019-3.981-0.021-4.842C231.56,38.532,228.375,38.609,228.375,38.609z"/>
			<path fill="#C87F46" d="M199.021,45.232l0.029,7.495l3.187,0.053c0,0-0.025-5.902-0.027-6.764
				C202.203,45.153,199.021,45.232,199.021,45.232z"/>
			<path fill="#6B2124" d="M198.994,38.733c0,0,0.013,3.186,0.02,4.84c1.658-0.269,3.188,0.785,3.188,0.785s-0.018-3.98-0.021-4.842
				S198.994,38.733,198.994,38.733z"/>
			<path fill="#C87F46" d="M175.41,45.331l0.03,7.494l3.185,0.053c0,0-0.027-5.902-0.027-6.763
				C178.591,45.251,175.41,45.331,175.41,45.331z"/>
			<path fill="#6B2124" d="M175.382,38.831c0,0,0.012,3.186,0.018,4.841c1.658-0.269,3.188,0.783,3.188,0.783
				s-0.016-3.979-0.018-4.84C178.565,38.753,175.382,38.831,175.382,38.831z"/>
			<path fill="#C87F46" d="M146.026,45.453l0.031,7.495l3.185,0.053c0,0-0.024-5.902-0.029-6.764
				C149.207,45.374,146.026,45.453,146.026,45.453z"/>
			<path fill="#6B2124" d="M145.998,38.952c0,0,0.015,3.188,0.021,4.843c1.656-0.271,3.186,0.784,3.186,0.784
				s-0.017-3.981-0.019-4.842C149.183,38.874,145.998,38.952,145.998,38.952z"/>
		</g>
	</g>
	<g>
		
			<rect x="13.05" y="131.704" transform="matrix(1 -0.0042 0.0042 1 -0.6028 0.3173)" fill="#6D645A" width="124.424" height="24.034"/>
		<g>
			
				<rect x="13.707" y="126.291" transform="matrix(-1 0.004 -0.004 -1 33.8202 260.0577)" fill="#6D645A" width="5.89" height="7.543"/>
			
				<rect x="23.953" y="126.25" transform="matrix(-1 0.0043 -0.0043 -1 54.3566 259.9239)" fill="#6D645A" width="5.891" height="7.541"/>
			
				<rect x="34.203" y="126.207" transform="matrix(-1 0.0043 -0.0043 -1 74.8571 259.7938)" fill="#6D645A" width="5.892" height="7.541"/>
			
				<rect x="44.454" y="126.164" transform="matrix(-1 0.0043 -0.0043 -1 95.357 259.6636)" fill="#6D645A" width="5.89" height="7.541"/>
			
				<rect x="54.708" y="126.12" transform="matrix(-1 0.004 -0.004 -1 115.8238 259.5509)" fill="#6D645A" width="5.892" height="7.541"/>
			
				<rect x="64.955" y="126.078" transform="matrix(-1 0.0043 -0.0043 -1 136.3584 259.4034)" fill="#6D645A" width="5.89" height="7.541"/>
			
				<rect x="75.209" y="126.034" transform="matrix(-1 0.004 -0.004 -1 156.8235 259.2974)" fill="#6D645A" width="5.89" height="7.541"/>
			
				<rect x="85.459" y="125.991" transform="matrix(-1 0.004 -0.004 -1 177.3246 259.1707)" fill="#6D645A" width="5.891" height="7.541"/>
			
				<rect x="95.709" y="125.948" transform="matrix(-1 0.004 -0.004 -1 197.8267 259.0441)" fill="#6D645A" width="5.893" height="7.541"/>
			
				<rect x="105.956" y="125.91" transform="matrix(-1 0.0041 -0.0041 -1 218.3402 258.905)" fill="#6D645A" width="5.891" height="7.538"/>
			
				<rect x="116.206" y="125.867" transform="matrix(-1 0.0043 -0.0043 -1 238.86 258.7606)" fill="#6D645A" width="5.89" height="7.541"/>
		</g>
	</g>
</g>
</svg>
