<?xml version="1.0" encoding="utf-8"?>
<!-- Generator: Adobe Illustrator 16.0.0, SVG Export Plug-In . SVG Version: 6.00 Build 0)  -->
<!DOCTYPE svg PUBLIC "-//W3C//DTD SVG 1.1//EN" "http://www.w3.org/Graphics/SVG/1.1/DTD/svg11.dtd">
<svg version="1.1" id="Layer_1" xmlns="http://www.w3.org/2000/svg" xmlns:xlink="http://www.w3.org/1999/xlink" x="0px" y="0px"
	 width="250px" height="96px" viewBox="10 9 250 96" enable-background="new 10 9 250 96" xml:space="preserve">
<g>
	
		<rect x="12.125" y="82.236" transform="matrix(-1 0.0042 -0.0042 -1 186.9333 184.4668)" fill="#C3955D" width="162.295" height="20.387"/>
	<polygon fill="#9F805D" points="83.906,102.661 46.606,102.818 46.52,82.431 	"/>
	
		<rect x="12.086" y="62.11" transform="matrix(-1 0.0042 -0.0042 -1 61.222 164.8684)" fill="#A77842" width="36.703" height="40.777"/>
	<g>
		
			<rect x="12.505" y="56.683" transform="matrix(-1 0.0042 -0.0042 -1 34.5147 122.5365)" fill="#A77842" width="9.245" height="9.244"/>
		
			<rect x="25.644" y="56.63" transform="matrix(-1 0.0039 -0.0039 -1 60.7747 122.3842)" fill="#A77842" width="9.247" height="9.242"/>
		
			<rect x="38.785" y="56.575" transform="matrix(-1 0.0042 -0.0042 -1 87.0722 122.2086)" fill="#A77842" width="9.243" height="9.242"/>
	</g>
	<g>
		<g>
			
				<rect x="50.642" y="75.013" transform="matrix(-1 0.0042 -0.0042 -1 110.8629 159.0314)" fill="#C3955D" width="9.244" height="9.24"/>
			
				<rect x="63.784" y="74.957" transform="matrix(-1 0.004 -0.004 -1 137.1314 158.879)" fill="#C3955D" width="9.244" height="9.24"/>
			
				<rect x="76.919" y="74.905" transform="matrix(-1 0.0042 -0.0042 -1 163.4164 158.7035)" fill="#C3955D" width="9.242" height="9.238"/>
		</g>
	</g>
	<g>
		<g>
			
				<rect x="90.518" y="74.846" transform="matrix(-1 0.004 -0.004 -1 190.5981 158.551)" fill="#C3955D" width="9.243" height="9.242"/>
			
				<rect x="103.653" y="74.794" transform="matrix(-1 0.0042 -0.0042 -1 216.8872 158.37)" fill="#C3955D" width="9.247" height="9.24"/>
			
				<rect x="116.795" y="74.74" transform="matrix(-1 0.0041 -0.0041 -1 243.1575 158.2158)" fill="#C3955D" width="9.242" height="9.237"/>
		</g>
	</g>
	<g>
		<g>
			
				<rect x="130.386" y="74.681" transform="matrix(-1 0.0042 -0.0042 -1 270.3519 158.0324)" fill="#C3955D" width="9.246" height="9.242"/>
			
				<rect x="143.527" y="74.627" transform="matrix(-1 0.0042 -0.0042 -1 296.6286 157.8672)" fill="#C3955D" width="9.24" height="9.24"/>
		</g>
	</g>
	
		<rect x="150.722" y="61.535" transform="matrix(-1 0.0042 -0.0042 -1 338.4836 163.1321)" fill="#A77842" width="36.698" height="40.774"/>
	<g>
		
			<rect x="151.514" y="56.11" transform="matrix(-1 0.0043 -0.0043 -1 312.5312 120.7859)" fill="#A77842" width="9.242" height="9.243"/>
		
			<rect x="164.655" y="56.052" transform="matrix(-1 0.004 -0.004 -1 338.7988 120.6668)" fill="#A77842" width="9.246" height="9.243"/>
		
			<rect x="177.795" y="55.999" transform="matrix(-1 0.0043 -0.0043 -1 365.0948 120.4525)" fill="#A77842" width="9.244" height="9.244"/>
	</g>
	<g>
		
			<rect x="17.445" y="69.901" transform="matrix(-1 0.004 -0.004 -1 40.9871 146.6067)" fill="#513323" width="5.801" height="6.887"/>
		
			<rect x="27.6" y="69.857" transform="matrix(-1 0.0044 -0.0044 -1 61.3266 146.4684)" fill="#513323" width="5.806" height="6.888"/>
		
			<rect x="37.753" y="69.814" transform="matrix(-1 0.0044 -0.0044 -1 81.6232 146.3378)" fill="#513323" width="5.797" height="6.888"/>
	</g>
	<g>
		
			<rect x="155.555" y="69.322" transform="matrix(-1 0.0044 -0.0044 -1 317.2253 144.8348)" fill="#513323" width="5.799" height="6.885"/>
		
			<rect x="165.705" y="69.279" transform="matrix(-1 0.0044 -0.0044 -1 337.5276 144.7066)" fill="#513323" width="5.801" height="6.887"/>
		
			<rect x="175.853" y="69.236" transform="matrix(-1 0.0044 -0.0044 -1 357.8241 144.5765)" fill="#513323" width="5.803" height="6.887"/>
	</g>
	<g>
		
			<rect x="221.217" y="16.59" transform="matrix(-1 0.0042 -0.0042 -1 479.2842 72.9494)" fill="#A77842" width="36.698" height="40.778"/>
		<g>
			
				<rect x="222.007" y="11.163" transform="matrix(-1 0.004 -0.004 -1 453.3193 30.6604)" fill="#A77842" width="9.244" height="9.244"/>
			
				<rect x="235.144" y="11.107" transform="matrix(-1 0.0039 -0.0039 -1 479.5909 30.5197)" fill="#A77842" width="9.244" height="9.243"/>
			
				<rect x="248.287" y="11.055" transform="matrix(-1 0.0041 -0.0041 -1 505.8789 30.3122)" fill="#A77842" width="9.242" height="9.244"/>
		</g>
		<g>
			
				<rect x="226.046" y="24.384" transform="matrix(-1 0.0042 -0.0042 -1 458.0038 54.6928)" fill="#513323" width="5.797" height="6.889"/>
			
				<rect x="236.192" y="24.342" transform="matrix(-1 0.004 -0.004 -1 478.2959 54.606)" fill="#513323" width="5.801" height="6.889"/>
			
				<rect x="246.34" y="24.3" transform="matrix(-1 0.0042 -0.0042 -1 498.595 54.4391)" fill="#513323" width="5.801" height="6.888"/>
		</g>
	</g>
	
		<rect x="186.803" y="55.494" transform="matrix(-1 0.0041 -0.0041 -1 444.9691 130.4593)" fill="#C3955D" width="71.094" height="20.386"/>
	<g>
		<g>
			
				<rect x="181.982" y="48.244" transform="matrix(-1 0.0039 -0.0039 -1 373.4123 105.0035)" fill="#C3955D" width="9.242" height="9.246"/>
			
				<rect x="195.122" y="48.191" transform="matrix(-1 0.0039 -0.0039 -1 399.6913 104.8447)" fill="#C3955D" width="9.242" height="9.244"/>
			
				<rect x="208.26" y="48.139" transform="matrix(-1 0.0042 -0.0042 -1 425.9828 104.6222)" fill="#C3955D" width="9.242" height="9.245"/>
		</g>
	</g>
	<g>
		<g>
			
				<rect x="220.741" y="48.086" transform="matrix(-1 0.0042 -0.0042 -1 450.9473 104.4642)" fill="#C3955D" width="9.244" height="9.245"/>
			
				<rect x="233.88" y="48.031" transform="matrix(-1 0.0041 -0.0041 -1 477.2169 104.3234)" fill="#C3955D" width="9.242" height="9.245"/>
			
				<rect x="247.019" y="47.978" transform="matrix(-1 0.0041 -0.0041 -1 503.494 104.1616)" fill="#C3955D" width="9.24" height="9.243"/>
		</g>
	</g>
</g>
</svg>
