<?xml version="1.0" encoding="utf-8"?>
<!-- Generator: Adobe Illustrator 16.0.0, SVG Export Plug-In . SVG Version: 6.00 Build 0)  -->
<!DOCTYPE svg PUBLIC "-//W3C//DTD SVG 1.1//EN" "http://www.w3.org/Graphics/SVG/1.1/DTD/svg11.dtd">
<svg version="1.1" id="Layer_1" xmlns="http://www.w3.org/2000/svg" xmlns:xlink="http://www.w3.org/1999/xlink" x="0px" y="0px"
	 width="90px" height="60px" viewBox="7 9 90 60" enable-background="new 7 9 90 60" xml:space="preserve">
<g>
	<g>
		
			<rect x="15.694" y="56.736" transform="matrix(-1 0.0041 -0.0041 -1 58.1217 125.3174)" fill="#B10E00" width="26.474" height="11.965"/>
		
			<rect x="27.279" y="58.388" transform="matrix(-1 0.0043 -0.0043 -1 61.5798 126.9503)" fill="#321C00" width="6.747" height="10.309"/>
		
			<rect x="19.896" y="60.581" transform="matrix(-1 0.0043 -0.0043 -1 44.1349 125.143)" fill="#98702F" width="4.072" height="4.076"/>
		<polygon fill="#00A436" points="49.786,57.412 8.039,57.586 10.521,42.305 47.176,42.15 		"/>
	</g>
	<g>
		
			<rect x="61.87" y="56.547" transform="matrix(-1 0.0041 -0.0041 -1 150.4696 124.7477)" fill="#B10E00" width="26.472" height="11.965"/>
		
			<rect x="73.459" y="58.189" transform="matrix(-1 0.0041 -0.0041 -1 153.9202 126.3755)" fill="#321C00" width="6.745" height="10.309"/>
		
			<rect x="66.071" y="60.39" transform="matrix(-1 0.0043 -0.0043 -1 136.4837 124.5629)" fill="#98702F" width="4.072" height="4.078"/>
		<polygon fill="#00A436" points="95.96,57.221 54.214,57.391 56.695,42.113 93.352,41.961 		"/>
	</g>
	<g>
		
			<rect x="61.736" y="23.829" transform="matrix(-1 0.0041 -0.0041 -1 150.0638 59.3158)" fill="#B10E00" width="26.471" height="11.965"/>
		
			<rect x="73.321" y="25.472" transform="matrix(-1 0.0041 -0.0041 -1 153.5172 60.9364)" fill="#321C00" width="6.75" height="10.309"/>
		
			<rect x="65.937" y="27.671" transform="matrix(-1 0.0041 -0.0041 -1 136.0668 59.1372)" fill="#98702F" width="4.072" height="4.072"/>
		<polygon fill="#00A436" points="95.823,24.502 54.078,24.677 56.559,9.396 93.214,9.244 		"/>
	</g>
</g>
</svg>
