<?xml version="1.0" encoding="utf-8"?>
<!-- Generator: Adobe Illustrator 16.0.0, SVG Export Plug-In . SVG Version: 6.00 Build 0)  -->
<!DOCTYPE svg PUBLIC "-//W3C//DTD SVG 1.1//EN" "http://www.w3.org/Graphics/SVG/1.1/DTD/svg11.dtd">
<svg version="1.1" id="图层_1" xmlns="http://www.w3.org/2000/svg" xmlns:xlink="http://www.w3.org/1999/xlink" x="0px" y="0px"
	 width="186px" height="30px" viewBox="0 0 186 30" enable-background="new 0 0 186 30" xml:space="preserve">
<g>
	<path fill="#EFD28B" d="M178.527,19.378c-11.646-7.516-42.199-12.882-78.059-12.882c-35.862,0-66.417,5.366-78.063,12.882H178.527z
		"/>
	<path fill="#DB9121" d="M96.479,24.28c-2.621-7.516-9.495-12.882-17.563-12.882S63.975,16.765,61.354,24.28H96.479z"/>
	<path fill="#DB9121" d="M183.461,19.378c-5.389-11.174-19.529-19.151-36.127-19.151c-16.596,0-30.738,7.977-36.127,19.151H183.461z
		"/>
	<path fill="#D88044" d="M74.793,30C69.404,15.024,55.262,4.334,38.667,4.334C22.069,4.334,7.929,15.024,2.539,30H74.793z"/>
</g>
</svg>
