<?xml version="1.0" encoding="utf-8"?>
<!-- Generator: Adobe Illustrator 16.0.0, SVG Export Plug-In . SVG Version: 6.00 Build 0)  -->
<!DOCTYPE svg PUBLIC "-//W3C//DTD SVG 1.1//EN" "http://www.w3.org/Graphics/SVG/1.1/DTD/svg11.dtd">
<svg version="1.1" id="Layer_1" xmlns="http://www.w3.org/2000/svg" xmlns:xlink="http://www.w3.org/1999/xlink" x="0px" y="0px"
	 width="140px" height="64px" viewBox="8 13 140 64" enable-background="new 8 13 140 64" xml:space="preserve">
<g>
	<g>
		
			<rect x="12.698" y="61.221" transform="matrix(-1 0.0042 -0.0042 -1 62.8925 137.1785)" fill="#E6B88B" width="37.209" height="14.869"/>
		<polygon fill="#C65527" points="22.925,44.414 10.679,55.328 9.584,57.5 49.896,57.332 49.806,44.303 		"/>
		<path fill="#F8B727" d="M28.659,42.365c-2.546,0.011-4.437-1.89-4.135-3.572l0.001-0.005c0.154,0.049,0.315,0.076,0.487,0.076
			c0.835-0.004,1.511-0.619,1.506-1.373c-0.001-0.755-0.682-1.363-1.518-1.359c-0.083,0-0.163,0.01-0.24,0.021l-0.001-0.004
			c-0.015,0.002-0.025,0.006-0.039,0.008c-0.019,0.004-0.032,0.006-0.048,0.01c-3.621,0.582-1.749,8.247-1.749,8.247l26.881-0.111
			l-0.009-2.024C49.797,42.277,31.208,42.355,28.659,42.365z"/>
		<polygon fill="#B83C2B" points="9.584,57.5 12.667,61.299 49.876,61.145 49.859,57.332 		"/>
		<rect x="12.729" y="76.09" fill="#B83C2B" width="37.209" height="0.91"/>
		<rect x="18" y="63.484" transform="matrix(-1 0.0042 -0.0042 -1 43.7235 134.5517)" fill="#68381B" width="7.44" height="7.675"/>
		
			<rect x="18.748" y="64.249" transform="matrix(-1 0.0043 -0.0043 -1 43.7305 134.5453)" fill="#F8B727" width="5.948" height="6.141"/>
		<rect x="21.416" y="64.252" fill="#68381B" width="0.605" height="6.139"/>
		<rect x="19.749" y="64.26" fill="#68381B" width="0.606" height="6.137"/>
		<rect x="23.067" y="64.244" fill="#68381B" width="0.605" height="6.141"/>
		
			<rect x="38.473" y="63.4" transform="matrix(-1 0.0042 -0.0042 -1 84.6645 134.2957)" fill="#68381B" width="7.437" height="7.673"/>
		
			<rect x="39.214" y="64.168" transform="matrix(-1 0.0039 -0.0039 -1 84.641 134.3089)" fill="#F8B727" width="5.949" height="6.14"/>
		<rect x="41.887" y="64.166" fill="#68381B" width="0.606" height="6.139"/>
		<rect x="40.22" y="64.172" fill="#68381B" width="0.608" height="6.14"/>
		<rect x="43.538" y="64.159" fill="#68381B" width="0.606" height="6.14"/>
		<g>
			<line fill="none" x1="36.666" y1="56.332" x2="39.299" y2="44.346"/>
			<line fill="none" x1="31.261" y1="56.434" x2="35.583" y2="44.36"/>
			<line fill="none" x1="25.521" y1="56.467" x2="31.347" y2="44.379"/>
			<line fill="none" x1="20.122" y1="56.424" x2="27.528" y2="44.395"/>
			<line fill="none" x1="14.773" y1="56.514" x2="23.912" y2="44.409"/>
			<line fill="none" x1="42.14" y1="56.1" x2="43.197" y2="44.33"/>
			<line fill="none" x1="47.412" y1="56.289" x2="47.045" y2="44.314"/>
		</g>
		<g>
			<path fill="#76382A" d="M52.577,57.32c-0.004-1.482-1.214-2.68-2.699-2.672c-1.484,0.004-2.681,1.213-2.676,2.695L52.577,57.32z"
				/>
			<path fill="#76382A" d="M47.202,57.344c-0.005-1.482-1.214-2.68-2.697-2.674s-2.685,1.215-2.677,2.694L47.202,57.344z"/>
			<path fill="#76382A" d="M41.828,57.365c-0.008-1.48-1.212-2.68-2.698-2.674c-1.481,0.008-2.681,1.215-2.675,2.697L41.828,57.365z
				"/>
			<path fill="#76382A" d="M36.455,57.389c-0.006-1.482-1.214-2.682-2.699-2.674c-1.482,0.006-2.682,1.215-2.676,2.694
				L36.455,57.389z"/>
			<path fill="#76382A" d="M31.08,57.41c-0.006-1.48-1.215-2.68-2.698-2.674s-2.682,1.215-2.676,2.697L31.08,57.41z"/>
			<path fill="#76382A" d="M25.706,57.434c-0.006-1.482-1.213-2.682-2.698-2.674c-1.484,0.006-2.681,1.215-2.677,2.695
				L25.706,57.434z"/>
			<path fill="#76382A" d="M20.331,57.455c-0.004-1.479-1.213-2.68-2.699-2.674c-1.482,0.006-2.679,1.215-2.673,2.695L20.331,57.455
				z"/>
			<path fill="#76382A" d="M14.959,57.477c-0.005-1.48-1.215-2.678-2.7-2.672c-1.482,0.006-2.681,1.213-2.675,2.695L14.959,57.477z"
				/>
		</g>
		<path fill="#51221A" d="M50.102,55.145c0.006,1.084-1.24,1.74-1.24,1.74l3.289,0.059C52.151,56.943,51.75,55.137,50.102,55.145z"
			/>
		<path fill="#51221A" d="M44.649,55.166c0.002,1.086-1.243,1.74-1.243,1.74l3.292,0.061C46.697,56.967,46.296,55.16,44.649,55.166z
			"/>
		<path fill="#51221A" d="M39.239,55.189c0.003,1.086-1.243,1.74-1.243,1.74l3.29,0.061C41.286,56.99,40.886,55.182,39.239,55.189z"
			/>
		<path fill="#51221A" d="M33.783,55.213c0.005,1.084-1.239,1.74-1.239,1.74l3.291,0.061C35.835,57.014,35.43,55.207,33.783,55.213z
			"/>
		<path fill="#51221A" d="M28.462,55.236c0.004,1.082-1.243,1.736-1.243,1.736l3.291,0.062
			C30.51,57.035,30.111,55.227,28.462,55.236z"/>
		<path fill="#51221A" d="M23.008,55.256c0.004,1.086-1.242,1.74-1.242,1.74l3.292,0.061C25.058,57.057,24.655,55.25,23.008,55.256z
			"/>
		<path fill="#51221A" d="M17.687,55.279c0.003,1.086-1.244,1.74-1.244,1.74l3.292,0.061C19.733,57.08,19.332,55.273,17.687,55.279z
			"/>
		<path fill="#51221A" d="M12.231,55.303c0.005,1.084-1.242,1.74-1.242,1.74l3.291,0.061C14.28,57.104,13.878,55.297,12.231,55.303z
			"/>
	</g>
	<g>
		
			<rect x="106.19" y="60.824" transform="matrix(1 -0.0041 0.0041 1 -0.2784 0.5115)" fill="#E6B88B" width="37.209" height="14.869"/>
		<polygon fill="#C65527" points="132.969,43.953 145.305,54.768 146.416,56.93 106.109,57.098 106.086,44.066 		"/>
		<path fill="#F8B727" d="M127.217,41.955c2.545-0.011,4.42-1.926,4.104-3.607l-0.002-0.005c-0.149,0.049-0.313,0.081-0.485,0.081
			c-0.835,0.004-1.515-0.606-1.519-1.36c-0.002-0.756,0.674-1.368,1.51-1.373c0.08,0.001,0.16,0.009,0.24,0.019v-0.004
			c0.014,0.002,0.024,0.007,0.039,0.009c0.018,0.002,0.028,0.005,0.047,0.008c3.625,0.553,1.817,8.231,1.817,8.231l-26.883,0.112
			l-0.008-2.023C106.078,42.042,124.665,41.965,127.217,41.955z"/>
		<polygon fill="#B83C2B" points="146.416,56.93 143.367,60.754 106.156,60.91 106.141,57.098 		"/>
		<path fill="#B83C2B" d="M143.172,76.533c0.09,0,0.176,0.004,0.262,0.008l-0.004-0.918l-37.211,0.154l0.004,0.91L143.172,76.533z"
			/>
		
			<rect x="130.646" y="63.007" transform="matrix(1 -0.0039 0.0039 1 -0.2622 0.5297)" fill="#68381B" width="7.439" height="7.676"/>
		
			<rect x="131.392" y="63.773" transform="matrix(1 -0.0039 0.0039 1 -0.2623 0.5299)" fill="#F8B727" width="5.949" height="6.141"/>
		<rect x="134.061" y="63.78" fill="#68381B" width="0.605" height="6.14"/>
		<rect x="135.727" y="63.772" fill="#68381B" width="0.607" height="6.142"/>
		<rect x="132.408" y="63.787" fill="#68381B" width="0.607" height="6.141"/>
		<rect x="110.171" y="63.1" transform="matrix(1 -0.0042 0.0042 1 -0.2802 0.479)" fill="#68381B" width="7.439" height="7.674"/>
		
			<rect x="110.914" y="63.869" transform="matrix(1 -0.0044 0.0044 1 -0.2954 0.5052)" fill="#F8B727" width="5.952" height="6.14"/>
		<rect x="113.59" y="63.865" fill="#68381B" width="0.605" height="6.139"/>
		<rect x="115.26" y="63.859" fill="#68381B" width="0.602" height="6.139"/>
		<rect x="111.938" y="63.873" fill="#68381B" width="0.606" height="6.139"/>
		<g>
			<line fill="none" x1="119.326" y1="55.988" x2="116.592" y2="44.023"/>
			<line fill="none" x1="124.73" y1="56.043" x2="120.311" y2="44.008"/>
			<line fill="none" x1="130.473" y1="56.029" x2="124.545" y2="43.989"/>
			<line fill="none" x1="135.871" y1="55.941" x2="128.363" y2="43.973"/>
			<line fill="none" x1="141.221" y1="55.988" x2="131.979" y2="43.959"/>
			<line fill="none" x1="113.85" y1="55.801" x2="112.695" y2="44.039"/>
			<line fill="none" x1="108.578" y1="56.035" x2="108.848" y2="44.055"/>
		</g>
		<g>
			<path fill="#76382A" d="M103.424,57.109c-0.006-1.482,1.191-2.689,2.678-2.697c1.482-0.006,2.689,1.193,2.695,2.674
				L103.424,57.109z"/>
			<path fill="#76382A" d="M108.797,57.086c-0.006-1.479,1.193-2.688,2.676-2.694c1.486-0.007,2.693,1.19,2.699,2.672
				L108.797,57.086z"/>
			<path fill="#76382A" d="M114.172,57.063c-0.006-1.48,1.195-2.689,2.676-2.695c1.486-0.006,2.693,1.193,2.699,2.674
				L114.172,57.063z"/>
			<path fill="#76382A" d="M119.547,57.041c-0.006-1.479,1.193-2.688,2.676-2.695c1.484-0.008,2.691,1.191,2.697,2.675
				L119.547,57.041z"/>
			<path fill="#76382A" d="M124.92,57.02c-0.006-1.482,1.191-2.689,2.676-2.697c1.486-0.006,2.693,1.193,2.699,2.674L124.92,57.02z"
				/>
			<path fill="#76382A" d="M130.295,56.996c-0.006-1.479,1.191-2.688,2.674-2.695c1.484-0.006,2.691,1.191,2.699,2.675
				L130.295,56.996z"/>
			<path fill="#76382A" d="M135.668,56.975c-0.008-1.482,1.191-2.689,2.678-2.697c1.482-0.006,2.691,1.193,2.697,2.674
				L135.668,56.975z"/>
			<path fill="#76382A" d="M141.043,56.951c-0.006-1.48,1.191-2.689,2.676-2.695c1.482-0.006,2.69,1.191,2.697,2.674L141.043,56.951
				z"/>
		</g>
		<path fill="#51221A" d="M105.881,54.912c0.006,1.084,1.256,1.729,1.256,1.729l-3.291,0.088
			C103.846,56.729,104.232,54.918,105.881,54.912z"/>
		<path fill="#51221A" d="M111.332,54.889c0.006,1.084,1.258,1.729,1.258,1.729l-3.291,0.089
			C109.299,56.707,109.686,54.896,111.332,54.889z"/>
		<path fill="#51221A" d="M116.742,54.865c0.006,1.086,1.258,1.73,1.258,1.73l-3.287,0.088
			C114.713,56.684,115.096,54.873,116.742,54.865z"/>
		<path fill="#51221A" d="M122.197,54.844c0.006,1.084,1.258,1.729,1.258,1.729l-3.291,0.088
			C120.164,56.66,120.551,54.852,122.197,54.844z"/>
		<path fill="#51221A" d="M127.521,54.822c0.003,1.084,1.256,1.729,1.256,1.729l-3.291,0.088
			C125.486,56.639,125.873,54.828,127.521,54.822z"/>
		<path fill="#51221A" d="M132.975,54.799c0.004,1.084,1.256,1.729,1.256,1.729l-3.289,0.086
			C130.941,56.615,131.326,54.807,132.975,54.799z"/>
		<path fill="#51221A" d="M138.297,54.775c0.004,1.086,1.258,1.73,1.258,1.73l-3.291,0.088
			C136.264,56.594,136.65,54.783,138.297,54.775z"/>
		<path fill="#51221A" d="M143.754,54.754c0.004,1.084,1.254,1.73,1.254,1.73l-3.291,0.086
			C141.717,56.57,142.104,54.76,143.754,54.754z"/>
	</g>
	
		<rect x="64.649" y="54.131" transform="matrix(-0.0042 -1 1 -0.0042 14.9274 141.7223)" fill="#9D262B" width="26.758" height="18.595"/>
	
		<rect x="64.767" y="55.051" transform="matrix(-0.0042 -1 1 -0.0042 14.8023 141.8389)" fill="#75141C" width="26.512" height="16.996"/>
	
		<rect x="53.331" y="63.55" transform="matrix(-0.0041 -1 1 -0.0041 -0.551 130.4601)" fill="#E6B88B" width="22.713" height="3.908"/>
	<polygon fill="#E6B88B" points="68.716,76.844 68.692,54.133 66.597,54.141 66.691,76.854 	"/>
	<polygon fill="#C5804A" points="55.944,76.898 55.815,46.092 60.699,46.069 60.693,44.114 95.197,43.971 95.209,45.928 
		100.094,45.904 100.221,76.713 106.223,76.688 106.035,31.922 49.755,32.157 49.94,76.922 	"/>
	<polygon fill="#C65527" points="62.782,76.869 62.671,49.83 67.276,49.813 67.267,47.439 88.652,47.35 88.663,49.723 
		93.268,49.703 93.383,76.74 100.221,76.713 100.094,45.904 95.209,45.928 95.197,43.971 60.693,44.114 60.699,46.069 
		55.815,46.092 55.944,76.898 	"/>
	<polygon fill="#E6B88B" points="88.663,49.723 88.652,47.35 77.959,47.395 67.267,47.439 67.276,49.813 62.671,49.83 
		62.689,54.158 68.692,54.133 70.776,52.029 77.979,52 85.184,51.971 87.285,54.055 93.287,54.031 93.268,49.703 	"/>
	
		<rect x="80.023" y="63.438" transform="matrix(-0.0042 -1 1 -0.0042 26.37 157.0463)" fill="#E6B88B" width="22.709" height="3.91"/>
	<polygon fill="#E6B88B" points="89.473,76.758 89.377,54.047 87.285,54.055 87.449,76.766 	"/>
	
		<rect x="56.683" y="66.889" transform="matrix(-0.0042 -1 1 -0.0042 -16.7096 133.8879)" fill="#B83C2B" width="3.25" height="16.749"/>
	
		<rect x="96.215" y="66.724" transform="matrix(-0.0042 -1 1 -0.0042 23.1527 173.2527)" fill="#B83C2B" width="3.248" height="16.75"/>
	<path fill="none" d="M77.979,52c0.142,8.119,0.176,16.443,0.102,24.482"/>
	<path fill="none" d="M80.586,32.027c0.006,1.485-1.195,2.692-2.678,2.699c-1.486,0.007-2.691-1.192-2.697-2.677
		c-0.008-1.482,1.189-2.691,2.672-2.697C79.369,29.345,80.576,30.545,80.586,32.027z"/>
	<polygon fill="#C65527" points="102.125,21.489 77.851,21.59 53.579,21.691 44.051,30.02 48.337,32.164 77.896,32.041 
		107.453,31.917 111.723,29.735 	"/>
	<polygon fill="#002CC9" points="77.915,36.671 74.726,36.686 74.763,45.412 77.951,45.398 81.139,45.385 81.102,36.657 	"/>
	<path fill="#F8B727" d="M100.48,13.257c-0.012-0.003-0.027-0.005-0.043-0.01c-0.014-0.002-0.024-0.005-0.037-0.008l-0.001,0.006
		c-0.069-0.011-0.144-0.022-0.216-0.021c-0.754,0.003-1.361,0.618-1.359,1.373c0.002,0.756,0.617,1.363,1.373,1.36
		c0.154,0,0.299-0.03,0.438-0.081l0.002,0.006c0.287,1.68-1.407,3.597-3.709,3.607c-2.301,0.01-19.083,0.079-19.083,0.079
		s-16.783,0.069-19.084,0.079c-2.303,0.012-4.011-1.893-3.737-3.576v-0.006c0.137,0.049,0.286,0.078,0.439,0.077
		c0.756-0.002,1.366-0.616,1.364-1.371c-0.005-0.755-0.62-1.365-1.375-1.362c-0.075,0-0.148,0.013-0.217,0.023l0.002-0.005
		c-0.012,0.001-0.024,0.007-0.037,0.007c-0.016,0.005-0.029,0.008-0.043,0.012c-3.27,0.579-1.575,8.244-1.575,8.244l24.271-0.101
		l24.275-0.101C102.125,21.489,103.754,13.812,100.48,13.257z"/>
	<g>
		<line fill="none" x1="69.719" y1="31.312" x2="71.771" y2="21.616"/>
		<line fill="none" x1="64.315" y1="31.238" x2="67.777" y2="21.632"/>
		<line fill="none" x1="59.273" y1="31.134" x2="63.982" y2="21.648"/>
		<line fill="none" x1="53.56" y1="31.271" x2="60.189" y2="21.664"/>
		<line fill="none" x1="75.376" y1="31.114" x2="75.564" y2="21.6"/>
		<line fill="none" x1="48.552" y1="31.1" x2="56.297" y2="21.68"/>
		<line fill="none" x1="86.063" y1="31.242" x2="83.934" y2="21.565"/>
		<line fill="none" x1="91.469" y1="31.125" x2="87.926" y2="21.548"/>
		<line fill="none" x1="96.512" y1="30.979" x2="91.721" y2="21.532"/>
		<line fill="none" x1="102.221" y1="31.068" x2="95.514" y2="21.518"/>
		<line fill="none" x1="80.407" y1="31.094" x2="80.139" y2="21.582"/>
		<line fill="none" x1="107.229" y1="30.855" x2="99.408" y2="21.501"/>
	</g>
	<g>
		<g>
			<circle fill="#76382A" cx="72.522" cy="32.062" r="2.688"/>
			<circle fill="#76382A" cx="67.147" cy="32.083" r="2.687"/>
			<path fill="#76382A" d="M64.46,32.095c0.006,1.484-1.192,2.692-2.678,2.699c-1.481,0.006-2.691-1.192-2.698-2.676
				c-0.005-1.484,1.194-2.692,2.676-2.699C63.246,29.414,64.454,30.611,64.46,32.095z"/>
			<circle fill="#76382A" cx="56.398" cy="32.129" r="2.686"/>
			<circle fill="#76382A" cx="51.025" cy="32.151" r="2.688"/>
			<circle fill="#76382A" cx="45.651" cy="32.174" r="2.687"/>
			<path fill="#76382A" d="M75.209,32.049c0.006,1.485,1.212,2.685,2.698,2.678c1.483-0.007,2.683-1.215,2.674-2.7
				c-0.008-1.481-1.213-2.682-2.699-2.674C76.4,29.358,75.2,30.567,75.209,32.049z"/>
			<circle fill="#76382A" cx="83.27" cy="32.017" r="2.688"/>
			<path fill="#76382A" d="M85.957,32.005c0.004,1.485,1.215,2.683,2.697,2.677c1.482-0.006,2.682-1.215,2.677-2.698
				c-0.007-1.482-1.218-2.682-2.696-2.676C87.148,29.314,85.949,30.523,85.957,32.005z"/>
			<path fill="#76382A" d="M91.331,31.983c0.005,1.483,1.212,2.683,2.696,2.676c1.484-0.006,2.686-1.214,2.68-2.699
				c-0.01-1.482-1.217-2.682-2.701-2.676C92.521,29.292,91.324,30.501,91.331,31.983z"/>
			<circle fill="#76382A" cx="99.393" cy="31.95" r="2.686"/>
			<circle fill="#76382A" cx="104.766" cy="31.928" r="2.688"/>
			<circle fill="#76382A" cx="110.139" cy="31.905" r="2.687"/>
		</g>
		<g>
			<path fill="#51221A" d="M109.854,29.837c-0.352,0-0.689,0.055-0.998,0.15c0.988,0.295,1.691,1.021,1.693,1.876
				c0.002,0.853-0.693,1.586-1.679,1.888c0.312,0.094,0.646,0.146,1,0.145c1.484-0.006,2.687-0.922,2.681-2.041
				C112.547,30.732,111.338,29.83,109.854,29.837z"/>
		</g>
		<g>
			<path fill="#51221A" d="M104.346,29.858c-0.355,0.001-0.691,0.057-1.002,0.15c0.99,0.297,1.692,1.022,1.696,1.877
				c0.003,0.852-0.692,1.586-1.682,1.887c0.312,0.095,0.646,0.146,1.002,0.145c1.485-0.006,2.685-0.919,2.68-2.039
				C107.037,30.756,105.83,29.854,104.346,29.858z"/>
		</g>
		<g>
			<path fill="#51221A" d="M98.932,29.881c-0.354,0.001-0.691,0.056-1,0.151c0.988,0.297,1.688,1.021,1.692,1.876
				c0.003,0.853-0.69,1.586-1.678,1.889c0.31,0.093,0.647,0.146,1.002,0.145c1.481-0.007,2.685-0.921,2.679-2.042
				C101.621,30.778,100.414,29.875,98.932,29.881z"/>
		</g>
		<g>
			<path fill="#51221A" d="M93.422,29.903c-0.354,0.002-0.689,0.057-1.002,0.152c0.99,0.295,1.691,1.021,1.695,1.875
				s-0.691,1.587-1.68,1.889c0.312,0.094,0.648,0.146,1.002,0.145c1.484-0.006,2.684-0.92,2.68-2.041
				C96.113,30.801,94.906,29.898,93.422,29.903z"/>
		</g>
		<g>
			<path fill="#51221A" d="M88.295,29.925c-0.354,0.002-0.69,0.057-1,0.152c0.99,0.295,1.689,1.021,1.693,1.875
				c0.004,0.854-0.689,1.586-1.678,1.889c0.31,0.093,0.646,0.146,1,0.144c1.486-0.006,2.684-0.919,2.678-2.041
				C90.986,30.821,89.779,29.919,88.295,29.925z"/>
		</g>
		<g>
			<path fill="#51221A" d="M82.785,29.948c-0.354,0.001-0.689,0.056-1,0.15c0.99,0.297,1.689,1.023,1.693,1.877
				s-0.689,1.586-1.678,1.889c0.311,0.093,0.646,0.146,1.002,0.144c1.485-0.005,2.682-0.919,2.678-2.04
				C85.475,30.845,84.271,29.942,82.785,29.948z"/>
		</g>
		<g>
			<path fill="#51221A" d="M77.421,29.971c-0.355,0.001-0.693,0.056-1.002,0.151c0.989,0.296,1.69,1.021,1.693,1.875
				c0.005,0.853-0.69,1.587-1.677,1.889c0.31,0.094,0.647,0.146,1.002,0.145c1.482-0.006,2.683-0.92,2.677-2.041
				C80.111,30.866,78.904,29.964,77.421,29.971z"/>
		</g>
		<g>
			<path fill="#51221A" d="M71.908,29.995c-0.352,0.001-0.689,0.055-0.999,0.151c0.989,0.295,1.691,1.021,1.694,1.875
				c0.004,0.854-0.693,1.586-1.678,1.889c0.31,0.094,0.648,0.146,1,0.145c1.486-0.007,2.685-0.922,2.68-2.041
				C74.601,30.892,73.394,29.987,71.908,29.995z"/>
		</g>
		<g>
			<path fill="#51221A" d="M66.543,30.017c-0.353,0.003-0.689,0.058-1.001,0.151c0.99,0.295,1.693,1.021,1.696,1.875
				s-0.693,1.588-1.679,1.891c0.312,0.092,0.648,0.145,1.002,0.143c1.483-0.006,2.685-0.92,2.678-2.04
				C69.235,30.914,68.028,30.011,66.543,30.017z"/>
		</g>
		<g>
			<path fill="#51221A" d="M61.035,30.039c-0.356,0.002-0.692,0.057-1.001,0.152c0.989,0.296,1.691,1.021,1.694,1.876
				c0.004,0.853-0.693,1.586-1.68,1.889c0.312,0.093,0.647,0.145,1.002,0.144c1.483-0.006,2.685-0.921,2.68-2.041
				C63.724,30.938,62.518,30.033,61.035,30.039z"/>
		</g>
		<g>
			<path fill="#51221A" d="M56.051,30.061c-0.352,0.002-0.69,0.057-1,0.152c0.99,0.295,1.691,1.021,1.693,1.875
				c0.004,0.853-0.689,1.586-1.678,1.889c0.311,0.094,0.649,0.146,1.002,0.145c1.482-0.007,2.681-0.921,2.677-2.042
				C58.741,30.957,57.534,30.054,56.051,30.061z"/>
		</g>
		<g>
			<path fill="#51221A" d="M50.541,30.083c-0.353,0.001-0.69,0.056-0.999,0.15c0.988,0.297,1.69,1.022,1.694,1.875
				c0.005,0.854-0.692,1.588-1.68,1.891c0.312,0.094,0.649,0.145,1.003,0.143c1.483-0.006,2.681-0.919,2.677-2.04
				C53.233,30.98,52.025,30.078,50.541,30.083z"/>
		</g>
		<g>
			<path fill="#51221A" d="M45.224,30.105c-0.354,0.002-0.691,0.055-1.001,0.15c0.99,0.297,1.69,1.023,1.695,1.877
				c0.005,0.854-0.692,1.587-1.68,1.889c0.312,0.092,0.647,0.146,1.004,0.145c1.48-0.006,2.682-0.921,2.677-2.042
				C47.914,31.001,46.706,30.1,45.224,30.105z"/>
		</g>
	</g>
	<path fill="#C5804A" d="M77.289,63.883c0,0.479-0.385,0.867-0.865,0.871c-0.479,0-0.869-0.385-0.871-0.863
		c-0.001-0.482,0.385-0.871,0.863-0.873C76.896,63.016,77.286,63.402,77.289,63.883z"/>
	<path fill="#C5804A" d="M80.51,63.869c0.002,0.479-0.386,0.867-0.865,0.869c-0.477,0.004-0.867-0.383-0.867-0.861
		c-0.004-0.479,0.385-0.871,0.861-0.873C80.119,63.002,80.508,63.389,80.51,63.869z"/>
</g>
</svg>
