<?xml version="1.0" encoding="utf-8"?>
<!-- Generator: Adobe Illustrator 16.0.0, SVG Export Plug-In . SVG Version: 6.00 Build 0)  -->
<!DOCTYPE svg PUBLIC "-//W3C//DTD SVG 1.1//EN" "http://www.w3.org/Graphics/SVG/1.1/DTD/svg11.dtd">
<svg version="1.1" id="图层_1" xmlns="http://www.w3.org/2000/svg" xmlns:xlink="http://www.w3.org/1999/xlink" x="0px" y="0px"
	 width="78px" height="78px" viewBox="0 0 78 78" enable-background="new 0 0 78 78" xml:space="preserve">
<g>
	<path fill="#FFC800" d="M0,39c0,21.542,17.459,39,38.999,39S78,60.542,78,39C78,17.459,60.539,0,38.999,0S0,17.459,0,39z"/>
	<path fill="#F1A500" d="M8.001,39c0,17.12,13.879,31.005,30.998,31.005c17.119,0,31.005-13.885,31.005-31.005
		c0-17.119-13.886-30.999-31.005-30.999C21.881,8.001,8.001,21.881,8.001,39z"/>
	<path fill="#C87300" d="M33.09,32.29c0.724,1.142,1.699,1.567,3.161,2.215c0.012,0.007,0.273,0.116,0.273,0.116
		c0.606,0.241,2.614,1.073,3.979,1.686l0.686,0.267c4.197,1.669,9.943,3.938,11.388,8.033c1.31,3.729,0.09,7.891-3.114,10.621
		c-1.837,1.565-4.797,2.542-8.268,2.777v3.138c0,0.51-0.432,0.935-0.97,0.935h-3.337c-0.54,0-0.972-0.425-0.972-0.935v-3.354
		c-4.342-0.637-8.727-2.403-10.748-5.503c-0.503-0.775-0.479-1.771,0.072-2.729c0.626-1.086,2.016-2.184,3.453-2.184
		c0.848,0,1.571,0.389,2.032,1.092c0.048,0.085,0.104,0.157,0.165,0.225c0.241,0.249,0.362,0.363,0.496,0.479
		c0.905,0.746,2.341,1.558,3.343,1.897c1.687,0.554,3.574,0.869,5.167,0.869c1.796,0,3.245-0.396,4.198-1.136
		c1.237-0.965,1.592-2.9,0.795-4.288c-0.462-0.813-1.517-1.645-2.82-2.251l-1.479-0.673c-2.991-1.365-9.216-4.205-10.507-4.86
		c-1.65-0.83-3.058-2.256-3.949-4.003c-1.844-3.615-0.945-8.019,2.237-10.955c1.889-1.747,4.544-2.936,7.546-3.421v-3.49
		c0-0.514,0.432-0.928,0.972-0.928h3.337c0.538,0,0.97,0.414,0.97,0.928v3.379c0.923,0.105,1.826,0.256,2.699,0.479
		c2.669,0.717,7.4,2.126,8.937,4.473c0.51,0.776,0.479,1.778-0.073,2.729c-0.625,1.087-2.725,2.717-4.06,1.686
		c-5.155-3.974-8.939-3.396-10.033-3.396c-1.39,0-3.41,0.308-5.12,1.759C32.441,28.907,32.228,30.926,33.09,32.29z"/>
</g>
</svg>
