<?xml version="1.0" encoding="utf-8"?>
<!-- Generator: Adobe Illustrator 16.0.0, SVG Export Plug-In . SVG Version: 6.00 Build 0)  -->
<!DOCTYPE svg PUBLIC "-//W3C//DTD SVG 1.1//EN" "http://www.w3.org/Graphics/SVG/1.1/DTD/svg11.dtd">
<svg version="1.1" id="图层_1" xmlns="http://www.w3.org/2000/svg" xmlns:xlink="http://www.w3.org/1999/xlink" x="0px" y="0px"
	 width="214px" height="214px" viewBox="0 0 214 214" enable-background="new 0 0 214 214" xml:space="preserve">
<g>
	<path fill="#9A2181" d="M106.999,0.355C48.056,0.355,0.351,48.093,0.351,106.996c0,58.906,47.705,106.648,106.648,106.648
		c58.902,0,106.65-47.742,106.65-106.648C213.649,48.093,165.901,0.355,106.999,0.355 M106.999,199.52
		c-51.15,0-92.525-41.439-92.525-92.523c0-51.087,41.375-92.516,92.525-92.516c51.09,0,92.523,41.429,92.523,92.516
		C199.522,158.08,158.089,199.52,106.999,199.52 M71.687,100.642c8.207,0,14.834-6.622,14.834-14.835
		c0-8.203-6.627-14.822-14.834-14.822s-14.834,6.619-14.834,14.822C56.853,94.02,63.479,100.642,71.687,100.642 M142.312,100.642
		c8.209,0,14.834-6.622,14.834-14.835c0-8.203-6.625-14.822-14.834-14.822c-8.207,0-14.832,6.619-14.832,14.822
		C127.479,94.02,134.104,100.642,142.312,100.642 M106.886,126.184c-25.027,0-45.865,17.508-51.148,40.945l102.41-0.013
		C152.849,143.683,131.917,126.184,106.886,126.184"/>
</g>
</svg>
