<?xml version="1.0" encoding="utf-8"?>
<!-- Generator: Adobe Illustrator 16.0.3, SVG Export Plug-In . SVG Version: 6.00 Build 0)  -->
<!DOCTYPE svg PUBLIC "-//W3C//DTD SVG 1.1//EN" "http://www.w3.org/Graphics/SVG/1.1/DTD/svg11.dtd">
<svg version="1.1" id="图层_1" xmlns="http://www.w3.org/2000/svg" xmlns:xlink="http://www.w3.org/1999/xlink" x="0px" y="0px"
	 width="657px" height="972px" viewBox="2956.5 4374 657 972" enable-background="new 2956.5 4374 657 972" xml:space="preserve">
<path fill="#FFFFFF" d="M3483.047,4923.946c-34.994-26.315-70.981-54.759-77.889-81.466
	c-15.479-59.931,65.385-89.045,99.176-131.054c72.504-90.11,30.744-234.09-42.504-290.444
	c71.795,9.211,108.031-17.143,145.223-42.504c-113.628-5.386-226.264-8.288-320.161,6.977c-2.02,0.318-4.04,0.675-6.057,1.027
	c-12.577,2.162-24.794,4.639-36.627,7.544c-6.763,1.633-13.386,3.366-19.869,5.313c-98.045,28.551-165.128,86.603-173.382,198.743
	c-10.519,142.742,103.638,224.173,244.398,208.978c-29.256,49.765,9.174,106.793,21.252,134.596
	c-166.685,11.404-328.731,52.176-329.406,208.979c-0.46,106.402,105.765,168.457,219.604,177.1
	c180.394,13.674,365.076-56.706,378.995-216.062c5.313-60.815-15.372-105.766-38.963-134.597
	C3534.157,4961.562,3508.869,4943.32,3483.047,4923.946z M3284.73,4771.64c-48.028-12.362-102.365-82.708-121.065-160.95
	c-0.072-0.284-0.107-0.568-0.18-0.851c-2.515-10.554-4.355-21.252-5.417-31.947c0-0.069-0.034-0.142-0.034-0.249
	c-3.722-37.191,1.664-74.593,20.436-107.073c22.387-38.751,76.046-67.087,138.138-42.504
	c51.996,20.612,119.152,116.426,120.497,210.466c0.039,0.529,0.039,1.097,0.039,1.629c0,3.155-0.039,6.34-0.177,9.526
	c0,0.11,0,0.214-0.038,0.322c-0.886,21.003-5.275,41.76-14.061,61.418C3402.291,4757.579,3340.693,4786.054,3284.73,4771.64z
	 M3104.088,5086.878c21.501-71.051,153.122-134.029,258.566-109.803c30.318,6.977,93.119,67.582,113.344,95.635
	c32.871,45.551,33.58,114.299-7.084,155.848C3371.014,5328.551,3047.205,5274.781,3104.088,5086.878z"/>
<rect x="2956.5" y="4374" fill="#FFFFFF" stroke="#000000" stroke-miterlimit="10" width="657" height="972"/>
</svg>
