<?xml version="1.0" encoding="utf-8"?>
<!-- Generator: Adobe Illustrator 16.0.0, SVG Export Plug-In . SVG Version: 6.00 Build 0)  -->
<!DOCTYPE svg PUBLIC "-//W3C//DTD SVG 1.1//EN" "http://www.w3.org/Graphics/SVG/1.1/DTD/svg11.dtd">
<svg version="1.1" id="图层_1" xmlns="http://www.w3.org/2000/svg" xmlns:xlink="http://www.w3.org/1999/xlink" x="0px" y="0px"
	 width="278px" height="534px" viewBox="0 0 278 534" enable-background="new 0 0 278 534" xml:space="preserve">
<g>
	<g>
		<g>
			<polygon fill="#F7C690" points="277.824,533.247 263.33,363.011 48.475,388.851 55.269,468.642 			"/>
		</g>
	</g>
	<g>
		<path fill="#FBD199" d="M79.019,351.04c-13.958,5.154-29.458-1.977-34.615-15.936L1.852,219.964
			c-5.156-13.957,1.98-29.455,15.934-34.615l8.425-3.111c13.962-5.158,29.46,1.975,34.618,15.936l42.549,115.139
			c5.158,13.959-1.979,29.453-15.934,34.611L79.019,351.04z"/>
		<path fill="#F7C690" d="M81.051,283.532c7.896,14.354,15.789,28.707,23.684,43.059c0.646-4.334,0.269-8.881-1.357-13.279
			L60.829,198.173c-5.158-13.961-20.656-21.094-34.618-15.936l-0.728,0.268C44.006,216.181,62.528,249.858,81.051,283.532z"/>
		<g>
			<path fill="#FBD199" d="M262.203,369.155l6.48-158.465c0.514-15.707,2.042-63.938-19.446-81.699
				c-9.652-7.979-23.192-7.807-33.396-1.934c-1.354-1.514-2.877-2.91-4.57-4.168c-11.556-8.582-27.174-7.738-37.741,1.125
				c-1.523-1.834-3.259-3.535-5.257-5.02c-12.879-9.566-30.806-7.434-41.155,4.477c-41.258,3.711-74.231,37.689-75.617,80.146
				L45.02,362.085c-1.494,45.928,34.538,84.385,80.466,85.877l50.833,1.658C222.251,451.116,260.703,415.087,262.203,369.155z"/>
			<path fill="#FBD199" d="M101.373,2.323c13.103,0.479,23.309,12.451,22.786,26.751l-6.822,186.952
				c-0.523,14.289-11.572,25.498-24.678,25.016l-17.138-0.625c-13.102-0.477-23.308-12.457-22.787-26.75l6.822-186.948
				C60.081,12.423,71.124,1.217,84.231,1.701L101.373,2.323z"/>
		</g>
	</g>
	<path fill="#F7C690" d="M209.518,443.872c29.941-11.809,51.569-40.506,52.686-74.717l6.48-158.465
		c0.514-15.707,2.042-63.938-19.446-81.699c-9.652-7.979-23.192-7.807-33.396-1.934c-1.354-1.514-2.877-2.91-4.57-4.168
		c-11.556-8.582-27.174-7.738-37.741,1.125c-1.523-1.834-3.259-3.535-5.257-5.02c-12.879-9.566-30.806-7.434-41.155,4.477
		c-2.171,0.195-4.315,0.492-6.436,0.852l3.476-95.249c0.522-14.3-9.684-26.272-22.786-26.751l-8.925-0.321l-6.522,216.534
		C85.925,218.536,166.205,365.128,209.518,443.872z"/>
	<g>
		<path fill="#FBD199" d="M125.471,210.8c12.801-14.736,34.98-17.373,50.91-5.539c2.475,1.838,4.62,3.941,6.506,6.213
			c13.071-10.967,32.393-12.012,46.689-1.393c2.094,1.557,3.979,3.281,5.654,5.154c10.014-5.764,22.62-7.082,33.367-2.457
			l0.086-2.088c0.514-15.707,2.042-63.938-19.446-81.699c-9.652-7.979-23.192-7.807-33.396-1.934
			c-1.354-1.514-2.877-2.91-4.57-4.168c-11.556-8.582-27.174-7.738-37.741,1.125c-1.523-1.834-3.259-3.535-5.257-5.02
			c-12.879-9.566-30.806-7.434-41.155,4.477c-2.165,0.193-4.302,0.49-6.415,0.85l-3.195,87.531
			C120.133,211.407,122.784,211.04,125.471,210.8z"/>
		<path fill="#FBD199" d="M120.704,124.321l1.104-30.303c0.011-0.283,0.009-0.564,0.013-0.848l-1.138,31.152
			C120.69,124.321,120.696,124.321,120.704,124.321z"/>
	</g>
	<path fill="#FFE9E9" d="M67.234,1.665c-1.466,3.323-2.297,6.981-2.222,10.854l0.328,17.265
		c0.268,14.299,12.088,25.677,26.391,25.403l1.08-0.02c14.303-0.273,25.677-12.091,25.402-26.387l-0.326-17.267
		c-0.075-3.874-1.041-7.5-2.635-10.762L67.234,1.665z"/>
</g>
</svg>
