<?xml version="1.0" encoding="utf-8"?>
<!-- Generator: Adobe Illustrator 16.0.0, SVG Export Plug-In . SVG Version: 6.00 Build 0)  -->
<!DOCTYPE svg PUBLIC "-//W3C//DTD SVG 1.1//EN" "http://www.w3.org/Graphics/SVG/1.1/DTD/svg11.dtd">
<svg version="1.1" id="图层_1" xmlns="http://www.w3.org/2000/svg" xmlns:xlink="http://www.w3.org/1999/xlink" x="0px" y="0px"
	 width="236px" height="402px" viewBox="0 0 236 402" enable-background="new 0 0 236 402" xml:space="preserve">
<g>
	<path fill="#F7C690" d="M149.174,1.732c47.934-0.007,86.801,38.86,86.807,86.794L236,315.185c0,47.932-38.857,86.804-86.793,86.81
		L96.161,402c-47.935,0.001-86.804-38.862-86.808-86.796L9.333,88.548C9.328,40.611,48.193,1.74,96.125,1.736L149.174,1.732z"/>
</g>
<g>
	<path fill="#FBD199" d="M163.419,244.391c33.636,38.86,29.402,97.633-9.456,131.269c-38.86,33.638-97.631,29.401-131.265-9.458
		c-33.635-38.86-29.401-97.631,9.458-131.271C71.014,201.295,129.783,205.53,163.419,244.391z"/>
	<path fill="#FBD199" d="M122.421,87.892c14.102,4.874,21.584,20.262,16.703,34.366L75.351,306.674
		c-4.878,14.102-20.263,21.582-34.366,16.704l-18.44-6.379c-14.099-4.874-21.579-20.263-16.702-34.363L69.616,98.22
		c4.88-14.104,20.261-21.583,34.36-16.703L122.421,87.892z"/>
	<path fill="#FFE9E9" d="M50.174,153.339l0.994,0.363c7.848,2.871,16.537-1.161,19.408-9.011l18.475-50.526
		c2.87-7.847-1.17-16.538-9.019-19.409l-0.994-0.363L50.174,153.339z"/>
</g>
</svg>
