<?xml version="1.0" encoding="utf-8"?>
<!-- Generator: Adobe Illustrator 16.0.0, SVG Export Plug-In . SVG Version: 6.00 Build 0)  -->
<!DOCTYPE svg PUBLIC "-//W3C//DTD SVG 1.1//EN" "http://www.w3.org/Graphics/SVG/1.1/DTD/svg11.dtd">
<svg version="1.1" id="图层_1" xmlns="http://www.w3.org/2000/svg" xmlns:xlink="http://www.w3.org/1999/xlink" x="0px" y="0px"
	 width="1974px" height="1974px" viewBox="0 0 1974 1974" enable-background="new 0 0 1974 1974" xml:space="preserve">
<g>
	<path fill="#FC7177" d="M1742.55,585.064c5.34,1.122,10.685,2.272,16.039,3.452c-8.627-15.99-18.25-31.95-28.875-47.881
		c-2.123-0.672-4.245-1.337-6.366-1.994c-1.499,4.097-3.339,8.368-5.492,12.807c-2.728-1.065-5.452-2.125-8.164-3.18
		c-3.151-3.708-6.309-7.429-9.469-11.162c-7.198-2.387-14.356-4.71-21.479-6.966c-4.189-1.997-8.351-3.983-12.483-5.959
		c-9.192-12.03-18.376-24.148-27.495-36.337c-4.287-3.117-8.521-6.23-12.702-9.335c-8.938-2.02-17.892-3.804-26.862-5.353
		c-0.994,2.475-2.056,4.976-3.181,7.503c1.158,3.748,2.288,7.498,3.393,11.252c3.473,3.464,6.987,6.93,10.547,10.394
		c-0.251,8.798-0.894,17.703-1.89,26.707c-6.369,0.9-12.819,1.9-19.343,2.993c1.368,9.005,2.589,18.033,3.667,27.086
		c7.826,0.838,15.666,1.75,23.518,2.731c3.643,2.587,7.314,5.175,11.016,7.764c0.478,3.293,0.932,6.592,1.363,9.895
		c-5.447,3.729-11.056,7.555-16.814,11.467c-4.469,4.495-9.083,9.058-13.834,13.683c-8.819-0.705-17.627-1.353-26.421-1.941
		c-1.812,6.838-3.742,13.706-5.778,20.602c2.239,3.689,4.488,7.378,6.752,11.065c-7.51,3.747-15.131,7.555-22.854,11.413
		c-7.539,0.628-15.094,1.286-22.661,1.972c-8.604,5.464-17.36,10.982-26.252,16.53c-0.097-0.034-26.769-13.761-29.087-14.489
		c-2.611-0.903-46.138-12.197-45.967-12.061c-0.128-0.062-18.34-18.136-19.603-20.511c-1.498-2.486-10.202-15.658-10.14-15.63
		c-11.497-1.43-22.887-2.711-34.163-3.827c6.221-9.553,12.341-19.158,18.321-28.802c-4.073-9.132-7.805-18.123-11.149-26.956
		c-5.343-3.268-10.521-6.422-15.522-9.455c-10.824,8.279-21.979,16.554-33.424,24.779c-1.693,5.079-3.352,10.156-4.975,15.234
		c-3.793,0.459-7.582,0.938-11.367,1.436c-4.021,3.031-8.073,6.049-12.155,9.055c-3.673,3.261-7.37,6.507-11.089,9.735
		c-5.637,0.296-11.253,0.639-16.851,1.031c-3.697,9.44-7.204,18.873-10.517,28.299c-9.691,7.342-19.491,14.553-29.369,21.604
		c-13.533-1.794-26.83-3.256-39.876-4.341c-7.136,6.717-14.256,13.307-21.34,19.759c-2.548,8.953-4.712,17.959-6.505,27.019
		c6.169,6.515,12.73,13.362,19.636,20.512c2.6,2.318,5.237,4.673,7.912,7.063c-2.261,9.143-4.259,18.274-5.992,27.393
		c-3.106,1.333-6.213,2.646-9.319,3.939c-3.104,3.934-6.169,7.82-9.186,11.658c1.734,4.676,3.556,9.402,5.462,14.175
		c8.657,7.174,17.519,14.602,26.543,22.252c4.084-0.434,8.169-0.888,12.257-1.362c3.397,5.015,6.863,10.091,10.39,15.227
		c9.229,9.815,18.673,19.898,28.266,30.214c12.182,4.257,24.374,8.525,36.567,12.782c10.713-1.406,21.453-2.975,32.217-4.691
		c1.944,4.469,3.911,8.956,5.896,13.46c9.065,0.671,18.136,1.275,27.207,1.813c8.176-8.716,16.479-17.62,24.858-26.676
		c6.916,5.811,13.852,11.656,20.791,17.521c7.593,5.198,15.188,10.408,22.772,15.615c-1.483,4.139-2.955,8.271-4.416,12.397
		c1.619,7.91,3.255,15.84,4.901,23.791c-4.943,5.152-9.843,10.254-14.691,15.298c1.478,5.492,2.962,10.995,4.448,16.51
		c6.031,0.929,12.061,1.817,18.088,2.664c1.391,11.287,2.805,22.604,4.229,33.951c10.839,4.396,21.604,8.659,32.284,12.769
		c3.862-6.281,7.787-12.598,11.761-18.94c13.993-4.44,28.125-9.184,42.377-14.18c5.468,9.254,10.813,18.477,16.003,27.648
		c10.736,0.972,21.441,1.764,32.121,2.366c4.41,4.732,8.751,9.414,13.012,14.044c5.953-1.626,11.924-3.302,17.911-5.027
		c0.359-4.433,0.698-8.862,1.017-13.29c12.663-6.114,25.445-12.385,38.326-18.77c13.904-7.671,27.934-15.455,42.057-23.294
		c11.768-14.326,23.501-28.492,35.077-42.43c6.038-15.075,11.735-29.987,17.018-44.723c4.9-2.963,9.792-5.912,14.676-8.843
		c0.379-7.501,0.623-14.996,0.733-22.481c-4.186-0.552-8.372-1.123-12.561-1.711c-3.445,0.278-6.893,0.55-10.336,0.817
		c3.676-4.032,7.322-8.036,10.936-12.01c-1.981-5.334-4.029-10.693-6.135-16.074c-4.323-9.4-8.824-18.885-13.479-28.444
		c-6.109-0.798-12.21-1.617-18.308-2.454c1.571-6.788,3.043-13.542,4.408-20.262c6.862-5.133,13.622-10.189,20.267-15.155
		c1.158-4.114,2.266-8.208,3.319-12.284c-1.897-0.407-3.793-0.815-5.688-1.225c-7.728-0.864-15.438-1.736-23.14-2.615
		c-2.597,2.965-5.227,5.951-7.892,8.956c-4.725-2.909-9.442-5.842-14.146-8.794c-6.021-1.388-12.027-2.786-18.018-4.191
		c-0.363-3.976-0.749-7.949-1.161-11.919c3.78-0.87,7.555-1.729,11.317-2.58c7.85-9.293,15.347-18.404,22.43-27.293
		c4.988,0.371,9.977,0.749,14.97,1.136c-1.628,6.069-3.396,12.19-5.292,18.362c4.614,4.207,9.234,8.387,13.856,12.535
		c6.734-5.896,13.279-11.666,19.609-17.289c4.372-9.995,8.289-19.778,11.688-29.329c5.491-1.81,10.917-3.555,16.274-5.231
		c1.557-5.785,2.909-11.482,4.04-17.087c4.507-0.496,8.988-0.955,13.438-1.373c-7.15-8.375-14.398-16.846-21.717-25.403
		C1745.923,592.077,1744.259,588.57,1742.55,585.064z"/>
	<path fill="#FC7177" d="M1570.705,1000.614c-3.527,0.161-7.056,0.299-10.584,0.415c-4.55,7.104-9.063,14.208-13.523,21.304
		c4.135,4.274,8.196,8.499,12.179,12.672c5.457-2.858,10.949-5.76,16.479-8.704c3.089-4.144,6.199-8.289,9.324-12.435
		c2.894-4.128,5.803-8.256,8.722-12.381c-2.301-0.93-4.61-1.873-6.928-2.83C1581.148,999.354,1575.926,1000.007,1570.705,1000.614z"
		/>
	<path fill="#FC7177" d="M1746.594,880.635c-2.136,0.262-4.274,0.52-6.411,0.774c-6.248,7.688-12.565,15.459-18.936,23.307
		c-2.346,5.548-4.742,11.119-7.182,16.713c1.972,3.08,3.905,6.13,5.791,9.151c2.113,1.88,4.203,3.736,6.268,5.567
		c1.066,2.11,2.111,4.207,3.137,6.29c3.606-2.064,7.221-4.131,10.838-6.198c0.385-5.093,0.693-10.195,0.922-15.306
		c3.932-10.371,7.654-20.673,11.153-30.902C1750.356,886.928,1748.495,883.795,1746.594,880.635z"/>
</g>
</svg>
