<?xml version="1.0" encoding="utf-8"?>
<!-- Generator: Adobe Illustrator 16.0.0, SVG Export Plug-In . SVG Version: 6.00 Build 0)  -->
<!DOCTYPE svg PUBLIC "-//W3C//DTD SVG 1.1//EN" "http://www.w3.org/Graphics/SVG/1.1/DTD/svg11.dtd">
<svg version="1.1" id="图层_1" xmlns="http://www.w3.org/2000/svg" xmlns:xlink="http://www.w3.org/1999/xlink" x="0px" y="0px"
	 width="252px" height="200px" viewBox="0 0 252 200" enable-background="new 0 0 252 200" xml:space="preserve">
<path opacity="0.5" fill="#FFFFFF" d="M74.731,58.976H5.346c-2.948,0-5.338,2.39-5.338,5.338v128.989
	c0,2.947,2.39,5.338,5.338,5.338h69.386c2.948,0,5.338-2.391,5.338-5.338V64.314C80.069,61.366,77.68,58.976,74.731,58.976z
	 M66.479,63.127c1.311,0,2.373,1.062,2.373,2.372s-1.063,2.373-2.373,2.373s-2.372-1.063-2.372-2.373S65.168,63.127,66.479,63.127z
	 M59.609,186.779H20.468c-0.573,0-1.039-0.465-1.039-1.037c0-0.574,0.466-1.039,1.039-1.039h39.142c0.573,0,1.038,0.465,1.038,1.039
	C60.647,186.314,60.183,186.779,59.609,186.779z M72.656,181.145H7.421V73.21h65.235V181.145z"/>
<path fill="#FFFFFF" d="M251.992,193.303v-69.387c0-2.947-2.39-5.338-5.338-5.338H117.665c-2.947,0-5.337,2.391-5.337,5.338v69.387
	c0,2.947,2.39,5.338,5.337,5.338h128.989C249.603,198.641,251.992,196.25,251.992,193.303z M248.73,185.051
	c0,1.801-1.461,3.262-3.262,3.262c-1.803,0-3.262-1.461-3.262-3.262c0-1.803,1.459-3.262,3.262-3.262
	C247.27,181.789,248.73,183.248,248.73,185.051z M124.189,178.18v-39.141c0-0.572,0.465-1.039,1.037-1.039
	c0.574,0,1.039,0.467,1.039,1.039v39.141c0,0.574-0.465,1.039-1.039,1.039C124.654,179.219,124.189,178.754,124.189,178.18z
	 M129.823,191.227v-65.234h107.935v65.234H129.823z"/>
<g>
	<path opacity="0.5" fill="#FFFFFF" d="M195.753,85.068c-0.665-14.965-5.025-28.971-12.281-41.059
		c-7.876-13.139-19.093-24.02-32.471-31.505C138.346,5.416,123.771,1.36,108.248,1.36c-0.258,0-0.51,0.024-0.77,0.024
		C91.766,1.523,77.048,5.8,64.346,13.166C51.258,20.759,40.314,31.626,32.643,44.67c-0.766,1.303-1.491,2.632-2.189,3.977h23.518
		C59.447,41.294,66.377,35.1,74.338,30.48c9.764-5.672,21.072-8.97,33.141-9.103c0.26,0,0.512-0.018,0.77-0.018
		c11.887,0,23.051,3.075,32.753,8.452c10.351,5.738,19.04,14.095,25.157,24.189c5.633,9.297,9.038,20.07,9.619,31.594
		c-5.768-2.984-9.176-9.604-9.176-9.604c4.305,17.978,18.341,26.436,18.682,26.637c0.342-0.201,14.377-8.66,18.682-26.637
		C203.965,75.992,200.939,81.894,195.753,85.068z"/>
	<polygon fill="#E2E1E0" points="190.669,102.65 190.637,102.629 190.604,102.65 	"/>
</g>
</svg>
