<?xml version="1.0" encoding="utf-8"?>
<!-- Generator: Adobe Illustrator 16.0.0, SVG Export Plug-In . SVG Version: 6.00 Build 0)  -->
<!DOCTYPE svg PUBLIC "-//W3C//DTD SVG 1.1//EN" "http://www.w3.org/Graphics/SVG/1.1/DTD/svg11.dtd">
<svg version="1.1" id="Layer_1" xmlns="http://www.w3.org/2000/svg" xmlns:xlink="http://www.w3.org/1999/xlink" viewBox="0 0 120 96" enable-background="new -1.602 -0.668 120 96" xml:space="preserve">
<g>
	<g>
		<polygon fill="#5AA8BC" points="38.748,17.364 40.82,4.876 20.26,1.465 18.189,13.953 14.159,13.283 0.833,93.593 29.74,93.593 
			42.294,17.952 		"/>
		<path fill="#5AA8BC" d="M10.587,73.663c0.013,0.004,0.025,0.007,0.039,0.012c0.05-0.001,0.101-0.001,0.151-0.001
			c0.147-0.001,0.253,0.059,0.322,0.145c1.028,0.297,2.069,0.51,3.102,0.797c1.212,0.338,2.399,0.723,3.654,0.824
			c-4.005-4.006-8.011-8.013-12.017-12.017l-1.491,8.989C6.479,72.224,8.58,73.019,10.587,73.663z"/>
		<path opacity="0.1" fill="#498AAF" enable-background="new    " d="M38.748,17.364l2.071-12.487L20.26,1.465L20.072,2.59
			c4.694,4.694,9.391,9.388,14.121,14.047c0.412,0.405-0.242,1.017-0.651,0.613c-0.175-0.172-0.348-0.345-0.522-0.517
			c-0.06,0.034-0.131,0.058-0.214,0.061c-1.425,0.056-2.72-0.403-4.114-0.605c-1.35-0.197-2.711-0.295-4.059-0.513
			c-2.563-0.413-5.188-1.055-7.639-1.922l-2.835-0.471l-0.172,1.037c4.509,4.44,8.949,8.948,13.423,13.424
			c0.408,0.409-0.243,1.021-0.651,0.613c-0.179-0.179-0.356-0.357-0.534-0.535c-0.053,0.17-0.196,0.31-0.426,0.303
			c-2.66-0.078-5.094-1.354-7.728-1.647c-1.999-0.225-4.016-0.334-5.971-0.787l-0.098,0.59c4.557,4.621,9.178,9.178,13.767,13.765
			c0.409,0.41-0.245,1.021-0.651,0.614c-0.192-0.193-0.388-0.386-0.581-0.58c-0.101,0.097-0.245,0.148-0.419,0.104
			c-1.18-0.31-2.286-0.83-3.459-1.154c-0.048-0.013-0.096-0.023-0.145-0.035c0.031,0.28-0.207,0.61-0.571,0.519
			c-1.648-0.418-3.392-0.263-5.013-0.775c-1.016-0.323-2.018-0.758-3.057-0.988c-0.542-0.015-1.083-0.044-1.622-0.175
			c-0.044-0.011-0.082-0.027-0.117-0.046l-0.117,0.707l14.037,14.035c0.409,0.41-0.245,1.021-0.651,0.613l-0.895-0.895
			c-0.062,0.037-0.13,0.062-0.214,0.066c-3.004,0.182-5.904-0.968-8.837-1.439c-1.783-0.287-3.569-0.592-5.323-1.021l-0.109,0.659
			c4.696,4.696,9.395,9.394,14.092,14.091c0.409,0.409-0.244,1.021-0.65,0.614l-0.917-0.917c-0.1,0.074-0.229,0.109-0.381,0.066
			c-2.761-0.767-5.643-0.584-8.432-1.166c-1.252-0.262-2.461-0.67-3.719-0.916c-0.633-0.123-1.261-0.25-1.879-0.414l-0.121,0.724
			c4.596,4.597,9.191,9.19,13.788,13.788c0.409,0.408-0.245,1.021-0.651,0.613l-0.58-0.58c-0.071,0.119-0.199,0.203-0.381,0.197
			c-1.347-0.041-2.604-0.426-3.895-0.785c-1.102-0.307-2.226-0.5-3.317-0.844c-0.161-0.051-0.323-0.104-0.486-0.158
			c-1.028,0.01-2.081,0.045-3.087-0.197c-1.09-0.264-2.15-0.622-3.237-0.898L4.014,74.42c6.392,6.392,12.782,12.782,19.173,19.173
			h6.554l12.554-75.642L38.748,17.364z"/>
		
			<rect x="19.103" y="2.918" transform="matrix(-0.9865 -0.1637 0.1637 -0.9865 59.9011 12.2815)" fill="#E1D2BE" width="22.707" height="1.51"/>
		<g>
			<path fill="#59687E" d="M24.475,13.024l-3.695-0.613l0.67-4.037c0.169-1.021,1.135-1.71,2.154-1.541l0,0
				c1.021,0.169,1.711,1.135,1.541,2.155L24.475,13.024z"/>
			<path fill="#59687E" d="M30.634,14.044l-3.694-0.611l0.67-4.038c0.169-1.02,1.133-1.71,2.153-1.54l0,0
				c1.02,0.169,1.711,1.133,1.54,2.151L30.634,14.044z"/>
			<path fill="#59687E" d="M36.794,15.067l-3.695-0.613l0.67-4.037c0.168-1.021,1.133-1.709,2.152-1.541l0,0
				c1.021,0.169,1.711,1.134,1.542,2.155L36.794,15.067z"/>
		</g>
		<g>
			
				<rect x="13.431" y="15.602" transform="matrix(-0.9865 -0.1637 0.1637 -0.9865 53.2563 36.6728)" fill="#E1D2BE" width="29.416" height="1.08"/>
		</g>
		<g>
			
				<rect x="11.434" y="27.629" transform="matrix(-0.9865 -0.1637 0.1637 -0.9865 47.3202 60.2383)" fill="#E1D2BE" width="29.416" height="1.08"/>
		</g>
		<g>
			
				<rect x="9.437" y="39.655" transform="matrix(-0.9865 -0.1638 0.1638 -0.9865 41.3801 83.8026)" fill="#E1D2BE" width="29.417" height="1.08"/>
		</g>
		<g>
			
				<rect x="7.439" y="51.683" transform="matrix(-0.9865 -0.1638 0.1638 -0.9865 35.442 107.3667)" fill="#E1D2BE" width="29.417" height="1.079"/>
		</g>
		<g>
			
				<rect x="5.447" y="63.707" transform="matrix(-0.9865 -0.1637 0.1637 -0.9865 29.5211 130.9262)" fill="#E1D2BE" width="29.418" height="1.079"/>
		</g>
		<g>
			
				<rect x="3.45" y="75.732" transform="matrix(-0.9865 -0.1637 0.1637 -0.9865 23.5882 154.4899)" fill="#E1D2BE" width="29.419" height="1.081"/>
		</g>
		<g>
			<path fill="#59687E" d="M16.375,18.062L16.375,18.062c-0.659-0.109-1.282,0.335-1.391,0.994l-0.856,5.162l2.384,0.397
				l0.856-5.165C17.477,18.792,17.033,18.169,16.375,18.062z"/>
			<path fill="#59687E" d="M20.17,18.691L20.17,18.691c-0.66-0.109-1.283,0.336-1.392,0.995l-0.856,5.165l2.384,0.395l0.855-5.165
				C21.271,19.423,20.826,18.8,20.17,18.691z"/>
			<path fill="#59687E" d="M23.963,19.321L23.963,19.321c-0.659-0.108-1.281,0.335-1.391,0.993l-0.856,5.165l2.383,0.396
				l0.856-5.164C25.064,20.05,24.62,19.43,23.963,19.321z"/>
			<path fill="#59687E" d="M27.756,19.95L27.756,19.95c-0.659-0.109-1.281,0.336-1.39,0.995l-0.856,5.164l2.383,0.396l0.858-5.164
				C28.857,20.683,28.413,20.06,27.756,19.95z"/>
			<path fill="#59687E" d="M31.55,20.58L31.55,20.58c-0.66-0.108-1.282,0.336-1.392,0.994l-0.856,5.165l2.384,0.396l0.857-5.164
				C32.653,21.312,32.208,20.69,31.55,20.58z"/>
			<path fill="#59687E" d="M35.344,21.209L35.344,21.209c-0.659-0.109-1.282,0.336-1.391,0.995l-0.857,5.165l2.384,0.396
				l0.857-5.165C36.446,21.942,36.002,21.319,35.344,21.209z"/>
			<path fill="#59687E" d="M39.137,21.838L39.137,21.838c-0.659-0.108-1.28,0.335-1.392,0.994l-0.856,5.164l2.385,0.396l0.858-5.164
				C40.239,22.569,39.795,21.949,39.137,21.838z"/>
		</g>
		<g>
			<path fill="#59687E" d="M14.4,29.958L14.4,29.958c-0.658-0.108-1.28,0.337-1.39,0.994l-0.856,5.165l2.383,0.396l0.857-5.165
				C15.504,30.69,15.059,30.066,14.4,29.958z"/>
			<path fill="#59687E" d="M18.193,30.586L18.193,30.586c-0.658-0.108-1.28,0.337-1.39,0.995l-0.857,5.165l2.384,0.396l0.857-5.165
				C19.298,31.318,18.852,30.697,18.193,30.586z"/>
			<path fill="#59687E" d="M21.987,31.217L21.987,31.217c-0.659-0.109-1.28,0.336-1.39,0.993l-0.857,5.165l2.384,0.396l0.856-5.165
				C23.092,31.948,22.646,31.326,21.987,31.217z"/>
			<path fill="#59687E" d="M25.781,31.847L25.781,31.847c-0.658-0.109-1.28,0.336-1.391,0.993l-0.856,5.164l2.384,0.397l0.856-5.165
				C26.885,32.578,26.439,31.955,25.781,31.847z"/>
			<path fill="#59687E" d="M29.574,32.477L29.574,32.477c-0.657-0.11-1.279,0.336-1.391,0.993l-0.856,5.164l2.385,0.396l0.856-5.164
				C30.679,33.208,30.232,32.585,29.574,32.477z"/>
			<path fill="#59687E" d="M33.368,33.105L33.368,33.105c-0.658-0.107-1.28,0.337-1.39,0.995l-0.857,5.164l2.385,0.396l0.855-5.165
				C34.472,33.836,34.026,33.214,33.368,33.105z"/>
			<path fill="#59687E" d="M37.162,33.736L37.162,33.736c-0.657-0.109-1.28,0.334-1.39,0.993l-0.856,5.164l2.384,0.396l0.856-5.164
				C38.266,34.466,37.82,33.846,37.162,33.736z"/>
		</g>
		<g>
			<path fill="#59687E" d="M12.426,41.854L12.426,41.854c-0.66-0.109-1.281,0.335-1.39,0.995l-0.856,5.164l2.383,0.395l0.856-5.164
				C13.529,42.585,13.085,41.963,12.426,41.854z"/>
			<path fill="#59687E" d="M16.22,42.483L16.22,42.483c-0.659-0.108-1.281,0.337-1.39,0.993l-0.857,5.166l2.383,0.396l0.857-5.164
				C17.322,43.213,16.879,42.592,16.22,42.483z"/>
			<path fill="#59687E" d="M20.013,43.113L20.013,43.113c-0.658-0.11-1.281,0.335-1.389,0.994l-0.857,5.164l2.383,0.396l0.857-5.165
				C21.117,43.845,20.673,43.223,20.013,43.113z"/>
			<path fill="#59687E" d="M23.807,43.742L23.807,43.742c-0.658-0.108-1.28,0.337-1.389,0.994L21.562,49.9l2.384,0.396l0.856-5.164
				C24.911,44.474,24.466,43.852,23.807,43.742z"/>
			<path fill="#59687E" d="M27.601,44.372L27.601,44.372c-0.658-0.108-1.281,0.336-1.389,0.996l-0.857,5.163l2.384,0.396
				l0.856-5.164C28.704,45.104,28.259,44.482,27.601,44.372z"/>
			<path fill="#59687E" d="M31.394,45.001L31.394,45.001c-0.658-0.108-1.279,0.337-1.389,0.994l-0.856,5.166l2.383,0.396
				l0.857-5.165C32.499,45.733,32.054,45.111,31.394,45.001z"/>
			<path fill="#59687E" d="M35.188,45.631L35.188,45.631c-0.659-0.11-1.279,0.335-1.39,0.994l-0.857,5.164l2.384,0.396l0.857-5.164
				C36.292,46.363,35.847,45.741,35.188,45.631z"/>
		</g>
		<g>
			<path fill="#59687E" d="M10.451,53.749L10.451,53.749c-0.657-0.108-1.28,0.337-1.39,0.993l-0.858,5.166l2.385,0.396l0.855-5.164
				C11.555,54.482,11.108,53.857,10.451,53.749z"/>
			<path fill="#59687E" d="M14.246,54.379L14.246,54.379c-0.658-0.11-1.282,0.335-1.392,0.994l-0.856,5.166l2.384,0.394l0.856-5.164
				C15.348,55.111,14.902,54.488,14.246,54.379z"/>
			<path fill="#59687E" d="M18.04,55.008L18.04,55.008c-0.659-0.108-1.282,0.337-1.393,0.994l-0.855,5.165l2.384,0.396l0.856-5.166
				C19.142,55.74,18.696,55.117,18.04,55.008z"/>
			<path fill="#59687E" d="M21.834,55.64L21.834,55.64c-0.659-0.109-1.281,0.334-1.391,0.992l-0.856,5.166l2.384,0.395l0.856-5.164
				C22.935,56.369,22.491,55.749,21.834,55.64z"/>
			<path fill="#59687E" d="M25.627,56.269L25.627,56.269c-0.659-0.109-1.281,0.334-1.391,0.994l-0.856,5.163l2.384,0.396
				l0.856-5.164C26.729,56.999,26.285,56.376,25.627,56.269z"/>
			<path fill="#59687E" d="M29.421,56.898L29.421,56.898c-0.659-0.108-1.281,0.336-1.391,0.994l-0.856,5.166l2.384,0.395
				l0.857-5.165C30.523,57.628,30.078,57.007,29.421,56.898z"/>
			<path fill="#59687E" d="M33.215,57.527L33.215,57.527c-0.66-0.109-1.282,0.336-1.392,0.994l-0.856,5.164l2.384,0.396l0.857-5.165
				C34.316,58.258,33.873,57.636,33.215,57.527z"/>
		</g>
		<g>
			<path fill="#59687E" d="M8.477,65.648L8.477,65.648c-0.657-0.11-1.279,0.334-1.389,0.992L6.23,71.806l2.384,0.395l0.857-5.164
				C9.582,66.376,9.136,65.755,8.477,65.648z"/>
			<path fill="#59687E" d="M12.271,66.275L12.271,66.275c-0.657-0.109-1.28,0.334-1.389,0.994l-0.857,5.164l2.383,0.396l0.857-5.165
				C13.376,67.006,12.93,66.384,12.271,66.275z"/>
			<path fill="#59687E" d="M16.064,66.904L16.064,66.904c-0.657-0.107-1.279,0.336-1.389,0.994l-0.857,5.166l2.384,0.395
				l0.857-5.164C17.169,67.636,16.723,67.015,16.064,66.904z"/>
			<path fill="#59687E" d="M19.857,67.533L19.857,67.533c-0.657-0.107-1.279,0.336-1.389,0.996l-0.858,5.164l2.385,0.396
				l0.856-5.165C20.963,68.267,20.517,67.644,19.857,67.533z"/>
			<path fill="#59687E" d="M23.652,68.165L23.652,68.165c-0.658-0.108-1.281,0.336-1.391,0.993l-0.857,5.164l2.386,0.396
				l0.856-5.164C24.756,68.896,24.311,68.273,23.652,68.165z"/>
			<path fill="#59687E" d="M27.445,68.793L27.445,68.793c-0.657-0.108-1.279,0.335-1.391,0.994l-0.856,5.163l2.385,0.396
				l0.856-5.164C28.55,69.525,28.104,68.902,27.445,68.793z"/>
			<path fill="#59687E" d="M31.239,69.423L31.239,69.423c-0.656-0.109-1.279,0.338-1.39,0.993l-0.857,5.166l2.385,0.396l0.856-5.164
				C32.343,70.154,31.897,69.533,31.239,69.423z"/>
		</g>
		<g>
			<path fill="#59687E" d="M6.566,79.574c1.456,0.242,2.44,1.617,2.198,3.074L6.947,93.593h0.998l1.929-11.615
				c0.24-1.457-0.743-2.834-2.199-3.074c-0.893-0.146-1.751,0.168-2.34,0.768C5.723,79.549,6.139,79.502,6.566,79.574z"/>
		</g>
		<g>
			<path fill="#59687E" d="M13.364,80.701c1.456,0.244,2.441,1.617,2.198,3.074l-1.629,9.817h0.998l1.741-10.489
				c0.242-1.455-0.742-2.83-2.199-3.074c-0.892-0.146-1.752,0.17-2.342,0.771C12.52,80.676,12.936,80.63,13.364,80.701z"/>
		</g>
		<g>
			<path fill="#59687E" d="M20.161,81.832c1.457,0.24,2.44,1.615,2.198,3.072l-1.441,8.688h0.998l1.553-9.36
				c0.242-1.455-0.742-2.832-2.197-3.072c-0.893-0.148-1.754,0.168-2.343,0.767C19.316,81.806,19.732,81.761,20.161,81.832z"/>
		</g>
		<g>
			<path fill="#59687E" d="M26.96,82.958c1.456,0.243,2.439,1.618,2.197,3.073l-1.254,7.563h0.998l1.365-8.232
				c0.243-1.455-0.742-2.832-2.197-3.072c-0.894-0.148-1.754,0.169-2.343,0.77C26.113,82.933,26.531,82.888,26.96,82.958z"/>
		</g>
	</g>
</g>
<g>
	<path fill="#754C29" d="M75.097,65.006v1.101h-1.75v2.756h-2.453v-2.756h-3.154v2.756H27.253v11.201h86.092v-3.856v-7.345v-3.855
		L75.097,65.006L75.097,65.006z M79.452,69.542c0,0.476-0.385,0.858-0.859,0.858h-0.558c-0.476,0-0.86-0.385-0.86-0.858v-1.61
		c0-0.476,0.387-0.859,0.86-0.859h0.558c0.476,0,0.859,0.385,0.859,0.859V69.542z M90.902,69.542c0,0.476-0.384,0.858-0.858,0.858
		h-0.56c-0.476,0-0.858-0.385-0.858-0.858v-1.61c0-0.476,0.383-0.859,0.858-0.859h0.56c0.475,0,0.858,0.385,0.858,0.859V69.542z
		 M102.353,69.542c0,0.476-0.385,0.858-0.859,0.858h-0.559c-0.475,0-0.859-0.385-0.859-0.858v-1.61c0-0.476,0.387-0.859,0.859-0.859
		h0.559c0.477,0,0.859,0.385,0.859,0.859V69.542z"/>
	<rect x="27.253" y="80.064" fill="#754C29" width="86.092" height="11.201"/>
	<path fill="#3C2415" d="M72.085,89.632h-3.877v-4.057c0-1.07,0.867-1.938,1.939-1.938l0,0c1.068,0,1.938,0.867,1.938,1.938V89.632z
		"/>
	<path fill="#3C2415" d="M77.693,89.632h-3.879v-4.057c0-1.07,0.868-1.938,1.938-1.938l0,0c1.071,0,1.939,0.867,1.939,1.938
		L77.693,89.632L77.693,89.632z"/>
	<path fill="#3C2415" d="M83.302,89.632h-3.879v-4.057c0-1.07,0.867-1.938,1.939-1.938l0,0c1.07,0,1.938,0.867,1.938,1.938v4.057
		H83.302z"/>
	<path fill="#3C2415" d="M88.909,89.632H85.03v-4.057c0-1.07,0.868-1.938,1.939-1.938l0,0c1.068,0,1.938,0.867,1.938,1.938
		L88.909,89.632L88.909,89.632z"/>
	<path fill="#3C2415" d="M94.517,89.632H90.64v-4.057c0-1.07,0.867-1.938,1.938-1.938l0,0c1.072,0,1.939,0.867,1.939,1.938V89.632
		L94.517,89.632z"/>
	<path fill="#3C2415" d="M100.128,89.632h-3.879v-4.057c0-1.07,0.867-1.938,1.938-1.938l0,0c1.07,0,1.939,0.867,1.939,1.938v4.057
		H100.128z"/>
	<path fill="#3C2415" d="M105.734,89.632h-3.879v-4.057c0-1.07,0.868-1.938,1.938-1.938l0,0c1.071,0,1.939,0.867,1.939,1.938
		L105.734,89.632L105.734,89.632z"/>
	<path fill="#3C2415" d="M111.343,89.632h-3.881v-4.057c0-1.07,0.871-1.938,1.94-1.938l0,0c1.069,0,1.94,0.867,1.94,1.938V89.632
		L111.343,89.632z"/>
	<path fill="#3C2415" d="M72.085,78.415h-3.877v-4.054c0-1.071,0.867-1.94,1.939-1.94l0,0c1.068,0,1.938,0.869,1.938,1.94V78.415z"
		/>
	<path fill="#3C2415" d="M66.876,78.415h-3.881v-4.054c0-1.071,0.87-1.94,1.939-1.94l0,0c1.07,0,1.941,0.869,1.941,1.94V78.415
		L66.876,78.415z"/>
	<path fill="#3C2415" d="M77.693,78.415h-3.879v-4.054c0-1.071,0.868-1.94,1.938-1.94l0,0c1.071,0,1.939,0.869,1.939,1.94
		L77.693,78.415L77.693,78.415z"/>
	<path fill="#3C2415" d="M83.302,78.415h-3.879v-4.054c0-1.071,0.867-1.94,1.939-1.94l0,0c1.07,0,1.938,0.869,1.938,1.94v4.054
		H83.302z"/>
	<path fill="#3C2415" d="M88.909,78.415H85.03v-4.054c0-1.071,0.868-1.94,1.939-1.94l0,0c1.068,0,1.938,0.869,1.938,1.94
		L88.909,78.415L88.909,78.415z"/>
	<path fill="#3C2415" d="M94.517,78.415H90.64v-4.054c0-1.071,0.867-1.94,1.938-1.94l0,0c1.072,0,1.939,0.869,1.939,1.94V78.415
		L94.517,78.415z"/>
	<path fill="#3C2415" d="M100.128,78.415h-3.879v-4.054c0-1.071,0.867-1.94,1.938-1.94l0,0c1.07,0,1.939,0.869,1.939,1.94v4.054
		H100.128z"/>
	<path fill="#3C2415" d="M105.734,78.415h-3.879v-4.054c0-1.071,0.868-1.94,1.938-1.94l0,0c1.071,0,1.939,0.869,1.939,1.94
		L105.734,78.415L105.734,78.415z"/>
	<path fill="#3C2415" d="M111.343,78.415h-3.881v-4.054c0-1.071,0.871-1.94,1.94-1.94l0,0c1.069,0,1.94,0.869,1.94,1.94V78.415
		L111.343,78.415z"/>
	<path fill="#C49A6C" d="M67.97,82.574l-0.756-1.684l-4.291-9.519l-0.758-1.685l-4.289-9.52l-0.757-1.684l-4.291-11.238
		l-0.757-1.683l-0.377-0.827H27.256v46.795h44.751L67.97,82.574z M48.688,52.32c0-0.553,0.447-1,0.999-1
		c0.551,0,0.999,0.447,0.999,1v1.408c0,0.553-0.447,1-0.999,1s-0.999-0.447-0.999-1V52.32z M30.825,52.32c0-0.553,0.447-1,0.999-1
		c0.553,0,1,0.447,1,1v1.408c0,0.553-0.447,1-1,1c-0.551,0-0.999-0.447-0.999-1V52.32z M33.329,67.302H29.45v-4.054
		c0-1.069,0.869-1.938,1.939-1.938s1.939,0.869,1.939,1.938V67.302z M39.204,67.302h-3.878v-4.054c0-1.069,0.868-1.938,1.939-1.938
		c1.07,0,1.938,0.869,1.938,1.938L39.204,67.302L39.204,67.302z M39.758,53.73v-1.41c0-0.551,0.445-0.998,0.998-0.998
		c0.551,0,0.999,0.447,0.999,0.998v1.41c0,0.551-0.447,1-0.999,1C40.203,54.73,39.758,54.281,39.758,53.73z M45.08,67.302h-3.878
		v-4.054c0-1.069,0.868-1.938,1.938-1.938s1.938,0.869,1.938,1.938L45.08,67.302L45.08,67.302z M50.955,67.302h-3.877v-4.054
		c0-1.069,0.868-1.938,1.938-1.938c1.072,0,1.938,0.869,1.938,1.938V67.302z M56.833,67.302h-3.88v-4.054
		c0-1.069,0.869-1.938,1.939-1.938s1.939,0.869,1.939,1.938L56.833,67.302L56.833,67.302z"/>
	<path opacity="0.2" enable-background="new    " d="M67.97,82.574l-0.756-1.684l-4.291-9.519l-0.758-1.685l-4.289-9.52
		l-0.757-1.684l-4.291-11.238l-0.757-1.683l-0.377-0.827H27.256v1.675c1.681,1.681,3.362,3.36,5.049,5.036
		c0.164,0.091,0.297,0.224,0.389,0.388c2.267,2.25,4.539,4.494,6.828,6.722c0.458,0.444-0.263,1.118-0.719,0.678
		c-0.164-0.162-0.327-0.321-0.492-0.48c-0.067,0.035-0.146,0.059-0.24,0.059H27.314c-0.039,0.127-0.059,0.199-0.059,0.199
		c0.015,0.012,0.03,0.023,0.046,0.039c0.909,0.939,1.826,1.871,2.747,2.799c0.349-0.334,0.82-0.541,1.341-0.541
		c1.07,0,1.939,0.869,1.939,1.939v1.895c0.667,0.67,1.333,1.342,1.997,2.014v-3.907c0-1.069,0.868-1.938,1.939-1.938
		c1.07,0,1.938,0.869,1.938,1.938v4.054H35.47c0.654,0.663,1.307,1.325,1.954,1.994c0.443,0.459-0.277,1.135-0.72,0.678
		c-0.001-0.002-0.003-0.002-0.004-0.004c-0.057,0.021-0.12,0.035-0.19,0.035h-9.253v0.6c3.38,3.275,6.66,6.653,10.045,9.926
		c0.459,0.443-0.262,1.117-0.719,0.678c-0.008-0.008-0.016-0.016-0.021-0.021c-0.078,0.059-0.176,0.094-0.298,0.094h-9.006v0.559
		c3.282,3.206,6.535,6.439,9.766,9.695h34.985L67.97,82.574z M48.688,52.32c0-0.553,0.447-1,0.999-1c0.551,0,0.999,0.447,0.999,1
		v1.408c0,0.553-0.447,1-0.999,1s-0.999-0.447-0.999-1V52.32z M39.758,53.73v-1.41c0-0.551,0.445-0.998,0.998-0.998
		c0.551,0,0.999,0.447,0.999,0.998v1.41c0,0.551-0.447,1-0.999,1C40.203,54.73,39.758,54.281,39.758,53.73z M45.08,67.302h-3.878
		v-4.054c0-1.069,0.868-1.938,1.938-1.938s1.938,0.869,1.938,1.938L45.08,67.302L45.08,67.302z M50.955,67.302h-3.877v-4.054
		c0-1.069,0.868-1.938,1.938-1.938c1.072,0,1.938,0.869,1.938,1.938V67.302z M56.833,67.302h-3.88v-4.054
		c0-1.069,0.869-1.938,1.939-1.938s1.939,0.869,1.939,1.938L56.833,67.302L56.833,67.302z"/>
	<g>
		<rect x="51.046" y="56.646" fill="#8B5E3C" width="2.248" height="1.377"/>
		<rect x="52.134" y="54.98" fill="#8B5E3C" width="2.246" height="1.377"/>
	</g>
	<path fill="#754C29" d="M33.329,89.632H29.45v-4.057c0-1.07,0.869-1.938,1.939-1.938l0,0c1.07,0,1.939,0.867,1.939,1.938V89.632z"
		/>
	<path fill="#754C29" d="M39.204,89.632h-3.878v-4.057c0-1.07,0.868-1.938,1.939-1.938l0,0c1.07,0,1.938,0.867,1.938,1.938
		L39.204,89.632L39.204,89.632z"/>
	<path fill="#754C29" d="M45.08,89.632h-3.878v-4.057c0-1.07,0.868-1.938,1.938-1.938l0,0c1.07,0,1.938,0.867,1.938,1.938
		L45.08,89.632L45.08,89.632z"/>
	<path fill="#754C29" d="M50.955,89.632h-3.877v-4.057c0-1.07,0.868-1.938,1.939-1.938l0,0c1.07,0,1.938,0.867,1.938,1.938V89.632z"
		/>
	<path fill="#754C29" d="M56.833,89.632h-3.88v-4.057c0-1.07,0.869-1.938,1.939-1.938l0,0c1.07,0,1.939,0.867,1.939,1.938
		L56.833,89.632L56.833,89.632z"/>
	<path fill="#754C29" d="M62.706,89.632h-3.875v-4.057c0-1.07,0.866-1.938,1.938-1.938l0,0c1.069,0,1.937,0.867,1.937,1.938V89.632z
		"/>
	<path fill="#754C29" d="M67.88,89.632h-3.877v-4.057c0-1.07,0.866-1.938,1.938-1.938l0,0c1.07,0,1.939,0.867,1.939,1.938V89.632z"
		/>
	<path fill="#754C29" d="M33.329,78.467H29.45v-4.053c0-1.073,0.869-1.94,1.939-1.94l0,0c1.07,0,1.939,0.867,1.939,1.94V78.467z"/>
	<path fill="#754C29" d="M39.204,78.467h-3.878v-4.053c0-1.073,0.868-1.94,1.939-1.94l0,0c1.07,0,1.938,0.867,1.938,1.94
		L39.204,78.467L39.204,78.467z"/>
	<path fill="#754C29" d="M45.08,78.467h-3.878v-4.053c0-1.073,0.868-1.94,1.938-1.94l0,0c1.07,0,1.938,0.867,1.938,1.94
		L45.08,78.467L45.08,78.467z"/>
	<path fill="#754C29" d="M50.955,78.467h-3.877v-4.053c0-1.073,0.868-1.94,1.939-1.94l0,0c1.07,0,1.938,0.867,1.938,1.94V78.467z"/>
	<path fill="#754C29" d="M56.833,78.467h-3.88v-4.053c0-1.073,0.869-1.94,1.939-1.94l0,0c1.07,0,1.939,0.867,1.939,1.94
		L56.833,78.467L56.833,78.467z"/>
	<path fill="#754C29" d="M62.706,78.467h-3.875v-4.053c0-1.073,0.866-1.94,1.938-1.94l0,0c1.069,0,1.937,0.867,1.937,1.94V78.467z"
		/>
	<rect x="26.687" y="44.736" fill="#E1D2BE" width="26.529" height="1.684"/>
	<rect x="26.687" y="57.658" fill="#E1D2BE" width="31.771" height="1.685"/>
	<rect x="26.687" y="68.861" fill="#E1D2BE" width="36.775" height="1.683"/>
	<rect x="26.687" y="80.064" fill="#E1D2BE" width="42.015" height="1.684"/>
	<g>
		<rect x="43.725" y="49.869" fill="#8B5E3C" width="2.247" height="1.377"/>
		<rect x="46.37" y="49.869" fill="#8B5E3C" width="2.248" height="1.377"/>
		<rect x="45.029" y="51.535" fill="#8B5E3C" width="2.247" height="1.378"/>
	</g>
	<g>
		<rect x="42.781" y="54.906" fill="#8B5E3C" width="2.248" height="1.377"/>
		<rect x="45.319" y="54.906" fill="#8B5E3C" width="2.246" height="1.377"/>
		<rect x="43.869" y="53.24" fill="#8B5E3C" width="2.247" height="1.375"/>
	</g>
	<g>
		<rect x="33.287" y="54.906" fill="#8B5E3C" width="2.246" height="1.377"/>
		<rect x="35.823" y="54.906" fill="#8B5E3C" width="2.247" height="1.377"/>
		<rect x="34.374" y="53.24" fill="#8B5E3C" width="2.249" height="1.375"/>
	</g>
	<rect x="24.366" y="90.841" fill="#C49A6C" width="91.598" height="2.752"/>
</g>
</svg>
