<?xml version="1.0" encoding="utf-8"?>
<!-- Generator: Adobe Illustrator 16.0.0, SVG Export Plug-In . SVG Version: 6.00 Build 0)  -->
<!DOCTYPE svg PUBLIC "-//W3C//DTD SVG 1.1//EN" "http://www.w3.org/Graphics/SVG/1.1/DTD/svg11.dtd">
<svg version="1.1" id="图层_1" xmlns="http://www.w3.org/2000/svg" xmlns:xlink="http://www.w3.org/1999/xlink" x="0px" y="0px"
	 width="80px" height="118px" viewBox="0 0 80 118" enable-background="new 0 0 80 118" xml:space="preserve">
<g>
	<g>
		<g>
			<g>
				<polygon fill="#FBD199" points="8.45,61.308 8.526,54.534 0.542,54.452 0.566,61.308 				"/>
			</g>
			<g>
				<path fill="#FBD199" d="M23.219,77.271c0.035-0.848,0.658-1.477,1.439-1.629V67.38c-0.815,0.828-1.786,1.502-2.881,1.984
					c-2.274,1.002-4.804,1.059-7.12,0.156c-2.316-0.898-4.145-2.645-5.148-4.922c-0.742-1.686-0.992-5.254-0.992-5.254l-7.948,0.897
					c-0.092,2.596,0.402,5.199,1.479,7.646c1.881,4.268,5.311,7.547,9.658,9.234c2.671,1.037,5.49,1.396,8.259,1.086
					c1.1-0.125,2.192-0.357,3.264-0.693C23.219,77.435,23.216,77.353,23.219,77.271z"/>
			</g>
			<g>
				<path fill="#F05722" d="M26.144,65.401c-0.979,1.754-2.495,3.139-4.366,3.963c-1.967,0.865-4.124,1.025-6.169,0.471v8.309
					c1.449,0.205,2.908,0.229,4.356,0.064c1.737-0.195,3.455-0.658,5.101-1.383c4.268-1.883,7.549-5.313,9.236-9.658
					C34.302,67.167,26.354,65.022,26.144,65.401z"/>
			</g>
		</g>
		<g>
			<g>
				<path fill="#FBD199" d="M62.792,30.831c0,10.092-8.179,18.271-18.268,18.271c-10.092,0-18.274-8.18-18.274-18.271v-9.82
					c0-10.09,8.183-18.27,18.274-18.27c10.089,0,18.268,8.18,18.268,18.27V30.831z"/>
			</g>
			<g>
				<path fill="#FBD199" d="M30.628,30.831c0,2.416-1.96,4.375-4.378,4.375c-2.415,0-4.375-1.959-4.375-4.375
					s1.96-4.375,4.375-4.375C28.668,26.456,30.628,28.415,30.628,30.831"/>
			</g>
			<g>
				<path fill="#FBD199" d="M67.171,30.831c0,2.416-1.96,4.375-4.379,4.375c-2.416,0-4.372-1.959-4.372-4.375
					s1.956-4.375,4.372-4.375C65.211,26.456,67.171,28.415,67.171,30.831"/>
			</g>
			<g>
				<g>
					<path fill="#F05722" d="M65.801,79.802c0.09-1.406,0.138-2.6,0.138-3.422c0-11.83-9.589-21.417-21.414-21.417
						c-11.829,0-21.417,9.586-21.417,21.417c0,0.822,0.047,2.016,0.137,3.422H65.801z"/>
				</g>
			</g>
			<g>
				<rect x="36.781" y="33.999" fill="#FBD199" width="15.48" height="23.936"/>
			</g>
			<g>
				<path fill="#FBD199" d="M52.262,56.84c0,4.276-3.466,7.741-7.737,7.741c-4.275,0-7.743-3.465-7.743-7.741"/>
			</g>
			<g>
				<path fill="#4E3020" d="M62.792,30.831v-9.82c0-10.09-8.179-18.27-18.268-18.27c-10.092,0-18.274,8.18-18.274,18.27v9.82
					l10.531,13.984h15.48L62.792,30.831z"/>
			</g>
		</g>
	</g>
	<g>
		<g>
			<path fill="#FBD199" d="M66.821,73.024c-1.936,1.752-4.355,2.979-7.008,3.549c4.599,9.57,8.433,20.342,10.723,32.26l7.644-1.469
				C75.733,94.624,71.677,83.165,66.821,73.024z"/>
		</g>
		<g>
			<path fill="#F05722" d="M67.434,86.993c1.265-1.264,2.529-2.527,3.793-3.791c-2.392-6.17-5.116-11.93-8.032-17.266h-3.44
				c-0.221,0.221-0.439,0.439-0.661,0.66c-0.972,0.975-1.943,1.945-2.913,2.918c3.328,6.037,6.398,12.633,8.974,19.762
				L67.434,86.993z"/>
		</g>
		<g>
			<path fill="#FBD199" d="M78.936,107.013c1.214,5.512,0.243,10.406-2.178,10.941c-2.412,0.527-5.355-3.508-6.57-9.018"/>
		</g>
	</g>
</g>
<g>
	<g>
		<path fill="#6865FF" d="M62.773,28.87v-8.283c0-10.092-8.178-18.271-18.27-18.271c-10.09,0-18.271,8.179-18.271,18.271v8.283
			H62.773z"/>
	</g>
	<g>
		<path fill="#562EFF" d="M44.504,2.315c-0.016,0-0.033,0.001-0.05,0.001V28.87h18.319v-8.283
			C62.773,10.495,54.596,2.315,44.504,2.315z"/>
	</g>
	<g>
		<rect x="26.232" y="26.827" fill="#562EFF" width="36.541" height="2.043"/>
	</g>
	<path fill="#F7B521" d="M48.351,3.626c0.056-0.179,0.085-0.364,0.085-0.554c0-1.487-1.774-2.69-3.967-2.69s-3.968,1.203-3.968,2.69
		c0,0.189,0.029,0.375,0.085,0.554H48.351z"/>
</g>
</svg>
