<?xml version="1.0" encoding="utf-8"?>
<!-- Generator: Adobe Illustrator 16.0.0, SVG Export Plug-In . SVG Version: 6.00 Build 0)  -->
<!DOCTYPE svg PUBLIC "-//W3C//DTD SVG 1.1//EN" "http://www.w3.org/Graphics/SVG/1.1/DTD/svg11.dtd">
<svg version="1.1" id="图层_1" xmlns="http://www.w3.org/2000/svg" xmlns:xlink="http://www.w3.org/1999/xlink" viewBox="0 0 1974 1974" enable-background="new 0 0 1974 1974" xml:space="preserve">
<g>
	<g>
		<g>
			<g>
				<g>
					<g>
						<g>
							<g>
								<g>
									<path fill="#87CE59" d="M1716.31,1127.184c-0.557,1.214-13.36,20.4-19.293,26.543c-5.965,6.149-10.32,11.226-9.674,11.276
										c0.604,0.064,5.706-2.716,10.035-5.779c4.316-3.075,11.961-17.622,13.854-17.978c1.87-0.352,5.542-5.519,6.374-5.941
										c0.83-0.451,2.444-2.971,1.478-3.721C1718.108,1130.845,1716.863,1125.98,1716.31,1127.184z"/>
								</g>
								<g>
									<path fill="#87CE59" d="M1735.524,1433.392c2.732-0.373,7.057-1.802,9.577-3.21c2.511-1.392,6.431-8.516,4.685-6.84
										c-1.742,1.662-10.747,3.884-13.014,3.462c-2.261-0.439-13.859,0.246-15.945,0.455c-2.047,0.232-2.696,5.411-1.066,6.494
										C1721.409,1434.819,1732.77,1433.763,1735.524,1433.392z"/>
								</g>
								<g>
									<path fill="#87CE59" d="M1709.656,1450.265c1.766,1.243,1.766,1.243,1.766,1.243c2.976,3.827,5.41,6.959,7.614,6.461
										c0.584-0.151,1.427-0.518,2.458-0.966c0,0,0,0,0.944-0.787c0.933-0.805,0.645-3.534-0.854-4.464
										c-1.48-0.912-3.261-8.856-4.004-8.694c-0.747,0.174-4.634,0.513-6.813,0.63
										C1708.583,1443.787,1707.876,1449.011,1709.656,1450.265z"/>
								</g>
								<g>
									<path fill="#87CE59" d="M1764.574,1446.545c3.435-1.969,6.727-4.268,7.314-5.109c0.588-0.843,1.328-1.869,1.646-2.283
										c0.317-0.414,2.703-3.903,5.302-7.756c0,0,0,0,5.124-2.123c5.098-2.122,9.483-11.529,4.279-10.591
										c-5.241,0.928-5.241,0.928-5.241,0.928c-5.672,5.747-10.313,10.448-11.515,11.194c-5.643,3.724-13.517,4.868-14.36,16.291
										C1756.972,1448.901,1761.14,1448.514,1764.574,1446.545z"/>
								</g>
								<g>
									<path fill="#87CE59" d="M1835.935,796.91c2.481-0.798,4.512-1.451,8.104-0.964c4.486,0.522-1.286-6.108-8.341-14.212
										c0,0,0,0-1.47,0.997c-1.481,0.999-3.846,2.978-5.261,4.388c-1.431,1.399-2.408,3.226-2.205,4.061
										c0.206,0.823,3.245,4.75,3.489,6.318c0.254,1.572,3.452,2.471,4.553,0.926
										C1835.935,796.91,1835.935,796.91,1835.935,796.91z"/>
								</g>
								<g>
									<path fill="#87CE59" d="M1744.456,1086.503c0.708,0.975,3.463,0.494,4.431-0.051
										C1747.909,1085.806,1745.277,1085.819,1744.456,1086.503z"/>
								</g>
								<g>
									<path fill="#87CE59" d="M1757.116,1124.49c3.015-3.676,3.897-7.896,1.953-9.388c-1.969-1.474-1.969-1.474-1.969-1.474
										c-3.202-1.813-6.565-3.607-7.475-3.987c0,0,0,0-0.672,0.483c-0.695,0.51-1.418,4.728-1.18,8.453
										C1747.978,1122.276,1754.096,1128.179,1757.116,1124.49z"/>
								</g>
								<g>
									<path fill="#87CE59" d="M1767.115,1105.436c0.992-0.037,2.697,1.509,3.794,3.401c1.094,1.88,1.367-0.348,0.125-2.493
										c-1.234-2.125-4.368-8.299-5.028-8.287c-0.681,0.008-2.669,1.271-2.716,2.737
										C1763.251,1102.282,1766.115,1105.455,1767.115,1105.436z"/>
								</g>
								<g>
									<path fill="#87CE59" d="M1736.413,1085.116c-2.606-0.782-5.397-1.44-6.203-1.464c-0.813-0.012-0.988,4.257,1.516,9.401
										c2.49,5.163,8.33,8.076,9.499,6.424C1742.399,1097.85,1739.01,1085.878,1736.413,1085.116z"/>
								</g>
								<g>
									<path fill="#87CE59" d="M1769.235,1132.244c0.01-4.91,0.018-8.927-4.911-7.564c-2.304,0.703-4.061,7.105-6.208,14.93
										c0,0,0,0-1.102,0.504c-1.097,0.5-0.555,4.999,1.279,8.492c1.822,3.509,5.821,5.75,6.557,5.268
										c0.73-0.461,1.009-2.085,0.523-2.567c-0.477-0.494,1.142-13.408,2.519-16.22
										C1769.235,1132.244,1769.235,1132.244,1769.235,1132.244z"/>
								</g>
								<g>
									<path fill="#87CE59" d="M1313.849,212.624c7.742,0.633,15.988,1.405,26.066,2.349c0,0,0,0,3.706,0.43
										c3.722,0.413,15.221,2.665,23.479,4.179c8.284,1.54,8.284,1.54,8.284,1.54c-7.646-5.488-13.9-9.978-20.187-11.171
										c-3.099-0.547-3.724-0.502-4.487-0.448c-0.763,0.054-2.625-1.021-3.626-2.479c0,0,0,0-0.934-0.184
										c-1.01-0.224-8.196-0.514-13.596-0.263c-5.396,0.221-22.943,2.457-24.103,2.647c-1.161,0.223-1.161,0.223-1.161,0.223
										C1307.807,210.862,1308.228,212.021,1313.849,212.624z"/>
								</g>
								<g>
									<path fill="#87CE59" d="M1209.372,180.768c5.852,1.238,30.575,5.041,35.203,5.567c4.626,0.533,4.245,1.051-0.829,1.129
										c-5.099,0.104-5.099,0.104-5.099,0.104c0.623,3.419,1.133,6.216,6.932,6.977c16.925,1.97,31.946,6.124,52.271,9.236
										c4.001,0.625,5.543-0.065,7.427-0.91c0,0,0,0-1.091-0.528c-1.097-0.505-3.333-1.162-0.897-0.6
										c2.409,0.542,2.409,0.542,2.409,0.542c0.445-1.478,0.899-3.272,1.01-3.988c0.11-0.715,0.2-1.301-3.433-3.313
										c0,0,0,0-9.105-1.119c-3.002-0.348-6.574-1.066-10.94-1.944c0,0,0,0-2.329-0.659c-2.327-0.656-10.921-2.297-12.339-2.675
										c-1.394-0.396-5.124-0.554-2.809-0.496c2.332,0.072,2.332,0.072,2.332,0.072c0.848-0.624,1.161-2.196,0.697-3.493
										c0,0,0,0,0.262,0.077c0.277,0.077,0.277,0.077,0.277,0.077c-6.066-3.322-11.03-6.04-24.253-7.857
										c-21.815-2.329-30.701-0.12-41.563,2.581C1203.505,179.547,1203.505,179.547,1209.372,180.768z"/>
								</g>
								<g>
									<path fill="#87CE59" d="M1192.972,182.658c2.107,1.043,11.064,2.917,16.633,3.946c5.564,1.024,4.522-3.572,0.055-4.409
										c-4.446-0.831-10.892-1.986-14.338-2.589C1191.883,179.008,1190.888,181.636,1192.972,182.658z"/>
								</g>
								<g>
									<path fill="#87CE59" d="M1257.604,211.73c-1.313-0.044-1.771,0.321-0.951,0.769c0.783,0.462,5.403,1.458,7.483,1.879
										c2.1,0.398,3.688-2.416,2.347-2.472C1265.134,211.846,1258.953,211.76,1257.604,211.73z"/>
								</g>
								<g>
									<path fill="#87CE59" d="M1398.094,226.995c1.136,0.553,1.136,0.553,1.136,0.553c5.372,1.052,9.629,1.445,9.461,0.873
										c0,0,0,0-1.292-0.451C1406.085,227.515,1396.983,226.437,1398.094,226.995z"/>
								</g>
								<g>
									<path fill="#87CE59" d="M1489.158,276.571c0.037,0.057-0.003,0.062-0.088,0.011c-0.086-0.051-0.046-0.021,0.09,0.065
										c0.135,0.087-0.195-0.598-0.733-1.522c0,0,0,0-1.232-0.892c-1.207-0.896-9.852-3.498-12.182-4.185
										c-2.311-0.698-2.607,1.599-1.225,2.353c1.372,0.781,8.32,2.872,9.683,3.159c1.263,0.275,1.263,0.275,1.263,0.275
										c1.567,0.367,3.003,0.624,3.19,0.572C1488.111,276.355,1489.12,276.515,1489.158,276.571z"/>
								</g>
								<g>
									<path fill="#87CE59" d="M1795.242,1345.215c1.757,1.401,4.142,1.114,5.302-0.639c1.161-1.75-0.299-5.743-2.963-7.832
										C1794.909,1334.645,1793.472,1343.809,1795.242,1345.215z"/>
								</g>
								<g>
									<path fill="#87CE59" d="M1837.297,1334.877c-0.94-1.175-0.94-1.175-0.94-1.175c-0.7-2.666-1.972-4.354-2.825-3.753
										c0,0,0,0-1.198,0.607c-1.188,0.602-5.029-1.826-7.76-1.355c-2.723,0.49-11.229,2.433-11.919,3.21
										c-0.698,0.775-0.454,3.784,0.786,4.026c1.233,0.244,5.158,0.316,6.576,0.047c1.42-0.258,6.928-0.125,8.782,0.879
										c1.886,1,1.886,1,1.886,1c4.234-0.458,7.637-1.487,7.562-2.289C1838.246,1336.074,1838.246,1336.074,1837.297,1334.877z"/>
								</g>
								<g>
									<path fill="#87CE59" d="M1709.003,1222.544c2.729-0.638,2.729-0.638,2.729-0.638c-8.995-4.557-16.354-8.285-16.78-20.257
										c-0.452-8.606-5.093-8.542-10.765-8.464c0,0,0,0-4.688,6.164c-4.685,6.166-15.224,21.258-18.644,22.023
										c-3.417,0.764-11.076,7.516-11.532,8.597c-0.472,1.068-2.49,3.331-3.103,3.995c-0.588,0.631-4.79,4.304-6.17,5.714
										c-1.357,1.39-1.676,6.846-2.72,9.671c-1.053,2.847-1.053,2.847-1.053,2.847c-10.206,3.554-18.556,6.462-21.821,10.972
										c-6.521,8.996-5.12,25.474-20.368,27.265c-6.953,0.635-11.243,5.888-16.486,12.309c0,0,0,0,1.408,6.202
										c1.441,6.209,6.086,12.043,7.641,12.182c1.528,0.145,3.587,3.012,3.507,3.603c-0.066,0.566-0.066,0.566-0.066,0.566
										c-1.314,17.625-2.39,32.046,16.047,30.354c3.596-0.217,6.619-1.041,10.313-2.049c0,0,0,0-0.059,2.238
										c-0.023,2.243-0.023,2.243-0.023,2.243c1.81,2.372,3.6,4.303,3.977,4.289s2.146-0.128,3.933-0.255
										s7.108-2.864,11.827-6.084c0,0,0,0,3.597,1.378c3.571,1.369,14.219,5.579,14.451,7.613
										c0.229,2.047,6.938,1.561,8.827-0.441c1.917-1.974,12.521-16.245,14.143-19.725c1.636-3.468,2.574-7.072,2.059-8
										c-0.492-0.9-0.07-8.43,1.234-11.681c1.325-3.245,8.867-10.679,10.045-14.193c1.203-3.534,4.53-19.883,4.981-21.035
										c0.429-1.18,2.196-3.905,3.019-4.216c0.823-0.32,4.896-0.553,7.221-0.006c2.328,0.572,1.136-13.258-4.264-20.25
										c-5.399-7.018-9.508-21.965-8.987-22.957c0.513-0.957,1.923-3.185,1.577-4.134c-0.337-0.957,1.55-4.806,4.887-6.877
										c3.32-2.069,3.32-2.069,3.32-2.069c1.561-2.152,3.391-4.953,4.066-6.224
										C1706.282,1223.214,1706.282,1223.214,1709.003,1222.544z"/>
								</g>
								<g>
									<path fill="#87CE59" d="M1751.963,1315.133c6.718-5.285,9.835-9.667,6.928-9.739c0,0,0,0-6.472,3.157
										c-6.388,3.12-6.388,3.12-6.388,3.12c-3.175,1.651-5.92,3.394-6.1,3.872s-0.326,0.869-1.222,3.257c0,0,0,0-2.643,0.344
										c-5.62,0.594-5.501-4.333-5.355-10.354s0.265-10.947,4.026-16.024c0,0,0,0,6.974-0.893
										c7.025-1.077,11.677-2.158,17.361-3.479c0,0,0,0,2.367,0.658c2.374,0.641,11.758-1.479,14.639-4.271
										c2.9-2.812,7.117-13.893,7.615-14.744c0.467-0.858,0.467-0.858,0.467-0.858c-0.052-1.121-1.832-0.894-3.956,0.507
										c0,0,0,0-2.809,2.803c-2.795,2.806-2.795,2.806-2.795,2.806c-3.151,3.19-8.54,5.722-11.976,5.625c0,0,0,0-5.031-0.589
										c-5.013-0.604-5.013-0.604-5.013-0.604c-16.397,9.903-29.813,18.007-30.313,31.019c-0.172,2.642-3.516,6.711-3.991,8.486
										c-3.259,12.607-7.686,17.782-8.551,29.874c-0.422,6.157,3.395,7.696,8.059,9.578c0,0,0,0-0.184,4.622
										c-0.152,4.631-0.063,18.325,0.851,20.023c0.922,1.699,6.145-1.694,8.041-7.119c1.897-5.412,3.088-14.273,2.22-16.962
										c-0.869-2.688-0.612-13.502,0.347-15.289c0.971-1.805,5.113-3.878,5.657-3.86c0.558,0.031,1.987,1.139,1.636,3.106
										c-0.392,1.986-0.086,9.625,1.559,11.899c1.64,2.29,2.855,11.884,2.887,12.822c0.053,0.924,0.434,2.942,1.359,2.838
										c0.917-0.096,5.916-7.631,8.373-9.506c2.459-1.858,3.321-4.728,1.915-6.34c-1.39-1.615-2.269-6.17-1.875-6.848
										c0.396-0.662-0.959-6.545-3.401-11.872c-2.419-5.357-1.981-13.932,1.417-17.493
										C1751.963,1315.133,1751.963,1315.133,1751.963,1315.133z"/>
								</g>
								<g>
									<path fill="#87CE59" d="M1868.478,662.736c0.119,0.701,0.662,1.796,1.193,2.481c0.557,0.684,2.096,6.612,3.136,11.336
										c1.042,4.704,1.042,4.704,1.042,4.704c-2.17,1.374-4.823,1.993-5.896,1.376c0,0,0,0-0.253-0.294
										c-0.25-0.303-1.061-0.593-0.969-0.069c0.1,0.521-0.009,2.631-0.819,3.56c-0.791,0.911-0.267,6.239,0.153,6.999
										c0.445,0.747,1.859,3.902,2.323,5.347c0.475,1.443,0.475,1.443,0.475,1.443c0.649,2.531,2.094,4.734,3.209,4.896
										c0,0,0,0,0.976,0.032c0.985,0.037,1.664-3.993,0.39-4.837c-1.291-0.854-2.926-5.534-1.946-5.835
										c0.983-0.297,4.8,0.523,4.688,0.089c-0.098-0.408,2.744,0.227,4.782,2.238c2.032,1.987,8.444,6.27,8.379,3.272
										c-0.082-3.031-0.082-3.031-0.082-3.031c2.709,0.021,4.869-0.623,4.801-1.431c0,0,0,0-1.144-2.39
										c-1.16-2.389-7.045-12.124-10.477-16.301C1879.022,672.152,1868.37,662.062,1868.478,662.736z M1868.763,683.769
										c-0.154-0.279-0.307-0.474-0.471-0.688C1868.593,683.407,1869.089,683.738,1868.763,683.769z"/>
								</g>
								<g>
									<path fill="#87CE59" d="M1833.822,1444.869c-1.881,0.615-6.51,6.34-4.417,6.367c2.116,0.037,2.116,0.037,2.116,0.037
										c1.464-0.09,3.749-0.945,5.077-1.899c0,0,0,0,0.141-1.289C1836.839,1446.842,1835.739,1444.227,1833.822,1444.869z"/>
								</g>
								<g>
									<path fill="#87CE59" d="M1810.732,814.633c0.812,1.906,0.812,1.906,0.812,1.906c1.941,0.174,3.557,0.393,3.591,0.486
										c0.034,0.093,1.163,0.268,2.51,0.388c0,0,0,0,1.477-3.263c1.466-3.236,1.466-3.236,1.466-3.236
										c1.784-5.245,3.584-9.955,4-10.467c0,0,0,0-0.183-0.819c-0.185-0.855-0.185-0.855-0.185-0.855
										c-0.713-1.746-1.893-3.883-2.622-4.75c-0.729-0.867-2.476-4.071-3.557-6.08c0,0,0,0-1.752-1.159
										c-1.771-1.185-8.313-1.145-10.838,0.643c-2.504,1.8-4.104,6.688-3.529,8c0.58,1.323,3.634,2.504,4.081,2.202
										c0.459-0.326,0.459-0.326,0.459-0.326c1.357-1.584,2.532-2.714,2.61-2.511c0.078,0.203,1.454,2.571,3.058,5.263
										c0,0,0,0-0.053,1.063c-0.031,1.051-0.953,5.042-1.685,6.574C1809.662,809.207,1809.94,812.757,1810.732,814.633z"/>
								</g>
								<g>
									<path fill="#87CE59" d="M1812.071,1290.778c0.264,2.622,3.258,3.146,2.604,1.706c-0.648-1.452-2.348-6.129-2.271-6.861
										c0.076-0.703,1.435-2.597,3.263-2.94c1.844-0.365,1.844-0.365,1.844-0.365c0.27-3.459,0.489-6.289,0.469-8.529
										c-0.051-2.677-1.087-6.262-2.354-10.644c0,0,0,0-1.01-3.14c-0.996-3.151-2.571-4.208-3.476-2.354
										c-0.886,1.831-1.292,9.356-0.588,11.677c0.705,2.337,1.172,11.038,1.107,12.336
										C1811.606,1282.987,1811.804,1288.149,1812.071,1290.778z"/>
								</g>
								<g>
									<path fill="#87CE59" d="M1671.591,1435.563c-0.748,0.162-2.702,1.204-2.727,2.257c-0.007,1.047,0.178,4.124,0.732,4.979
										c0.547,0.854,3.279,0.798,4.382-0.15c1.076-0.922,0.516-5.657-0.04-6.267
										C1673.4,1435.776,1672.328,1435.403,1671.591,1435.563z"/>
								</g>
								<g>
									<path fill="#87CE59" d="M1866.381,649.144c0.562,1.99,1.381,2.796,1.798,1.774c0.434-1.023,0.695-4.462-0.842-7.21
										c-1.548-2.756-5.34-8.679-4.981-7.082C1862.729,638.223,1865.817,647.143,1866.381,649.144z"/>
								</g>
								<g>
									<path fill="#87CE59" d="M1697.07,1432.094c-1.019,0.933-2.463,2.8-3.21,4.148c0,0,0,0-1.131-0.315
										c-1.145-0.318-7.872-0.061-9.979,0.104c-2.102,0.14-2.102,0.14-2.102,0.14c1.688,4.878,3.067,8.869,6.698,8.336
										c4.65-0.68,6.155-2.054,7.993-3.733c1.839-1.68,5.181-2.327,6.745-1.798c0,0,0,0,0.704-0.094
										c0.714-0.088,2.62-1.279,2.653-2.227c0.053-0.96-4.589-5-6.471-4.779C1697.07,1432.094,1697.07,1432.094,1697.07,1432.094z
										"/>
								</g>
								<g>
									<path fill="#87CE59" d="M1192.626,172.09c-0.271-0.254-3.046-0.736-6.164-1.111c-3.132-0.348-9.009-0.341-5.756,0.324
										C1183.951,171.967,1192.903,172.342,1192.626,172.09z"/>
								</g>
								<g>
									<path fill="#87CE59" d="M1772.501,1142.205c-0.787,1.315-0.787,1.315-0.787,1.315c0.405,1.878,0.953,3.428,1.219,3.443
										s1.433,0.049,2.594,0.073s3.198-4.399,4.526-9.831c0,0,0,0-0.866,0.314
										C1778.304,1137.835,1773.305,1140.857,1772.501,1142.205z"/>
								</g>
								<g>
									<path fill="#87CE59" d="M1830.742,764.702c-8.593-1.534-12.163,4.938-16.526,12.849c0,0,0,0-1.201,0.313
										c-1.201,0.284-1.201,0.284-1.201,0.284c0.22,1.21,3.461,2.806,7.201,3.546c0,0,0,0,3.33-0.281
										c3.322-0.299,3.322-0.299,3.322-0.299c5.461-0.185,9.93-0.335,13.625-1.838c1.258-0.525,2.411-1.115,3.82-1.836
										c0,0,0,0,1.595,0.975c1.591,0.975,7.061,4.7,7.134,5.9c0.087,1.183,0.087,1.183,0.087,1.183
										c-0.151,2.737,0.336,6.001,1.082,7.253c0,0,0,0,0.462,0.835c0.449,0.84,0.449,0.84,0.449,0.84
										c3.113-3.647,6.372-6.597,7.241-6.556c0.869,0.041,1.923,0.105,2.342,0.142c0.418,0.037,0.962-0.447,1.208-1.076
										c0,0,0,0-1.094-1.505c-1.066-1.518-2.201-4.919-2.254-5.697c-0.049-0.79,2.054,0.161,3.065,2.04
										c0.992,1.864,0.992,1.864,0.992,1.864c4.361,1.688,9.604,1.68,11.649-0.017c0,0,0,0,0.347,0.012
										c0.375,0.024,2.258,1.058,2.501,1.598c0.259,0.533,1.833,0.217,2.48-1.139c0.652-1.395,0.652-1.395,0.652-1.395
										c1.651-1.267,3.587-0.437,4.301,1.843c0,0,0,0-0.159-0.812c-0.137-0.824,4.276-5.465,3.617-6.588
										c-0.628-1.134-0.628-1.134-0.628-1.134c0.134-6.002,0.244-10.913-0.537-14.313c-1.067-4.389-1.268-7.024-1.513-10.246
										c-0.246-3.221,0.146-5.697,0.576-5.979c0.43-0.282,0.698-2.045,0.71-3.422c0,0,0,0,0.529-1.298
										c0.512-1.27-1.556-9.977-2.991-12.402c-1.433-2.446-4.226-10.674-4.546-11.951c-0.308-1.277-0.308-1.277-0.308-1.277
										c-1.049-3.138-2.58-5.951-3.404-6.25s-1.79-0.638-2.146-0.751s-0.05,0.675,0.681,1.752c0.73,1.077,1.363,2.027,1.216,1.884
										c0,0,0,0-0.382-0.275c-0.75-0.525-2.918,0.321-3.8,2.353c-0.918,1.999-0.918,1.999-0.918,1.999
										c0.902,4.462,1.642,8.114,2.308,10.749c2.973,12.037-2.804,25.158-7.543,26.341c-5.478,1.257-6.301,2.03-7.307,2.975
										c0,0,0,0-0.435-0.447c-0.408-0.442-1.078-2.02-1.127-2.653c-0.041-0.636,0.03-0.913-0.635,1.382
										c-0.647,2.28-1.995,6.897-2.504,9.928c-0.496,3.019-0.496,3.019-0.496,3.019
										C1845.623,766.383,1837.451,765.777,1830.742,764.702z"/>
								</g>
								<g>
									<path fill="#87CE59" d="M1774.971,1124.902c-0.658,0.023-4.263,11.146-5.477,13.899c-1.219,2.747-1.219,2.747-1.219,2.747
										c-0.168,1.21,0.94,1.208,2.463-0.004c0,0,0,0,1.567-2.678C1773.896,1136.206,1775.628,1124.875,1774.971,1124.902z"/>
								</g>
								<g>
									<path fill="#87CE59" d="M1782.882,1116.839c-2.034,0.033-2.812,0.273-3.763,0.567c-0.95,0.293-1.728,0.533-1.844,1.703
										c0,0,0.008,0.182,0.018,0.403c0.009,0.222,0.019,0.69,0.021,1.04c0.002,0.351,1.309,1.854,2.902,3.342
										c1.594,1.486,2.652,4.377,2.446,5.727c-0.205,1.35-0.373,2.453-1.193,6.149c0,0,0,0,3.106,0.049
										c1.398,0.039,2.448-0.243,3.731-0.589c0,0,0,0,0.063-0.568c0.051-0.584-0.467-3.167-1.188-4.772
										c-0.718-1.602-0.921-6.816,0.112-6.848c1.036-0.037,4.605-0.963,5.045-2.006c0.438-1.069,0.522-5.447-0.277-6.625
										c-0.813-1.175-1.317-3.325-1.094-4.799c0.239-1.488-0.324-5.022-0.773-4.917c-0.409,0.098-1.06-2.177-1.164-3.21
										c-0.128-1.006-0.128-1.006-0.128-1.006c-2.797-1.496-5.085-2.72-9.067-2.593c-1.39,0.072-1,1.227-0.524,2.638
										s0.865,2.565,6.019,6.494c0,0,0,0-0.188,6.816C1785.138,1114.667,1783.829,1116.81,1782.882,1116.839z"/>
								</g>
								<g>
									<path fill="#87CE59" d="M1720.521,1041.839c0,0,0,0-0.861,2.553c-0.82,2.554-0.301,14.821,1.813,17.226
										c2.108,2.397,6.343,4.179,7.068,3.628c0.75-0.559,2.386-2.507,2.86-2.501c0.504,0.018,0.504,0.018,0.504,0.018
										c0.637,0.96,0.839,3.483,0.45,5.607c0,0,0,0-0.765,0.854c-0.766,0.844-0.857,5.486,0.049,7.365
										c0.898,1.843,5.669,2.829,6.799,1.979c1.16-0.857,6.541,0.938,8.136,3.837c1.618,2.927,8.648,4.075,7.998,2.382
										c-0.663-1.655,3.965-4.338,7.301-1.89c3.316,2.45,3.316,2.45,3.316,2.45c3.175,6.436,6.092,11.691,6.483,11.682
										c0.391-0.01,1.122-0.509,1.626-1.108c0.504-0.601,0.893-2.13,0.876-2.426c-0.016-0.296-0.449-1.984-0.963-3.752
										c0,0,0,0-1.483-0.449c-1.466-0.434-3.15-4.82-3.952-4.593c-0.809,0.227-1.006-1.179-0.383-2.122
										c0.645-0.916,0.645-0.916,0.645-0.916c0.119-1.925-0.739-3.493-1.907-3.485c0,0,0,0-0.572,0.914
										c-0.59,0.93-3.768-0.711-4.755-3.794c-0.97-3.099-7.768-5.193-9.094-4.538c-1.274,0.672-2.655,3.222-2.701,3.729
										c-0.05,0.492-2.304-1.72-5.042-5.709c-2.744-4.013-2.744-4.013-2.744-4.013c3.339-12.315,6.07-22.393,6.658-33.165
										c0.201-8.764-2.181-15.092-5.092-22.826c0,0,0,0-0.178-0.7c-0.166-0.676-0.625-2.631-0.817-3.109
										c-0.194-0.479-1.124-0.507-1.989,0.773c-0.823,1.289-4.986,0.471-5.727-1.958c-0.762-2.428-7.475-3.577-8.774-2.268
										c-1.291,1.32-1.291,1.32-1.291,1.32c0.301,8.777,0.547,15.959,0.482,22.025
										C1724.427,1028.522,1722.669,1034.515,1720.521,1041.839z"/>
								</g>
								<g>
									<path fill="#87CE59" d="M1796.484,1193.316c4.326-4.586,7.866-8.338,8.276-13.798c0.168-3.675-3.454-18.847-7.882-37.39
										c0,0,0,0-0.793-1.252c-0.798-1.213-4.923-0.094-5.08,2.06c-0.187,2.154-3.602,8.066-5.929,8.367
										c-2.303,0.297-5.939,8.334-7.067,9.162c-1.12,0.833-2.586,5.082-3.02,5.125c-0.44,0.041-0.44,0.041-0.44,0.041
										c-1.603-4.157-2.914-7.559-8.305-7.514c-8.002,0.256-10.031,3.601-12.513,7.688c-2.48,4.087-4.51,7.432-6.345,11.804
										c0,0,0,0-0.384,5.098c-0.08,1.207,0.086,4,0.29,7.414c0,0,0,0-1.259,3.119c-1.264,3.116,2.558,2.032,4.057-2.523
										c1.5-4.555,7.938-12.65,8.655-11.595c0.719,1.043,0.719,1.043,0.719,1.043c1.368,0.219,3.034-0.099,3.7-0.707
										c0,0,0,0,0.341,0.646c0.329,0.662,3.514,0.311,3.591-0.578c0.084-0.878,1.07-2.802,2.089-2.812
										c1.035,0.004,4.304,0.453,4.58,1.412c0.266,0.929,0.266,0.929,0.266,0.929c-1.011,2.548-1.838,4.632-2.098,8.146
										c-0.667,9.381,1.729,11.001,4.658,12.981s7.386,3.618,8.961,3.597c0,0,0,0,0.089,0.981
										c0.106,0.957,0.106,0.957,0.106,0.957c3.387-1.21,6.157-2.2,6.544-6.141c0.411-5.372-4.189-6.301-3.99-9.881
										c0.191-2.466,2.185-4.278,4.62-6.494c0,0,0,0,0.496,0.686c0.516,0.682,0.516,0.682,0.516,0.682
										c0.351,0.797,0.875,2.179,1.165,3.071c0,0,0,0,0.699,2.829C1796.484,1193.316,1796.484,1193.316,1796.484,1193.316z"/>
								</g>
								<g>
									<path fill="#87CE59" d="M1534.665,1352.334c-1.434-5.151-1.434-5.151-1.434-5.151c-6.828,1.062-12.414,1.931-12.297,4.171
										c0.232,3.612,5.085,5.139,11.016,7.004c0,0,0,0,0.742,2.077c0.718,2.061,3.105,4.604,4.212,5.435
										c1.104,0.869,1.104,0.869,1.104,0.869c2.694,0.095,5.881-0.319,7.082-0.92c0,0,0,0-0.195-1.137
										C1544.696,1363.528,1536.13,1357.504,1534.665,1352.334z"/>
								</g>
								<g>
									<path fill="#87CE59" d="M328.827,797.81c3.455-1.285,3.455-1.285,3.455-1.285c2.577-4.321,4.963-8.024,5.302-8.229
										c0.339-0.206,1.201-0.696,1.915-1.091s0.923-1.469,0.466-2.386c0,0,0,0-5.536,2.514
										c-5.526,2.528-16.726,9.533-16.383,10.118c0.317,0.576,2.156,2.25,2.984,2.413
										C321.854,800.033,325.363,799.102,328.827,797.81z"/>
								</g>
								<g>
									<path fill="#87CE59" d="M216.791,546.742c-0.83,0.528-0.83,0.528-0.83,0.528c-1.246,1.843-1.474,3.204-0.508,3.023
										c0,0,0,0,0.996-0.805c1-0.774,1-0.774,1-0.774c0.729-1.409,1.442-2.715,1.583-2.901s0.335-0.453,0.431-0.592
										c0.096-0.139,0.59-0.869,1.097-1.62s-0.127-1.527-1.258-1.473c0,0,0,0-0.683,0.42c-0.692,0.434-1.151,1.966-1.213,2.17
										C217.358,544.894,217.631,546.202,216.791,546.742z"/>
								</g>
								<g>
									<path fill="#87CE59" d="M1561.469,1358.959c-0.979,0.113-3.118,1.466-3.192,2.065c-0.083,0.576,0.15,2.581,0.496,4.437
										c0.344,1.854,4.536,1.934,5.994,0.676c1.475-1.258,2.338-5.546,1.492-6.197
										C1565.376,1359.289,1562.448,1358.832,1561.469,1358.959z"/>
								</g>
								<g>
									<path fill="#87CE59" d="M238.424,810.252c1.881-0.641-0.072-1.379-4.327-1.64c-4.264-0.256-14.086,3.086-10.967,3.435
										C226.228,812.371,236.536,810.888,238.424,810.252z"/>
								</g>
								<g>
									<path fill="#87CE59" d="M136.34,796.104c0.363-0.98-0.859-0.73-2.723,0.545c-1.849,1.277-8.45,2.924-10.069,2.043
										c-1.628-0.883-9.481,5.045-9.518,5.595c-0.033,0.532,0.164,1.903,0.802,1.967c0.634,0.061,4.042,2.011,5.928,3.75
										c1.882,1.738,1.882,1.738,1.882,1.738c4.186,1.655,7.611,3.009,8.87,2.478c1.219-0.549,1.569-2.183,1.998-4.179
										c0,0,0,0-0.218-0.863c-0.203-0.874,0.219-5.794,0.788-7.166C134.657,800.601,135.98,797.113,136.34,796.104z"/>
								</g>
								<g>
									<path fill="#87CE59" d="M1692.196,708.472c-3.658-0.435-3.674,0.217-3.693,1.013s0.671,2.641,1.747,2.429
										c1.076-0.212,4.561-0.386,5.234-0.386s-0.045-1.291-1.599-2.869C1693.886,708.659,1693.886,708.659,1692.196,708.472z"/>
								</g>
								<g>
									<path fill="#87CE59" d="M1842.538,612.342c-1.191-3.222-1.191-3.222-1.191-3.222c0.06-4.834-1.784-11.907-4.097-15.716
										c0,0,0,0-5.239-8.063c-5.234-8.066-23.986-32.569-29.388-36.981c-5.396-4.436-10.419-10.521-10.46-12.101
										c-0.012-1.605-31.316-42.512-71.549-87.69c-40.227-45.198-120.716-108.458-120.716-108.458
										c-25.945-20.392-47.174-37.076-49.183-37.908c-1.021-0.403,0.394-0.253,2.147-0.101c3.097,0.279,1.977-0.558,0.607-1.582
										s-2.489-1.861-6.128-3.565c0,0,0,0-4.266-1.452c-7.959-2.644-16.226-4.816-26.328-7.473c0,0,0,0-4.559-0.878
										c-4.534-0.891-23.486-6.74-28.271-8.524c-4.809-1.768-28.003-7.804-46.116-10.246c-18.112-2.477-15.318-2.575,6.178-0.213
										c21.541,2.342,44.09-0.889,44.457-2.019c0.357-1.148-8.956-7.025-10.088-6.794c-1.148,0.208-5.552-1.992-8.297-4.117
										c-2.7-2.104-22.549-8.572-31.104-10.361c-8.56-1.795-8.56-1.795-8.56-1.795c-21.572-7.888-39.222-14.341-58.457-18.305
										c-23.449-4.965-37.651-3.419-55.009-1.529c0,0,0,0-17.724,0.329c-17.705,0.341-48.413-8.131-71.112-9.532
										c-22.699-1.391-77.35,7.927-77.318,9.96c0.052,2.055-4.878,5.645-8.201,5.589c-3.311-0.021-26.011-1.36-42.83-2.243
										c-16.819-0.898-46.901,2.946-45.874,4.197c1.044,1.262,9.987,7.51,19.432,9.396c9.441,1.868,12.391,3.993,2.651,2.954
										c-9.708-1.065-21.156-1.763-25.369-2.968c-4.237-1.179-28.484-1.595-35.493-0.15c-6.98,1.464-24.571,3.799-20.402,4.36
										c4.171,0.519,4.171,0.519,4.171,0.519c14.075,3.548,25.591,6.45,23.321,6.952c-4.919,1.013-21.871-1.576-42.591-4.741
										c0,0,0,0,0.762-2.961c0.744-3.003-7.033-5.605-11.17-2.953c-4.146,2.686-16.928,9.671-11.404,11.811
										c5.536,2.146-5.797,13.036-5.241,15.074c0.543,2.048,12.477,3.376,19.247,2.055c6.763-1.308,26.524,0.844,31.283,1.715
										c4.757,0.898,13.815,5.871,13.581,7.168c-0.259,1.311-0.259,1.311-0.259,1.311c-6.367-3.759-11.577-6.834-17.459-6.99
										c-13.694-0.023-21.488,1.714-31.013,3.837c0,0,0,0,1.903,3.891c1.894,3.904-8.425,8.437-9.883,9.393
										c-1.464,0.93-12.353,6.313-18.272,8.289c-5.924,1.998-15.742,3.176-15.503,0.967c0.229-2.196,3.737-6.384,8.975-8.696
										c5.228-2.318,10.684-7.353,12.458-8.691c1.764-1.353-0.925-4.75-4.221-5.456c-3.3-0.692-6.553-6.427-6.008-9.531
										c0.529-3.132-2.474-11.205-4.969-12.583c-2.509-1.393-2.509-1.393-2.509-1.393c19.275-8.199,35.045-14.907-10.819-15.468
										c-2.451-0.041-5.964,0.001-10.258,0.053c0,0,0,0,2.982-0.508c2.972-0.525,5.467-1.896,3.664-2.577
										c-1.808-0.655-11.169-0.63-13.141-0.145c-1.971,0.489-4.415,3.162-4.697,3.594c-0.271,0.415-0.271,0.415-0.271,0.415
										c-4.344,0.831-7.899,1.51-10.744,2.32c-8.359,2.53-11.766,9.459-19.393,12.548c-8.146,3.306-12.075,4.967-16.878,6.998
										c0,0,0,0,2.012,0.692c2.013,0.662,2.031,5.235-0.018,7.284c-2.047,2.058,5.197,4.238,9.369,4.261
										c4.178,0.024,16.122,4.34,18.368,6.994c2.233,2.65-10.438,4.621-14.934,3.96c-4.488-0.674-4.488-0.674-4.488-0.674
										c-26.521-2.417-48.221-4.395-58.531-4.272c-28.982,0.316-28.982,0.316-28.982,0.316
										c-15.243,0.166-28.927,0.118-30.408-0.106c0,0,0,0-1.651,0.3c-0.298,0.054-0.298,0.054-0.298,0.054
										c-0.312,0.061-2.876,0.135-5.699,0.166c-2.822,0.031-4.519,0.332-3.771,0.67c0.749,0.337,2.213,1.737,1.684,2.391
										c0,0,0,0,1.352,0.388c0.812,0.23,0.812,0.23,0.812,0.23c1.704,0.103,10.304,3.832,19.111,8.288c0,0,0,0-3.26-0.629
										c-4.021-0.787-28.95,3.802-43.708,9.041c-14.765,5.251-14.765,5.251-14.765,5.251c-11.275-1.85-20.501-3.363-23.115-3.288
										c-10.964,0.334-36.164,10.166-61.382,21.393c-9.641,4.094-17.161,6.832-26.351,10.177c0,0,0,0-1.74,3.33
										c-1.741,3.332-29.757,9.466-34.447,9.281c-4.7-0.18-1.339-4.534,4.671-5.802c6.04-1.281,6.04-1.281,6.04-1.281
										c-10.619-7.226-19.307-13.138-31.073-1.947c-2.767,2.626-2.16,4.895-1.417,7.668c0.743,2.773,1.35,5.042,5.374,5.945
										c0,0,0,0-0.84,3.829c-0.649,3.032-4.821,3.533-9.92,4.145c-5.099,0.612-9.271,1.113-7.85-1.861c0,0,0,0-5.205,1.707
										c-10.233,3.738-21.446,11.306-35.151,20.556c0,0,0,0,0.834,1.701c0.834,1.7-6.3,7.314-11.926,8.605
										c-5.627,1.278-33.583,5.959-32.914,7.149c0.663,1.153,4.318,4.575,6.839,4.346c2.528-0.204,5.842,1.585,1.22,4.021
										c-4.608,2.428-16.817,3.208-19.1,3.601c-2.294,0.389-6.36-1.916-5.832-2.836c0.536-0.915-1.85-6.8-3.768-8.455
										c-1.925-1.644-1.925-1.644-1.925-1.644c12.358-6.625,22.47-12.045,39.941-15.351c23.406-4.072,75.154-35.066,5.409-23.46
										c-20.731,2.914-33.058,5.654-48.124,9.002c0,0,0,0-2.444,0.225c-2.417,0.244-17.114,5.308-19.878,6.237
										c-2.75,0.928-2.75,0.928-2.75,0.928c-4.042,1.207-8.189,1.939-9.216,1.628c0,0,0,0,3.601-1.423
										c3.6-1.407,9.105-7.407,6.029-6.676c-3.089,0.745-9.29,2.8-10.832,3.644c-1.531,0.849-5.037,3.68-5.934,3.99
										c-0.899,0.303-3.306-0.895-6.115,0.957c-2.691,1.766-2.691,1.766-2.691,1.766c-4.612,3.091-9.975,5.602-11.917,5.58
										c0,0,0,0-2.079,1.615c-2.228,1.746-34.279,32.737-66.295,65.644c-9.408,9.667-9.408,9.667-9.408,9.667
										c-14.5,17.479-20.897,27.534-14.217,22.344c0,0,0,0,4.709-3.765c6.606-5.276,14.057-14.725,14.098-15.19
										c0.04-0.481,0.04-0.481,0.04-0.481c7.294-9.289,13.262-16.89,24.166-22.137c8.572-4.34,10.797-2.063,13.518,0.719
										c0,0,0,0-4.985,4.771c-4.975,4.774-17.018,15.232-19.731,18.513c-2.72,3.278-19.333,14.942-20.471,17.372
										c-1.117,2.432-2.728,7.367-3.02,8.779c-0.314,1.417,1.377,2.733,0.064,3.93c-1.334,1.214-2.491,5.449-1.064,6.607
										c1.414,1.149,1.414,1.149,1.414,1.149c4.507,0.121,8.195,0.22,12.891-1.953c5.682-2.678,12.271-5.369,20.323-8.658
										c0,0,0,0,3.908-1.954c3.898-1.95,16.587-10.605,21.696-12.052c5.099-1.435,8.578,3.154,5.458,6.188
										c-3.104,3.034-3.104,3.034-3.104,3.034c-14.084,4.401-25.607,8.002-33.47,11.072c-8.594,3.212-16.001,11.725-25.054,22.129
										c0,0,0,0,3.235-1.984c3.224-2.005,9.037,3.046,7.699,6.28c-1.338,3.208-1.338,3.208-1.338,3.208
										c-5.727,0.607-10.413,1.104-16.277,3.506c-6.009,2.537-12.318,13.708-20.028,27.361c0,0,0,0-3.539,2.941
										c-3.519,2.935-11.342,14.611-13.509,15.679c-2.154,1.071-7.344,3.057-7,2.487c0.355-0.601-0.054-1.539-1.673-0.958
										c-1.643,0.594-9.462,4.416-12.12,6.352c-2.661,1.967-8.906,6.716-10.737,7.628c-1.839,0.893-9.662,6.383-10.397,7.141
										c-0.712,0.746-4.911,3.216-5.971,3.072c-1.055-0.116-1.343-1.237-0.904-1.873c0.449-0.631-1.284-0.044-4.823,2.879
										c-3.536,2.92-13.278,9.474-13.639,9.233c-0.345-0.226-13.31,20.252-28.037,46.889
										c-14.723,26.641-47.026,100.679-46.574,101.196c0.438,0.509,0.438,0.509,0.438,0.509
										c7.64-6.625,13.891-12.045,18.781-17.18c2.995-3.12,3.438-6.628,7.662-8.691c9.125-4.601,10.359,3.431,11.868,13.248
										c0,0,0,0,0.699,0.069c0.701,0.059,5.005,4.374,6.297,6.02c1.307,1.618,11.678,2.351,12.535,2.827
										c0.856,0.47,5.836,3.603,8.841,7.353c2.994,3.722,7.314,7.804,7.973,8.678c0.664,0.899-0.082,9.395-0.868,12.077
										c-0.767,2.733-5.17,6.673-5.164,7.265c-0.004,0.595,4.295-1.653,5.748-4.077c1.465-2.428,6.942-9.718,7.868-10.937
										c0.946-1.204,1.408-4.135,0.73-4.46c-0.666-0.328-0.443-7.314-0.029-9.717c0.424-2.386,5.892-5.206,7.309-4.486
										c1.408,0.713,5.675-1.699,3.827-4.617c-1.875-2.944-1.875-2.944-1.875-2.944c-8.886-1.65-16.156-3-14.279-7.722
										c0.363-0.862-0.29-0.869-1.089-0.877c-0.799-0.008-1.452-0.014-5.838,2.428c0,0,0,0-4.013-0.833
										c-3.819-0.756-3.912-4.007-4.026-7.981s-0.208-7.225-1.062-11.236c0,0,0,0-3.938,0.066
										c-5.612,0.089-5.155-1.625-4.597-3.719s1.738-6.147,1.74-6.152s0.957-2.787,1.442-4.698c0,0,0,0,1.783-1.642
										c1.795-1.627,6.714-4.778,6.32-2.322c-0.404,2.427,3.905,2.116,5.504,1.417c1.599-0.72,7.063,1.893,8.607,6.917
										c1.542,5.068,9.984,6.237,10.62,5.872c0.621-0.36,4.196-0.211,5.333,0.658c1.123,0.833,8.772,3.997,11.669,5.552
										c2.883,1.586,4.362,9.234,4.104,10.917c-0.269,1.67-0.269,1.67-0.269,1.67c-1.832,7.239-3.33,13.162,0.276,16.144
										c3.144,2.738,4.366,6.159,5.86,10.34c0,0,0,0,0.004,1.158c0.001,1.188,2.399,0.987,3.355,0.688
										c0.969-0.327,3.131,0.917,1.653,3.326c-1.486,2.379-2.017,11.574-0.494,16.034c1.548,4.49,9.671,6.927,10.546,6.786
										c0.869-0.169,0.869-0.169,0.869-0.169c1.988-4.97,3.614-9.036,3.87-11.639c0.241-3.435-0.229-7.672-0.804-12.852
										c0,0,0,0-0.001-0.58c-0.007-0.568,1.375,0.093,2.65,2.503c1.274,2.406,1.274,2.406,1.274,2.406
										c2.817,1.105,5.902,1.14,6.855,0.077c0,0,0,0,1.451-2.205c1.447-2.178,4.442-5.842,4.182-6.326
										c-0.28-0.487-3.41-3.421-6.796-5.077c-3.397-1.654-5.549-4.578-5.153-5.338c0.391-0.737,0.477-4.279-0.5-5.404
										c-0.972-1.105-0.972-1.105-0.972-1.105c-0.518-4.023-0.942-7.315,1.276-7.969c3.976-1.067,6.397,0.194,9.357,1.736
										c0,0,0,0,0.415-1.373c0.436-1.375,1.722-6.767,3.563-8.382c1.851-1.654,11.377-4.428,13.315-3.832
										c1.007,0.307,1.007,0.307,1.007,0.307c3.21-0.173,5.452,1.685,4.981,4.128c0,0,0,0-0.871,4.534
										c-0.336,2.01,2.693,1.408,6.396,0.673c0,0,0,0-0.189,0.578c-0.189,0.564-1.323,5.018-2.756,6.996
										c-1.423,1.988-4.718,9.277-2.177,10.505c2.523,1.224,9.084,9.729,10.888,12.631c1.786,2.893,5.064,8.152,4.434,8.964
										c-0.628,0.811-1.79,1.951-1.006,1.75c0.797-0.181,5.58,0.866,8.586,2.579c2.993,1.709,15.478-0.927,17.286-4.235
										c1.82-3.301,16.548-5.814,21.221-3.031c4.66,2.792,21.727,1.724,26.109-0.729c4.365-2.462,16.942-11.11,18.194-10.198
										c1.25,0.926,7.934-0.031,9.344-1.11c1.402-1.071,6.679-3.211,6.583-2.239c-0.082,0.981-0.859,3.933-1.71,4.754
										c-0.863,0.848-0.863,0.848-0.863,0.848c0.133,8.747,0.242,15.904-0.184,24.717c-0.352,12.327-9.937,15.29-13.637,26.399
										c-3.36,10.591-6.184,18.886-9.634,29.024c0,0,0,0-0.967,0.71c-0.96,0.692-1.811,6.146-1.265,7.621
										c0.554,1.474,1.443,4.313,1.106,3.382c-0.349-0.908-2.882-2.589-4.832-2.009c-1.969,0.589-1.969,0.589-1.969,0.589
										c-15.357-0.571-27.922-1.039-36.455,0.321c-13.52,1.956-6.659,6.049-20.706,8.107c-15.544,2.55-30.785-0.905-49.411-5.127
										c0,0,0,0-4.243,0.946c-4.23,0.942-12.019-3.959-13.466-4.919c-1.445-0.93-3.467-8.254-4.851-8.045
										c-1.394,0.198-5.884,1.153-6.032,1.007c-0.147-0.149-5.35,1.54-10.912,3.958c-5.577,2.422-11.712,21.409-11.904,23.198
										c-0.192,1.77-0.192,1.77-0.192,1.77c-2.416,6.956-4.392,12.646-7.765,13.342c-26.154,5.153-40.037-5.151-57.006-17.747
										c0,0,0,0-1.43,0.468c-1.427,0.495-7.912-0.015-10.883-1.721c-2.976-1.691-3.692-16.875-2.507-19.966
										c1.204-3.071,2.715-13.45,1.92-14.736c-0.796-1.292,0.163-7.511,1.314-9.146c1.15-1.676,3.082-9.004,2.621-8.006
										c-0.456,1.021-3.949,0.758-4.462-1.024c-0.513-1.798-6.953,0.178-8.504,2.475c-1.535,2.292-8.843,5.88-9.786,5.518
										c-0.941-0.383-6.241,2.385-7.887,4.592c-1.634,2.195-8.197,6.026-9.211,5.575c-1.001-0.476-7.286,2.34-10.202,5.158
										c-2.896,2.804-20.447,69.899-20.447,69.899c-8.351,31.926-20.561,84.506-27.134,116.845c0,0-5.601,27.555-1.624,134.836
										c1.284,34.511,3.096,49.747,5.311,68.37c2.215,18.622,5.554,33.9,6.895,33.687c0,0,0,0,0.813-1.309
										c0.803-1.29,6.796-7.825,10.958-11.924c4.147-4.108,4.147-4.108,4.147-4.108c10.295,14.251,18.719,25.911,25.74,27.184
										c4.077,0.615,10.258,0.931,17.813,1.316c0,0,0,0,3.93,2.839c3.956,2.841,11.214,19.681,10.973,24.433
										c-0.237,4.774,0.073,14.982-0.204,15.701c-0.281,0.707-0.281,0.707-0.281,0.707c-1.597,9.44-2.903,17.165-2.19,22.559
										c2.479,21.459,20.775,45.28,30.608,62.057c5.367,8.725,5.681,18.439,9.405,28.177c4.841,12.118,9.645,25.683,15.516,42.262
										c0,0,0,0,1.669,4.155c1.657,4.147,1.657,4.147,1.657,4.147c-2.472,24.651-4.494,44.821,2.726,74.421
										c6.889,27.382,19.597,46.01,35.13,68.776c0,0,0,0,2.264,2.598c2.286,2.595,5.979,12.025,6.414,13.955
										c0.431,1.94,7.544,18.183,13.766,31.821c6.211,13.617,29.869,46.677,34.096,53.032c4.221,6.38,20.157,28.058,21.966,29.977
										c1.796,1.908,1.514,9.556,3.08,12.177c1.56,2.589,5.687,11.269,5.63,10.954c-0.053-0.283,4.227,2.065,6.237,4.382
										c2.022,2.308,11.972,5.568,15.102,4.289c3.14-1.28,22.29,3.344,24.393,4.692c2.108,1.367,8.581,4.294,10.013,4.259
										c1.425-0.033,10.394,1.303,14.012,1.678c3.625,0.343,3.625,0.343,3.625,0.343c12.732-7.293,23.149-13.26,30.063-23.433
										c4.271-6.15,8.066-8.617,12.704-11.633s8.432-5.482,13.422-12c0,0-0.628-2.672-1.395-5.937s-1.624-6.776-1.902-7.802
										c-0.279-1.026-4.434-5.639-9.231-10.249c0,0,0,0-1.342-2.694c-1.325-2.674,15.974-8.273,19.631-8.092
										c3.665,0.143,3.665,0.143,3.665,0.143c4.054-13.793,7.371-25.077,5.604-34.159c-3.687-16.763-9.051-22.935-15.607-30.478
										c0,0,0,0,1.262-3.435c1.272-3.419,22.619-10.228,39.678-14.984c17.063-4.776,26.717-49.685,26.208-51.66
										c-0.497-1.966-5.249-11.429-6.124-17.226c-0.879-5.81-0.879-5.81-0.879-5.81c-1.051-13.25-1.911-24.091-1.892-27.865
										c-0.004-0.98-1.695-4.81-3.763-9.491c-2.067-4.68-3.759-8.51-16.13-21.346c0,0,0,0-2.351-17.848
										c-1.979-15.728-11.817-30.104-13.972-46.427c-1.778-15.096,11.087-17.753,13.594-31.294
										c3.625-20.279,17.634-17.819,29.478-29.506c4.878-5.058,4.878-5.058,4.878-5.058c2.233-13.435,16.008-32.841,30.611-43.125
										c0,0,0,0,14.294-12.238c19.241-16.412,24.753-31.303,40.89-54.653c13.064-20.003,20.312-46.012,29.171-77.801
										c0,0,6.986-25.07,6.336-26.463c-0.65-1.401-11.396-2.329-21.412,2.145c-10.021,4.454-10.021,4.454-10.021,4.454
										c-23.993,3.173-43.623,5.77-51.832,8.798c-7.695,2.857-13.211,4.383-19.953,6.247c0,0,0,0-4.667-4.763
										c-4.68-4.739-15.831-16.199-15.812-18.353c0.008-2.155-5.704-18.794-12.156-24.854c-6.482-6.063-6.482-6.063-6.482-6.063
										c-15.816-10.369-28.757-18.854-37.339-27.488c-9.496-9.64-4.371-23.896-13.678-37.092
										c-7.56-10.976-15.141-24.668-24.407-41.402c0,0,0,0-0.069-5.31c-0.061-5.314-4.623-22.893-10.25-27.269
										c-5.626-4.389-14.478-33.001-22.212-49.19c-7.734-16.174-26.492-59.115-26.525-60.865
										c-0.021-1.784,3.745,1.106,7.853,9.366c4.086,8.249,18.573,11.486,20.499,6.245c1.908-5.282,5.244-14.578,4.382-10.943
										c-0.852,3.625,0.023,12.393,1.78,15.034c1.755,2.622,1.755,2.622,1.755,2.622c7.023,9.583,12.77,17.425,18.376,26.646
										c1.726,2.644,3.965,8.108,6.701,14.788c0,0,0,0-0.014,3.12c-0.005,3.135,4.669,8.667,6.89,8.72
										c2.204,0.03,6.856,2.793,8.011,4.091c1.14,1.295,1.14,1.295,1.14,1.295c6.927,8.205,12.594,14.918,13.063,27.784
										c0.139,21.086,6.383,27.295,14.016,34.883c7.632,7.589,13.877,13.798,20.346,30.32c0,0,0,0,6.695,6.549
										c5.943,5.952,9.897,15.896,14.73,28.049c0,0,0,0-1.295,4.396c-1.314,4.396-1.314,4.396-1.314,4.396
										c2.336,14.628,5.553,28.592,7.148,31.029c1.595,2.438,2.794,7.025,2.665,10.192c0,0,0,0,1.113,0.591
										c1.208,0.619,8.663,3.405,17.774,6.81c0,0,0,0,0.684-0.441c0.676-0.42,5.027-3.606,8.57-6.241
										c3.554-2.634,18.858-12.252,22.715-12.084c3.859,0.162,3.859,0.162,3.859,0.162c21.141-11.633,38.438-21.15,45.374-23.385
										c14.086-4.188,25.546-9.878,39.554-16.831c0,0,0,0-0.716-1.023c-0.716-1.047,6.121-6.879,15.007-11.333
										c8.906-4.426,8.906-4.426,8.906-4.426c18.827-13.486,34.231-24.521,39.69-24.992c9.043-0.718,13.223-9.397,18.332-20.006
										c0,0,0,0,1.656-2.831c1.674-2.805,7.487-14.385,9.788-17.045c2.313-2.649,18.437-10.136,24.97-15.974
										c6.5-5.81,10.509-24.944,8.29-25.876c-2.247-0.929-2.247-0.929-2.247-0.929c-3.011-3.185-5.975-6.887-6.586-8.227
										s-1.111-2.437-3.808-8.788c0,0,0,0-6.908-1.654c-17.636-4.306-26.667-13.919-37.705-25.669c0,0,0,0-0.084-3.807
										c-0.078-3.815-0.078-3.815-0.078-3.815c-12.926,16.209-23.501,29.471-63.164,32.472
										c-9.013,0.731-23.391-2.314-23.861-10.329c-0.476-6.963,1.448-12.55,3.8-19.379c0,0,0,0-0.1-1.25
										c-0.127-1.27-1.446-1.929-2.663,0.462c-1.215,2.39-10.099,5.156-11.191,3.38c-1.124-1.756-1.124-1.756-1.124-1.756
										c-16.414-17.822-29.844-32.403-32.991-45.218c-0.924-3.456-1.05-7.089-1.019-12.554
										c-0.094-7.85,3.467-17.663,11.346-18.582c15.826-1.364,19.935,5.551,24.957,14.002c5.022,8.451,9.131,15.366,8.848,19.011
										c0,0,0,0,3.328,3.147c6.607,5.899,15.25,1.652,22.529,7.811c6.067,5.333,14.296,9.284,24.354,14.112c0,0,0,0,5.449-0.323
										c5.441-0.326,5.441-0.326,5.441-0.326c10.813-5.541,19.661-10.074,26.499-10.419c12.227-0.827,15.6,4.612,19.722,11.259
										s7.495,12.086,17.83,14.276c0,0,0,0,2.335-0.065c16.236-0.847,33.869,1.226,55.42,3.76c0,0,0,0,0.617-0.049
										c0.641-0.041,3.784,0.063,6.053,0.242c2.275,0.178,9.39,0.046,10.37-0.889c0.986-0.945,6.032-2.137,8.947-1.54
										c2.925,0.614,13.898,1.257,17.71,0.22c3.813-1.037,17.054-2.718,20.229-3.202c3.173-0.521,15.545,3.963,18.757,8.142
										c3.232,4.166,16.567,19.236,23.415,24.53c6.844,5.295,27.249,9.076,29.812,8.987c2.564-0.1,9.23,2.513,8.449,4.618
										c-0.761,2.141-8.765,5.096-11.499,4.903c-2.73-0.187-6.693,9.231-1.89,16.382c4.797,7.149,32.665,9.231,37.593,5.167
										c4.93-4.047,17.912-15.289,18.962-15.252c1.053,0.021,2.341,1.341,1.395,3.278c-0.955,1.945-0.955,1.945-0.955,1.945
										c3.201,9.423,5.82,17.133,6.342,26.849c0.29,7.602-0.352,9.666-1.137,12.188s-1.501,5.129-1.491,5.93c0,0,0,0,0.38,1.963
										c0.367,1.935,0.367,1.935,0.367,1.935c4.34,13.778,7.891,25.052,12.279,36.875c4.926,13.18,10.925,30.911,14.393,39.622
										c2.803,7.629,2.887,10.874,8.318,18.808c5.272,7.314,2.561,14.66,7.883,24.118c1.993,3.37,11.585,10.217,14.676,18.526
										c4.763,12.224,12.249,24.059,17.836,38.008c0.53,1.294,2.188,2.908,4.212,4.882s3.682,3.588,6.107,6.896
										c0,0,0,0,5.311-0.446c3.676-0.238,5.933-6.003,8.69-13.048c0,0,0,0,1.119-1.033c1.122-1.024,10.215-9.7,10.802-14.548
										c0.617-4.851,11.572-12.106,13.225-12.472c1.653-0.354,3.763-2.104,4.406-2.229c0.653-0.133,1.345-2.752,0.629-5.534
										c-0.741-2.804-0.97-14.906,0.773-20.637c1.736-5.706,1.736-5.706,1.736-5.706c-2.131-23.384-3.981-44.978-4.11-47.986
										c-0.13-3.008,5.491-10.063,12.491-15.676c0,0,0,0,11.328-4.177c3.154-1.063,10.721-8.989,15.762-14.496
										c11.878-12.737,22.025-25.292,34.121-38.427c9.824-10.441,22.955-18.54,39.003-28.438c0,0,0,0,1.17-3.38
										c1.188-3.393,7.513-15.064,11.47-14.813c3.938,0.258,3.938,0.258,3.938,0.258c6.898-1.82,12.543-3.309,22.592-3.468
										c16.243-0.534,25.128-10.129,35.987-21.856c0,0,0,0,5.239,1.438c5.258,1.425,13.482,15.036,14.137,19.711
										c0.63,4.689,8.938,18.96,12.361,22.388c3.409,3.427,16.915,15.609,19.81,18.646c2.877,3.03,11.065,18.921,11.982,20.403
										c0.92,1.45,0.92,1.45,0.92,1.45c-0.63,7.253-1.145,13.187-0.789,20.838c0.389,7.736-0.994,13.177,8.065,13.001
										c16.771-0.645,23.562-11.597,31.861-24.983c0,0,0,0,0.484,1.554c0.469,1.535,6.128,6.417,7.793,6.624
										c1.646,0.196,4.031,8.124,3.149,15.183c-0.879,7.053,9.271,23.025,13.092,35.216c3.786,12.189,7.28,52.554,6.295,57.922
										c-0.96,5.377-0.96,5.377-0.96,5.377c1.538,3.752,2.505,6.834,2.15,6.849c-0.355,0.015-1.741,1.63-2.786,3.551
										c0,0,0,0-1.442,4.271c-1.412,4.263-2.573,16.703-2.813,17.661c-0.227,0.969,0.83,1.76,1.277,1.793
										c0.414,0.023,0.414,0.023,0.414,0.023c11.025,10.698,20.046,19.451,24.206,27.396c6.781,13.306,7.34,24.278,13.314,40.938
										c6.533,18.499,22.378,33.999,39.532,38.608c2.794,0.732,5.996,2.111,9.909,3.796c0,0,0,0,0.684-0.68
										c0.67-0.658,3.778-1.431,5.2-1.597c1.392-0.141,3.818-2.794,3.034-5.187c-0.802-2.399-5.945-13.648-8.94-16.253
										c-2.955-2.634-4.738-15.893-4.183-17.317c0.563-1.4-6.345-15.018-15.436-23.236c-9.055-8.246-33.556-32.552-34.856-36.41
										c-1.327-3.86-1.327-3.86-1.327-3.86c-1.73-3.954-4.479-8.22-6.11-9.479c0,0,0,0-4.534-2.82
										c-4.512-2.763-4.512-2.763-4.512-2.763c2.324-23.707,4.226-43.104,3.556-61.646c-0.029-3.69,2.278-10.66,5.1-19.18
										c0,0,0,0-0.39-1.783c-0.402-1.766,6.518-3.423,9.911-3.22c3.388,0.203,8.863,8.808,9.442,10.933
										c0.605,2.132,5.577,4.603,9.991,5.441c4.412,0.877,16.445,13.354,16.77,17.794c0.338,4.466,14.73,10.361,17.755,13.546
										c3.006,3.181,13.884,7.225,14.479,9.423c0.579,2.171,2.433,5.675,1.894,6.676c-0.537,0.998-0.268,9.391,0.468,12.616
										c0.753,3.214,5.827,3.776,9.159,1.175c3.303-2.579,3.303-2.579,3.303-2.579c1.394-7.271,2.533-13.221,2.604-14.906
										c-0.055,1.377,1.25,2.168,2.844,3.134c0,0,0,0,1.429-2.638c1.415-2.661,11.682-12.225,15.661-16.321
										c3.946-4.071,24.371-16.551,25.798-20.921c1.417-4.406-0.162-31.077-3.259-42.217
										c-3.106-11.159-22.322-35.539-27.547-42.234c-5.211-6.703-23.374-26.776-24.566-27.753
										c-1.212-0.979,2.15-13.863,8.499-22.109c6.321-8.257,22.828-33.609,25.107-34.134c2.28-0.548,17.103,9.752,20.678,16.261
										c0.206,0.374,0.206,0.374,0.206,0.374c0.242,0.386,6.495-5.522,13.896-13.131c0,0,0,0,6.579-7.057
										c5.772-6.191,11.473-12.454,16.956-18.903c1.261-1.485,2.512-2.979,3.756-4.478c0.573-0.715,1.812-2.246,2.025-2.516
										c2.649-3.362,5.249-6.762,7.792-10.208c6.948-9.42,19.115-13.402,29.615-6.839c7.819,4.886,7.819,4.886,7.819,4.886
										c0.854,10.854,10.658,14.116,21.785,7.25c0,0,0,0,1.085-0.807c1.436-1.079,6.033-11.487,9.326-16.563
										c3.281-5.089,11.611-24.922,14.733-31.934c2.546-5.73,2.546-5.73,2.546-5.73c6.577-10.45,11.92-18.998,11.873-18.994
										c0,0,0,0-0.044,0c-11.716,0-21.046-11.056-20.576-22.385c0.438-10.457,0.438-10.457,0.438-10.457
										c9.557-5.317,10.937-17.226,3.065-26.464c0,0,0,0-0.724-2.208c-0.738-2.262-0.738-2.262-0.738-2.262
										c-2.439-2.953-4.454-5.359-4.478-5.347s-0.418-0.719-0.877-1.624c0,0,0,0-0.319-1.673
										c-0.327-1.695-0.327-1.695-0.327-1.695c-7.425-6.024-13.5-10.953-13.5-10.954s-6.694-7.809-14.514-14.451
										c0,0,0,0,0.377-9.044c0.189-4.587,0.189-4.587,0.189-4.587c2.275-4.046,3.111-8.192,1.858-9.214
										c-1.254-1.022-2.63-2.626-3.059-3.564c-0.43-0.938-3.21-1.901-5.134-0.178c0,0,0,0-1.7,1.519
										c-8.741,7.806-22.192,7.782-30.39-0.898c-7.876-8.343-7.829-22.595,0.897-30.39c4.887-4.362,10.044-8.505,14.47-13.352
										c0.257-0.277,0.257-0.277,0.257-0.277c0.273-0.313,0.541-0.627,0.594-0.698s0.418-0.585,0.662-0.943
										c0.245-0.358,0.914-1.433,0.973-1.571c0.059-0.139,0.241-0.99,0.274-1.56c0,0,0,0-0.012-0.392
										c-0.387-11.717,11.35-21.035,22.385-20.576c12.351,0.513,20.189,10.687,20.575,22.386c0.08,2.478,0.08,2.478,0.08,2.478
										c-0.307,2.583,1.065,5.087,3.05,5.564c0,0,0,0,0.975,0.725c2.305,1.718,3.604,6.584,1.967,8.53
										c-1.636,1.95,1.409,8.295,5.783,5.718c4.376-2.58,22.089-1.832,24.11-0.512c2.004,1.345,2.004,1.345,2.004,1.345
										c4.61,3.072,8.382,5.585,8.915,10.192c0.406,3.348-0.854,5.615-2.396,8.387c0,0,0,0,0.465,1.74
										c0.479,1.764,0.479,1.764,0.479,1.764c3.019,0.13,5.488,0.236,8.592,0.889c5.056,1.2,11.372,10.156,12.691,15.546
										c0.77,2.932-1.715,4.262-4.752,5.886c0,0,0,0,0.256,0.908c0.26,0.883,0.74,3.777,1.213,4.659
										c0.475,0.856,4.167,3.526,4.951,5.099c0.805,1.565,1.246,7.063,0.555,9.023c-0.699,1.951-0.195,7.813-0.063,9.02
										c0.113,1.21,2.028,3.678,1.56,4.723c-0.467,1.06,0.391,4.051,1.346,4.081c0.937,0.029,4.355,0.142,4.952-0.56
										c0.585-0.676,7.316-2.772,9.383-3.688c2.081-0.905,2.081-0.905,2.081-0.905c5.719-3.926,10.398-7.139,8.439-18.02
										c-3.173-18.044-11.889-29.794-22.541-44.156c0,0,0,0-2.275-2.046c-2.263-2.049-2.847-10.099-0.832-10.372
										c2.027-0.271,2.027-0.271,2.027-0.271c6.128-3.318,11.143-6.033,12.244-9.081c2.947-8.476,10.579-14.424,19.906-21.695
										c0,0,0,0,0.947,2.621c0.958,2.617,16.377,1.124,22.485-6.844c6.142-7.988,18.606-25.163,19.964-28.045
										C1844.619,627.629,1843.78,615.57,1842.538,612.342z M444.725,683.537c-4.015,2.907-7.299,5.286-16.96,7.197
										c-9.479,1.708-20.09,3.092-33.059,4.784c0,0,0,0-6.291,0.318c-6.292,0.301-6.292,0.301-6.292,0.301
										c-8.214-4.437-14.934-8.067-27.744-5.798c-7.976,1.417-20.384,4.508-26.509,8.501c-5.223,3.491-13.389,9.746-18.749,11.138
										c-4.44,1.058-9.442,1.893-15.556,2.914c0,0,0,0-2.699,0.128c-2.684,0.119-4.974,4.041-4.401,4.31
										c0.401,0.184,0.401,0.184,0.401,0.184c-11.152,3.159-20.007,5.634-19.678,5.501c0,0,0,0,0.239-0.083
										c3.075-1.083,10.554-4.057,11.694-4.297c1.125-0.268,1.125-0.268,1.125-0.268c-5.629-4.014-10.235-7.298-9.4-14.546
										c0.769-5.407,6.544-11.971,13.603-19.994c0,0,0,0,0.219-1.677c0.21-1.647,0.21-1.647,0.21-1.647
										c0.599-2.406,2.8-7.685,4.891-11.731c0,0,0,0,1.278-1.734c1.281-1.768,7.138-5.73,7.189-6.699
										c0.059-0.944,3.106-7.575,6.655-12.553c3.545-4.982,18.532-11.014,21.9-10.232c3.382,0.816,16.25,1.002,13.396,2.815
										c-2.86,1.819-1.313,7.189,1.95,10.117c3.269,2.903,15.96,1.844,23.917-1.929c7.939-3.755,15.988-10.729,12.476-10.42
										c-3.508,0.299-8.111,0.741-10.225,0.923c-2.109,0.189,4.479-8.477,14.064-13.75c9.568-5.249,29.376-14.632,27.409-12.829
										c-1.956,1.814-2.934,6.544,0.375,8.964c3.312,2.449-7.723,18.171,9.753,20.998c17.488,2.819,17.488,2.819,17.488,2.819
										C445.223,663.497,448.74,680.629,444.725,683.537z M460.254,669.593c0.2-0.268,0.882-0.215,1.093-0.496
										C461.148,669.381,460.46,669.358,460.254,669.593z M638.208,665.779c-2.941,0.387-13.5,3.245-16.062,5.878
										c-2.576,2.615-2.576,2.615-2.576,2.615c7.711,6.894,14.021,12.534,13.944,20.482c0.032,2.737-0.258,7.135-0.612,12.51
										c0,0,0,0-0.108,3.105c-0.127,3.119,0.136,7.706,0.097,9.63c-0.044,1.91-3.875,7.162-8.487,8.429
										c-4.6,1.293-22.788,4.1-28.565,4.95c-5.766,0.85-15.953-3.995-17.197-6.233c-1.259-2.238-1.259-2.238-1.259-2.238
										c-10.07-3.118-18.309-5.668-21.033-9.953c-3.101-4.579-3.368-8.423-3.694-13.122c0,0,0,0-1.768-0.432
										c-1.785-0.461-2.297-5.25-0.824-5.238c1.494,0.024,6.388-3.82,8.288-8.359c1.927-4.558,1.927-4.558,1.927-4.558
										c-13.175-18.276-23.955-33.23-23.677-46.827c-0.027-3.385-3.656-9.855-8.091-17.763c0,0,0,0,3.022-4.82
										c3.009-4.796,12.513-13.135,17.71-15.37c5.2-2.211,5.2-2.211,5.2-2.211c14.535-7.324,26.426-13.316,44.826-15.512
										c28.874-4.1,30.664,1.049,32.852,7.343c2.188,6.293,3.979,11.442-6.613,12.798c0,0,0,0-9.927,1.287
										c-15.137,1.574-19.485,5.083-24.799,9.372c-5.314,4.289-9.663,7.798-4.896,11.293c0,0,0,0,3.183,3.781
										c9.795,11.858,18.426,18.757,28.974,27.189c0,0,0,0,4.099-2.064c4.097-2.05,13.775-1.737,16.448,1.416
										C641.256,656.287,641.171,665.443,638.208,665.779z"/>
								</g>
								<g>
									<path fill="#87CE59" d="M88.948,791.836c-2.022,5.665-3.677,10.3,0.484,8.433c3.274-1.572,7.16-8.196,8.333-13.742
										c1.34-5.73,1.268-10.314,1.179-15.917c0,0,0,0-0.045-0.736c-0.029-0.727-3.394,1.507-4.246,2.762
										c-0.858,1.286-4.063,5.814-3.597,6.786c0.464,0.996-0.734,9.311-1.415,10.849
										C88.948,791.836,88.948,791.836,88.948,791.836z"/>
								</g>
								<g>
									<path fill="#87CE59" d="M99.271,761.405c0.892-3.168,0.892-3.168,0.892-3.168c1.208-4.586,2.122-9.205,2.031-10.263
										c0,0,0,0-0.559,1.055c-0.56,1.053-0.56,1.053-0.56,1.053c-2.074,1.623-3.852,6.173-3.951,10.111c0,0,0,0,0.186,2.474
										C97.488,765.16,98.379,764.601,99.271,761.405z"/>
								</g>
								<g>
									<path fill="#87CE59" d="M1525.28,1397.563c2.609-12.249,4.744-22.271,4.908-30.491c0.15-5.515-5.788-8.34-13.046-11.794
										c0,0,0,0-3.321-2.286c-3.31-2.313-8.313-16.705-11.115-16.854c-2.813-0.164-4.654-9.118-4.219-10.333
										c0.461-1.227,0.701-4.833-0.148-6.166c-0.839-1.354-4.035-2.357-4.884-2.328c-0.841,0.053-0.841,0.053-0.841,0.053
										c-0.839-0.491-2.309-2.432-3.267-4.312c-0.957-1.879-1.741-3.417-6.838-9.474c0,0,0,0-8.139-2.272
										c-15.38-4.245-23.86-13.419-34.225-24.631c0,0,0,0-2.508-3.335c-2.532-3.298-14.702-8.886-16.141-8.989
										c-1.446-0.102-5.542-6.461-7.878-11.38c-2.353-4.917-19.922-12.343-23.32-12.134c-3.387,0.24-13.95-0.438-15.494-1.79
										c-1.523-1.35-9.459-2.274-10.149-2.22c-0.729,0.072-2.259,0.901-2.303,1.894c-0.029,0.98,2.856,7.967,6.113,14.021
										c3.249,6.066,12.536,12.015,15.473,11.86c2.928-0.148,2.928-0.148,2.928-0.148c5.976,8.996,11.525,17.707,12.333,19.357
										c0.808,1.649,2.408,4.762,3.556,6.916c1.148,2.154,6.478,8.137,11.842,13.296c5.365,5.159,9.755,9.38,12.874,19.649
										c0,0,0,0,2.337,1.386c1.376,0.828,4.785,2.004,8.951,3.44c0,0,0,0,0.086,1.357c0.104,1.385,0.104,1.385,0.104,1.385
										c5.459,7.071,9.925,12.857,10.874,15.103c6.117,13.448,14.819,23.843,25.454,36.547c0,0,0,0,5.276,3.669
										c5.257,3.667,21.908,19.399,24.691,23.223c2.795,3.821,12.966,4.648,16.034,2.163c3.063-2.456,5.121-7.365,4.581-10.878
										C1525.28,1397.563,1525.28,1397.563,1525.28,1397.563z"/>
								</g>
								<g>
									<path fill="#87CE59" d="M1406.946,1313.877c-1.99-1.316-3.983-2.209-4.429-1.984c-0.446,0.225,0.33,1.644,1.479,3.172
										c0,0,0,0,2.328,3.388c2.321,3.38,7.035,2.675,3.832-0.957C1406.946,1313.877,1406.946,1313.877,1406.946,1313.877z"/>
								</g>
								<g>
									<path fill="#87CE59" d="M1873.152,1365.914c0.23-2.099,0.052-5.252-0.398-7.008c0,0,0,0-0.56,1.422
										c-0.564,1.45-2.139,6.777-3.021,7.815c-0.92,1.045-2.083,7.723-2.047,8.682c0.032,0.99,4.602-1.51,4.404-4.095
										c-0.182-2.601,0.219-5.338,0.922-6.088C1873.152,1365.914,1873.152,1365.914,1873.152,1365.914z"/>
								</g>
								<g>
									<path fill="#87CE59" d="M1973.194,1326.187c-0.36,0.459-0.711,0.49-0.938,0.803c-0.217,0.293-4.454,1.966-4.237,2.315
										c0.238,0.359,3.113,4.687,3.223,4.792c0.094,0.09,0.094,0.09,0.094,0.09c-0.175,0.431-0.208,0.802-0.074,0.826
										s0.229-0.097,0.211-0.269c0,0,0,0-0.207-0.343c0.24,0.39,0.813-1.547,1.513-3.913c0,0,0,0,0.375-1.813
										C1973.502,1326.854,1973.527,1325.761,1973.194,1326.187z"/>
								</g>
								<g>
									<path fill="#87CE59" d="M1929.514,1447.201c-1.123-0.092-1.798-2.293-1.499-4.882c0.293-2.595-0.209-13.36-0.542-16.927
										c-0.326-3.568-1.06-15.52-2.169-12.823c-1.103,2.716-7.342,17.384-8.45,24.163c-1.106,6.777-5.831,32.156-8.1,41.38
										c-2.242,9.194-12.668,19.417-13.672,17.753c-1.005-1.684-7.521-4.052-10.017-4.552c-2.529-0.474-11.079-3.366-10.868-4.734
										c0.187-1.367-2.935-4.587-4.396-4.2c-1.449,0.359-1.344-6.189-0.178-10.269c1.183-4.079,5.979-16.111,7.848-17.413
										c1.879-1.305,3.786-9.855,3.257-11.612c-0.523-1.758-4.627-1.609-5.938-0.311c-1.295,1.306-9.665,3.487-14.017,3.237
										c-4.324-0.232-17.252-2.621-16.323-1.215c0.904,1.424,2.07,6.838,1.207,7.814c-0.865,0.971-8.649,5.001-13.721,7.449
										c-5.099,2.47-11.886,13.281-13.431,16.164c-1.532,2.892-4.184,13.195-4.183,14.991c-0.018,1.795-3.019,7.373-3.799,6.87
										c-0.792-0.51-4.624-0.24-6.284,0.638c-1.639,0.893-1.639,0.893-1.639,0.893c-2.979-6.228-5.418-11.323-12.031-9.669
										c-7.305,1.831-14.147,8.689-22.51,17.071c0,0,0,0-2.541,3.892c-2.557,3.897-7.648,19.596-8.91,19.466
										c-1.252-0.123-5.486,1.21-5.824,4.367c-0.35,3.144-6.211,9.162-7.148,8.012c-0.928-1.165-4.306-3.655-5.939-1.472
										c-1.648,2.169-1.648,2.169-1.648,2.169c-1.356,6.336-2.467,11.521-2.824,13.912c-2.101,15.324-35.752,35.344-51.529,41.741
										c-7.715,3.271-19.138,10.054-33.1,18.345c0,0,0,0-4.545,5.307c-4.54,5.284-16.938,11.644-16.894,10.829
										c0.053-0.793,0.053-0.793,0.053-0.793c-2.855,0.494-5.192,0.898-5.601,4.315c-0.991,8.803-1.996,16.946-3.253,25.44
										c-1.298,11.046,3.177,15.053,2.183,21.105c-0.336,2.027-0.799,3.336-1.365,4.935c0,0,0,0-0.685-0.65
										c-0.687-0.654-2.396-2.315-2.98-1.025c-0.617,1.275-1.165,5.331,0.308,7.268c1.481,1.926,4.572,13.618,5.51,19.175
										c0.946,5.583,4.735,28.449,6.265,31.412c1.556,2.954-1.912,19.871-5.115,23.722c-3.208,3.845-3.51,14.154,0.999,16.011
										c4.495,1.863,20.967-2.806,28.121-8.054c7.162-5.241,27.619-15.613,28.993-16.857c1.408-1.204,11.135-2.991,15.183-4.947
										c4.063-1.973,21.07-11.888,28.634-17.851c7.545-5.968,34.973-26.454,38.148-29.766
										c3.173-3.325,22.716-13.418,29.638-16.051c6.968-2.626,15.574,2.566,15.631,5.997c0.086,3.427,22.51-25.665,47.87-66.793
										c25.338-41.12,76.714-158.637,76.716-159.34c-0.01-0.705,0.579-6.723,1.258-11.575
										C1934.341,1454.4,1930.627,1447.287,1929.514,1447.201z"/>
								</g>
								<g>
									<path fill="#87CE59" d="M1962.027,1369.075c-1.013-4.417-1.315-8.054-1.685-12.499c0,0,0,0-0.702-1.813
										c-0.686-1.817-0.125-6.381,0.758-7.486c0.89-1.092,2.615-15.18,0.89-13.689c-1.724,1.497-3.648-0.672-4.299-4.796
										c-0.658-4.146-8.048-10.241-8.729-10.263c-0.681-0.008-1.277-4.909-1.531-6.564c-0.242-1.664-8.115-1.588-11.356-1.928
										c-3.202-0.316-3.202-0.316-3.202-0.316c-3.181-2.66-5.75-4.837-5.71-4.839s-0.132-0.075-0.383-0.164
										s-0.456-0.161-0.636-0.415c0,0-0.073-0.111-0.162-0.247s-0.104-0.151-0.035-0.034s-0.055,0.381-0.277,0.586
										c0,0,0,0-0.774-0.156c-0.762-0.137-3.247-2.288-4.054-2.02c-0.809,0.281-6.128-0.269-7.037-2.042
										c-0.872-1.736-5.256-4.054-6.08-3.896c-0.834,0.143-0.834,0.143-0.834,0.143c-4.367,4.854-7.94,8.826-10.523,10.819
										c-3.949,3.021-5.704,5.996-7.849,9.632c0,0,0,0-0.74,2.363c-0.771,2.351-5.563,3.511-6.992,1.681
										c-1.427-1.81-3.655-5.348-4.847-5.686c-1.172-0.348-1.841-5.511-1.501-8.742c0.344-3.231,0.344-3.231,0.344-3.231
										c-4.668-9.052-8.487-16.458-14.518-15.639c-5.528,0.789-9.089,5.405-13.441,11.048c0,0,0,0-1.305,0.738
										c-1.325,0.725-0.772,4.542,1.354,5.296c2.111,0.735,2.111,0.735,2.111,0.735c2.225,5.955,4.045,10.828,5.398,11.15
										c2.188,0.511,3.708,0.406,5.564,0.278c0,0,0,0,1.428-0.468c1.429-0.473,6.891-2.92,7.225-2.973
										c0.302-0.057-1.098,1.242-4.362,3.146c-3.269,1.896-9.753,8.241-8.684,8.558c1.064,0.297,3.386,5.507,3.291,7.16
										c-0.082,1.623,1.431,7.672,1.907,7.977c0.467,0.285,3.03-0.969,4.09-2.476c1.046-1.533,3.319-6.263,3.315-5.437
										c0.01,0.859,0.01,0.859,0.01,0.859c2.93,5.772,5.326,10.495,10.113,9.634c4.265-0.799,10.095,0.525,17.22,2.145
										c0,0,0,0,2.54,1.306c2.528,1.324,5.287,10.831,4.82,14.551c-0.481,3.731,0.772,13.358-1.118,14.924
										c-1.894,1.539-3.897,9.207-3.594,10.247c0.284,1.07,3.859,0.295,4.525,0.07c0.695-0.211,4.733-2.097,5.37-3.089
										c0.67-1.014,0.67-1.014,0.67-1.014c4.986,5.654,9.065,10.281,14.844,7.924c5.236-1.958,6.972-3.047,9.093-4.378
										c0,0,0,0,0.632-1.405c0.611-1.424,0.611-1.424,0.611-1.424c2.675-10.495,4.862-19.083,9.908-21.068
										c7.52-2.778,8.436,1.236,9.556,6.144c1.12,4.908,2.588,10.896,2.687,13.004c0,0,0,0-0.358,2.075
										c-0.36,2.1,5.138,1.277,5.829-1.399c0.714-2.674,0.714-2.674,0.714-2.674
										C1962.016,1374.435,1962.416,1370.7,1962.027,1369.075z"/>
								</g>
								<g>
									<path fill="#87CE59" d="M1426.666,1346.331c-0.077-0.591-0.91-1.024-1.818-0.964c-0.89,0.049-0.89,0.049-0.89,0.049
										c-0.993,0.58-1.08,2.994-0.191,5.363c0,0,0,0,2.151,3.524c2.125,3.517,5.727,4.897,5.239,2.505
										C1430.675,1354.437,1426.762,1346.942,1426.666,1346.331z"/>
								</g>
								<g>
									<path fill="#87CE59" d="M1648.774,1443.705c-0.286-1.405,1.921-2.229,3.215-1.505c1.325,0.719,8.03-0.088,9.276-1.398
										c1.247-1.304,2.495-4.768,1.731-5.422c-0.744-0.662-0.744-0.662-0.744-0.662c-7.11,1.042-12.928,1.894-15.942-1.285
										c-0.892-0.915-3.541-2.339-6.78-4.079c0,0,0,0-4.023,0.305c-4.013,0.281-8.4-5.791-3.742-6.861
										c4.672-1.094,8.637-4.075,7.948-4.005c-0.705,0.074-4.553,0.961-7.114,1.711c-2.539,0.734-12.235,0.846-15.375-1.4
										c-3.146-2.222-3.146-2.222-3.146-2.222c-10.779,4.559-19.599,8.289-27.552,9.329c-15.914,2.189-21.372-0.882-28.043-4.636
										c-6.671-3.755-12.129-6.826-15.21-4.596c0,0,0,0-2.692,0.186c-1.356,0.094-3.85,0.463-6.896,0.914c0,0,0,0-3.432,3.267
										c-3.455,3.261-4.453,8.341-1.328,9.81c3.128,1.473,3.128,1.473,3.128,1.473c11.257,2.774,20.467,5.045,28.178,6.623
										c10.118,2.198,14.59,2.423,20.057,2.697c5.466,0.274,9.938,0.499,13.265,3.887c0,0,0,0,5.883-0.617
										c19.22-2.638,32.92-1.519,49.665-0.15C1649.1,1445.066,1649.1,1445.066,1648.774,1443.705z"/>
								</g>
								<g>
									<path fill="#87CE59" d="M639.874,1137.968c-3.22,0.51-3.22,0.51-3.22,0.51c-1.435,3.801-2.608,6.91-1.219,6.826
										c3.633-0.215,5.448-3.653,7.667-7.855C643.102,1137.448,643.102,1137.448,639.874,1137.968z"/>
								</g>
								<g>
									<path fill="#87CE59" d="M564.561,232.691c1.572-0.299,15.432-4.498,19.062-5.922c3.626-1.432,7.847-2.771,9.354-2.989
										c1.52-0.203,5.611-0.778,4.337-0.29c-1.273,0.517-1.273,0.517-1.273,0.517c0.277,0.214,0.503,0.39,4.411-0.421
										c-3.124,0.733-5.454,1.869-8.301,3.256c0,0,0,0,1.243-0.139c1.252-0.146,1.252-0.146,1.252-0.146
										c4.318-0.708,7.935-1.208,8.037-1.113c0,0,0,0,0.584,0.129c0.578,0.148,0.578,0.148,0.578,0.148
										c4.388-1.812,7.979-3.294,12.278-5.258c5.888-2.543,8.03-2.974,10.647-3.5c2.618-0.526,4.76-0.957,4.665-1.282
										c0,0,0,0,0.424-0.17c1.385-0.575,3.862-1.031,6.889-1.588c0,0,0,0,3.069-0.67c3.074-0.682,5.328-3.575,3.29-3.415
										c-2.022,0.19-11.444,2.511-14.256,3.65c-2.803,1.134-14.665,3.854-18.456,4.437c-3.8,0.552-23.873,5.842-31.679,8.222
										C572.908,228.514,562.997,232.99,564.561,232.691z"/>
								</g>
								<g>
									<path fill="#87CE59" d="M637.287,286.16c2.176,0.442,2.176,0.442,2.176,0.442c8.138-1.232,14.796-2.24,16.203-2.344
										c8.153-0.448,8.204,1.623,8.265,4.154c0,0,0,0,2.374-0.442c2.378-0.435,8.389-1.254,9.048-1.206
										c0.674,0.039,7.78-0.383,14.761-1.447c6.991-1.093,6.991-1.093,6.991-1.093c10.152-1.758,18.146-3.304,17.764-3.436
										s-0.694-0.24-1.358-0.348c0,0-0.138-0.017-0.306-0.037s-0.194-0.027-0.059-0.016c0.136,0.012,0.373,0.027,0.527,0.034
										c0.154,0.007-0.683-0.176-1.15-0.241c-0.468-0.066-2.623-0.208-5.426-0.554c-2.803-0.345-4.349-4.362-3.434-8.926
										c0.915-4.564,1.664-8.299,21.789-22.509c0,0,0,0,25.421-6.149c9.371-2.056,11.327-5.749,24.188-7.302
										c5.953-0.886,10.056-2.251,15.071-3.919c5.015-1.668,9.118-3.033,24.912-5.599c0,0,0,0,17.927-4.263
										c12.567-2.965,28.704-7.336,48.426-12.679c0,0,0,0-3.714-0.683c-3.743-0.675-3.743-0.675-3.743-0.675
										c-31.649,6.958-57.543,12.651-84.451,16.004c-6.004,0.72-8.57-0.89-14.576,0.112c-9.548,1.812-9.32,2.979-15.836,3.887
										c-18.521,3.104-25.636,5.792-34.332,9.078c-8.695,3.286-15.81,5.974-22.435,7.669c0,0,0,0-7.333,1.19
										c-3.143,0.506-3.678,1.368-4.332,2.422c0,0,0,0,0.867,0.074c0.873,0.102-4.497,4.441-11.53,7.451
										c-7.041,3.027-12.226,10.017-10.39,10.103c1.827,0.111-1.705,1.324-7.836,2.713c-6.14,1.408-12.595,6.416-12.617,6.786
										c-0.019,0.354-3.661,2.83-7.663,4.172C637.467,279.943,635.099,285.705,637.287,286.16z"/>
								</g>
								<g>
									<path fill="#87CE59" d="M766.501,190.685c7.157-1.361,12.753-2.589,12.428-2.725c-0.326-0.144,0.436-1.078,2.88-1.243
										c2.445-0.183,7.85-1.964,8.264-2.021c0.422-0.067-2.781-1.422-5.589-1.019c-2.818,0.412-2.818,0.412-2.818,0.412
										c-2.456,0.173-4.55-0.038-4.654-0.467c0,0,0,0-2.822,0.229c-2.81,0.266-2.81,0.266-2.81,0.266
										c-4.376,0.803-8.828,2.379-9.894,3.503c0,0,0,0-2.453,0.418C756.557,188.457,759.349,192.049,766.501,190.685z"/>
								</g>
								<g>
									<path fill="#87CE59" d="M728.377,193.522c4.978-0.805,7.744-1.676,11.124-2.74c0,0,0,0-3.536,0.152
										c-3.546,0.153-16.451,1.554-12.626,0.448c3.838-1.128,15.55-5.164,16.266-5.625c0.725-0.493,3.155-1.65,3.091-1.938
										c-0.063-0.3-2.65-0.296-4.663,0.109c-2,0.399-7.783,3.623-11.663,4.905c-3.858,1.282-3.858,1.282-3.858,1.282
										c-9.422,2.237-17.094,4.317-17.05,4.622c0.044,0.306,2.431,0.201,4.44-0.027c0,0,0,0-3.441,0.634
										c-3.437,0.635-3.437,0.635-3.437,0.635c-7.54,2.004-13.708,3.644-15.725,4.35c0.854-0.289,19.07-1.544,22.258-2.071
										C715.131,197.174,722.904,194.249,728.377,193.522z"/>
								</g>
								<g>
									<path fill="#87CE59" d="M735.291,194.781c-2.809,0.435-10.188,1.608-16.396,2.599c-6.223,1.004-6.223,1.004-6.223,1.004
										c-2.219,2.267-4.034,4.122-1.764,3.819c4.006-0.649,6.079-1.431,8.613-2.387c0,0,0,0,1.73,0.117
										c1.711,0.136,7.285-1.281,8.958-2.116C731.864,196.99,738.094,194.374,735.291,194.781z"/>
								</g>
								<g>
									<path fill="#87CE59" d="M224.368,501.891c-3.203,4.259-3.451,4.864-3.753,5.603c-0.302,0.739,1.46,0.018,4.146-3.354
										c2.687-3.373,8.743-11.335,7.551-10.421C231.12,494.633,228.418,496.68,224.368,501.891z"/>
								</g>
								<g>
									<path fill="#87CE59" d="M802.444,182.341c2.041-0.403,8.666-1.587,14.713-2.663c6.057-1.109,13.825-3.136,12.938-3.805
										c-0.867-0.642-10.606-1.028-17.806,0.026C805.071,176.964,800.406,182.73,802.444,182.341z"/>
								</g>
								<g>
									<path fill="#87CE59" d="M1115.304,1193.299c-12.827,6.959-23.321,12.652-22.965,32.368
										c0.194,9.19,10.207,11.518,22.445,14.361c0,0,0,0,5.778-4.458c5.76-4.446,5.929-26.595,0.354-34.427
										C1115.304,1193.299,1115.304,1193.299,1115.304,1193.299z"/>
								</g>
								<g>
									<path fill="#87CE59" d="M166.376,581.198c-0.202,0.448-1.473,4.135-2.22,7.231c-0.756,3.082,4.296,0.85,7.122-3.09
										c2.835-3.938,11.992-10.612,13.735-11.416c1.741-0.819,9.188-5.349,11.675-7.65c2.478-2.316,6.461-10.359,5.211-9.962
										c-1.256,0.362-0.225-4.884,0.699-8.195c0.939-3.32,10.476-12.153,14.199-15.323c3.713-3.174,8.421-10.576,8.943-12.903
										c0.531-2.319-4.127-2.937-3.736-3.678c0.394-0.76-1.92-1.154-2.11-1.268c-0.104-0.061-0.104-0.061-0.104-0.061
										c0.047-2.537-12.011,11.115-26.796,30.337c-14.785,19.222-26.64,35.223-26.435,35.535
										C166.561,580.755,166.561,580.755,166.376,581.198z"/>
								</g>
								<g>
									<path fill="#87CE59" d="M54.537,811.063c0.363,0.442,0.992,0.445,1.403-0.007c0.416-0.436,1.058-2.569,0.947-3.334
										c-0.106-0.766-0.106-0.766-0.106-0.766c-1.131,0.166-2.056,0.301-3.029,2.248c-0.124,0.235-0.173,0.342-0.234,0.472
										s0.242,0.578,0.663,0.963C54.18,810.639,54.18,810.639,54.537,811.063z"/>
								</g>
								<g>
									<path fill="#87CE59" d="M605.991,1569.328c-10.955-0.548-19.918-0.996-22.289,1.651
										c-7.623,8.215-21.516,26.677-32.831,33.03c-14.361,8.266-19.939,19.963-26.756,34.259c0,0,0,0,2.851,5.656
										c2.849,5.698,4.639,20.599,2.793,26.37c-1.841,5.748-5.25,12.024-7.577,13.904c-2.315,1.916-3.64,8.459-2.948,12.403
										c0.682,3.935,0.682,3.935,0.682,3.935c3.873,7.478,7.041,13.596,8.141,19.793c2.02,11.954,14.834,26.087,27.619,27.396
										c30.007,2.771,30.274-27.124,36.368-48.616c7.718-26.761,10.382-53.629,13.639-86.468c0,0,0.146-1.47,2.115-0.925
										c1.975,0.545,5.619-1.513,5.391-3.022c-0.247-1.525-2.397-13.391-4.792-26.382
										C605.991,1569.328,605.991,1569.328,605.991,1569.328z"/>
								</g>
								<g>
									<path fill="#87CE59" d="M152.131,604.959c3.728-2.412,5.34-6.157,7.311-10.733c0,0,0,0-0.103-0.989
										c-0.11-0.956-1.891,0.058-2.98,1.736c-1.105,1.714-1.105,1.714-1.105,1.714c-1.342,2.454-1.871,4.539-1.175,4.634
										c0,0,0,0-0.393,0.597c-0.391,0.626-0.391,0.626-0.391,0.626c-1.059,0.996-1.985,1.761-2.059,1.699s-0.49,0.399-0.66,0.757
										C150.406,605.358,150.366,606.081,152.131,604.959z"/>
								</g>
								<g>
									<path fill="#87CE59" d="M594.336,311.16c-2.177,0.439-4.537,1.976-7.42,3.854c0,0,0,0-1.82,1.212
										c-1.808,1.208-1.808,1.208-1.808,1.208c-0.27,1.454,4.013,1.956,9.517,1.116c0,0,0,0,3.909-1.216
										c3.923-1.204,13.329-5.083,13.362-5.435c0.047-0.356,0.047-0.356,0.047-0.356
										C605.001,310.636,600.812,309.893,594.336,311.16z"/>
								</g>
								<g>
									<path fill="#87CE59" d="M463.504,668.381c0.098-0.04,0.213-0.093,0.264-0.164
										C463.899,668.209,463.733,668.289,463.504,668.381z"/>
								</g>
							</g>
						</g>
					</g>
				</g>
				<g>
					<path fill="#87CE59" d="M1742.55,585.064c5.34,1.122,10.685,2.272,16.039,3.452c-8.627-15.99-18.25-31.95-28.875-47.881
						c-2.123-0.672-4.245-1.337-6.366-1.994c-1.499,4.097-3.339,8.368-5.492,12.807c-2.728-1.065-5.452-2.125-8.164-3.18
						c-3.151-3.708-6.309-7.429-9.469-11.162c-7.198-2.387-14.356-4.71-21.479-6.966c-4.189-1.997-8.351-3.983-12.483-5.959
						c-9.192-12.03-18.376-24.148-27.495-36.337c-4.287-3.117-8.521-6.23-12.702-9.335c-8.938-2.02-17.892-3.804-26.862-5.353
						c-0.994,2.475-2.056,4.976-3.181,7.503c1.158,3.748,2.288,7.498,3.393,11.252c3.473,3.464,6.987,6.93,10.547,10.394
						c-0.251,8.798-0.894,17.703-1.89,26.707c-6.369,0.9-12.819,1.9-19.343,2.993c1.368,9.005,2.589,18.033,3.667,27.086
						c7.826,0.838,15.666,1.75,23.518,2.731c3.643,2.587,7.314,5.175,11.016,7.764c0.478,3.293,0.932,6.592,1.363,9.895
						c-5.447,3.729-11.056,7.555-16.814,11.467c-4.469,4.495-9.083,9.058-13.834,13.683c-8.819-0.705-17.627-1.353-26.421-1.941
						c-1.812,6.838-3.742,13.706-5.778,20.602c2.239,3.689,4.488,7.378,6.752,11.065c-7.51,3.747-15.131,7.555-22.854,11.413
						c-7.539,0.628-15.094,1.286-22.661,1.972c-8.604,5.464-17.36,10.982-26.252,16.53c-0.097-0.034-26.769-13.761-29.087-14.489
						c-2.611-0.903-46.138-12.197-45.967-12.061c-0.128-0.062-18.34-18.136-19.603-20.511c-1.498-2.486-10.202-15.658-10.14-15.63
						c-11.497-1.43-22.887-2.711-34.163-3.827c6.221-9.553,12.341-19.158,18.321-28.802c-4.073-9.132-7.805-18.123-11.149-26.956
						c-5.343-3.268-10.521-6.422-15.522-9.455c-10.824,8.279-21.979,16.554-33.424,24.779c-1.693,5.079-3.352,10.156-4.975,15.234
						c-3.793,0.459-7.582,0.938-11.367,1.436c-4.021,3.031-8.073,6.049-12.155,9.055c-3.673,3.261-7.37,6.507-11.089,9.735
						c-5.637,0.296-11.253,0.639-16.851,1.031c-3.697,9.44-7.204,18.873-10.517,28.299c-9.691,7.342-19.491,14.553-29.369,21.604
						c-13.533-1.794-26.83-3.256-39.876-4.341c-7.136,6.717-14.256,13.307-21.34,19.759c-2.548,8.953-4.712,17.959-6.505,27.019
						c6.169,6.515,12.73,13.362,19.636,20.512c2.6,2.318,5.237,4.673,7.912,7.063c-2.261,9.143-4.259,18.274-5.992,27.393
						c-3.106,1.333-6.213,2.646-9.319,3.939c-3.104,3.934-6.169,7.82-9.186,11.658c1.734,4.676,3.556,9.402,5.462,14.175
						c8.657,7.174,17.519,14.602,26.543,22.252c4.084-0.434,8.169-0.888,12.257-1.362c3.397,5.015,6.863,10.091,10.39,15.227
						c9.229,9.815,18.673,19.898,28.266,30.214c12.182,4.257,24.374,8.525,36.567,12.782c10.713-1.406,21.453-2.975,32.217-4.691
						c1.944,4.469,3.911,8.956,5.896,13.46c9.065,0.671,18.136,1.275,27.207,1.813c8.176-8.716,16.479-17.62,24.858-26.676
						c6.916,5.811,13.852,11.656,20.791,17.521c7.593,5.198,15.188,10.408,22.772,15.615c-1.483,4.139-2.955,8.271-4.416,12.397
						c1.619,7.91,3.255,15.84,4.901,23.791c-4.943,5.152-9.843,10.254-14.691,15.298c1.478,5.492,2.962,10.995,4.448,16.51
						c6.031,0.929,12.061,1.817,18.088,2.664c1.391,11.287,2.805,22.604,4.229,33.951c10.839,4.396,21.604,8.659,32.284,12.769
						c3.862-6.281,7.787-12.598,11.761-18.94c13.993-4.44,28.125-9.184,42.377-14.18c5.468,9.254,10.813,18.477,16.003,27.648
						c10.736,0.972,21.441,1.764,32.121,2.366c4.41,4.732,8.751,9.414,13.012,14.044c5.953-1.626,11.924-3.302,17.911-5.027
						c0.359-4.433,0.698-8.862,1.017-13.29c12.663-6.114,25.445-12.385,38.326-18.77c13.904-7.671,27.934-15.455,42.057-23.294
						c11.768-14.326,23.501-28.492,35.077-42.43c6.038-15.075,11.735-29.987,17.018-44.723c4.9-2.963,9.792-5.912,14.676-8.843
						c0.379-7.501,0.623-14.996,0.733-22.481c-4.186-0.552-8.372-1.123-12.561-1.711c-3.445,0.278-6.893,0.55-10.336,0.817
						c3.676-4.032,7.322-8.036,10.936-12.01c-1.981-5.334-4.029-10.693-6.135-16.074c-4.323-9.4-8.824-18.885-13.479-28.444
						c-6.109-0.798-12.21-1.617-18.308-2.454c1.571-6.788,3.043-13.542,4.408-20.262c6.862-5.133,13.622-10.189,20.267-15.155
						c1.158-4.114,2.266-8.208,3.319-12.284c-1.897-0.407-3.793-0.815-5.688-1.225c-7.728-0.864-15.438-1.736-23.14-2.615
						c-2.597,2.965-5.227,5.951-7.892,8.956c-4.725-2.909-9.442-5.842-14.146-8.794c-6.021-1.388-12.027-2.786-18.018-4.191
						c-0.363-3.976-0.749-7.949-1.161-11.919c3.78-0.87,7.555-1.729,11.317-2.58c7.85-9.293,15.347-18.404,22.43-27.293
						c4.988,0.371,9.977,0.749,14.97,1.136c-1.628,6.069-3.396,12.19-5.292,18.362c4.614,4.207,9.234,8.387,13.856,12.535
						c6.734-5.896,13.279-11.666,19.609-17.289c4.372-9.995,8.289-19.778,11.688-29.329c5.491-1.81,10.917-3.555,16.274-5.231
						c1.557-5.785,2.909-11.482,4.04-17.087c4.507-0.496,8.988-0.955,13.438-1.373c-7.15-8.375-14.398-16.846-21.717-25.403
						C1745.923,592.077,1744.259,588.57,1742.55,585.064z"/>
					<path fill="#87CE59" d="M1570.705,1000.614c-3.527,0.161-7.056,0.299-10.584,0.415c-4.55,7.104-9.063,14.208-13.523,21.304
						c4.135,4.274,8.196,8.499,12.179,12.672c5.457-2.858,10.949-5.76,16.479-8.704c3.089-4.144,6.199-8.289,9.324-12.435
						c2.894-4.128,5.803-8.256,8.722-12.381c-2.301-0.93-4.61-1.873-6.928-2.83
						C1581.148,999.354,1575.926,1000.007,1570.705,1000.614z"/>
					<path fill="#87CE59" d="M1746.594,880.635c-2.136,0.262-4.274,0.52-6.411,0.774c-6.248,7.688-12.565,15.459-18.936,23.307
						c-2.346,5.548-4.742,11.119-7.182,16.713c1.972,3.08,3.905,6.13,5.791,9.151c2.113,1.88,4.203,3.736,6.268,5.567
						c1.066,2.11,2.111,4.207,3.137,6.29c3.606-2.064,7.221-4.131,10.838-6.198c0.385-5.093,0.693-10.195,0.922-15.306
						c3.932-10.371,7.654-20.673,11.153-30.902C1750.356,886.928,1748.495,883.795,1746.594,880.635z"/>
				</g>
			</g>
		</g>
	</g>
</g>
</svg>
