<?xml version="1.0" encoding="utf-8"?>
<!-- Generator: Adobe Illustrator 16.0.0, SVG Export Plug-In . SVG Version: 6.00 Build 0)  -->
<!DOCTYPE svg PUBLIC "-//W3C//DTD SVG 1.1//EN" "http://www.w3.org/Graphics/SVG/1.1/DTD/svg11.dtd">
<svg version="1.1" id="图层_1" xmlns="http://www.w3.org/2000/svg" xmlns:xlink="http://www.w3.org/1999/xlink" x="0px" y="0px"
	 width="30px" height="82px" viewBox="0 0 30 82" enable-background="new 0 0 30 82" xml:space="preserve">
<g>
	<path fill="#E6CAA2" d="M29.534,20.799c1.199-8.374-0.955-16.743-8.843-19.742C12.785-1.947,2.401,1.588,0.958,9.915
		c-4.257,24.26,9.935,68.815,9.935,68.815l9.771,2.521C20.663,81.251,28.771,26.171,29.534,20.799z"/>
	<path fill="#32200F" d="M5.988,60.769l18.139-3.125c2.323-15.669,4.982-33.886,5.407-36.845c1.199-8.374-0.955-16.743-8.843-19.742
		C12.785-1.947,2.401,1.588,0.958,9.915C-1.566,24.235,2.353,45.631,5.988,60.769z"/>
</g>
</svg>
