<?xml version="1.0" encoding="utf-8"?>
<!-- Generator: Adobe Illustrator 16.0.0, SVG Export Plug-In . SVG Version: 6.00 Build 0)  -->
<!DOCTYPE svg PUBLIC "-//W3C//DTD SVG 1.1//EN" "http://www.w3.org/Graphics/SVG/1.1/DTD/svg11.dtd">
<svg version="1.1" id="图层_1" xmlns="http://www.w3.org/2000/svg" xmlns:xlink="http://www.w3.org/1999/xlink" x="0px" y="0px"
	 width="150px" height="294px" viewBox="0 0 150 294" enable-background="new 0 0 150 294" xml:space="preserve">
<path fill="#3A354B" d="M140.805,293.207V182.475c0-49.434-29.455-89.503-65.811-89.503c-36.329,0-65.799,40.07-65.799,89.503
	v110.732H140.805z"/>
<path fill="#C32C2B" d="M147.723,233.281V122.581c0-49.435-32.556-89.521-72.729-89.521c-40.163,0-72.717,40.085-72.717,89.521
	v110.701H147.723z"/>
<rect x="54.005" y="0.793" fill="#E6CAA2" width="42.006" height="73.742"/>
<g>
	<polygon fill="#FFFFFF" points="73.978,74.536 53.749,59.935 53.883,100.143 	"/>
	<polygon fill="#FFFFFF" points="76.016,74.536 96.25,59.935 96.129,100.143 	"/>
</g>
<g>
	<path fill="#B58F3F" d="M23.416,59.514c0.016,0.392,0.029,0.782,0.029,1.191v172.577h3.008V55.948
		C25.409,57.098,24.41,58.29,23.416,59.514z"/>
	<rect x="33.516" y="64.766" fill="#B58F3F" width="3.005" height="159.08"/>
	<path fill="#B58F3F" d="M126.446,59.348c-1.056-1.3-2.144-2.583-3.261-3.805v177.739h3.261V59.348z"/>
	<rect x="111.619" y="64.766" fill="#B58F3F" width="3.266" height="159.08"/>
	<g>
		<g>
			<rect x="25.015" y="71.213" fill="#B58F3F" width="5.119" height="5.118"/>
			<rect x="29.363" y="85.286" fill="#B58F3F" width="5.119" height="5.133"/>
		</g>
		<g>
			<rect x="25.015" y="100.143" fill="#B58F3F" width="5.119" height="5.119"/>
			<rect x="29.363" y="114.229" fill="#B58F3F" width="5.119" height="5.118"/>
		</g>
		<g>
			<rect x="25.015" y="129.072" fill="#B58F3F" width="5.119" height="5.133"/>
			<rect x="29.363" y="143.159" fill="#B58F3F" width="5.119" height="5.132"/>
		</g>
		<g>
			<rect x="25.015" y="158.016" fill="#B58F3F" width="5.119" height="5.119"/>
			<rect x="29.363" y="172.102" fill="#B58F3F" width="5.119" height="5.119"/>
		</g>
		<g>
			<rect x="25.015" y="186.945" fill="#B58F3F" width="5.119" height="5.115"/>
			<rect x="29.363" y="201.031" fill="#B58F3F" width="5.119" height="5.117"/>
		</g>
	</g>
	<g>
		<g>
			<rect x="118.477" y="71.213" fill="#B58F3F" width="5.119" height="5.118"/>
			<rect x="114.129" y="85.286" fill="#B58F3F" width="5.104" height="5.133"/>
		</g>
		<g>
			<rect x="118.477" y="100.143" fill="#B58F3F" width="5.119" height="5.119"/>
			<rect x="114.129" y="114.229" fill="#B58F3F" width="5.104" height="5.118"/>
		</g>
		<g>
			<rect x="118.477" y="129.072" fill="#B58F3F" width="5.119" height="5.133"/>
			<rect x="114.129" y="143.159" fill="#B58F3F" width="5.104" height="5.132"/>
		</g>
		<g>
			<rect x="118.477" y="158.016" fill="#B58F3F" width="5.119" height="5.119"/>
			<rect x="114.129" y="172.102" fill="#B58F3F" width="5.104" height="5.119"/>
		</g>
		<g>
			<rect x="118.477" y="186.945" fill="#B58F3F" width="5.119" height="5.115"/>
			<rect x="114.129" y="201.031" fill="#B58F3F" width="5.104" height="5.117"/>
		</g>
	</g>
</g>
</svg>
