<?xml version="1.0" encoding="utf-8"?>
<!-- Generator: Adobe Illustrator 16.0.0, SVG Export Plug-In . SVG Version: 6.00 Build 0)  -->
<!DOCTYPE svg PUBLIC "-//W3C//DTD SVG 1.1//EN" "http://www.w3.org/Graphics/SVG/1.1/DTD/svg11.dtd">
<svg version="1.1" id="图层_1" xmlns="http://www.w3.org/2000/svg" xmlns:xlink="http://www.w3.org/1999/xlink" x="0px" y="0px"
	 width="66px" height="168px" viewBox="0 0 66 168" enable-background="new 0 0 66 168" xml:space="preserve">
<path fill="#00005D" d="M2.534,0.752c-0.032,0.559-0.032,1.12-0.032,1.693V91.6c0,28.674,13.665,29.821,30.501,29.821
	c16.847,0,30.496-1.147,30.496-29.821V2.445c0-0.573,0-1.135-0.012-1.693H2.534z"/>
<g>
	<rect x="17.51" y="118.734" fill="#494B4B" width="30.441" height="39.934"/>
	<rect x="32.108" y="118.734" fill="#717173" width="1.227" height="39.934"/>
	<g>
		<path fill="#181818" d="M11.835,161.9c-0.167,0.953-0.29,1.916-0.29,2.898c0,1.09,0.135,2.158,0.346,3.201h40.406
			c0.211-1.043,0.346-2.111,0.346-3.201c0-0.982-0.119-1.945-0.285-2.898H11.835z"/>
		<path fill="#333333" d="M52.297,164.195c0.211-1.042,0.346-2.098,0.346-3.202c0-9.964-9.195-18.074-20.545-18.074
			c-11.356,0-20.552,8.11-20.552,18.074c0,1.104,0.135,2.16,0.346,3.202H52.297z"/>
	</g>
	<path fill="#717173" d="M40.127,125.573c0,0.845-0.695,1.526-1.539,1.526H27.323c-0.846,0-1.539-0.682-1.539-1.526l0,0
		c0-0.858,0.693-1.54,1.539-1.54h11.265C39.432,124.033,40.127,124.715,40.127,125.573L40.127,125.573z"/>
	<path fill="#717173" d="M40.127,131.973c0,0.83-0.695,1.529-1.539,1.529H27.323c-0.846,0-1.539-0.699-1.539-1.529l0,0
		c0-0.857,0.693-1.537,1.539-1.537h11.265C39.432,130.436,40.127,131.115,40.127,131.973L40.127,131.973z"/>
	<path fill="#717173" d="M40.127,138.361c0,0.846-0.695,1.541-1.539,1.541H27.323c-0.846,0-1.539-0.695-1.539-1.541l0,0
		c0-0.847,0.693-1.539,1.539-1.539h11.265C39.432,136.822,40.127,137.515,40.127,138.361L40.127,138.361z"/>
</g>
</svg>
