<?xml version="1.0" encoding="utf-8"?>
<!-- Generator: Adobe Illustrator 16.0.0, SVG Export Plug-In . SVG Version: 6.00 Build 0)  -->
<!DOCTYPE svg PUBLIC "-//W3C//DTD SVG 1.1//EN" "http://www.w3.org/Graphics/SVG/1.1/DTD/svg11.dtd">
<svg version="1.1" id="图层_1" xmlns="http://www.w3.org/2000/svg" xmlns:xlink="http://www.w3.org/1999/xlink" x="0px" y="0px"
	 width="276px" height="264px" viewBox="0 0 276 264" enable-background="new 0 0 276 264" xml:space="preserve">
<g>
	<path fill="#E6CAA2" d="M232.381,136.13c0,52.122-42.244,94.38-94.395,94.38c-52.122,0-94.383-42.258-94.383-94.38
		c0-52.148,42.261-94.396,94.383-94.396C190.137,41.734,232.381,83.982,232.381,136.13z"/>
	<g>
		<path d="M115.353,119.537c0,5.616-4.547,10.162-10.161,10.162c-5.62,0-10.177-4.546-10.177-10.162
			c0-5.616,4.557-10.16,10.177-10.16C110.806,109.377,115.353,113.921,115.353,119.537z"/>
		<path d="M180.969,119.537c0,5.616-4.559,10.162-10.16,10.162c-5.619,0-10.178-4.546-10.178-10.162
			c0-5.616,4.559-10.16,10.178-10.16C176.41,109.377,180.969,113.921,180.969,119.537z"/>
	</g>
	<g>
		<path fill="#DC8D3E" d="M114.353,152.498c6.481,5.27,14.754,8.469,23.75,8.469c8.913,0,17.092-3.125,23.526-8.303
			c-7.279,0.589-14.824,0.906-22.588,0.906C130.525,153.57,122.282,153.191,114.353,152.498z"/>
	</g>
	<g>
		<g>
			<path fill="#4E3020" d="M273.057,211.473c-2.672,5.586-8.336,9.465-14.918,9.465c-1.404,0-2.734-0.225-4.018-0.541
				c2.898-3.006,4.727-7.082,4.727-11.582c0-3.485-1.072-6.703-2.897-9.359c4.073-3.789,6.655-9.182,6.655-15.188
				c0-7.082-3.559-13.318-8.967-17.048c5.408-3.745,8.967-9.993,8.967-17.077c0-6.959-3.471-13.06-8.758-16.805
				c2.266-3.079,3.654-6.825,3.654-10.932c0-10.114-8.123-18.284-18.178-18.464c-1.418-8.155-8.137-14.404-16.504-15.174
				c-9.029-9.089-19.883-16.383-31.99-21.214c7.791,19.976,12.771,42.744,14.027,67.099c9.479,1.646,18.557,5.271,27.102,10.51
				c-0.154,1.689-0.428,3.318-0.666,4.98c0.027,0,0.061,0,0.105-0.016c-0.105,0.634-0.256,1.27-0.377,1.902
				c-0.15,0.904-0.334,1.781-0.513,2.658c-0.334,1.676-0.666,3.353-1.088,4.996c-0.045,0.151-0.062,0.303-0.104,0.469
				c-0.019-0.017-0.019-0.017-0.033-0.017c-6.402,24.386-22.268,44.888-43.467,57.375c-0.076,0.03-0.15,0.093-0.228,0.149
				c3.576,7.309,10.39,12.761,18.646,14.3c5.813,12.319,18.328,20.866,32.854,20.866c20.084,0,36.359-16.277,36.359-36.356
				C273.449,214.777,273.283,213.117,273.057,211.473z"/>
		</g>
		<g>
			<path fill="#4E3020" d="M2.945,211.473c2.654,5.586,8.301,9.465,14.916,9.465c1.388,0,2.719-0.225,4.014-0.541
				c-2.926-3.006-4.736-7.082-4.736-11.582c0-3.485,1.084-6.703,2.898-9.359c-4.08-3.789-6.646-9.182-6.646-15.188
				c0-7.082,3.564-13.318,8.968-17.048c-5.403-3.745-8.968-9.993-8.968-17.077c0-6.959,3.476-13.06,8.744-16.805
				c-2.252-3.079-3.641-6.825-3.641-10.932c0-10.114,8.123-18.284,18.179-18.464c1.405-8.155,8.123-14.404,16.487-15.174
				c9.028-9.089,19.899-16.383,32.009-21.214c-7.789,19.976-12.771,42.744-14.042,67.099c-9.479,1.646-18.568,5.271-27.103,10.51
				c0.167,1.689,0.438,3.318,0.683,4.98c-0.033,0-0.078,0-0.122-0.016c0.089,0.634,0.272,1.27,0.378,1.902
				c0.15,0.904,0.345,1.781,0.527,2.658c0.332,1.676,0.666,3.353,1.089,4.996c0.028,0.151,0.062,0.303,0.089,0.469
				c0.018-0.017,0.032-0.017,0.032-0.017c6.402,24.386,22.268,44.888,43.467,57.375c0.077,0.03,0.15,0.093,0.228,0.149
				c-3.563,7.309-10.389,12.761-18.634,14.3c-5.825,12.319-18.33,20.866-32.851,20.866c-20.084,0-36.358-16.277-36.358-36.356
				C2.551,214.777,2.701,213.117,2.945,211.473z"/>
		</g>
	</g>
	<g>
		<g>
			<path fill="#B62022" d="M137.591,2.176c-38.107,0-73.74,5.662-104.256,15.446l21.666,68.805c25.76-4.319,53.54-6.718,82.59-6.718
				c29.353,0,57.437,2.46,83.437,6.854l21.621-68.7C211.953,7.915,176.016,2.176,137.591,2.176z"/>
		</g>
		<g>
			<g>
				<g>
					<path fill="#FF921B" d="M36.645,28.116l3.319,10.539c29.02-8.56,62.206-13.513,97.627-13.513
						c35.739,0,69.243,5.027,98.444,13.738l3.32-10.523c-29.974-9.314-64.683-14.69-101.765-14.69
						C100.844,13.667,66.434,18.951,36.645,28.116z"/>
				</g>
			</g>
		</g>
	</g>
	<path fill="#4E3020" d="M230.977,139.949c-4.272,27.556-18.014,51.457-37.352,67.326c-7.113-22.693-29.309-39.271-55.639-39.271
		c-26.303,0-48.498,16.578-55.627,39.271c-19.324-15.869-33.094-39.771-37.352-67.326c-0.906,5.906-1.404,11.975-1.404,18.166
		C43.603,216.59,85.864,264,137.986,264c52.151,0,94.395-47.41,94.395-105.885C232.381,151.924,231.883,145.855,230.977,139.949z
		 M137.986,175.658c21.168,0,38.981,16.625,44.661,39.391c-10.026,6.057-32.883-18.102-32.883-18.102h-23.528
		c0,0-22.87,24.158-32.883,18.102C99.013,192.283,116.846,175.658,137.986,175.658z"/>
</g>
<path fill="#DC8D3E" d="M152.777,186.287c0,4.244-7.213,7.671-16.125,7.671c-8.907,0-16.125-3.427-16.125-7.671
	c0-4.242,7.218-7.686,16.125-7.686C145.564,178.602,152.777,182.045,152.777,186.287z"/>
<g>
	<g>
		<path fill="#F7B521" d="M137.367,33.816c0-0.278,0.024-0.536,0.039-0.803h-1.93L124.5,61.66h-0.19l-10.785-28.647h-6.505v34.961
			h4.066V46.762c0-3.746-0.119-6.895-0.358-9.445h0.19l11.525,30.657h3.613l11.311-29.667V33.816z"/>
		<path fill="#F7B521" d="M145.311,67.015V33.013h-4.326v34.961h4.371C145.336,67.657,145.311,67.344,145.311,67.015z"/>
		<path fill="#F7B521" d="M154.031,33.013h-4.707v3.754h4.303c3.076,0,5.34,0.558,6.791,1.674c1.451,1.115,2.176,2.797,2.176,5.046
			c0,2.486-0.781,4.292-2.344,5.416s-4.08,1.686-7.557,1.686h-3.369v3.778h3.871c4.434,0,7.867-0.951,10.307-2.857
			c2.439-1.904,3.66-4.643,3.66-8.214C167.162,36.441,162.785,33.013,154.031,33.013z"/>
	</g>
</g>
</svg>
