<?xml version="1.0" encoding="utf-8"?>
<!-- Generator: Adobe Illustrator 16.0.0, SVG Export Plug-In . SVG Version: 6.00 Build 0)  -->
<!DOCTYPE svg PUBLIC "-//W3C//DTD SVG 1.1//EN" "http://www.w3.org/Graphics/SVG/1.1/DTD/svg11.dtd">
<svg version="1.1" id="图层_1" xmlns="http://www.w3.org/2000/svg" xmlns:xlink="http://www.w3.org/1999/xlink" x="0px" y="0px"
	 width="708px" height="406px" viewBox="0 0 708 406" enable-background="new 0 0 708 406" xml:space="preserve">
<g>
	<path fill="#232323" d="M707.49,378.619c0,14.922-12.098,27.018-27.018,27.018H27.528c-14.921,0-27.018-12.096-27.018-27.018
		V27.381c0-14.922,12.097-27.018,27.018-27.018h652.945c14.92,0,27.018,12.096,27.018,27.018V378.619z"/>
	<rect x="72.559" y="37.887" fill="#FFFFFF" width="546.369" height="330.225"/>
	<path fill="#4B4B4B" d="M33.531,52.645c-9.122,0-16.514,7.393-16.514,16.513S24.41,85.67,33.531,85.67
		c9.121,0,16.512-7.393,16.512-16.513S42.652,52.645,33.531,52.645z M33.531,81.166c-6.634,0-12.011-5.375-12.011-12.009
		s5.377-12.011,12.011-12.011c6.633,0,12.008,5.377,12.008,12.011S40.164,81.166,33.531,81.166z"/>
	<path fill="#4B4B4B" d="M647.447,302.066c0,2.9-2.352,5.254-5.252,5.254l0,0c-2.902,0-5.256-2.354-5.256-5.254V103.934
		c0-2.902,2.354-5.256,5.256-5.256l0,0c2.9,0,5.252,2.354,5.252,5.256V302.066z"/>
</g>
</svg>
