<?xml version="1.0" encoding="utf-8"?>
<!-- Generator: Adobe Illustrator 16.0.0, SVG Export Plug-In . SVG Version: 6.00 Build 0)  -->
<!DOCTYPE svg PUBLIC "-//W3C//DTD SVG 1.1//EN" "http://www.w3.org/Graphics/SVG/1.1/DTD/svg11.dtd">
<svg version="1.1" id="图层_1" xmlns="http://www.w3.org/2000/svg" xmlns:xlink="http://www.w3.org/1999/xlink" x="0px" y="0px"
	 width="460px" height="302px" viewBox="0 0 460 302" enable-background="new 0 0 460 302" xml:space="preserve">
<g>
	<g>
		<path fill="#6C6C6F" d="M131.173,33.751c8.251,0,14.94,6.669,14.94,14.902v238.445c0,8.227-6.689,14.901-14.94,14.901H15.214
			c-8.249,0-14.94-6.675-14.94-14.901V48.654c0-8.233,6.691-14.902,14.94-14.902H131.173z M30.154,58.59
			c-2.752,0-4.98,2.221-4.98,4.967v208.639c0,2.745,2.229,4.968,4.98,4.968h86.076c2.754,0,4.981-2.223,4.981-4.968V63.557
			c0-2.746-2.228-4.967-4.981-4.967H30.154z"/>
		<path d="M119.277,53.168c7.057,0,12.777,5.704,12.777,12.745v203.926c0,7.037-5.721,12.745-12.777,12.745H27.109
			c-7.053,0-12.777-5.708-12.777-12.745V65.913c0-7.041,5.725-12.745,12.777-12.745H119.277z M39.887,74.411
			c-2.354,0-4.259,1.899-4.259,4.247v178.437c0,2.348,1.905,4.247,4.259,4.247H106.5c2.354,0,4.259-1.899,4.259-4.247V78.658
			c0-2.348-1.904-4.247-4.259-4.247H39.887z"/>
		<g>
			<path fill="#2B2B2E" d="M433.678,43.302c2.74,0,4.961-2.215,4.961-4.948V4.948c0-2.732-2.221-4.948-4.961-4.948H47.932
				c-2.74,0-4.961,2.216-4.961,4.948v33.406c0,2.733,2.221,4.948,4.961,4.948H433.678z"/>
			<path fill="#F1F1F1" d="M433.678,14.846c2.74,0,4.961-2.216,4.961-4.949V4.948c0-2.732-2.221-4.948-4.961-4.948H47.932
				c-2.74,0-4.961,2.216-4.961,4.948v4.949c0,2.733,2.221,4.949,4.961,4.949H433.678z"/>
			<path fill="#B9C2C7" d="M42.971,6.089v3.808c0,2.733,2.221,4.949,4.961,4.949h385.746c2.74,0,4.961-2.216,4.961-4.949V6.089
				H42.971z"/>
		</g>
		<rect x="41.279" y="53.623" fill="#69F100" width="105.998" height="228.508"/>
		<g opacity="0.5">
			<polygon opacity="0.3" fill="#231F20" points="40.043,48.659 40.043,68.832 117.999,287.103 152.259,287.103 152.667,235.897 
				83.659,48.654 			"/>
		</g>
		<g>
			<polygon opacity="0.15" fill="#FFFFFF" points="40.043,287.103 117.999,287.103 40.043,68.832 			"/>
		</g>
		<path fill="#47475E" d="M152.259,33.751c8.251,0,14.94,6.669,14.94,14.902v238.445c0,8.227-6.689,14.901-14.94,14.901H36.3
			c-8.249,0-14.94-6.675-14.94-14.901V48.654c0-8.233,6.691-14.902,14.94-14.902H152.259z M51.24,58.59
			c-2.752,0-4.98,2.221-4.98,4.967v208.639c0,2.745,2.229,4.968,4.98,4.968h86.076c2.754,0,4.981-2.223,4.981-4.968V63.557
			c0-2.746-2.228-4.967-4.981-4.967H51.24z"/>
		<path fill="#78787F" d="M444.786,33.751c8.252,0,14.94,6.669,14.94,14.902v238.445c0,8.227-6.688,14.901-14.94,14.901H166.527
			c-8.249,0-14.941-6.675-14.941-14.901V48.654c0-8.233,6.692-14.902,14.941-14.902H444.786z"/>
		<g>
			<g>
				<path fill="#DEDCD9" d="M208.811,222.286c2.264,0,4.101,1.831,4.101,4.089v38.856c0,2.259-1.837,4.09-4.101,4.09h-38.955
					c-2.265,0-4.1-1.831-4.1-4.09v-38.856c0-2.258,1.835-4.089,4.1-4.089H208.811z"/>
				<path fill="#DEDCD9" d="M208.811,168.094c2.264,0,4.101,1.832,4.101,4.089v38.855c0,2.26-1.837,4.093-4.101,4.093h-38.955
					c-2.265,0-4.1-1.833-4.1-4.093v-38.855c0-2.257,1.835-4.089,4.1-4.089H208.811z"/>
				<path fill="#DEDCD9" d="M208.811,113.902c2.264,0,4.101,1.83,4.101,4.09v38.855c0,2.259-1.837,4.091-4.101,4.091h-38.955
					c-2.265,0-4.1-1.832-4.1-4.091v-38.855c0-2.26,1.835-4.09,4.1-4.09H208.811z"/>
				<path fill="#47475E" d="M208.811,59.708c2.264,0,4.101,1.832,4.101,4.091v38.854c0,2.26-1.837,4.091-4.101,4.091h-38.955
					c-2.265,0-4.1-1.832-4.1-4.091V63.799c0-2.259,1.835-4.091,4.1-4.091H208.811z"/>
			</g>
			<g>
				<path fill="#DEDCD9" d="M264.166,222.286c2.265,0,4.102,1.831,4.102,4.089v38.856c0,2.259-1.837,4.09-4.102,4.09h-38.954
					c-2.265,0-4.101-1.831-4.101-4.09v-38.856c0-2.258,1.836-4.089,4.101-4.089H264.166z"/>
				<path fill="#DEDCD9" d="M264.166,168.094c2.265,0,4.102,1.832,4.102,4.089v38.855c0,2.26-1.837,4.093-4.102,4.093h-38.954
					c-2.265,0-4.101-1.833-4.101-4.093v-38.855c0-2.257,1.836-4.089,4.101-4.089H264.166z"/>
				<path fill="#DEDCD9" d="M264.166,113.902c2.265,0,4.102,1.83,4.102,4.09v38.855c0,2.259-1.837,4.091-4.102,4.091h-38.954
					c-2.265,0-4.101-1.832-4.101-4.091v-38.855c0-2.26,1.836-4.09,4.101-4.09H264.166z"/>
				<path fill="#47475E" d="M264.166,59.708c2.265,0,4.102,1.832,4.102,4.091v38.854c0,2.26-1.837,4.091-4.102,4.091h-38.954
					c-2.265,0-4.101-1.832-4.101-4.091V63.799c0-2.259,1.836-4.091,4.101-4.091H264.166z"/>
			</g>
			<g>
				<path fill="#DEDCD9" d="M319.521,222.286c2.264,0,4.101,1.831,4.101,4.089v38.856c0,2.259-1.837,4.09-4.101,4.09h-38.955
					c-2.263,0-4.099-1.831-4.099-4.09v-38.856c0-2.258,1.836-4.089,4.099-4.089H319.521z"/>
				<path fill="#DEDCD9" d="M319.521,168.094c2.264,0,4.101,1.832,4.101,4.089v38.855c0,2.26-1.837,4.093-4.101,4.093h-38.955
					c-2.263,0-4.099-1.833-4.099-4.093v-38.855c0-2.257,1.836-4.089,4.099-4.089H319.521z"/>
				<path fill="#DEDCD9" d="M319.521,113.902c2.264,0,4.101,1.83,4.101,4.09v38.855c0,2.259-1.837,4.091-4.101,4.091h-38.955
					c-2.263,0-4.099-1.832-4.099-4.091v-38.855c0-2.26,1.836-4.09,4.099-4.09H319.521z"/>
				<path fill="#47475E" d="M319.521,59.708c2.264,0,4.101,1.832,4.101,4.091v38.854c0,2.26-1.837,4.091-4.101,4.091h-38.955
					c-2.263,0-4.099-1.832-4.099-4.091V63.799c0-2.259,1.836-4.091,4.099-4.091H319.521z"/>
			</g>
			<g>
				<path fill="#DEDCD9" d="M374.877,222.286c2.264,0,4.102,1.831,4.102,4.089v38.856c0,2.259-1.838,4.09-4.102,4.09h-38.954
					c-2.265,0-4.101-1.831-4.101-4.09v-38.856c0-2.258,1.836-4.089,4.101-4.089H374.877z"/>
				<path fill="#DEDCD9" d="M374.877,168.094c2.264,0,4.102,1.832,4.102,4.089v38.855c0,2.26-1.838,4.093-4.102,4.093h-38.954
					c-2.265,0-4.101-1.833-4.101-4.093v-38.855c0-2.257,1.836-4.089,4.101-4.089H374.877z"/>
				<path fill="#DEDCD9" d="M374.877,113.902c2.264,0,4.102,1.83,4.102,4.09v38.855c0,2.259-1.838,4.091-4.102,4.091h-38.954
					c-2.265,0-4.101-1.832-4.101-4.091v-38.855c0-2.26,1.836-4.09,4.101-4.09H374.877z"/>
				<path fill="#5CC500" d="M402.555,59.708c2.265,0,4.1,1.832,4.1,4.091v38.854c0,2.26-1.835,4.091-4.1,4.091h-66.632
					c-2.265,0-4.101-1.832-4.101-4.091V63.799c0-2.259,1.836-4.091,4.101-4.091H402.555z"/>
			</g>
			<g>
				<path opacity="0.3" fill="#231F20" d="M430.232,222.286c2.264,0,4.101,1.831,4.101,4.089v38.856c0,2.259-1.837,4.09-4.101,4.09
					h-38.955c-2.263,0-4.099-1.831-4.099-4.09v-38.856c0-2.258,1.836-4.089,4.099-4.089H430.232z"/>
				<path fill="#FFC521" d="M430.232,168.094c2.264,0,4.101,1.832,4.101,4.089v38.855c0,2.26-1.837,4.093-4.101,4.093h-38.955
					c-2.263,0-4.099-1.833-4.099-4.093v-38.855c0-2.257,1.836-4.089,4.099-4.089H430.232z"/>
				<path fill="#F12100" d="M430.232,113.902c2.264,0,4.101,1.83,4.101,4.09v38.855c0,2.259-1.837,4.091-4.101,4.091h-38.955
					c-2.263,0-4.099-1.832-4.099-4.091v-38.855c0-2.26,1.836-4.09,4.099-4.09H430.232z"/>
				<path fill="#5CC500" d="M430.232,59.708c2.264,0,4.101,1.832,4.101,4.091v38.854c0,2.26-1.837,4.091-4.101,4.091h-38.955
					c-2.263,0-4.099-1.832-4.099-4.091V63.799c0-2.259,1.836-4.091,4.099-4.091H430.232z"/>
			</g>
		</g>
	</g>
</g>
</svg>
