<?xml version="1.0" encoding="utf-8"?>
<!-- Generator: Adobe Illustrator 16.0.0, SVG Export Plug-In . SVG Version: 6.00 Build 0)  -->
<!DOCTYPE svg PUBLIC "-//W3C//DTD SVG 1.1//EN" "http://www.w3.org/Graphics/SVG/1.1/DTD/svg11.dtd">
<svg version="1.1" id="图层_1" xmlns="http://www.w3.org/2000/svg" xmlns:xlink="http://www.w3.org/1999/xlink" x="0px" y="0px"
	 width="768px" height="210px" viewBox="0 0 768 210" enable-background="new 0 0 768 210" xml:space="preserve">
<g>
	<g>
		<g>
			<g>
				<g>
					<path fill="#FFFFFF" d="M165.729,125.642c-2.377-3.488-4.318-5.625-4.318-4.753c0,0.876-0.328,2.91-0.721,2.305
						c0,0,0,0-0.167-0.34c-0.339-0.687-0.61-1.4-0.974-2.078c-3.303-6.164-7.223-11.744-15.544-13.271
						c-0.789-0.145-1.656-0.561-2.192-1.089c-4.295-4.212-10.199-5.265-15.994-5.834c-12.181-1.192-23.97-3.349-34.731-8.789
						c-1.781-0.903-3.516-2.119-4.781-3.538c-4.876-5.481-4.872-6.534,0.619-11.478c9.627-8.676,20.278-15.933,34.162-18.351
						c1.112-0.189,2.797-0.573,3.326-0.09c2.201,2.002,4.957,1.08,7.411,1.604c2.042,0.435,4.695,0.949,5.709,2.269
						c1.327,1.727,2.845,2.508,4.788,2.652c4.621,0.344,9.302,0.168,13.882,0.701c3.678,0.434,4.485-2.265,6.073-3.882
						c0.549-0.556-0.452-2.729-1.281-3.85c-1.292-1.745-1.584-3.218-0.637-5.233c0.556-1.192,0.44-3.014-0.185-4.216
						c-3.457-6.629-7.144-13.168-10.807-19.711c-1.101-1.961-1.101-1.961-1.101-1.961c-1.557-2.431-3.802-2.9-4.984-1.048
						c0,0,0,0-2.079-1.405c-2.788-1.88-5.8-2.626-9.089-0.777c-0.78,0.434-1.83,0.465-2.687,0.813
						c-2.691,1.106-2.691,1.106-2.691,1.106c-1.733-1.794-6.615-2.341-10.845-1.225c0,0,0,0-3.688,1.107
						c-14.609,4.365-29.399,8.396-42.499,15.893c-3.402,1.947-3.402,1.947-3.402,1.947c-3.242,2.843-5.807,5.265-5.691,5.391
						c0.113,0.127,1.405,0.05,2.621-0.442c1.218-0.502-0.815,3.276-7.214,9.493c0,0,0,0-4.921,6.214
						c-4.984,6.294-4.984,6.294-4.984,6.294c-3.369,7.927-5.8,14.108-5.409,13.742c0.395-0.366,1.583-1.319,1.776-1.288
						c0.189,0.027,0.151,4.139-0.502,9.073c0,0,0,0,0.994,4.424c0.145,0.646,0.23,1.329,0.545,1.912
						c1.208,2.228,2.194,4.622,3.827,6.583c3.818,4.592,9.796,6.733,15.244,9.11c7.677,3.335,7.677,3.335,7.677,3.335
						c8.913,2.819,16.258,5.047,16.326,4.947c0.07-0.099,0.054-0.664-0.186-1.044c-0.239-0.375,0.567-1.689,2.982-1.062
						c0,0,0,0,1.812,0.402c3.452,0.759,6.912,1.496,10.382,2.187c4.209,0.837,8.479,1.469,12.65,2.445
						c6.396,1.491,9.725,5.982,12.495,10.822c2.44,4.279,0.741,8.608,0.022,12.969c-1.159,7.009-6.071,11.328-12.411,14.763
						c-5.366,2.905-11.286,4.55-17.325,5.915c-1.127,0.253-2.241,0.547-3.385,0.728c-12.209,1.956-23.933,0.189-34.69-4.957
						c-6.098-2.915-13.403-4.207-18.107-9.155c-5.244-5.526-10.187-11.274-15.138-17.009c-2.476-2.878-2.476-2.878-2.476-2.878
						c-2.479-3.326-4.603-6.01-4.713-5.965c-0.113,0.045,0.526,2.436,1.669,5.201c1.141,2.766,2.472,6.565,0.063,1.441
						c-2.409-5.124-6.938-11.428-5.915-2.648c0,0,0,0,2.684,7.492c2.718,7.574,2.718,7.574,2.718,7.574
						c4.725,7.83,8.529,14.283,8.448,14.328c-0.081,0.05-0.921-0.303-1.694-0.895c-0.772-0.592-0.118,2.246,3.172,7.623
						c0,0,0,0,5.199,3.357c3.055,1.979,5.711,4.438,8.563,6.67c1.484,1.166,2.858,2.508,4.523,3.425
						c8.202,4.51,17.273,6.914,26.676,8.473c7.639,1.27,15.224,3.254,22.924,3.705c12.39,0.732,24.098-2.272,34.699-8.065
						c4.713-2.566,4.713-2.566,4.713-2.566c5.061-3.521,8.977-5.775,8.701-5.007c-0.278,0.768-0.644,2.702-0.169,2.508
						c0,0,0,0,0.226-0.181c17.704-14.56,25.35-32.264,20.725-53.624C165.729,125.642,165.729,125.642,165.729,125.642z"/>
					
						<path fill="none" stroke="#FFFFFF" stroke-width="13" stroke-linecap="round" stroke-linejoin="round" stroke-miterlimit="10" d="
						M165.729,125.642c-2.377-3.488-4.318-5.625-4.318-4.753c0,0.876-0.328,2.91-0.721,2.305c0,0,0,0-0.167-0.34
						c-0.339-0.687-0.61-1.4-0.974-2.078c-3.303-6.164-7.223-11.744-15.544-13.271c-0.789-0.145-1.656-0.561-2.192-1.089
						c-4.295-4.212-10.199-5.265-15.994-5.834c-12.181-1.192-23.97-3.349-34.731-8.789c-1.781-0.903-3.516-2.119-4.781-3.538
						c-4.876-5.481-4.872-6.534,0.619-11.478c9.627-8.676,20.278-15.933,34.162-18.351c1.112-0.189,2.797-0.573,3.326-0.09
						c2.201,2.002,4.957,1.08,7.411,1.604c2.042,0.435,4.695,0.949,5.709,2.269c1.327,1.727,2.845,2.508,4.788,2.652
						c4.621,0.344,9.302,0.168,13.882,0.701c3.678,0.434,4.485-2.265,6.073-3.882c0.549-0.556-0.452-2.729-1.281-3.85
						c-1.292-1.745-1.584-3.218-0.637-5.233c0.556-1.192,0.44-3.014-0.185-4.216c-3.457-6.629-7.144-13.168-10.807-19.711
						c-1.101-1.961-1.101-1.961-1.101-1.961c-1.557-2.431-3.802-2.9-4.984-1.048c0,0,0,0-2.079-1.405
						c-2.788-1.88-5.8-2.626-9.089-0.777c-0.78,0.434-1.83,0.465-2.687,0.813c-2.691,1.106-2.691,1.106-2.691,1.106
						c-1.733-1.794-6.615-2.341-10.845-1.225c0,0,0,0-3.688,1.107c-14.609,4.365-29.399,8.396-42.499,15.893
						c-3.402,1.947-3.402,1.947-3.402,1.947c-3.242,2.843-5.807,5.265-5.691,5.391c0.113,0.127,1.405,0.05,2.621-0.442
						c1.218-0.502-0.815,3.276-7.214,9.493c0,0,0,0-4.921,6.214c-4.984,6.294-4.984,6.294-4.984,6.294
						c-3.369,7.927-5.8,14.108-5.409,13.742c0.395-0.366,1.583-1.319,1.776-1.288c0.189,0.027,0.151,4.139-0.502,9.073
						c0,0,0,0,0.994,4.424c0.145,0.646,0.23,1.329,0.545,1.912c1.208,2.228,2.194,4.622,3.827,6.583
						c3.818,4.592,9.796,6.733,15.244,9.11c7.677,3.335,7.677,3.335,7.677,3.335c8.913,2.819,16.258,5.047,16.326,4.947
						c0.07-0.099,0.054-0.664-0.186-1.044c-0.239-0.375,0.567-1.689,2.982-1.062c0,0,0,0,1.812,0.402
						c3.452,0.759,6.912,1.496,10.382,2.187c4.209,0.837,8.479,1.469,12.65,2.445c6.396,1.491,9.725,5.982,12.495,10.822
						c2.44,4.279,0.741,8.608,0.022,12.969c-1.159,7.009-6.071,11.328-12.411,14.763c-5.366,2.905-11.286,4.55-17.325,5.915
						c-1.127,0.253-2.241,0.547-3.385,0.728c-12.209,1.956-23.933,0.189-34.69-4.957c-6.098-2.915-13.403-4.207-18.107-9.155
						c-5.244-5.526-10.187-11.274-15.138-17.009c-2.476-2.878-2.476-2.878-2.476-2.878c-2.479-3.326-4.603-6.01-4.713-5.965
						c-0.113,0.045,0.526,2.436,1.669,5.201c1.141,2.766,2.472,6.565,0.063,1.441c-2.409-5.124-6.938-11.428-5.915-2.648
						c0,0,0,0,2.684,7.492c2.718,7.574,2.718,7.574,2.718,7.574c4.725,7.83,8.529,14.283,8.448,14.328
						c-0.081,0.05-0.921-0.303-1.694-0.895c-0.772-0.592-0.118,2.246,3.172,7.623c0,0,0,0,5.199,3.357
						c3.055,1.979,5.711,4.438,8.563,6.67c1.484,1.166,2.858,2.508,4.523,3.425c8.202,4.51,17.273,6.914,26.676,8.473
						c7.639,1.27,15.224,3.254,22.924,3.705c12.39,0.732,24.098-2.272,34.699-8.065c4.713-2.566,4.713-2.566,4.713-2.566
						c5.061-3.521,8.977-5.775,8.701-5.007c-0.278,0.768-0.644,2.702-0.169,2.508c0,0,0,0,0.226-0.181
						c17.704-14.56,25.35-32.264,20.725-53.624C165.729,125.642,165.729,125.642,165.729,125.642z"/>
				</g>
			</g>
			<g>
				<g>
					<path fill="#FFFFFF" d="M350.47,112.438c1.154-0.447,1.154-0.447,1.154-0.447c1.15-0.565-1.084-1.107-4.961-1.202
						c0,0,0,0,1.213-4.166c0.635-2.183,0.635-2.183,0.635-2.183c2.373-2.016,2.91-3.538,1.193-3.385
						c-1.717,0.149-4.839-3.922-7.28-4.071c-2.438-0.158-8.777-1.555-8.165-2.734c0.612-1.17,2.054-4.247,1.911-4.364
						c-0.14-0.118-4.396,1.808-9.144,4.541c0,0,0,0-4.033,2.811c-6.491,4.519-12.731,9.322-19.128,13.954
						c-0.655,0.47-0.655,0.47-0.655,0.47c-1.007,0.203-2.178-0.425-2.598-1.392c0,0,0,0,0.154-0.796
						c0.533-2.774,1.31-5.517,1.981-8.269c1.651-6.77,5.94-13.127,3.934-20.457c-0.181-0.664-0.181-0.664-0.181-0.664
						c-0.07-1.116-1.306-0.709-2.747,0.895c-1.441,1.609-5.676,5.283-6.13,4.497c-0.454-0.782-1.794-2.563-2.112-2.481
						c-0.316,0.082-1.225-0.136-1.279-0.682c-0.054-0.538-2.061-0.76-4.336,0.79c0,0,0,0-2.063,1.135
						c-1.995,1.098-3.522,0.858-4.15-1.537c-0.472-1.803-0.472-1.803-0.472-1.803c-0.832-1.925-1.595-3.479-1.692-3.457
						c-0.104,0.023-0.671,1.261-1.046,2.698c-0.373,1.437-1.455,5.21-1.561,5.188c-0.111-0.022-0.54-0.977-0.721-2.079
						c-0.176-1.098-1.631-2.584-2.833-0.867c0,0,0,0-0.153,1.667c-0.599,6.557-1.315,13.137-1.319,19.702
						c-0.009,14.405,0.388,28.812,0.614,43.217c0.018,1.017,0.018,1.017,0.018,1.017c-0.007,1.197-4.935,2.946-10.942,3.891
						c-6.012,0.944-22.187,1.446-21.889-1.08c0.293-2.525,0.879-9.01,0.625-8.64c-0.257,0.371,0.795-3.407,2.804-9.069
						c2.004-5.652,7.799-20.099,7.923-19.624c0.122,0.474,1.943-1.686,3.75-5.938c0,0,0,0,2.429-3.303
						c2.37-3.227,1.539-5.762-0.387-8.486c-0.836-1.184-1.825-2.35-3.009-3.253c-3.195-2.454-6.539-4.759-9.81-7.136
						c-3.854-2.797-3.854-2.797-3.854-2.797c-2.377-4.293-5.876-2.463-7.788,4.063c-1.907,6.525-7.994,22.675-8.073,21.563
						c-0.079-1.112-0.682-4.171-1.125-3.715c0,0,0,0-0.034,0.154c-2.564,12.304-4.345,24.663-4.781,37.216
						c-0.149,4.419-1.737,9.205-4.195,13.046c-2.49,3.895-2.102,6.899,0.273,10.171c2.352,3.231,5.163,6.214,7.397,9.508
						c1.186,1.744,2.456,1.938,4.381,1.586c4.229-0.786,8.455-1.627,12.727-2.178c6.857-0.886,6.857-0.886,6.857-0.886
						c7.356-0.759,14.6-2.341,16.105-3.521c1.5-1.17,3.784-6.199,3.459-7.759c0,0,0,0,0.703-0.836
						c1.803-2.146,1.803-2.146,1.803-2.146c3.145,0.117,6.347,4.622,7.124,10.013c0,0,0,0,0.8,4.817
						c0.156,0.922,0.576,2.155,1.337,2.585c2.974,1.672,6.83,0.054,7.521-3.082c0.384-1.744,0.364-3.557,0.696-5.31
						c0.348-1.871,0.348-1.871,0.348-1.871c0.551-2.037,1.15-3.678,1.329-3.646c0.176,0.032,0.849,1.957,1.104,4.212
						c0,0,0,0,0.169,2.056c0.167,2.033,0.167,2.033,0.167,2.033c1.622,1.582,3.009-2.68,3.086-9.467
						c0.073-6.791,6.638-18.513,12.146-11.115c5.506,7.396,24.778,22.711,24.5,21.762c-0.275-0.949-0.768-3.326-0.569-3.471
						c0.204-0.14,2.888,0.52,5.508,1.776c2.628,1.261,9.433,4.003,8.834,3.068c0,0,0,0-0.165-0.705
						c-0.305-1.288-0.305-1.288-0.305-1.288c-0.149-1.45,1.17-2.738,2.93-2.865c0,0,0,0,1.557,0.177
						c1.441,0.167,1.441,0.167,1.441,0.167c1.522,0.524,2.137,0.253,1.374-0.601c-0.766-0.858-0.093-4.727-2.479-6.503
						c-2.386-1.771-8.552-6.516-8.461-6.646c0.093-0.127,0.646-0.488,1.028-0.511c0.382-0.019-2.931-3.479-9.121-7.592
						c-6.184-4.121-16.932-19.643-13.714-21.767c0,0,0,0,3.106-1.261C330.852,119.845,340.693,116.212,350.47,112.438z"/>
					
						<path fill="none" stroke="#FFFFFF" stroke-width="13" stroke-linecap="round" stroke-linejoin="round" stroke-miterlimit="10" d="
						M350.47,112.438c1.154-0.447,1.154-0.447,1.154-0.447c1.15-0.565-1.084-1.107-4.961-1.202c0,0,0,0,1.213-4.166
						c0.635-2.183,0.635-2.183,0.635-2.183c2.373-2.016,2.91-3.538,1.193-3.385c-1.717,0.149-4.839-3.922-7.28-4.071
						c-2.438-0.158-8.777-1.555-8.165-2.734c0.612-1.17,2.054-4.247,1.911-4.364c-0.14-0.118-4.396,1.808-9.144,4.541
						c0,0,0,0-4.033,2.811c-6.491,4.519-12.731,9.322-19.128,13.954c-0.655,0.47-0.655,0.47-0.655,0.47
						c-1.007,0.203-2.178-0.425-2.598-1.392c0,0,0,0,0.154-0.796c0.533-2.774,1.31-5.517,1.981-8.269
						c1.651-6.77,5.94-13.127,3.934-20.457c-0.181-0.664-0.181-0.664-0.181-0.664c-0.07-1.116-1.306-0.709-2.747,0.895
						c-1.441,1.609-5.676,5.283-6.13,4.497c-0.454-0.782-1.794-2.563-2.112-2.481c-0.316,0.082-1.225-0.136-1.279-0.682
						c-0.054-0.538-2.061-0.76-4.336,0.79c0,0,0,0-2.063,1.135c-1.995,1.098-3.522,0.858-4.15-1.537
						c-0.472-1.803-0.472-1.803-0.472-1.803c-0.832-1.925-1.595-3.479-1.692-3.457c-0.104,0.023-0.671,1.261-1.046,2.698
						c-0.373,1.437-1.455,5.21-1.561,5.188c-0.111-0.022-0.54-0.977-0.721-2.079c-0.176-1.098-1.631-2.584-2.833-0.867
						c0,0,0,0-0.153,1.667c-0.599,6.557-1.315,13.137-1.319,19.702c-0.009,14.405,0.388,28.812,0.614,43.217
						c0.018,1.017,0.018,1.017,0.018,1.017c-0.007,1.197-4.935,2.946-10.942,3.891c-6.012,0.944-22.187,1.446-21.889-1.08
						c0.293-2.525,0.879-9.01,0.625-8.64c-0.257,0.371,0.795-3.407,2.804-9.069c2.004-5.652,7.799-20.099,7.923-19.624
						c0.122,0.474,1.943-1.686,3.75-5.938c0,0,0,0,2.429-3.303c2.37-3.227,1.539-5.762-0.387-8.486
						c-0.836-1.184-1.825-2.35-3.009-3.253c-3.195-2.454-6.539-4.759-9.81-7.136c-3.854-2.797-3.854-2.797-3.854-2.797
						c-2.377-4.293-5.876-2.463-7.788,4.063c-1.907,6.525-7.994,22.675-8.073,21.563c-0.079-1.112-0.682-4.171-1.125-3.715
						c0,0,0,0-0.034,0.154c-2.564,12.304-4.345,24.663-4.781,37.216c-0.149,4.419-1.737,9.205-4.195,13.046
						c-2.49,3.895-2.102,6.899,0.273,10.171c2.352,3.231,5.163,6.214,7.397,9.508c1.186,1.744,2.456,1.938,4.381,1.586
						c4.229-0.786,8.455-1.627,12.727-2.178c6.857-0.886,6.857-0.886,6.857-0.886c7.356-0.759,14.6-2.341,16.105-3.521
						c1.5-1.17,3.784-6.199,3.459-7.759c0,0,0,0,0.703-0.836c1.803-2.146,1.803-2.146,1.803-2.146
						c3.145,0.117,6.347,4.622,7.124,10.013c0,0,0,0,0.8,4.817c0.156,0.922,0.576,2.155,1.337,2.585
						c2.974,1.672,6.83,0.054,7.521-3.082c0.384-1.744,0.364-3.557,0.696-5.31c0.348-1.871,0.348-1.871,0.348-1.871
						c0.551-2.037,1.15-3.678,1.329-3.646c0.176,0.032,0.849,1.957,1.104,4.212c0,0,0,0,0.169,2.056
						c0.167,2.033,0.167,2.033,0.167,2.033c1.622,1.582,3.009-2.68,3.086-9.467c0.073-6.791,6.638-18.513,12.146-11.115
						c5.506,7.396,24.778,22.711,24.5,21.762c-0.275-0.949-0.768-3.326-0.569-3.471c0.204-0.14,2.888,0.52,5.508,1.776
						c2.628,1.261,9.433,4.003,8.834,3.068c0,0,0,0-0.165-0.705c-0.305-1.288-0.305-1.288-0.305-1.288
						c-0.149-1.45,1.17-2.738,2.93-2.865c0,0,0,0,1.557,0.177c1.441,0.167,1.441,0.167,1.441,0.167
						c1.522,0.524,2.137,0.253,1.374-0.601c-0.766-0.858-0.093-4.727-2.479-6.503c-2.386-1.771-8.552-6.516-8.461-6.646
						c0.093-0.127,0.646-0.488,1.028-0.511c0.382-0.019-2.931-3.479-9.121-7.592c-6.184-4.121-16.932-19.643-13.714-21.767
						c0,0,0,0,3.106-1.261C330.852,119.845,340.693,116.212,350.47,112.438z"/>
				</g>
			</g>
			<g>
				<g>
					<path fill="#FFFFFF" d="M749.326,89.736c-1.365-1.279-1.789-3.335-2.697-5.016c-0.762-1.405-1.219-3.19-2.467-4.09
						c-4.736-3.416-9.697-6.584-14.66-9.747c-1.865-1.192-3.818-2.62-5.965-3.063c-7.076-1.455-14.025-0.669-20.746,1.849
						c-9.52,3.565-17.191,9.476-24.904,15.346c-2.842,2.164-4.895,2.001-6.832-0.945c-0.992-1.504-1.461-3.289-2.098-4.97
						c-0.299-0.796-0.299-0.796-0.299-0.796c-0.234-1.075-0.803-0.908-1.266,0.366c-0.461,1.274-1.785,4.388-2.023,4.379
						c-0.24-0.01-1.252-0.688-1.729-1.487s-3.146,4.659-4.877,13.904c0,0,0,0-0.701,8.486c-1.396,16.937-0.691,33.858,1.105,50.754
						c0.309,2.901,1.484,6.132,0.477,8.641c-1.945,4.853,0.057,7.804,3.977,10.537c0.498,0.348,0.902,0.796,1.338,1.202
						c3.594,3.299,3.445,5.255-0.752,7.781c-2.797,1.681-5.711,3.213-8.572,4.808c-1.482,0.827-1.482,0.827-1.482,0.827
						c-1.627,0.908-2.912,1.703-2.861,1.763c0.049,0.059,2.463-0.435,5.244-1.221c2.783-0.786,10.217-2.702,10.326-2.503
						c0.115,0.198-1.773,1.884-4.447,3.289c-2.676,1.406-7.857,4.781-5.566,4.37c0,0,0,0,1.662-0.999
						c5.822-3.483,13.006-2.345,19.131-4.681c2.795-1.063,5.402-1.785,6.986,1.518c0.125,0.249,0.125,0.249,0.125,0.249
						c0.508,0.181,1.002-2.811,1.096-6.647c0,0,0,0,3.346-2.223c5.992-3.995,12.004-7.899,16.938-13.01
						c1.744-1.803,4.492-2.819,6.318-4.582c4.871-4.695,9.658-9.476,14.17-14.441c9.301-10.23,16.896-21.352,21.311-34.031
						c1.234-3.542,1.92-7.352,3.85-10.564C755.254,99.004,754.211,94.327,749.326,89.736z M738.4,98.923
						c-0.01,1.107-0.471,2.246-0.289,3.313c1.447,8.454,1.447,8.454,1.447,8.454c-4.537,7.695-8.422,13.954-8.643,13.909
						c-0.213-0.046-0.473-1.401-0.098-2.906c0.375-1.509,1.262-5.517,1.135-5.549c-0.119-0.04-1.781,2.626-3.41,6.001
						c0,0,0,0-2,2.77c-3.453,4.795-7.279,9.381-11.035,13.999c-1.977,2.427-3.795,5.089-6.297,7.009
						c-4.602,3.524-9.586,6.665-14.541,9.801c-2.229,1.41-3.424,0.755-3.672-1.73c-0.811-8.079,0.822-15.905,2.92-23.714
						c1.713-6.385,2.957-12.874,4.805-19.228c2.791-9.593,14.047-22.209,28.455-20.198c4.271,0.601,8.275,1.798,10.85,5.146
						C738.576,96.718,738.408,97.934,738.4,98.923z"/>
					
						<path fill="none" stroke="#FFFFFF" stroke-width="13" stroke-linecap="round" stroke-linejoin="round" stroke-miterlimit="10" d="
						M749.326,89.736c-1.365-1.279-1.789-3.335-2.697-5.016c-0.762-1.405-1.219-3.19-2.467-4.09
						c-4.736-3.416-9.697-6.584-14.66-9.747c-1.865-1.192-3.818-2.62-5.965-3.063c-7.076-1.455-14.025-0.669-20.746,1.849
						c-9.52,3.565-17.191,9.476-24.904,15.346c-2.842,2.164-4.895,2.001-6.832-0.945c-0.992-1.504-1.461-3.289-2.098-4.97
						c-0.299-0.796-0.299-0.796-0.299-0.796c-0.234-1.075-0.803-0.908-1.266,0.366c-0.461,1.274-1.785,4.388-2.023,4.379
						c-0.24-0.01-1.252-0.688-1.729-1.487s-3.146,4.659-4.877,13.904c0,0,0,0-0.701,8.486c-1.396,16.937-0.691,33.858,1.105,50.754
						c0.309,2.901,1.484,6.132,0.477,8.641c-1.945,4.853,0.057,7.804,3.977,10.537c0.498,0.348,0.902,0.796,1.338,1.202
						c3.594,3.299,3.445,5.255-0.752,7.781c-2.797,1.681-5.711,3.213-8.572,4.808c-1.482,0.827-1.482,0.827-1.482,0.827
						c-1.627,0.908-2.912,1.703-2.861,1.763c0.049,0.059,2.463-0.435,5.244-1.221c2.783-0.786,10.217-2.702,10.326-2.503
						c0.115,0.198-1.773,1.884-4.447,3.289c-2.676,1.406-7.857,4.781-5.566,4.37c0,0,0,0,1.662-0.999
						c5.822-3.483,13.006-2.345,19.131-4.681c2.795-1.063,5.402-1.785,6.986,1.518c0.125,0.249,0.125,0.249,0.125,0.249
						c0.508,0.181,1.002-2.811,1.096-6.647c0,0,0,0,3.346-2.223c5.992-3.995,12.004-7.899,16.938-13.01
						c1.744-1.803,4.492-2.819,6.318-4.582c4.871-4.695,9.658-9.476,14.17-14.441c9.301-10.23,16.896-21.352,21.311-34.031
						c1.234-3.542,1.92-7.352,3.85-10.564C755.254,99.004,754.211,94.327,749.326,89.736z M738.4,98.923
						c-0.01,1.107-0.471,2.246-0.289,3.313c1.447,8.454,1.447,8.454,1.447,8.454c-4.537,7.695-8.422,13.954-8.643,13.909
						c-0.213-0.046-0.473-1.401-0.098-2.906c0.375-1.509,1.262-5.517,1.135-5.549c-0.119-0.04-1.781,2.626-3.41,6.001
						c0,0,0,0-2,2.77c-3.453,4.795-7.279,9.381-11.035,13.999c-1.977,2.427-3.795,5.089-6.297,7.009
						c-4.602,3.524-9.586,6.665-14.541,9.801c-2.229,1.41-3.424,0.755-3.672-1.73c-0.811-8.079,0.822-15.905,2.92-23.714
						c1.713-6.385,2.957-12.874,4.805-19.228c2.791-9.593,14.047-22.209,28.455-20.198c4.271,0.601,8.275,1.798,10.85,5.146
						C738.576,96.718,738.408,97.934,738.4,98.923z"/>
				</g>
			</g>
			<g>
				<g>
					<path fill="#FFFFFF" d="M649.359,126.383c0.16-0.04,0.514,0.194,0.789,0.52c0.279,0.326,0.936-1.54,0.227-5.599
						c0,0,0,0-0.65-3.298c-3.361-17.05-7.85-33.818-15.363-49.864c-1.025-2.196-2.346-2.626-4.754-2.59
						c-3.547,0.05-7.104-0.339-10.656-0.537c-0.514-0.027-1.201-0.217-1.527,0c-2.84,1.875-4.145-0.1-5.615-1.69
						c-0.617-0.669-0.617-0.669-0.617-0.669c-0.934-1.07-1.838-0.759-2.012,0.696c0,0,0,0-0.494,0.705
						c-0.428,0.605-1.715,1.387-2.189,1.206c-3.277-1.265-4.082,0.588-3.713,2.621c0.691,3.755,1.75,7.487,3.09,11.098
						c0.748,2.021,0.865,3.688-0.053,5.662c-6.697,14.415-13.289,28.87-19.936,43.308c-0.197,0.425-0.197,0.425-0.197,0.425
						c-0.404,0.397-0.818,0.691-0.916,0.659c-0.098-0.036-0.27-0.895-0.162-1.834c0.113-0.944,0.113-3.565-0.352-2.856
						c-0.467,0.715-1.58,2.26-1.697,2.237c-0.119-0.014-0.428-2.246-0.428-4.916c0-2.671-0.094-9.721-0.207-9.729
						s-0.836,1.46-1.357,3.276c-0.523,1.821-2.031,6.606-2.191,6.598c-0.164-0.014-0.773-0.769-1.002-1.649
						c-0.23-0.882-2.625,2.024-4.578,9.317c0,0,0,0-0.779,6.371c-1.086,8.816-3.021,17.655-1.113,26.62
						c1.049,4.925,1.049,4.925,1.049,4.925c-1.441,5.373-2.102,9.824-1.467,9.892c0.631,0.063,2.203,0.543,2.1,0.918
						c-0.109,0.379,3.566,1.762,8.295,2.603c4.732,0.845,17.447,1.925,18.125,0.601c0,0,0,0,1.188-0.745
						c2.248-1.41,3.195-3.222,3.203-5.481c0.01-3.059,0.01-3.059,0.01-3.059c2.154-2.273,2.617-5.576,1.027-7.33c0,0,0,0-0.24-1.645
						c-0.764-5.396-1.584-10.886-1.299-16.295c0.701-13.308,4.975-15.449,15.084-17.857c0.102-0.027,0.201-0.059,0.299-0.091
						c2.244-0.791,3.232-0.176,3.977,1.984c4.355,12.661,8.736,25.322,13.521,37.857c1.943,5.088,1.943,5.088,1.943,5.088
						c3.006,5.332,5.574,9.652,5.707,9.607c0.127-0.046,0.16-2.282-0.229-4.871c-0.383-2.59-0.947-9.711-0.305-9.408
						c0.637,0.303,1.297-1.636,0.186-4.917c-1.117-3.28-1.643-12.083-1.475-12.114c0.172-0.036,1.311,1.689,2.156,3.913
						s2.646,4.388,2.119-0.136c-0.529-4.527-1.307-16.534-0.879-16.172c0.422,0.361,1.221-0.552,0.969-2.712
						c-0.25-2.159-0.727-7.776-0.518-7.821c0.211-0.036,1.375,1.156,2.113,2.752c0.738,1.586,2.76,5.757,2.85,5.729
						c0.088-0.032,0.033-1.771-0.328-3.796C649.725,131.859,649.201,126.419,649.359,126.383z M609.236,126.527
						c-1.145,0.086-1.145,0.086-1.145,0.086c-1.281,0.072-2.326-1.396-2.326-3.253c0-1.866-0.125-6.639-0.281-6.575
						c-0.156,0.055,0.074-2.386,1.182-5.671c1.104-3.28,6.23-6.674,8.873-0.036c0,0,0,0,1.766,6.037
						C618.99,122.877,615.996,126.021,609.236,126.527z"/>
					
						<path fill="none" stroke="#FFFFFF" stroke-width="13" stroke-linecap="round" stroke-linejoin="round" stroke-miterlimit="10" d="
						M649.359,126.383c0.16-0.04,0.514,0.194,0.789,0.52c0.279,0.326,0.936-1.54,0.227-5.599c0,0,0,0-0.65-3.298
						c-3.361-17.05-7.85-33.818-15.363-49.864c-1.025-2.196-2.346-2.626-4.754-2.59c-3.547,0.05-7.104-0.339-10.656-0.537
						c-0.514-0.027-1.201-0.217-1.527,0c-2.84,1.875-4.145-0.1-5.615-1.69c-0.617-0.669-0.617-0.669-0.617-0.669
						c-0.934-1.07-1.838-0.759-2.012,0.696c0,0,0,0-0.494,0.705c-0.428,0.605-1.715,1.387-2.189,1.206
						c-3.277-1.265-4.082,0.588-3.713,2.621c0.691,3.755,1.75,7.487,3.09,11.098c0.748,2.021,0.865,3.688-0.053,5.662
						c-6.697,14.415-13.289,28.87-19.936,43.308c-0.197,0.425-0.197,0.425-0.197,0.425c-0.404,0.397-0.818,0.691-0.916,0.659
						c-0.098-0.036-0.27-0.895-0.162-1.834c0.113-0.944,0.113-3.565-0.352-2.856c-0.467,0.715-1.58,2.26-1.697,2.237
						c-0.119-0.014-0.428-2.246-0.428-4.916c0-2.671-0.094-9.721-0.207-9.729s-0.836,1.46-1.357,3.276
						c-0.523,1.821-2.031,6.606-2.191,6.598c-0.164-0.014-0.773-0.769-1.002-1.649c-0.23-0.882-2.625,2.024-4.578,9.317
						c0,0,0,0-0.779,6.371c-1.086,8.816-3.021,17.655-1.113,26.62c1.049,4.925,1.049,4.925,1.049,4.925
						c-1.441,5.373-2.102,9.824-1.467,9.892c0.631,0.063,2.203,0.543,2.1,0.918c-0.109,0.379,3.566,1.762,8.295,2.603
						c4.732,0.845,17.447,1.925,18.125,0.601c0,0,0,0,1.188-0.745c2.248-1.41,3.195-3.222,3.203-5.481
						c0.01-3.059,0.01-3.059,0.01-3.059c2.154-2.273,2.617-5.576,1.027-7.33c0,0,0,0-0.24-1.645
						c-0.764-5.396-1.584-10.886-1.299-16.295c0.701-13.308,4.975-15.449,15.084-17.857c0.102-0.027,0.201-0.059,0.299-0.091
						c2.244-0.791,3.232-0.176,3.977,1.984c4.355,12.661,8.736,25.322,13.521,37.857c1.943,5.088,1.943,5.088,1.943,5.088
						c3.006,5.332,5.574,9.652,5.707,9.607c0.127-0.046,0.16-2.282-0.229-4.871c-0.383-2.59-0.947-9.711-0.305-9.408
						c0.637,0.303,1.297-1.636,0.186-4.917c-1.117-3.28-1.643-12.083-1.475-12.114c0.172-0.036,1.311,1.689,2.156,3.913
						s2.646,4.388,2.119-0.136c-0.529-4.527-1.307-16.534-0.879-16.172c0.422,0.361,1.221-0.552,0.969-2.712
						c-0.25-2.159-0.727-7.776-0.518-7.821c0.211-0.036,1.375,1.156,2.113,2.752c0.738,1.586,2.76,5.757,2.85,5.729
						c0.088-0.032,0.033-1.771-0.328-3.796C649.725,131.859,649.201,126.419,649.359,126.383z M609.236,126.527
						c-1.145,0.086-1.145,0.086-1.145,0.086c-1.281,0.072-2.326-1.396-2.326-3.253c0-1.866-0.125-6.639-0.281-6.575
						c-0.156,0.055,0.074-2.386,1.182-5.671c1.104-3.28,6.23-6.674,8.873-0.036c0,0,0,0,1.766,6.037
						C618.99,122.877,615.996,126.021,609.236,126.527z"/>
				</g>
			</g>
			<g>
				<g>
					<path fill="#FFFFFF" d="M464.326,164.847c0.095-0.181,1.625-0.009,3.394,0.38c1.769,0.388,1.128-2.635-5.714-7.664
						c0,0,0,0-5.52-4.871c-10.108-8.934-19.849-18.211-29.725-27.353c-3.208-2.978-3.382-7.817,0.1-10.361
						c3.055-2.231,6.426-4.433,10.079-5.63c6.505-2.133,13.347-3.452,20.011-5.224c1.474-0.389,3.193-0.977,4.102-1.975
						c2.979-3.281,5.957-6.62,8.307-10.263c1.637-2.525,4.018-6.339,2.979-8.255c-3.371-6.223-1.92-12.11-0.642-18.188
						c0.377-1.784,0.174-2.905-2.183-3.502c-19.377-4.925-35.344-15.183-51.215-25.729c-11.677-7.763-11.677-7.763-11.677-7.763
						c-13.29-8.008-24.262-14.479-24.384-14.374c-0.117,0.104,0.565,2.245,1.79,4.527c1.22,2.286,3.339,8.744,1.767,8.87
						c-1.573,0.127-4.984,1.826-4.546,3.534c0.436,1.708,1.164,6.258,0.671,6.412c-0.497,0.153-0.904,2.57,0.843,4.825
						c0,0,0,0,1.735,1.56c1.734,1.563,1.734,1.563,1.734,1.563c2.185,1.351-9.024,23.172-24.908,48.481c0,0,0,0-3.111,26.23
						c-1.347,11.374-1.037,22.712,1.826,33.904c0.275,1.103,1.143,2.693,2.112,2.946c3.355,0.895,4.119,3.082,4.625,5.68
						c0.271,1.369,0.271,1.369,0.271,1.369c0.644,1.749,1.527,2.788,1.952,2.318c0.429-0.475,2.845,0.117,3.945,2.888
						c0,0,0,0-0.273,2.033c-0.449,3.353,3.59,2.224,4.277,4.094c0.65,1.744,0.65,1.744,0.65,1.744
						c0.574,1.957,1.164,3.588,1.306,3.624c0.145,0.036,0.646-0.754,0.8-1.839c0,0,0,0,0.407-0.881
						c0.361-0.769,0.969-1.654,1.737-1.971c0.479-0.198,1.697,0.38,2.176,0.904c3.502,3.858,3.502,3.858,3.502,3.858
						c3.932,4.506,7.143,7.262,7.131,6.123c0,0,0,0,0.018-0.845c0.355-14.636-3.813-29.606,4.127-43.691
						c0.449-0.786,0.08-1.966,0.587-2.693c1.216-1.763,2.386-4.157,4.216-4.768c1.314-0.434,4.277,1.202,5.451,2.607
						c12.406,14.776,28.231,25.612,47.242,32.693c6.985,2.599,6.985,2.599,6.985,2.599c8.034,2.105,14.694,3.642,14.808,3.416
						c0.111-0.227-1.771-2.301-4.433-4.112C470.994,170.273,464.227,165.031,464.326,164.847z M417.074,104.879
						c-4.833,1.758-6.519-1.148-3.742-6.462c2.777-5.314,12.893-17.854,15.766-15.021c2.872,2.833,5.509,13.85-0.499,18.206
						c0,0,0,0-6.81,1.938C417.074,104.879,417.074,104.879,417.074,104.879z"/>
					
						<path fill="none" stroke="#FFFFFF" stroke-width="13" stroke-linecap="round" stroke-linejoin="round" stroke-miterlimit="10" d="
						M464.326,164.847c0.095-0.181,1.625-0.009,3.394,0.38c1.769,0.388,1.128-2.635-5.714-7.664c0,0,0,0-5.52-4.871
						c-10.108-8.934-19.849-18.211-29.725-27.353c-3.208-2.978-3.382-7.817,0.1-10.361c3.055-2.231,6.426-4.433,10.079-5.63
						c6.505-2.133,13.347-3.452,20.011-5.224c1.474-0.389,3.193-0.977,4.102-1.975c2.979-3.281,5.957-6.62,8.307-10.263
						c1.637-2.525,4.018-6.339,2.979-8.255c-3.371-6.223-1.92-12.11-0.642-18.188c0.377-1.784,0.174-2.905-2.183-3.502
						c-19.377-4.925-35.344-15.183-51.215-25.729c-11.677-7.763-11.677-7.763-11.677-7.763
						c-13.29-8.008-24.262-14.479-24.384-14.374c-0.117,0.104,0.565,2.245,1.79,4.527c1.22,2.286,3.339,8.744,1.767,8.87
						c-1.573,0.127-4.984,1.826-4.546,3.534c0.436,1.708,1.164,6.258,0.671,6.412c-0.497,0.153-0.904,2.57,0.843,4.825
						c0,0,0,0,1.735,1.56c1.734,1.563,1.734,1.563,1.734,1.563c2.185,1.351-9.024,23.172-24.908,48.481c0,0,0,0-3.111,26.23
						c-1.347,11.374-1.037,22.712,1.826,33.904c0.275,1.103,1.143,2.693,2.112,2.946c3.355,0.895,4.119,3.082,4.625,5.68
						c0.271,1.369,0.271,1.369,0.271,1.369c0.644,1.749,1.527,2.788,1.952,2.318c0.429-0.475,2.845,0.117,3.945,2.888
						c0,0,0,0-0.273,2.033c-0.449,3.353,3.59,2.224,4.277,4.094c0.65,1.744,0.65,1.744,0.65,1.744
						c0.574,1.957,1.164,3.588,1.306,3.624c0.145,0.036,0.646-0.754,0.8-1.839c0,0,0,0,0.407-0.881
						c0.361-0.769,0.969-1.654,1.737-1.971c0.479-0.198,1.697,0.38,2.176,0.904c3.502,3.858,3.502,3.858,3.502,3.858
						c3.932,4.506,7.143,7.262,7.131,6.123c0,0,0,0,0.018-0.845c0.355-14.636-3.813-29.606,4.127-43.691
						c0.449-0.786,0.08-1.966,0.587-2.693c1.216-1.763,2.386-4.157,4.216-4.768c1.314-0.434,4.277,1.202,5.451,2.607
						c12.406,14.776,28.231,25.612,47.242,32.693c6.985,2.599,6.985,2.599,6.985,2.599c8.034,2.105,14.694,3.642,14.808,3.416
						c0.111-0.227-1.771-2.301-4.433-4.112C470.994,170.273,464.227,165.031,464.326,164.847z M417.074,104.879
						c-4.833,1.758-6.519-1.148-3.742-6.462c2.777-5.314,12.893-17.854,15.766-15.021c2.872,2.833,5.509,13.85-0.499,18.206
						c0,0,0,0-6.81,1.938C417.074,104.879,417.074,104.879,417.074,104.879z"/>
				</g>
			</g>
			<g>
				<g>
					<path fill="#FFFFFF" d="M560.949,113.857c-0.158,0.153-3.068-2.657-6.463-6.245c0,0,0,0-3.414-2.847
						c-4.225-3.529-8.932-6.593-13.277-10.014c-2.389-1.884-2.389-1.884-2.389-1.884c0.816-2.82-0.225-5.563-2.316-6.092
						c0,0,0,0-1.684-0.406c-1.5-0.366-3.189-1.297-4.48-0.977c-6.17,1.546-12.434,3.023-18.273,5.314
						c-5.592,2.187-5.592,2.187-5.592,2.187c-5.741,3.245-10.506,5.834-10.59,5.762c-0.084-0.067,1.195-1.545,3.037-3.118
						c1.836-1.567,6.648-5.766,6.615-5.833c-0.029-0.068-1.641,0.32-3.502,1.021c0,0,0,0-1.588,0.8
						c-8.722,4.384-13.652,11.591-17.773,19.317c-6.848,12.847-10.508,26.204-7.152,40.461
						c2.836,12.052,10.391,20.642,23.848,24.469c2.648,0.75,6.405,1.744,8.242,0.683c3.106-1.789,6.075-1.41,8.98-1.206
						c11.287,0.79,20.092-4.32,27.541-10.435c6.725-5.517,12.076-12.575,17.092-19.493c7.205-9.941,7.205-9.941,7.205-9.941
						C563.322,123.025,561.105,113.708,560.949,113.857z M550.662,125.796c-2.379,14.55-11.672,24.889-25.668,31.997
						c-4.926,2.499-10.555,3.275-16.246,2.016c-3.259-0.719-4.26-2.129-3.73-4.922c2.539-13.38,9.1-24.722,21.521-32.959
						c2.43-1.613,5.201-2.852,7.924-4.071c3.898-1.749,3.898-1.749,3.898-1.749c3.688,2.007,7.256,2.86,7.939,1.898
						c0.678-0.963,3.678-0.23,4.975,4.03C551.275,122.036,551.275,122.036,550.662,125.796z"/>
					
						<path fill="none" stroke="#FFFFFF" stroke-width="13" stroke-linecap="round" stroke-linejoin="round" stroke-miterlimit="10" d="
						M560.949,113.857c-0.158,0.153-3.068-2.657-6.463-6.245c0,0,0,0-3.414-2.847c-4.225-3.529-8.932-6.593-13.277-10.014
						c-2.389-1.884-2.389-1.884-2.389-1.884c0.816-2.82-0.225-5.563-2.316-6.092c0,0,0,0-1.684-0.406
						c-1.5-0.366-3.189-1.297-4.48-0.977c-6.17,1.546-12.434,3.023-18.273,5.314c-5.592,2.187-5.592,2.187-5.592,2.187
						c-5.741,3.245-10.506,5.834-10.59,5.762c-0.084-0.067,1.195-1.545,3.037-3.118c1.836-1.567,6.648-5.766,6.615-5.833
						c-0.029-0.068-1.641,0.32-3.502,1.021c0,0,0,0-1.588,0.8c-8.722,4.384-13.652,11.591-17.773,19.317
						c-6.848,12.847-10.508,26.204-7.152,40.461c2.836,12.052,10.391,20.642,23.848,24.469c2.648,0.75,6.405,1.744,8.242,0.683
						c3.106-1.789,6.075-1.41,8.98-1.206c11.287,0.79,20.092-4.32,27.541-10.435c6.725-5.517,12.076-12.575,17.092-19.493
						c7.205-9.941,7.205-9.941,7.205-9.941C563.322,123.025,561.105,113.708,560.949,113.857z M550.662,125.796
						c-2.379,14.55-11.672,24.889-25.668,31.997c-4.926,2.499-10.555,3.275-16.246,2.016c-3.259-0.719-4.26-2.129-3.73-4.922
						c2.539-13.38,9.1-24.722,21.521-32.959c2.43-1.613,5.201-2.852,7.924-4.071c3.898-1.749,3.898-1.749,3.898-1.749
						c3.688,2.007,7.256,2.86,7.939,1.898c0.678-0.963,3.678-0.23,4.975,4.03C551.275,122.036,551.275,122.036,550.662,125.796z"/>
				</g>
			</g>
			<g>
				<g>
					<path fill="#FFFFFF" d="M205.035,104.901c-0.567,0.804-1.148,1.419-1.297,1.36c-0.147-0.06-0.229-1.14,0.142-2.278
						c0.373-1.143,1.292-4.17,1.216-4.202c-0.079-0.036-0.723,0.384-1.263,1.003c0,0,0,0-0.454,0.583
						c-1.699,2.201-2.951,4.56-6.439,5.368c-3.441,0.8-5.775,3.118-6.568,6.439c-0.395,1.649-1.023,3.254-1.583,4.867
						c-1.207,3.479-1.207,3.479-1.207,3.479c-1.355,3.818-2.616,6.919-2.811,6.883s-0.807-0.99-0.936-2.038
						c-0.122-1.058-1.311-2.382-2.345-0.619c0,0,0,0-0.262,1.636c-1.679,10.506-3.597,20.994-4.679,31.55
						c-0.314,3.041,0.979,6.936,3.129,9.281c2.824,3.082,6.923,5.594,11.023,7.307c6.066,2.53,9.767-0.465,8.845-6.367
						c-0.221-1.409-0.221-1.409-0.221-1.409c0.278-1.618,0.639-2.942,0.804-2.946c0.165,0,0.967,0.537,1.41,1.202
						c0.452,0.664,2.191,0.451,2.449-2.585c0,0,0,0,0.066-2.44c0.264-9.981-0.007-19.99,0.861-29.932
						c0.687-7.908,2.56-15.757,4.295-23.561c0.551-2.468,0.551-2.468,0.551-2.468C208.383,103.22,205.602,104.097,205.035,104.901z"
						/>
					
						<path fill="none" stroke="#FFFFFF" stroke-width="13" stroke-linecap="round" stroke-linejoin="round" stroke-miterlimit="10" d="
						M205.035,104.901c-0.567,0.804-1.148,1.419-1.297,1.36c-0.147-0.06-0.229-1.14,0.142-2.278c0.373-1.143,1.292-4.17,1.216-4.202
						c-0.079-0.036-0.723,0.384-1.263,1.003c0,0,0,0-0.454,0.583c-1.699,2.201-2.951,4.56-6.439,5.368
						c-3.441,0.8-5.775,3.118-6.568,6.439c-0.395,1.649-1.023,3.254-1.583,4.867c-1.207,3.479-1.207,3.479-1.207,3.479
						c-1.355,3.818-2.616,6.919-2.811,6.883s-0.807-0.99-0.936-2.038c-0.122-1.058-1.311-2.382-2.345-0.619c0,0,0,0-0.262,1.636
						c-1.679,10.506-3.597,20.994-4.679,31.55c-0.314,3.041,0.979,6.936,3.129,9.281c2.824,3.082,6.923,5.594,11.023,7.307
						c6.066,2.53,9.767-0.465,8.845-6.367c-0.221-1.409-0.221-1.409-0.221-1.409c0.278-1.618,0.639-2.942,0.804-2.946
						c0.165,0,0.967,0.537,1.41,1.202c0.452,0.664,2.191,0.451,2.449-2.585c0,0,0,0,0.066-2.44
						c0.264-9.981-0.007-19.99,0.861-29.932c0.687-7.908,2.56-15.757,4.295-23.561c0.551-2.468,0.551-2.468,0.551-2.468
						C208.383,103.22,205.602,104.097,205.035,104.901z"/>
				</g>
			</g>
			<g>
				<g>
					<path fill="#FFFFFF" d="M185.227,95.574c-0.601,0.846,4.58-0.564,11.505-3.127c6.932-2.566,24.098-10.556,23.192-10.772
						c-0.904-0.212-2.695-2.309-1.548-4.09c0,0,0,0,1.288-1.251c3.59-3.488,3.734-4.302,0.671-8.184
						c-0.481-0.614-1.042-1.188-1.471-1.835c-0.651-0.976-1.062-1.595-2.829-1.328c-2.589,0.384-4.625-2.422-3.732-4.722
						c0.739-1.912,0.739-1.912,0.739-1.912c0.979-2.047-1.539-3.854-5.592-4.017c-4.049-0.163-13.856,7.532-13.775,8.278
						c0,0,0,0-0.176,0.619c-0.687,2.449-1.466,4.88-2.23,7.315c-1.493,4.771-2.905,9.566-4.53,14.302
						c-0.868,2.526-0.868,2.526-0.868,2.526c-1.342,2.855-1.833,5.196-1.087,5.196C185.525,92.574,185.823,94.734,185.227,95.574z"
						/>
					
						<path fill="none" stroke="#FFFFFF" stroke-width="13" stroke-linecap="round" stroke-linejoin="round" stroke-miterlimit="10" d="
						M185.227,95.574c-0.601,0.846,4.58-0.564,11.505-3.127c6.932-2.566,24.098-10.556,23.192-10.772
						c-0.904-0.212-2.695-2.309-1.548-4.09c0,0,0,0,1.288-1.251c3.59-3.488,3.734-4.302,0.671-8.184
						c-0.481-0.614-1.042-1.188-1.471-1.835c-0.651-0.976-1.062-1.595-2.829-1.328c-2.589,0.384-4.625-2.422-3.732-4.722
						c0.739-1.912,0.739-1.912,0.739-1.912c0.979-2.047-1.539-3.854-5.592-4.017c-4.049-0.163-13.856,7.532-13.775,8.278
						c0,0,0,0-0.176,0.619c-0.687,2.449-1.466,4.88-2.23,7.315c-1.493,4.771-2.905,9.566-4.53,14.302
						c-0.868,2.526-0.868,2.526-0.868,2.526c-1.342,2.855-1.833,5.196-1.087,5.196C185.525,92.574,185.823,94.734,185.227,95.574z"
						/>
				</g>
			</g>
		</g>
	</g>
	<g>
		<g>
			<g>
				<g>
					<path fill-rule="evenodd" clip-rule="evenodd" fill="#F15654" d="M165.729,125.642c-2.377-3.488-4.318-5.625-4.318-4.753
						c0,0.876-0.328,2.91-0.721,2.305c0,0,0,0-0.167-0.34c-0.339-0.687-0.61-1.4-0.974-2.078
						c-3.303-6.164-7.223-11.744-15.544-13.271c-0.789-0.145-1.656-0.561-2.192-1.089c-4.295-4.212-10.199-5.265-15.994-5.834
						c-12.181-1.192-23.97-3.349-34.731-8.789c-1.781-0.903-3.516-2.119-4.781-3.538c-4.876-5.481-4.872-6.534,0.619-11.478
						c9.627-8.676,20.278-15.933,34.162-18.351c1.112-0.189,2.797-0.573,3.326-0.09c2.201,2.002,4.957,1.08,7.411,1.604
						c2.042,0.435,4.695,0.949,5.709,2.269c1.327,1.727,2.845,2.508,4.788,2.652c4.621,0.344,9.302,0.168,13.882,0.701
						c3.678,0.434,4.485-2.265,6.073-3.882c0.549-0.556-0.452-2.729-1.281-3.85c-1.292-1.745-1.584-3.218-0.637-5.233
						c0.556-1.192,0.44-3.014-0.185-4.216c-3.457-6.629-7.144-13.168-10.807-19.711c-1.101-1.961-1.101-1.961-1.101-1.961
						c-1.557-2.431-3.802-2.9-4.984-1.048c0,0,0,0-2.079-1.405c-2.788-1.88-5.8-2.626-9.089-0.777
						c-0.78,0.434-1.83,0.465-2.687,0.813c-2.691,1.106-2.691,1.106-2.691,1.106c-1.733-1.794-6.615-2.341-10.845-1.225
						c0,0,0,0-3.688,1.107c-14.609,4.365-29.399,8.396-42.499,15.893c-3.402,1.947-3.402,1.947-3.402,1.947
						c-3.242,2.843-5.807,5.265-5.691,5.391c0.113,0.127,1.405,0.05,2.621-0.442c1.218-0.502-0.815,3.276-7.214,9.493
						c0,0,0,0-4.921,6.214c-4.984,6.294-4.984,6.294-4.984,6.294c-3.369,7.927-5.8,14.108-5.409,13.742
						c0.395-0.366,1.583-1.319,1.776-1.288c0.189,0.027,0.151,4.139-0.502,9.073c0,0,0,0,0.994,4.424
						c0.145,0.646,0.23,1.329,0.545,1.912c1.208,2.228,2.194,4.622,3.827,6.583c3.818,4.592,9.796,6.733,15.244,9.11
						c7.677,3.335,7.677,3.335,7.677,3.335c8.913,2.819,16.258,5.047,16.326,4.947c0.07-0.099,0.054-0.664-0.186-1.044
						c-0.239-0.375,0.567-1.689,2.982-1.062c0,0,0,0,1.812,0.402c3.452,0.759,6.912,1.496,10.382,2.187
						c4.209,0.837,8.479,1.469,12.65,2.445c6.396,1.491,9.725,5.982,12.495,10.822c2.44,4.279,0.741,8.608,0.022,12.969
						c-1.159,7.009-6.071,11.328-12.411,14.763c-5.366,2.905-11.286,4.55-17.325,5.915c-1.127,0.253-2.241,0.547-3.385,0.728
						c-12.209,1.956-23.933,0.189-34.69-4.957c-6.098-2.915-13.403-4.207-18.107-9.155c-5.244-5.526-10.187-11.274-15.138-17.009
						c-2.476-2.878-2.476-2.878-2.476-2.878c-2.479-3.326-4.603-6.01-4.713-5.965c-0.113,0.045,0.526,2.436,1.669,5.201
						c1.141,2.766,2.472,6.565,0.063,1.441c-2.409-5.124-6.938-11.428-5.915-2.648c0,0,0,0,2.684,7.492
						c2.718,7.574,2.718,7.574,2.718,7.574c4.725,7.83,8.529,14.283,8.448,14.328c-0.081,0.05-0.921-0.303-1.694-0.895
						c-0.772-0.592-0.118,2.246,3.172,7.623c0,0,0,0,5.199,3.357c3.055,1.979,5.711,4.438,8.563,6.67
						c1.484,1.166,2.858,2.508,4.523,3.425c8.202,4.51,17.273,6.914,26.676,8.473c7.639,1.27,15.224,3.254,22.924,3.705
						c12.39,0.732,24.098-2.272,34.699-8.065c4.713-2.566,4.713-2.566,4.713-2.566c5.061-3.521,8.977-5.775,8.701-5.007
						c-0.278,0.768-0.644,2.702-0.169,2.508c0,0,0,0,0.226-0.181c17.704-14.56,25.35-32.264,20.725-53.624
						C165.729,125.642,165.729,125.642,165.729,125.642z"/>
				</g>
			</g>
			<g>
				<g>
					<path fill-rule="evenodd" clip-rule="evenodd" fill="#F15654" d="M350.47,112.438c1.154-0.447,1.154-0.447,1.154-0.447
						c1.15-0.565-1.084-1.107-4.961-1.202c0,0,0,0,1.213-4.166c0.635-2.183,0.635-2.183,0.635-2.183
						c2.373-2.016,2.91-3.538,1.193-3.385c-1.717,0.149-4.839-3.922-7.28-4.071c-2.438-0.158-8.777-1.555-8.165-2.734
						c0.612-1.17,2.054-4.247,1.911-4.364c-0.14-0.118-4.396,1.808-9.144,4.541c0,0,0,0-4.033,2.811
						c-6.491,4.519-12.731,9.322-19.128,13.954c-0.655,0.47-0.655,0.47-0.655,0.47c-1.007,0.203-2.178-0.425-2.598-1.392
						c0,0,0,0,0.154-0.796c0.533-2.774,1.31-5.517,1.981-8.269c1.651-6.77,5.94-13.127,3.934-20.457
						c-0.181-0.664-0.181-0.664-0.181-0.664c-0.07-1.116-1.306-0.709-2.747,0.895c-1.441,1.609-5.676,5.283-6.13,4.497
						c-0.454-0.782-1.794-2.563-2.112-2.481c-0.316,0.082-1.225-0.136-1.279-0.682c-0.054-0.538-2.061-0.76-4.336,0.79
						c0,0,0,0-2.063,1.135c-1.995,1.098-3.522,0.858-4.15-1.537c-0.472-1.803-0.472-1.803-0.472-1.803
						c-0.832-1.925-1.595-3.479-1.692-3.457c-0.104,0.023-0.671,1.261-1.046,2.698c-0.373,1.437-2.101,4.211-2.282,3.108
						c-0.176-1.098-1.631-2.584-2.833-0.867c0,0,0,0-0.153,1.667c-0.599,6.557-1.315,13.137-1.319,19.702
						c-0.009,14.405,0.388,28.812,0.614,43.217c0.018,1.017,0.018,1.017,0.018,1.017c-0.007,1.197-4.935,2.946-10.942,3.891
						c-6.012,0.944-22.187,1.446-21.889-1.08c0.293-2.525,0.879-9.01,0.625-8.64c-0.257,0.371,0.795-3.407,2.804-9.069
						c2.004-5.652,7.799-20.099,7.923-19.624c0.122,0.474,1.943-1.686,3.75-5.938c0,0,0,0,2.429-3.303
						c2.37-3.227,1.539-5.762-0.387-8.486c-0.836-1.184-1.825-2.35-3.009-3.253c-3.195-2.454-6.539-4.759-9.81-7.136
						c-3.854-2.797-3.854-2.797-3.854-2.797c-2.377-4.293-5.876-2.463-7.788,4.063c-1.907,6.525-7.994,22.675-8.073,21.563
						c-0.079-1.112-0.682-4.171-1.125-3.715c0,0,0,0-0.034,0.154c-2.564,12.304-4.345,24.663-4.781,37.216
						c-0.149,4.419-1.737,9.205-4.195,13.046c-2.49,3.895-2.102,6.899,0.273,10.171c2.352,3.231,5.163,6.214,7.397,9.508
						c1.186,1.744,2.456,1.938,4.381,1.586c4.229-0.786,8.455-1.627,12.727-2.178c6.857-0.886,6.857-0.886,6.857-0.886
						c7.356-0.759,14.6-2.341,16.105-3.521c1.5-1.17,3.784-6.199,3.459-7.759c0,0,0,0,0.703-0.836
						c1.803-2.146,1.803-2.146,1.803-2.146c3.145,0.117,6.347,4.622,7.124,10.013c0,0,0,0,0.8,4.817
						c0.156,0.922,0.576,2.155,1.337,2.585c2.974,1.672,6.83,0.054,7.521-3.082c0.384-1.744,0.364-3.557,0.696-5.31
						c0.348-1.871,0.348-1.871,0.348-1.871c0.551-2.037,1.15-3.678,1.329-3.646c0.176,0.032,0.849,1.957,1.104,4.212
						c0,0,0,0,0.169,2.056c0.167,2.033,0.167,2.033,0.167,2.033c1.622,1.582,3.009-2.68,3.086-9.467
						c0.073-6.791,6.638-18.513,12.146-11.115c5.506,7.396,24.778,22.711,24.5,21.762c-0.275-0.949-0.768-3.326-0.569-3.471
						c0.204-0.14,2.888,0.52,5.508,1.776c2.628,1.261,9.433,4.003,8.834,3.068c0,0,0,0-0.165-0.705
						c-0.305-1.288-0.305-1.288-0.305-1.288c-0.149-1.45,1.17-2.738,2.93-2.865c0,0,0,0,1.557,0.177
						c1.441,0.167,1.441,0.167,1.441,0.167c1.522,0.524,2.137,0.253,1.374-0.601c-0.766-0.858-0.093-4.727-2.479-6.503
						c-2.386-1.771-8.552-6.516-8.461-6.646c0.093-0.127,0.646-0.488,1.028-0.511c0.382-0.019-2.931-3.479-9.121-7.592
						c-6.184-4.121-16.932-19.643-13.714-21.767c0,0,0,0,3.106-1.261C330.852,119.845,340.693,116.212,350.47,112.438z"/>
				</g>
			</g>
			<g>
				<g>
					<path fill-rule="evenodd" clip-rule="evenodd" fill="#F15654" d="M749.326,89.736c-1.365-1.279-1.789-3.335-2.697-5.016
						c-0.762-1.405-1.219-3.19-2.467-4.09c-4.736-3.416-9.697-6.584-14.66-9.747c-1.865-1.192-3.818-2.62-5.965-3.063
						c-7.076-1.455-14.025-0.669-20.746,1.849c-9.52,3.565-17.191,9.476-24.904,15.346c-2.842,2.164-4.895,2.001-6.832-0.945
						c-0.992-1.504-1.461-3.289-2.098-4.97c-0.299-0.796-0.299-0.796-0.299-0.796c-0.234-1.075-0.803-0.908-1.266,0.366
						c-0.461,1.274-1.785,4.388-2.023,4.379c-0.24-0.01-1.252-0.688-1.729-1.487s-3.146,4.659-4.877,13.904c0,0,0,0-0.701,8.486
						c-1.396,16.937-0.691,33.858,1.105,50.754c0.309,2.901,1.484,6.132,0.477,8.641c-1.945,4.853,0.057,7.804,3.977,10.537
						c0.498,0.348,0.902,0.796,1.338,1.202c3.594,3.299,3.445,5.255-0.752,7.781c-2.797,1.681-5.711,3.213-8.572,4.808
						c-1.482,0.827-1.482,0.827-1.482,0.827c-1.627,0.908-2.912,1.703-2.861,1.763c0.049,0.059,2.463-0.435,5.244-1.221
						c2.783-0.786,10.217-2.702,10.326-2.503c0.115,0.198-1.773,1.884-4.447,3.289c-2.676,1.406-7.857,4.781-5.566,4.37
						c0,0,0,0,1.662-0.999c5.822-3.483,13.006-2.345,19.131-4.681c2.795-1.063,5.402-1.785,6.986,1.518
						c0.125,0.249,0.125,0.249,0.125,0.249c0.508,0.181,1.002-2.811,1.096-6.647c0,0,0,0,3.346-2.223
						c5.992-3.995,12.004-7.899,16.938-13.01c1.744-1.803,4.492-2.819,6.318-4.582c4.871-4.695,9.658-9.476,14.17-14.441
						c9.301-10.23,16.896-21.352,21.311-34.031c1.234-3.542,1.92-7.352,3.85-10.564C755.254,99.004,754.211,94.327,749.326,89.736z
						 M738.4,98.923c-0.01,1.107-0.471,2.246-0.289,3.313c1.447,8.454,1.447,8.454,1.447,8.454
						c-4.537,7.695-8.422,13.954-8.643,13.909c-0.213-0.046-0.473-1.401-0.098-2.906c0.375-1.509,1.262-5.517,1.135-5.549
						c-0.119-0.04-1.781,2.626-3.41,6.001c0,0,0,0-2,2.77c-3.453,4.795-7.279,9.381-11.035,13.999
						c-1.977,2.427-3.795,5.089-6.297,7.009c-4.602,3.524-9.586,6.665-14.541,9.801c-2.229,1.41-3.424,0.755-3.672-1.73
						c-0.811-8.079,0.822-15.905,2.92-23.714c1.713-6.385,2.957-12.874,4.805-19.228c2.791-9.593,14.047-22.209,28.455-20.198
						c4.271,0.601,8.275,1.798,10.85,5.146C738.576,96.718,738.408,97.934,738.4,98.923z"/>
				</g>
			</g>
			<g>
				<g>
					<path fill-rule="evenodd" clip-rule="evenodd" fill="#F15654" d="M649.359,126.383c0.16-0.04,0.514,0.194,0.789,0.52
						c0.279,0.326,0.936-1.54,0.227-5.599c0,0,0,0-0.65-3.298c-3.361-17.05-7.85-33.818-15.363-49.864
						c-1.025-2.196-2.346-2.626-4.754-2.59c-3.547,0.05-7.104-0.339-10.656-0.537c-0.514-0.027-1.201-0.217-1.527,0
						c-2.84,1.875-4.145-0.1-5.615-1.69c-0.617-0.669-0.617-0.669-0.617-0.669c-0.934-1.07-1.838-0.759-2.012,0.696
						c0,0,0,0-0.494,0.705c-0.428,0.605-1.715,1.387-2.189,1.206c-3.277-1.265-4.082,0.588-3.713,2.621
						c0.691,3.755,1.75,7.487,3.09,11.098c0.748,2.021,0.865,3.688-0.053,5.662c-6.697,14.415-13.289,28.87-19.936,43.308
						c-0.197,0.425-0.197,0.425-0.197,0.425c-0.404,0.397-0.818,0.691-0.916,0.659c-0.098-0.036-0.27-0.895-0.162-1.834
						c0.113-0.944,0.113-3.565-0.352-2.856c-0.467,0.715-1.58,2.26-1.697,2.237c-0.119-0.014-0.428-2.246-0.428-4.916
						c0-2.671-0.094-9.721-0.207-9.729s-0.836,1.46-1.357,3.276c-0.523,1.821-2.031,6.606-2.191,6.598
						c-0.164-0.014-0.773-0.769-1.002-1.649c-0.23-0.882-2.625,2.024-4.578,9.317c0,0,0,0-0.779,6.371
						c-1.086,8.816-3.021,17.655-1.113,26.62c1.049,4.925,1.049,4.925,1.049,4.925c-1.441,5.373-2.102,9.824-1.467,9.892
						c0.631,0.063,2.203,0.543,2.1,0.918c-0.109,0.379,3.566,1.762,8.295,2.603c4.732,0.845,17.447,1.925,18.125,0.601
						c0,0,0,0,1.188-0.745c2.248-1.41,3.195-3.222,3.203-5.481c0.01-3.059,0.01-3.059,0.01-3.059
						c2.154-2.273,2.617-5.576,1.027-7.33c0,0,0,0-0.24-1.645c-0.764-5.396-1.584-10.886-1.299-16.295
						c0.701-13.308,4.975-15.449,15.084-17.857c0.102-0.027,0.201-0.059,0.299-0.091c2.244-0.791,3.232-0.176,3.977,1.984
						c4.355,12.661,8.736,25.322,13.521,37.857c1.943,5.088,1.943,5.088,1.943,5.088c3.006,5.332,5.574,9.652,5.707,9.607
						c0.127-0.046,0.16-2.282-0.229-4.871c-0.383-2.59-0.947-9.711-0.305-9.408c0.637,0.303,1.297-1.636,0.186-4.917
						c-1.117-3.28-1.643-12.083-1.475-12.114c0.172-0.036,1.311,1.689,2.156,3.913s2.646,4.388,2.119-0.136
						c-0.529-4.527-1.307-16.534-0.879-16.172c0.422,0.361,1.221-0.552,0.969-2.712c-0.25-2.159-0.727-7.776-0.518-7.821
						c0.211-0.036,1.375,1.156,2.113,2.752c0.738,1.586,2.76,5.757,2.85,5.729c0.088-0.032,0.033-1.771-0.328-3.796
						C649.725,131.859,649.201,126.419,649.359,126.383z M609.236,126.527c-1.145,0.086-1.145,0.086-1.145,0.086
						c-1.281,0.072-2.326-1.396-2.326-3.253c0-1.866-0.125-6.639-0.281-6.575c-0.156,0.055,0.074-2.386,1.182-5.671
						c1.104-3.28,6.23-6.674,8.873-0.036c0,0,0,0,1.766,6.037C618.99,122.877,615.996,126.021,609.236,126.527z"/>
				</g>
			</g>
			<g>
				<g>
					<path fill-rule="evenodd" clip-rule="evenodd" fill="#F15654" d="M464.326,164.847c0.095-0.181,1.625-0.009,3.394,0.38
						c1.769,0.388,1.128-2.635-5.714-7.664c0,0,0,0-5.52-4.871c-10.108-8.934-19.849-18.211-29.725-27.353
						c-3.208-2.978-3.382-7.817,0.1-10.361c3.055-2.231,6.426-4.433,10.079-5.63c6.505-2.133,13.347-3.452,20.011-5.224
						c1.474-0.389,3.193-0.977,4.102-1.975c2.979-3.281,5.957-6.62,8.307-10.263c1.637-2.525,4.018-6.339,2.979-8.255
						c-3.371-6.223-1.92-12.11-0.642-18.188c0.377-1.784,0.174-2.905-2.183-3.502c-19.377-4.925-35.344-15.183-51.215-25.729
						c-11.677-7.763-11.677-7.763-11.677-7.763c-13.29-8.008-24.262-14.479-24.384-14.374c-0.117,0.104,0.565,2.245,1.79,4.527
						c1.22,2.286,3.339,8.744,1.767,8.87c-1.573,0.127-4.984,1.826-4.546,3.534c0.436,1.708,1.164,6.258,0.671,6.412
						c-0.497,0.153-0.904,2.57,0.843,4.825c0,0,0,0,1.735,1.56c1.734,1.563,1.734,1.563,1.734,1.563
						c2.185,1.351-9.024,23.172-24.908,48.481c0,0,0,0-3.111,26.23c-1.347,11.374-1.037,22.712,1.826,33.904
						c0.275,1.103,1.143,2.693,2.112,2.946c3.355,0.895,4.119,3.082,4.625,5.68c0.271,1.369,0.271,1.369,0.271,1.369
						c0.644,1.749,1.527,2.788,1.952,2.318c0.429-0.475,2.845,0.117,3.945,2.888c0,0,0,0-0.273,2.033
						c-0.449,3.353,3.59,2.224,4.277,4.094c0.65,1.744,0.65,1.744,0.65,1.744c0.574,1.957,1.164,3.588,1.306,3.624
						c0.145,0.036,0.646-0.754,0.8-1.839c0,0,0,0,0.407-0.881c0.361-0.769,0.969-1.654,1.737-1.971
						c0.479-0.198,1.697,0.38,2.176,0.904c3.502,3.858,3.502,3.858,3.502,3.858c3.932,4.506,7.143,7.262,7.131,6.123
						c0,0,0,0,0.018-0.845c0.355-14.636-3.813-29.606,4.127-43.691c0.449-0.786,0.08-1.966,0.587-2.693
						c1.216-1.763,2.386-4.157,4.216-4.768c1.314-0.434,4.277,1.202,5.451,2.607c12.406,14.776,28.231,25.612,47.242,32.693
						c6.985,2.599,6.985,2.599,6.985,2.599c8.034,2.105,14.694,3.642,14.808,3.416c0.111-0.227-1.771-2.301-4.433-4.112
						C470.994,170.273,464.227,165.031,464.326,164.847z M417.074,104.879c-4.833,1.758-6.519-1.148-3.742-6.462
						c2.777-5.314,12.893-17.854,15.766-15.021c2.872,2.833,5.509,13.85-0.499,18.206c0,0,0,0-6.81,1.938
						C417.074,104.879,417.074,104.879,417.074,104.879z"/>
				</g>
			</g>
			<g>
				<g>
					<path fill-rule="evenodd" clip-rule="evenodd" fill="#F15654" d="M560.949,113.857c-0.158,0.153-3.068-2.657-6.463-6.245
						c0,0,0,0-3.414-2.847c-4.225-3.529-8.932-6.593-13.277-10.014c-2.389-1.884-2.389-1.884-2.389-1.884
						c0.816-2.82-0.225-5.563-2.316-6.092c0,0,0,0-1.684-0.406c-1.5-0.366-3.189-1.297-4.48-0.977
						c-6.17,1.546-12.434,3.023-18.273,5.314c-5.592,2.187-5.592,2.187-5.592,2.187c-5.741,3.245-10.506,5.834-10.59,5.762
						c-0.084-0.067,1.195-1.545,3.037-3.118c1.836-1.567,6.648-5.766,6.615-5.833c-0.029-0.068-1.641,0.32-3.502,1.021
						c0,0,0,0-1.588,0.8c-8.722,4.384-13.652,11.591-17.773,19.317c-6.848,12.847-10.508,26.204-7.152,40.461
						c2.836,12.052,10.391,20.642,23.848,24.469c2.648,0.75,6.405,1.744,8.242,0.683c3.106-1.789,6.075-1.41,8.98-1.206
						c11.287,0.79,20.092-4.32,27.541-10.435c6.725-5.517,12.076-12.575,17.092-19.493c7.205-9.941,7.205-9.941,7.205-9.941
						C563.322,123.025,561.105,113.708,560.949,113.857z M550.662,125.796c-2.379,14.55-11.672,24.889-25.668,31.997
						c-4.926,2.499-10.555,3.275-16.246,2.016c-3.259-0.719-4.26-2.129-3.73-4.922c2.539-13.38,9.1-24.722,21.521-32.959
						c2.43-1.613,5.201-2.852,7.924-4.071c3.898-1.749,3.898-1.749,3.898-1.749c3.688,2.007,7.256,2.86,7.939,1.898
						c0.678-0.963,3.678-0.23,4.975,4.03C551.275,122.036,551.275,122.036,550.662,125.796z"/>
				</g>
			</g>
			<g>
				<g>
					<path fill-rule="evenodd" clip-rule="evenodd" fill="#F15654" d="M205.035,104.901c-0.567,0.804,2.019-26.051,1.942-26.083
						c-0.041-0.019-0.041-0.019-0.041-0.019c-3.231,7.189-10.329,21.164-15.772,31.054c0,0,0,0-0.793,3.321
						c-0.395,1.649-1.023,3.254-1.583,4.867c-1.207,3.479-1.207,3.479-1.207,3.479c-1.355,3.818-2.616,6.919-2.811,6.883
						s-0.807-0.99-0.936-2.038c-0.122-1.058-1.311-2.382-2.345-0.619c0,0,0,0-0.262,1.636c-1.679,10.506-3.597,20.994-4.679,31.55
						c-0.314,3.041,0.979,6.936,3.129,9.281c2.824,3.082,6.923,5.594,11.023,7.307c6.066,2.53,9.767-0.465,8.845-6.367
						c-0.221-1.409-0.221-1.409-0.221-1.409c0.278-1.618,0.639-2.942,0.804-2.946c0.165,0,0.967,0.537,1.41,1.202
						c0.452,0.664,2.191,0.451,2.449-2.585c0,0,0,0,0.066-2.44c0.264-9.981-0.007-19.99,0.861-29.932
						c0.687-7.908,2.56-15.757,4.295-23.561c0.551-2.468,0.551-2.468,0.551-2.468C208.383,103.22,205.602,104.097,205.035,104.901z"
						/>
				</g>
			</g>
			<g>
				<g>
					<path fill-rule="evenodd" clip-rule="evenodd" fill="#F15654" d="M185.227,95.574c-0.601,0.846,4.58-0.564,11.505-3.127
						c6.932-2.566,24.098-10.556,23.192-10.772c-0.904-0.212-2.695-2.309-1.548-4.09c0,0,0,0,1.288-1.251
						c3.59-3.488,3.734-4.302,0.671-8.184c-0.481-0.614-1.042-1.188-1.471-1.835c-0.651-0.976-1.062-1.595-2.829-1.328
						c-2.589,0.384-4.625-2.422-3.732-4.722c0.739-1.912,0.739-1.912,0.739-1.912c0.979-2.047-1.539-3.854-5.592-4.017
						c-4.049-0.163-13.856,7.532-13.775,8.278c0,0,0,0-0.176,0.619c-0.687,2.449-1.466,4.88-2.23,7.315
						c-1.493,4.771-2.905,9.566-4.53,14.302c-0.868,2.526-0.868,2.526-0.868,2.526c-1.342,2.855-1.833,5.196-1.087,5.196
						C185.525,92.574,185.823,94.734,185.227,95.574z"/>
				</g>
			</g>
		</g>
	</g>
</g>
</svg>
