<?xml version="1.0" encoding="utf-8"?>
<!-- Generator: Adobe Illustrator 16.0.0, SVG Export Plug-In . SVG Version: 6.00 Build 0)  -->
<!DOCTYPE svg PUBLIC "-//W3C//DTD SVG 1.1//EN" "http://www.w3.org/Graphics/SVG/1.1/DTD/svg11.dtd">
<svg version="1.1" id="图层_1" xmlns="http://www.w3.org/2000/svg" xmlns:xlink="http://www.w3.org/1999/xlink" x="0px" y="0px"
	 width="156px" height="80px" viewBox="0 0 156 80" enable-background="new 0 0 156 80" xml:space="preserve">
<g>
	<g>
		<g>
			<circle fill="#4BAA31" cx="14.144" cy="14.247" r="13.191"/>
			<rect x="12.346" y="21.84" fill="#B59175" width="3.598" height="14.99"/>
			<circle fill="#5CBC44" cx="7.249" cy="8.05" r="6.896"/>
		</g>
		<g>
			<circle fill="#4BAA31" cx="46.521" cy="14.247" r="13.191"/>
			<rect x="44.723" y="21.84" fill="#B59175" width="3.598" height="14.99"/>
			<circle fill="#5CBC44" cx="39.626" cy="8.05" r="6.896"/>
		</g>
		<g>
			<circle fill="#4BAA31" cx="78.9" cy="14.247" r="13.191"/>
			<rect x="77.101" y="21.84" fill="#B59175" width="3.598" height="14.99"/>
			<circle fill="#5CBC44" cx="72.004" cy="8.05" r="6.895"/>
		</g>
		<g>
			<circle fill="#4BAA31" cx="111.277" cy="14.247" r="13.191"/>
			<rect x="109.479" y="21.84" fill="#B59175" width="3.598" height="14.99"/>
			<circle fill="#5CBC44" cx="104.382" cy="8.05" r="6.896"/>
		</g>
	</g>
	<g>
		<g>
			<circle fill="#4BAA31" cx="45.322" cy="57.417" r="13.191"/>
			<rect x="43.523" y="65.011" fill="#B59175" width="3.598" height="14.989"/>
			<circle fill="#5CBC44" cx="38.427" cy="51.22" r="6.896"/>
		</g>
		<g>
			<circle fill="#4BAA31" cx="77.701" cy="57.417" r="13.191"/>
			<rect x="75.902" y="65.011" fill="#B59175" width="3.597" height="14.989"/>
			<circle fill="#5CBC44" cx="70.805" cy="51.22" r="6.895"/>
		</g>
		<g>
			<circle fill="#4BAA31" cx="110.078" cy="57.417" r="13.191"/>
			<rect x="108.279" y="65.011" fill="#B59175" width="3.598" height="14.989"/>
			<circle fill="#5CBC44" cx="103.183" cy="51.22" r="6.896"/>
		</g>
		<g>
			<circle fill="#4BAA31" cx="142.456" cy="57.417" r="13.19"/>
			<rect x="140.657" y="65.011" fill="#B59175" width="3.598" height="14.989"/>
			<circle fill="#5CBC44" cx="135.561" cy="51.22" r="6.895"/>
		</g>
	</g>
</g>
</svg>
