<?xml version="1.0" encoding="utf-8"?>
<!-- Generator: Adobe Illustrator 16.0.0, SVG Export Plug-In . SVG Version: 6.00 Build 0)  -->
<!DOCTYPE svg PUBLIC "-//W3C//DTD SVG 1.1//EN" "http://www.w3.org/Graphics/SVG/1.1/DTD/svg11.dtd">
<svg version="1.1" id="图层_1" xmlns="http://www.w3.org/2000/svg" xmlns:xlink="http://www.w3.org/1999/xlink" x="0px" y="0px"
	 width="906px" height="548px" viewBox="0 0 906 548" enable-background="new 0 0 906 548" xml:space="preserve">
<g>
	<g>
		<g>
			<rect x="0" fill="#FFFFFF" width="905.992" height="547.864"/>
		</g>
		<g>
			<rect x="0.007" y="0.136" fill="#EAEDED" width="905.994" height="547.864"/>
			<g>
				<g>
					<path fill="#F05722" d="M311.404,154.935c0,4.563,1.526,11.7,3.394,15.865l6.72,6.723c4.163,1.863,11.3,3.387,15.86,3.387
						h9.389c9.755,0,14.279-10.108,14.279-10.108c1.861-4.164,3.388-11.303,3.388-15.866v-44.762
						c0-9.77-10.101-14.293-10.101-14.293c-4.161-1.864-11.299-3.39-15.857-3.39h-9.389c-9.758,0-17.683,7.913-17.683,17.683
						V154.935L311.404,154.935z M329.085,118.468c0-4.563,3.729-8.296,8.29-8.296h1.099c4.56,0,8.291,3.733,8.291,8.296v36.467
						c0,4.563-3.731,8.296-8.291,8.296h-1.099c-4.561,0-8.291-3.733-8.291-8.296L329.085,118.468L329.085,118.468z"/>
				</g>
				<g>
					<path fill="#FBCB43" d="M389.13,154.935c0,4.563,1.524,11.701,3.39,15.866l6.712,6.72c4.161,1.864,11.298,3.389,15.858,3.389
						h9.389c9.75,0,14.286-10.111,14.286-10.111c1.867-4.163,3.396-11.3,3.396-15.863v-44.762c0-9.77-10.112-14.295-10.112-14.295
						c-4.163-1.863-11.3-3.387-15.859-3.387H406.8c-9.755,0-17.669,7.913-17.669,17.683L389.13,154.935L389.13,154.935z
						 M406.799,118.468c0-4.563,3.729-8.296,8.291-8.296h1.098c4.56,0,8.291,3.733,8.291,8.296v36.467
						c0,4.563-3.731,8.296-8.291,8.296h-1.098c-4.562,0-8.291-3.733-8.291-8.296V118.468z"/>
				</g>
				<g>
					<path fill="#F05722" d="M668.88,110.172c4.56,0,8.291-3.733,8.291-8.296v-1.092c0-4.563-3.731-8.296-8.291-8.296h-36.442
						c-4.56,0-8.291,3.733-8.291,8.296v71.828c0,4.563,3.731,8.296,8.291,8.296h36.442c4.56,0,8.291-3.732,8.291-8.296v-1.093
						c0-4.563-3.731-8.296-8.291-8.296h-18.77c-4.56,0-8.291-3.732-8.291-8.296v-1.094c0-4.562,3.731-8.296,8.291-8.296h9.929
						c4.561,0,8.291-3.733,8.291-8.295v-1.087c0-4.563-3.73-8.294-8.291-8.294h-9.929c-4.56,0-8.291-3.734-8.291-8.296v-1.101
						c0-4.563,3.731-8.296,8.291-8.296h18.77V110.172z"/>
				</g>
				<g>
					<path fill="#4285F4" d="M273.568,110.172c4.561,0,8.291-3.733,8.291-8.296v-1.092c0-4.563-3.73-8.296-8.291-8.296H246.51
						c-9.766,0-14.289,10.111-14.289,10.111c-1.862,4.165-3.386,11.304-3.386,15.867v44.758c0,9.771,10.107,14.297,10.107,14.297
						c4.162,1.863,11.299,3.387,15.858,3.387h9.378c9.766,0,14.292-10.112,14.292-10.112c1.862-4.165,3.388-11.303,3.388-15.867
						v-18.772c0-4.563-3.73-8.294-8.291-8.294h-1.098c-4.56,0-8.291,3.732-8.291,8.294v18.772c0,4.563-3.73,8.296-8.291,8.296
						h-1.087c-4.56,0-8.291-3.732-8.291-8.296v-36.462c0-4.563,3.731-8.296,8.291-8.296H273.568z"/>
				</g>
				<g>
					<path fill="#4285F4" d="M517.82,110.172c4.561,0,8.291-3.733,8.291-8.296v-1.092c0-4.563-3.73-8.296-8.291-8.296h-27.06
						c-9.763,0-14.286,10.111-14.286,10.111c-1.863,4.165-3.389,11.304-3.389,15.867v44.758c0,9.771,10.105,14.297,10.105,14.297
						c4.163,1.863,11.3,3.387,15.859,3.387h9.384c9.755,0,14.285-10.114,14.285-10.114c1.865-4.163,3.391-11.302,3.391-15.865
						v-18.772c0-4.563-3.73-8.294-8.291-8.294h-1.094c-4.561,0-8.291,3.732-8.291,8.294v18.772c0,4.563-3.73,8.296-8.291,8.296
						h-1.093c-4.561,0-8.291-3.732-8.291-8.296v-36.462c0-4.563,3.73-8.296,8.291-8.296H517.82z"/>
				</g>
				<g>
					<path fill="#33B679" d="M578.582,163.225c-4.56,0-8.291-3.732-8.291-8.296v-54.15c0-4.563-3.729-8.296-8.291-8.296h-1.091
						c-4.561,0-8.291,3.732-8.291,8.296v71.835c0,4.563,3.73,8.296,8.291,8.296h36.436c4.561,0,8.291-3.732,8.291-8.296v-1.093
						c0-4.563-3.73-8.296-8.291-8.296H578.582z"/>
				</g>
			</g>
			<rect x="37.914" y="256.956" fill="#FFFFFF" width="830.177" height="96.974"/>
			<g>
				<ellipse fill="#FFFFFF" cx="453.002" cy="450.265" rx="49.248" ry="49.274"/>
				<g>
					<path fill="#4285F4" d="M464.537,450.319c0,6.374-5.169,11.537-11.534,11.537l0,0c-6.365,0-11.531-5.163-11.531-11.537v-19.93
						c0-6.369,5.166-11.533,11.531-11.533l0,0c6.365,0,11.534,5.164,11.534,11.533V450.319z"/>
					<g>
						<path fill="#4285F4" d="M467.946,451.843c0,0.084,0.011,0.167,0.011,0.251c0,8.254-6.703,14.962-14.952,14.962
							c-8.245,0-14.953-6.708-14.953-14.962c0-0.084,0.012-0.167,0.019-0.251h-2.763c-0.007,0.084-0.019,0.167-0.019,0.251
							c0,9.777,7.95,17.724,17.716,17.724c9.771,0,17.714-7.947,17.714-17.724c0-0.084-0.012-0.167-0.012-0.251H467.946z"/>
					</g>
					<rect x="450.934" y="467.863" fill="#4285F4" width="4.143" height="13.812"/>
				</g>
			</g>
		</g>
		<g>
			<path fill="#8A8D8D" d="M159.193,335.946c0,2.215-1.794,4.01-4.01,4.01h-94.21c-2.215,0-4.009-1.795-4.009-4.01v-59.962
				c0-2.215,1.794-4.011,4.009-4.011h94.21c2.215,0,4.01,1.796,4.01,4.011V335.946z"/>
			<g>
				<path fill="#8A8D8D" d="M64.612,282.492c-2.505-2.495-5.004-5.001-7.512-7.494c-0.079,0.318-0.136,0.643-0.136,0.986v6.509
					L64.612,282.492L64.612,282.492z"/>
				<path fill="#FFFFFF" d="M93.051,282.492c-3.503-3.507-7.009-7.013-10.511-10.52H67.318c3.52,3.5,7.024,7.014,10.54,10.52H93.051
					z"/>
				<path fill="#FFFFFF" d="M159.193,279.501v-3.517c0-2.215-1.794-4.011-4.01-4.011h-3.514
					C154.178,274.483,156.685,276.992,159.193,279.501z"/>
				<path fill="#FFFFFF" d="M148.955,282.492c-3.504-3.507-7.009-7.013-10.514-10.52h-12.875c3.493,3.507,6.984,7.013,10.476,10.52
					H148.955z"/>
				<path fill="#FFFFFF" d="M122.839,282.492c-3.493-3.507-6.981-7.017-10.477-10.52H95.767l10.513,10.52H122.839z"/>
			</g>
		</g>
		<g>
			<rect x="0.007" y="363.618" fill="#A4AFCA" width="905.994" height="184.382"/>
			<g>
				<g>
					<g opacity="0.45">
						<path d="M18.275,407.621c-3.509,0-6.365-1.65-6.365-3.67v-31.508c0-2.021,2.855-3.669,6.365-3.669h54.661
							c3.509,0,6.364,1.647,6.364,3.669v31.508c0,2.02-2.855,3.67-6.364,3.67H18.275z"/>
					</g>
					<g>
						<path fill="#FFFFFF" d="M18.275,406.563c-3.509,0-6.365-1.651-6.365-3.671v-31.508c0-2.021,2.855-3.668,6.365-3.668h54.661
							c3.509,0,6.364,1.646,6.364,3.668v31.508c0,2.02-2.855,3.671-6.364,3.671H18.275z"/>
					</g>
				</g>
				<g>
					<g opacity="0.45">
						<path d="M98.377,407.621c-3.509,0-6.364-1.65-6.364-3.67v-31.508c0-2.021,2.855-3.669,6.364-3.669h54.664
							c3.507,0,6.363,1.647,6.363,3.669v31.508c0,2.02-2.855,3.67-6.363,3.67H98.377z"/>
					</g>
					<g>
						<path fill="#FFFFFF" d="M98.377,406.563c-3.509,0-6.364-1.651-6.364-3.671v-31.508c0-2.021,2.855-3.668,6.364-3.668h54.664
							c3.507,0,6.363,1.646,6.363,3.668v31.508c0,2.02-2.855,3.671-6.363,3.671H98.377z"/>
					</g>
				</g>
				<g>
					<g opacity="0.45">
						<path d="M178.969,407.621c-3.509,0-6.362-1.65-6.362-3.67v-31.508c0-2.021,2.854-3.669,6.362-3.669h54.663
							c3.509,0,6.364,1.647,6.364,3.669v31.508c0,2.02-2.855,3.67-6.364,3.67H178.969z"/>
					</g>
					<g>
						<path fill="#FFFFFF" d="M178.969,406.563c-3.509,0-6.362-1.651-6.362-3.671v-31.508c0-2.021,2.854-3.668,6.362-3.668h54.663
							c3.509,0,6.364,1.646,6.364,3.668v31.508c0,2.02-2.855,3.671-6.364,3.671H178.969z"/>
					</g>
				</g>
				<g>
					<g opacity="0.45">
						<path d="M259.076,407.621c-3.512,0-6.368-1.65-6.368-3.67v-31.508c0-2.021,2.856-3.669,6.368-3.669h54.662
							c3.506,0,6.362,1.647,6.362,3.669v31.508c0,2.02-2.856,3.67-6.362,3.67H259.076z"/>
					</g>
					<g>
						<path fill="#FFFFFF" d="M259.076,406.563c-3.512,0-6.368-1.651-6.368-3.671v-31.508c0-2.021,2.856-3.668,6.368-3.668h54.662
							c3.506,0,6.362,1.646,6.362,3.668v31.508c0,2.02-2.856,3.671-6.362,3.671H259.076z"/>
					</g>
				</g>
				<g>
					<g opacity="0.45">
						<path d="M339.943,407.621c-3.513,0-6.365-1.65-6.365-3.67v-31.508c0-2.021,2.854-3.669,6.365-3.669h54.659
							c3.511,0,6.365,1.647,6.365,3.669v31.508c0,2.02-2.854,3.67-6.365,3.67H339.943z"/>
					</g>
					<g>
						<path fill="#FFFFFF" d="M339.943,406.563c-3.513,0-6.365-1.651-6.365-3.671v-31.508c0-2.021,2.854-3.668,6.365-3.668h54.659
							c3.511,0,6.365,1.646,6.365,3.668v31.508c0,2.02-2.854,3.671-6.365,3.671H339.943z"/>
					</g>
				</g>
				<g>
					<g opacity="0.45">
						<path d="M420.045,407.621c-3.51,0-6.362-1.65-6.362-3.67v-31.508c0-2.021,2.854-3.669,6.362-3.669h54.664
							c3.506,0,6.361,1.647,6.361,3.669v31.508c0,2.02-2.855,3.67-6.361,3.67H420.045z"/>
					</g>
					<g>
						<path fill="#FFFFFF" d="M420.045,406.563c-3.51,0-6.362-1.651-6.362-3.671v-31.508c0-2.021,2.854-3.668,6.362-3.668h54.664
							c3.506,0,6.361,1.646,6.361,3.668v31.508c0,2.02-2.855,3.671-6.361,3.671H420.045z"/>
					</g>
				</g>
				<g>
					<g opacity="0.45">
						<path d="M500.636,407.621c-3.509,0-6.363-1.65-6.363-3.67v-31.508c0-2.021,2.854-3.669,6.363-3.669h54.665
							c3.506,0,6.361,1.647,6.361,3.669v31.508c0,2.02-2.855,3.67-6.361,3.67H500.636z"/>
					</g>
					<g>
						<path fill="#FFFFFF" d="M500.636,406.563c-3.509,0-6.363-1.651-6.363-3.671v-31.508c0-2.021,2.854-3.668,6.363-3.668h54.665
							c3.506,0,6.361,1.646,6.361,3.668v31.508c0,2.02-2.855,3.671-6.361,3.671H500.636z"/>
					</g>
				</g>
				<g>
					<g opacity="0.45">
						<path d="M580.741,407.621c-3.511,0-6.363-1.65-6.363-3.67v-31.508c0-2.021,2.854-3.669,6.363-3.669h54.661
							c3.509,0,6.365,1.647,6.365,3.669v31.508c0,2.02-2.856,3.67-6.365,3.67H580.741z"/>
					</g>
					<g>
						<path fill="#FFFFFF" d="M580.741,406.563c-3.511,0-6.363-1.651-6.363-3.671v-31.508c0-2.021,2.854-3.668,6.363-3.668h54.661
							c3.509,0,6.365,1.646,6.365,3.668v31.508c0,2.02-2.856,3.671-6.365,3.671H580.741z"/>
					</g>
				</g>
				<g>
					<g opacity="0.45">
						<path d="M661.873,407.621c-3.509,0-6.362-1.65-6.362-3.67v-31.508c0-2.021,2.854-3.669,6.362-3.669h54.663
							c3.507,0,6.365,1.647,6.365,3.669v31.508c0,2.02-2.858,3.67-6.365,3.67H661.873z"/>
					</g>
					<g>
						<path fill="#FFFFFF" d="M661.873,406.563c-3.509,0-6.362-1.651-6.362-3.671v-31.508c0-2.021,2.854-3.668,6.362-3.668h54.663
							c3.507,0,6.365,1.646,6.365,3.668v31.508c0,2.02-2.858,3.671-6.365,3.671H661.873z"/>
					</g>
				</g>
				<g>
					<g opacity="0.45">
						<path d="M742.466,407.621c-3.509,0-6.364-1.65-6.364-3.67v-31.508c0-2.021,2.854-3.669,6.364-3.669h54.662
							c3.506,0,6.361,1.647,6.361,3.669v31.508c0,2.02-2.855,3.67-6.361,3.67H742.466z"/>
					</g>
					<g>
						<path fill="#FFFFFF" d="M742.466,406.563c-3.509,0-6.364-1.651-6.364-3.671v-31.508c0-2.021,2.854-3.668,6.364-3.668h54.662
							c3.506,0,6.361,1.646,6.361,3.668v31.508c0,2.02-2.855,3.671-6.361,3.671H742.466z"/>
					</g>
				</g>
				<g>
					<g opacity="0.45">
						<path d="M822.572,407.621c-3.513,0-6.364-1.65-6.364-3.67v-31.508c0-2.021,2.853-3.669,6.364-3.669h58.133
							c3.509,0,6.364,1.647,6.364,3.669v31.508c0,2.02-2.855,3.67-6.364,3.67H822.572z"/>
					</g>
					<g>
						<path fill="#FFFFFF" d="M822.572,406.563c-3.513,0-6.364-1.651-6.364-3.671v-31.508c0-2.021,2.853-3.668,6.364-3.668h58.133
							c3.509,0,6.364,1.646,6.364,3.668v31.508c0,2.02-2.855,3.671-6.364,3.671H822.572z"/>
					</g>
				</g>
				<g>
					<g opacity="0.45">
						<path d="M51.356,451.168c-3.509,0-6.361-1.646-6.361-3.667v-31.508c0-2.023,2.853-3.669,6.361-3.669h54.663
							c3.507,0,6.364,1.646,6.364,3.669v31.508c0,2.021-2.856,3.667-6.364,3.667H51.356z"/>
					</g>
					<g>
						<path fill="#FFFFFF" d="M51.356,450.108c-3.509,0-6.361-1.646-6.361-3.667v-31.508c0-2.023,2.853-3.669,6.361-3.669h54.663
							c3.507,0,6.364,1.646,6.364,3.669v31.508c0,2.021-2.856,3.667-6.364,3.667H51.356z"/>
					</g>
				</g>
				<g>
					<g opacity="0.45">
						<path d="M131.462,451.168c-3.509,0-6.366-1.646-6.366-3.667v-31.508c0-2.023,2.857-3.669,6.366-3.669h54.663
							c3.506,0,6.361,1.646,6.361,3.669v31.508c0,2.021-2.855,3.667-6.361,3.667H131.462z"/>
					</g>
					<g>
						<path fill="#FFFFFF" d="M131.462,450.108c-3.509,0-6.366-1.646-6.366-3.667v-31.508c0-2.023,2.857-3.669,6.366-3.669h54.663
							c3.506,0,6.361,1.646,6.361,3.669v31.508c0,2.021-2.855,3.667-6.361,3.667H131.462z"/>
					</g>
				</g>
				<g>
					<g opacity="0.45">
						<path d="M210.894,451.168c-3.509,0-6.366-1.646-6.366-3.667v-31.508c0-2.023,2.856-3.669,6.366-3.669h54.664
							c3.508,0,6.364,1.646,6.364,3.669v31.508c0,2.021-2.856,3.667-6.364,3.667H210.894z"/>
					</g>
					<g>
						<path fill="#FFFFFF" d="M210.894,450.108c-3.509,0-6.366-1.646-6.366-3.667v-31.508c0-2.023,2.856-3.669,6.366-3.669h54.664
							c3.508,0,6.364,1.646,6.364,3.669v31.508c0,2.021-2.856,3.667-6.364,3.667H210.894z"/>
					</g>
				</g>
				<g>
					<g opacity="0.45">
						<path d="M290.999,451.168c-3.512,0-6.363-1.646-6.363-3.667v-31.508c0-2.023,2.853-3.669,6.363-3.669h54.662
							c3.51,0,6.363,1.646,6.363,3.669v31.508c0,2.021-2.854,3.667-6.363,3.667H290.999z"/>
					</g>
					<g>
						<path fill="#FFFFFF" d="M290.999,450.108c-3.512,0-6.363-1.646-6.363-3.667v-31.508c0-2.023,2.853-3.669,6.363-3.669h54.662
							c3.51,0,6.363,1.646,6.363,3.669v31.508c0,2.021-2.854,3.667-6.363,3.667H290.999z"/>
					</g>
				</g>
				<g>
					<g opacity="0.45">
						<path d="M370.71,451.168c-3.511,0-6.366-1.646-6.366-3.667v-31.508c0-2.023,2.855-3.669,6.366-3.669h54.661
							c3.507,0,6.362,1.646,6.362,3.669v31.508c0,2.021-2.855,3.667-6.362,3.667H370.71z"/>
					</g>
					<g>
						<path fill="#FFFFFF" d="M370.71,450.108c-3.511,0-6.366-1.646-6.366-3.667v-31.508c0-2.023,2.855-3.669,6.366-3.669h54.661
							c3.507,0,6.362,1.646,6.362,3.669v31.508c0,2.021-2.855,3.667-6.362,3.667H370.71z"/>
					</g>
				</g>
				<g>
					<g opacity="0.45">
						<path d="M450.813,451.168c-3.51,0-6.362-1.646-6.362-3.667v-31.508c0-2.023,2.854-3.669,6.362-3.669h54.664
							c3.508,0,6.365,1.646,6.365,3.669v31.508c0,2.021-2.857,3.667-6.365,3.667H450.813z"/>
					</g>
					<g>
						<path fill="#FFFFFF" d="M450.813,450.108c-3.51,0-6.362-1.646-6.362-3.667v-31.508c0-2.023,2.854-3.669,6.362-3.669h54.664
							c3.508,0,6.365,1.646,6.365,3.669v31.508c0,2.021-2.857,3.667-6.365,3.667H450.813z"/>
					</g>
				</g>
				<g>
					<g opacity="0.45">
						<path d="M530.246,451.168c-3.509,0-6.362-1.646-6.362-3.667v-31.508c0-2.023,2.854-3.669,6.362-3.669h54.663
							c3.51,0,6.364,1.646,6.364,3.669v31.508c0,2.021-2.854,3.667-6.364,3.667H530.246z"/>
					</g>
					<g>
						<path fill="#FFFFFF" d="M530.246,450.108c-3.509,0-6.362-1.646-6.362-3.667v-31.508c0-2.023,2.854-3.669,6.362-3.669h54.663
							c3.51,0,6.364,1.646,6.364,3.669v31.508c0,2.021-2.854,3.667-6.364,3.667H530.246z"/>
					</g>
				</g>
				<g>
					<g opacity="0.45">
						<path d="M610.355,451.168c-3.512,0-6.367-1.646-6.367-3.667v-31.508c0-2.023,2.855-3.669,6.367-3.669h54.66
							c3.509,0,6.365,1.646,6.365,3.669v31.508c0,2.021-2.856,3.667-6.365,3.667H610.355z"/>
					</g>
					<g>
						<path fill="#FFFFFF" d="M610.355,450.108c-3.512,0-6.367-1.646-6.367-3.667v-31.508c0-2.023,2.855-3.669,6.367-3.669h54.66
							c3.509,0,6.365,1.646,6.365,3.669v31.508c0,2.021-2.856,3.667-6.365,3.667H610.355z"/>
					</g>
				</g>
				<g>
					<g opacity="0.45">
						<path d="M690.327,451.168c-3.508,0-6.36-1.646-6.36-3.667v-31.508c0-2.023,2.854-3.669,6.36-3.669h54.662
							c3.508,0,6.367,1.646,6.367,3.669v31.508c0,2.021-2.859,3.667-6.367,3.667H690.327z"/>
					</g>
					<g>
						<path fill="#FFFFFF" d="M690.327,450.108c-3.508,0-6.36-1.646-6.36-3.667v-31.508c0-2.023,2.854-3.669,6.36-3.669h54.662
							c3.508,0,6.367,1.646,6.367,3.669v31.508c0,2.021-2.859,3.667-6.367,3.667H690.327z"/>
					</g>
				</g>
				<g>
					<g opacity="0.45">
						<path d="M770.44,451.168c-3.507,0-6.362-1.646-6.362-3.667v-31.508c0-2.023,2.855-3.669,6.362-3.669h110.265
							c3.509,0,6.364,1.646,6.364,3.669v31.508c0,2.021-2.855,3.667-6.364,3.667H770.44z"/>
					</g>
					<g>
						<path fill="#FFFFFF" d="M770.44,450.108c-3.507,0-6.362-1.646-6.362-3.667v-31.508c0-2.023,2.855-3.669,6.362-3.669h110.265
							c3.509,0,6.364,1.646,6.364,3.669v31.508c0,2.021-2.855,3.667-6.364,3.667H770.44z"/>
					</g>
				</g>
				<g>
					<g opacity="0.45">
						<path d="M18.275,494.35c-3.509,0-6.365-1.647-6.365-3.671v-31.507c0-2.022,2.855-3.668,6.365-3.668h54.661
							c3.509,0,6.364,1.646,6.364,3.668v31.507c0,2.023-2.855,3.671-6.364,3.671H18.275z"/>
					</g>
					<g>
						<path fill="#FFFFFF" d="M18.275,493.29c-3.509,0-6.365-1.647-6.365-3.671v-31.507c0-2.022,2.855-3.668,6.365-3.668h54.661
							c3.509,0,6.364,1.646,6.364,3.668v31.507c0,2.023-2.855,3.671-6.364,3.671H18.275z"/>
					</g>
				</g>
				<g>
					<g opacity="0.45">
						<path d="M97.219,494.35c-3.507,0-6.362-1.647-6.362-3.671v-31.507c0-2.022,2.855-3.668,6.362-3.668h54.665
							c3.507,0,6.365,1.646,6.365,3.668v31.507c0,2.023-2.858,3.671-6.365,3.671H97.219z"/>
					</g>
					<g>
						<path fill="#FFFFFF" d="M97.219,493.29c-3.507,0-6.362-1.647-6.362-3.671v-31.507c0-2.022,2.855-3.668,6.362-3.668h54.665
							c3.507,0,6.365,1.646,6.365,3.668v31.507c0,2.023-2.858,3.671-6.365,3.671H97.219z"/>
					</g>
				</g>
				<g>
					<g opacity="0.45">
						<path d="M175.498,494.35c-3.51,0-6.366-1.647-6.366-3.671v-31.507c0-2.022,2.855-3.668,6.366-3.668h54.663
							c3.507,0,6.363,1.646,6.363,3.668v31.507c0,2.023-2.855,3.671-6.363,3.671H175.498z"/>
					</g>
					<g>
						<path fill="#FFFFFF" d="M175.498,493.29c-3.51,0-6.366-1.647-6.366-3.671v-31.507c0-2.022,2.855-3.668,6.366-3.668h54.663
							c3.507,0,6.363,1.646,6.363,3.668v31.507c0,2.023-2.855,3.671-6.363,3.671H175.498z"/>
					</g>
				</g>
				<g>
					<g opacity="0.45">
						<path d="M254.448,494.35c-3.512,0-6.364-1.647-6.364-3.671v-31.507c0-2.022,2.853-3.668,6.364-3.668h54.661
							c3.509,0,6.364,1.646,6.364,3.668v31.507c0,2.023-2.855,3.671-6.364,3.671H254.448z"/>
					</g>
					<g>
						<path fill="#FFFFFF" d="M254.448,493.29c-3.512,0-6.364-1.647-6.364-3.671v-31.507c0-2.022,2.853-3.668,6.364-3.668h54.661
							c3.509,0,6.364,1.646,6.364,3.668v31.507c0,2.023-2.855,3.671-6.364,3.671H254.448z"/>
					</g>
				</g>
				<g>
					<g opacity="0.45">
						<path d="M332.996,494.35c-3.508,0-6.361-1.647-6.361-3.671v-31.507c0-2.022,2.854-3.668,6.361-3.668h54.664
							c3.507,0,6.362,1.646,6.362,3.668v31.507c0,2.023-2.855,3.671-6.362,3.671H332.996z"/>
					</g>
					<g>
						<path fill="#FFFFFF" d="M332.996,493.29c-3.508,0-6.361-1.647-6.361-3.671v-31.507c0-2.022,2.854-3.668,6.361-3.668h54.664
							c3.507,0,6.362,1.646,6.362,3.668v31.507c0,2.023-2.855,3.671-6.362,3.671H332.996z"/>
					</g>
				</g>
				<g>
					<g opacity="0.45">
						<path d="M410.789,494.35c-3.511,0-6.364-1.647-6.364-3.671v-31.507c0-2.022,2.854-3.668,6.364-3.668h54.661
							c3.51,0,6.364,1.646,6.364,3.668v31.507c0,2.023-2.854,3.671-6.364,3.671H410.789z"/>
					</g>
					<g>
						<path fill="#FFFFFF" d="M410.789,493.29c-3.511,0-6.364-1.647-6.364-3.671v-31.507c0-2.022,2.854-3.668,6.364-3.668h54.661
							c3.51,0,6.364,1.646,6.364,3.668v31.507c0,2.023-2.854,3.671-6.364,3.671H410.789z"/>
					</g>
				</g>
				<g>
					<g opacity="0.45">
						<path d="M490.221,494.35c-3.508,0-6.361-1.647-6.361-3.671v-31.507c0-2.022,2.854-3.668,6.361-3.668h54.666
							c3.506,0,6.361,1.646,6.361,3.668v31.507c0,2.023-2.855,3.671-6.361,3.671H490.221z"/>
					</g>
					<g>
						<path fill="#FFFFFF" d="M490.221,493.29c-3.508,0-6.361-1.647-6.361-3.671v-31.507c0-2.022,2.854-3.668,6.361-3.668h54.666
							c3.506,0,6.361,1.646,6.361,3.668v31.507c0,2.023-2.855,3.671-6.361,3.671H490.221z"/>
					</g>
				</g>
				<g>
					<g opacity="0.45">
						<path d="M569.17,494.35c-3.512,0-6.364-1.647-6.364-3.671v-31.507c0-2.022,2.854-3.668,6.364-3.668h54.664
							c3.506,0,6.361,1.646,6.361,3.668v31.507c0,2.023-2.855,3.671-6.361,3.671H569.17z"/>
					</g>
					<g>
						<path fill="#FFFFFF" d="M569.17,493.29c-3.512,0-6.364-1.647-6.364-3.671v-31.507c0-2.022,2.854-3.668,6.364-3.668h54.664
							c3.506,0,6.361,1.646,6.361,3.668v31.507c0,2.023-2.855,3.671-6.361,3.671H569.17z"/>
					</g>
				</g>
				<g>
					<g opacity="0.45">
						<path d="M647.989,494.35c-3.509,0-6.361-1.647-6.361-3.671v-31.507c0-2.022,2.854-3.668,6.361-3.668h54.664
							c3.506,0,6.364,1.646,6.364,3.668v31.507c0,2.023-2.858,3.671-6.364,3.671H647.989z"/>
					</g>
					<g>
						<path fill="#FFFFFF" d="M647.989,493.29c-3.509,0-6.361-1.647-6.361-3.671v-31.507c0-2.022,2.854-3.668,6.361-3.668h54.664
							c3.506,0,6.364,1.646,6.364,3.668v31.507c0,2.023-2.858,3.671-6.364,3.671H647.989z"/>
					</g>
				</g>
				<g>
					<g opacity="0.45">
						<path d="M726.266,494.35c-3.509,0-6.364-1.647-6.364-3.671v-31.507c0-2.022,2.855-3.668,6.364-3.668h54.664
							c3.508,0,6.361,1.646,6.361,3.668v31.507c0,2.023-2.854,3.671-6.361,3.671H726.266z"/>
					</g>
					<g>
						<path fill="#FFFFFF" d="M726.266,493.29c-3.509,0-6.364-1.647-6.364-3.671v-31.507c0-2.022,2.855-3.668,6.364-3.668h54.664
							c3.508,0,6.361,1.646,6.361,3.668v31.507c0,2.023-2.854,3.671-6.361,3.671H726.266z"/>
					</g>
				</g>
				<g>
					<g opacity="0.45">
						<path d="M805.214,494.35c-3.511,0-6.362-1.647-6.362-3.671v-31.507c0-2.022,2.853-3.668,6.362-3.668h75.489
							c3.509,0,6.364,1.646,6.364,3.668v31.507c0,2.023-2.855,3.671-6.364,3.671H805.214z"/>
					</g>
					<g>
						<path fill="#FFFFFF" d="M805.214,493.29c-3.511,0-6.362-1.647-6.362-3.671v-31.507c0-2.022,2.853-3.668,6.362-3.668h75.489
							c3.509,0,6.364,1.646,6.364,3.668v31.507c0,2.023-2.855,3.671-6.364,3.671H805.214z"/>
					</g>
				</g>
				<g>
					<g opacity="0.45">
						<path d="M18.275,536.965c-3.509,0-6.365-1.646-6.365-3.67V501.79c0-2.024,2.855-3.671,6.365-3.671h92.271
							c3.509,0,6.366,1.646,6.366,3.671v31.505c0,2.023-2.856,3.67-6.366,3.67H18.275z"/>
					</g>
					<g>
						<path fill="#FFFFFF" d="M18.275,535.905c-3.509,0-6.365-1.646-6.365-3.67V500.73c0-2.023,2.855-3.671,6.365-3.671h92.271
							c3.509,0,6.366,1.647,6.366,3.671v31.505c0,2.024-2.856,3.67-6.366,3.67H18.275z"/>
					</g>
				</g>
				<g>
					<g opacity="0.45">
						<path d="M136.219,536.965c-3.509,0-6.362-1.646-6.362-3.67V501.79c0-2.024,2.854-3.671,6.362-3.671h92.275
							c3.506,0,6.361,1.646,6.361,3.671v31.505c0,2.023-2.855,3.67-6.361,3.67H136.219z"/>
					</g>
					<g>
						<path fill="#FFFFFF" d="M136.219,535.905c-3.509,0-6.362-1.646-6.362-3.67V500.73c0-2.023,2.854-3.671,6.362-3.671h92.275
							c3.506,0,6.361,1.647,6.361,3.671v31.505c0,2.024-2.855,3.67-6.361,3.67H136.219z"/>
					</g>
				</g>
				<g>
					<g opacity="0.45">
						<path d="M670.789,536.965c-3.509,0-6.364-1.646-6.364-3.67V501.79c0-2.024,2.855-3.671,6.364-3.671h131.965
							c3.508,0,6.361,1.646,6.361,3.671v31.505c0,2.023-2.854,3.67-6.361,3.67H670.789z"/>
					</g>
					<g>
						<path fill="#FFFFFF" d="M670.789,535.905c-3.509,0-6.364-1.646-6.364-3.67V500.73c0-2.023,2.855-3.671,6.364-3.671h131.965
							c3.508,0,6.361,1.647,6.361,3.671v31.505c0,2.024-2.854,3.67-6.361,3.67H670.789z"/>
					</g>
				</g>
				<g>
					<g opacity="0.45">
						<path d="M828.144,536.965c-3.509,0-6.362-1.646-6.362-3.67V501.79c0-2.024,2.854-3.671,6.362-3.671h52.561
							c3.509,0,6.364,1.646,6.364,3.671v31.505c0,2.023-2.855,3.67-6.364,3.67H828.144z"/>
					</g>
					<g>
						<path fill="#FFFFFF" d="M828.144,535.905c-3.509,0-6.362-1.646-6.362-3.67V500.73c0-2.023,2.854-3.671,6.362-3.671h52.561
							c3.509,0,6.364,1.647,6.364,3.671v31.505c0,2.024-2.855,3.67-6.364,3.67H828.144z"/>
					</g>
				</g>
				<g>
					<g opacity="0.45">
						<path d="M254.448,536.965c-3.512,0-6.364-1.646-6.364-3.67V501.79c0-2.024,2.853-3.671,6.364-3.671h391.405
							c3.506,0,6.364,1.646,6.364,3.671v31.505c0,2.023-2.858,3.67-6.364,3.67H254.448z"/>
					</g>
					<g>
						<path fill="#FFFFFF" d="M254.448,535.905c-3.512,0-6.364-1.646-6.364-3.67V500.73c0-2.023,2.853-3.671,6.364-3.671h391.405
							c3.506,0,6.364,1.647,6.364,3.671v31.505c0,2.024-2.858,3.67-6.364,3.67H254.448z"/>
					</g>
				</g>
			</g>
		</g>
	</g>
</g>
</svg>
