<?xml version="1.0" encoding="utf-8"?>
<!-- Generator: Adobe Illustrator 16.0.0, SVG Export Plug-In . SVG Version: 6.00 Build 0)  -->
<!DOCTYPE svg PUBLIC "-//W3C//DTD SVG 1.1//EN" "http://www.w3.org/Graphics/SVG/1.1/DTD/svg11.dtd">
<svg version="1.1" id="图层_1" xmlns="http://www.w3.org/2000/svg" xmlns:xlink="http://www.w3.org/1999/xlink" x="0px" y="0px"
	 width="906px" height="548px" viewBox="0 0 906 548" enable-background="new 0 0 906 548" xml:space="preserve">
<g>
	<g>
		<path fill="#28AFFF" d="M627.138,0c-0.256,0.002-0.507,0.031-0.768,0.031h-59.004c-0.208,0-0.396-0.031-0.604-0.031H0v548h906V0
			H627.138z"/>
		<path fill="#D3A57B" d="M627.138,91.816c-0.256,0-0.507,0.021-0.768,0.021h-59.004c-0.208,0-0.396-0.021-0.604-0.021H0V548h906
			V91.816H627.138z"/>
		<g>
			<g>
				<rect x="10.198" y="175.852" fill="#C3955D" width="376.288" height="47.308"/>
				<polygon fill="#9F805D" points="176.53,223.16 90.037,223.16 90.037,175.852 				"/>
				<rect x="10.198" y="128.547" fill="#A77842" width="85.088" height="94.613"/>
				<g>
					<rect x="11.385" y="115.823" fill="#A77842" width="21.43" height="21.447"/>
					<rect x="41.853" y="115.823" fill="#A77842" width="21.431" height="21.447"/>
					<rect x="72.319" y="115.823" fill="#A77842" width="21.425" height="21.447"/>
				</g>
				<g>
					<g>
						<rect x="99.629" y="158.717" fill="#C3955D" width="21.43" height="21.45"/>
						<rect x="130.102" y="158.717" fill="#C3955D" width="21.431" height="21.45"/>
						<rect x="160.558" y="158.717" fill="#C3955D" width="21.436" height="21.45"/>
					</g>
				</g>
				<g>
					<g>
						<rect x="192.077" y="158.717" fill="#C3955D" width="21.432" height="21.45"/>
						<rect x="222.541" y="158.717" fill="#C3955D" width="21.435" height="21.45"/>
						<rect x="253.01" y="158.717" fill="#C3955D" width="21.43" height="21.45"/>
					</g>
				</g>
				<g>
					<g>
						<rect x="284.529" y="158.717" fill="#C3955D" width="21.431" height="21.45"/>
						<rect x="314.995" y="158.717" fill="#C3955D" width="21.428" height="21.45"/>
					</g>
				</g>
				<rect x="331.646" y="128.547" fill="#A77842" width="85.087" height="94.613"/>
				<g>
					<rect x="333.691" y="115.823" fill="#A77842" width="21.433" height="21.447"/>
					<rect x="364.16" y="115.823" fill="#A77842" width="21.431" height="21.447"/>
					<rect x="394.619" y="115.823" fill="#A77842" width="21.436" height="21.447"/>
				</g>
				<g>
					<rect x="22.726" y="146.525" fill="#513323" width="13.446" height="15.976"/>
					<rect x="46.264" y="146.525" fill="#513323" width="13.444" height="15.976"/>
					<rect x="69.794" y="146.525" fill="#513323" width="13.446" height="15.976"/>
				</g>
				<g>
					<rect x="342.938" y="146.525" fill="#513323" width="13.446" height="15.976"/>
					<rect x="366.47" y="146.525" fill="#513323" width="13.44" height="15.976"/>
					<rect x="390.002" y="146.525" fill="#513323" width="13.443" height="15.976"/>
				</g>
				<g>
					<rect x="495.518" y="24.944" fill="#A77842" width="85.087" height="94.618"/>
					<g>
						<rect x="497.565" y="12.217" fill="#A77842" width="21.431" height="21.45"/>
						<rect x="528.03" y="12.217" fill="#A77842" width="21.431" height="21.45"/>
						<rect x="558.491" y="12.217" fill="#A77842" width="21.436" height="21.45"/>
					</g>
					<g>
						<rect x="506.807" y="42.92" fill="#513323" width="13.448" height="15.978"/>
						<rect x="530.339" y="42.92" fill="#513323" width="13.454" height="15.978"/>
						<rect x="553.87" y="42.92" fill="#513323" width="13.449" height="15.978"/>
					</g>
				</g>
				<rect x="415.471" y="115.018" fill="#C3955D" width="164.837" height="47.303"/>
				<g>
					<g>
						<rect x="404.404" y="97.878" fill="#C3955D" width="21.433" height="21.45"/>
						<rect x="434.87" y="97.878" fill="#C3955D" width="21.43" height="21.45"/>
						<rect x="465.332" y="97.878" fill="#C3955D" width="21.435" height="21.45"/>
					</g>
				</g>
				<g>
					<g>
						<rect x="494.271" y="97.878" fill="#C3955D" width="21.43" height="21.45"/>
						<rect x="524.737" y="97.878" fill="#C3955D" width="21.436" height="21.45"/>
						<rect x="555.196" y="97.878" fill="#C3955D" width="21.438" height="21.45"/>
					</g>
				</g>
			</g>
			<g>
				<path fill="#3C4957" d="M191.338,381.801c0,4.428-3.58,8.014-8.004,8.014h-63.177c-4.417,0-8.005-3.586-8.005-8.014l0,0
					c0-4.419,3.588-8.005,8.005-8.005h63.177C187.759,373.796,191.338,377.382,191.338,381.801L191.338,381.801z"/>
				<path fill="#3C4957" d="M124.023,376.878l-13.848-18.435c-1.072-1.398-3.193-4.25-7.918-4.092
					c-2.745,0.09-3.666,4.135-7.808,4.135c-1.064,0-4.395,0-4.395,0c-2.113,0-3.83,1.713-3.83,3.826c0,2.112,1.717,3.826,3.83,3.826
					h8.474c0.465,0.325,2.094,3.279,2.914,4.355l11.315,14.938c2.364,3.106,6.793,3.715,9.908,1.356
					C125.776,384.428,126.381,379.99,124.023,376.878z"/>
				<g>
					<g>
						<path fill="#3C4957" d="M142.045,416.891c0,1.492-1.21,2.693-2.695,2.693l0,0c-1.483,0-2.688-1.201-2.688-2.693v-30.619
							c0-1.492,1.205-2.694,2.688-2.694l0,0c1.485,0,2.695,1.202,2.695,2.694V416.891z"/>
						<path fill="#3C4957" d="M139.35,414.195c1.485,0,2.695,1.21,2.695,2.695l0,0c0,1.491-1.21,2.692-2.695,2.692h-4.813
							c-1.493,0-2.69-1.201-2.69-2.692l0,0c0-1.485,1.198-2.695,2.69-2.695H139.35z"/>
					</g>
				</g>
				<g>
					<g>
						<path fill="#3C4957" d="M131.808,402.164c-0.809,1.251-2.476,1.605-3.717,0.802l0,0c-1.245-0.808-1.607-2.476-0.801-3.724
							l9.225-14.287c0.81-1.245,2.479-1.607,3.727-0.801l0,0c1.253,0.809,1.606,2.476,0.801,3.724L131.808,402.164z"/>
						<path fill="#3C4957" d="M146.681,401.721c1.448,0.323,2.361,1.754,2.043,3.204l0,0c-0.321,1.462-1.753,2.382-3.209,2.058
							l-16.593-3.68c-1.456-0.318-2.374-1.758-2.051-3.209l0,0c0.315-1.447,1.756-2.361,3.204-2.049L146.681,401.721z"/>
						<path fill="#3C4957" d="M143.992,405.596c-0.629-1.345-0.042-2.945,1.294-3.578l0,0c1.351-0.635,2.947-0.047,3.58,1.295
							l2.045,4.367c0.626,1.346,0.047,2.949-1.3,3.582l0,0c-1.341,0.637-2.953,0.047-3.576-1.302L143.992,405.596z"/>
					</g>
				</g>
				<g>
					<g>
						<path fill="#3C4957" d="M184.404,400.582c0.746,1.287,0.304,2.93-0.985,3.68l0,0c-1.283,0.738-2.934,0.297-3.673-0.984
							l-8.505-14.737c-0.741-1.282-0.301-2.931,0.985-3.679l0,0c1.289-0.743,2.937-0.307,3.676,0.99L184.404,400.582z"/>
						<path fill="#3C4957" d="M174.586,417.615c-0.849,1.222-2.528,1.52-3.739,0.668l0,0c-1.221-0.856-1.521-2.535-0.665-3.762
							l9.739-13.933c0.861-1.221,2.536-1.513,3.749-0.662l0,0c1.219,0.853,1.521,2.534,0.668,3.751L174.586,417.615z"/>
						<path fill="#3C4957" d="M172.04,413.646c1.489-0.064,2.742,1.084,2.804,2.574l0,0c0.065,1.484-1.08,2.743-2.562,2.805
							l-4.816,0.222c-1.486,0.063-2.739-1.087-2.813-2.573l0,0c-0.066-1.482,1.095-2.744,2.578-2.811L172.04,413.646z"/>
					</g>
				</g>
				<g>
					<g>
						<path fill="#3C4957" d="M194.26,397.828c0.274,1.461-0.686,2.867-2.152,3.14l0,0c-1.458,0.271-2.861-0.688-3.133-2.149
							l-3.128-16.728c-0.274-1.458,0.691-2.868,2.149-3.137l0,0c1.466-0.279,2.867,0.687,3.141,2.151L194.26,397.828z"/>
						<path fill="#3C4957" d="M194.38,416.193c-0.024,1.486-1.245,2.67-2.737,2.644l0,0c-1.49-0.028-2.669-1.253-2.643-2.745
							l0.317-17.007c0.029-1.483,1.264-2.672,2.742-2.644l0,0c1.49,0.025,2.674,1.254,2.644,2.748L194.38,416.193z"/>
						<path fill="#3C4957" d="M191.568,413.488c1.487-0.02,2.708,1.176,2.727,2.669l0,0c0.022,1.483-1.158,2.702-2.653,2.724
							l-4.814,0.063c-1.482,0.021-2.701-1.17-2.729-2.651l0,0c-0.016-1.485,1.174-2.714,2.656-2.729L191.568,413.488z"/>
					</g>
				</g>
				<path fill="#3C4957" d="M169.664,351.25c-4.576,0-8.615,4.82-11.046,12.178c-2.427-7.357-6.477-12.178-11.053-12.178
					c-4.55,0-8.581,4.773-11.015,12.07c-1.129,3.402-11.221,8.775-19.014,11.627h38.856h4.446l27.143,0.332
					c-3.484-3.514-6.048-7.941-7.042-11.146C178.549,356.376,174.393,351.25,169.664,351.25z"/>
				<path fill="#3C4957" d="M290.363,381.801c0,4.428-3.583,8.014-8.004,8.014h-63.178c-4.419,0-8.007-3.586-8.007-8.014l0,0
					c0-4.419,3.587-8.005,8.007-8.005h63.178C286.78,373.796,290.363,377.382,290.363,381.801L290.363,381.801z"/>
				<path fill="#3C4957" d="M225.121,380.893l-2.16-22.957c-0.172-1.758-0.493-5.291-4.603-7.635
					c-2.387-1.363-5.282,1.596-8.815-0.57c-0.902-0.561-3.738-2.305-3.738-2.305c-1.803-1.111-4.154-0.543-5.262,1.26
					c-1.106,1.801-0.54,4.157,1.26,5.26l7.211,4.441c0.232,0.523,0.072,3.893,0.206,5.242l1.832,18.658
					c0.381,3.881,3.843,6.725,7.722,6.344C222.671,388.238,225.505,384.777,225.121,380.893z"/>
				<g>
					<g>
						<path fill="#3C4957" d="M235.745,400.582c0.743,1.287,0.305,2.93-0.981,3.68l0,0c-1.291,0.738-2.939,0.297-3.681-0.984
							l-8.502-14.737c-0.746-1.282-0.306-2.931,0.982-3.679l0,0c1.289-0.743,2.934-0.307,3.68,0.99L235.745,400.582z"/>
						<path fill="#3C4957" d="M225.93,417.615c-0.853,1.222-2.528,1.52-3.752,0.668l0,0c-1.215-0.856-1.511-2.535-0.665-3.762
							l9.754-13.933c0.852-1.221,2.528-1.513,3.747-0.662l0,0c1.216,0.853,1.513,2.534,0.66,3.751L225.93,417.615z"/>
						<path fill="#3C4957" d="M223.375,413.646c1.486-0.064,2.748,1.084,2.81,2.574l0,0c0.065,1.484-1.083,2.743-2.57,2.805
							l-4.811,0.222c-1.487,0.063-2.739-1.087-2.807-2.573l0,0c-0.067-1.482,1.078-2.744,2.566-2.811L223.375,413.646z"/>
					</g>
				</g>
				<g>
					<g>
						<path fill="#3C4957" d="M242.197,397.828c0.276,1.461-0.688,2.867-2.145,3.14l0,0c-1.46,0.271-2.869-0.688-3.141-2.149
							l-3.134-16.728c-0.268-1.458,0.697-2.868,2.152-3.137l0,0c1.466-0.279,2.875,0.687,3.147,2.151L242.197,397.828z"/>
						<path fill="#3C4957" d="M242.319,416.193c-0.022,1.486-1.252,2.67-2.736,2.644l0,0c-1.486-0.028-2.668-1.253-2.641-2.745
							l0.318-17.007c0.026-1.483,1.252-2.672,2.74-2.644l0,0c1.488,0.025,2.667,1.254,2.64,2.748L242.319,416.193z"/>
						<path fill="#3C4957" d="M239.51,413.488c1.484-0.02,2.703,1.176,2.724,2.669l0,0c0.021,1.483-1.167,2.702-2.65,2.724
							l-4.818,0.063c-1.49,0.021-2.708-1.17-2.73-2.651l0,0c-0.017-1.485,1.179-2.714,2.655-2.729L239.51,413.488z"/>
					</g>
				</g>
				<g>
					<g>
						<path fill="#3C4957" d="M289.794,416.891c0,1.492-1.203,2.693-2.692,2.693l0,0c-1.486,0-2.689-1.201-2.689-2.693v-30.619
							c0-1.492,1.203-2.694,2.689-2.694l0,0c1.489,0,2.692,1.202,2.692,2.694V416.891z"/>
						<path fill="#3C4957" d="M287.102,414.195c1.489,0,2.692,1.21,2.692,2.695l0,0c0,1.491-1.203,2.692-2.692,2.692h-4.811
							c-1.49,0-2.692-1.201-2.692-2.692l0,0c0-1.485,1.203-2.695,2.692-2.695H287.102z"/>
					</g>
				</g>
				<g>
					<g>
						<path fill="#3C4957" d="M279.556,402.164c-0.809,1.251-2.468,1.605-3.72,0.802l0,0c-1.242-0.808-1.597-2.476-0.795-3.724
							l9.232-14.287c0.804-1.245,2.471-1.607,3.719-0.801l0,0c1.246,0.809,1.608,2.476,0.801,3.724L279.556,402.164z"/>
						<path fill="#3C4957" d="M294.43,401.721c1.454,0.323,2.372,1.754,2.045,3.204l0,0c-0.323,1.462-1.756,2.382-3.207,2.058
							l-16.598-3.68c-1.454-0.318-2.372-1.758-2.048-3.209l0,0c0.325-1.447,1.761-2.361,3.214-2.049L294.43,401.721z"/>
						<path fill="#3C4957" d="M291.746,405.596c-0.633-1.345-0.053-2.945,1.299-3.578l0,0c1.344-0.635,2.941-0.047,3.574,1.295
							l2.044,4.367c0.626,1.346,0.048,2.949-1.295,3.582l0,0c-1.345,0.637-2.948,0.047-3.585-1.302L291.746,405.596z"/>
					</g>
				</g>
				<path fill="#3C4957" d="M268.693,351.25c-4.582,0-8.625,4.82-11.052,12.178c-2.431-7.357-6.475-12.178-11.051-12.178
					c-4.555,0-8.578,4.773-11.01,12.07c-1.143,3.402-11.234,8.775-19.024,11.627h38.857h4.45l27.148,0.332
					c-3.491-3.514-6.053-7.941-7.049-11.146C277.563,356.376,273.415,351.25,268.693,351.25z"/>
				<path fill="#3C4957" d="M404.252,381.801c0,4.428-3.59,8.014-8.01,8.014h-63.181c-4.422,0-8.001-3.586-8.001-8.014l0,0
					c0-4.419,3.579-8.005,8.001-8.005h63.181C400.662,373.796,404.252,377.382,404.252,381.801L404.252,381.801z"/>
				<path fill="#3C4957" d="M336.924,376.878l-13.852-18.435c-1.06-1.398-3.186-4.25-7.916-4.092
					c-2.738,0.09-3.666,4.135-7.806,4.135c-1.06,0-4.395,0-4.395,0c-2.112,0-3.823,1.713-3.823,3.826
					c0,2.112,1.711,3.826,3.823,3.826h8.475c0.464,0.325,2.093,3.279,2.914,4.355l11.314,14.938c2.364,3.106,6.8,3.715,9.909,1.356
					C338.68,384.428,339.281,379.99,336.924,376.878z"/>
				<g>
					<g>
						<path fill="#3C4957" d="M354.953,416.891c0,1.492-1.21,2.693-2.699,2.693l0,0c-1.484,0-2.689-1.201-2.689-2.693v-30.619
							c0-1.492,1.205-2.694,2.689-2.694l0,0c1.489,0,2.699,1.202,2.699,2.694V416.891z"/>
						<path fill="#3C4957" d="M352.254,414.195c1.489,0,2.699,1.21,2.699,2.695l0,0c0,1.491-1.21,2.692-2.699,2.692h-4.813
							c-1.493,0-2.689-1.201-2.689-2.692l0,0c0-1.485,1.196-2.695,2.689-2.695H352.254z"/>
					</g>
				</g>
				<g>
					<g>
						<path fill="#3C4957" d="M344.717,402.164c-0.814,1.251-2.477,1.605-3.727,0.802l0,0c-1.247-0.808-1.604-2.476-0.804-3.724
							l9.236-14.287c0.806-1.245,2.479-1.607,3.723-0.801l0,0c1.25,0.809,1.604,2.476,0.798,3.724L344.717,402.164z"/>
						<path fill="#3C4957" d="M359.582,401.721c1.451,0.323,2.366,1.754,2.052,3.204l0,0c-0.321,1.462-1.763,2.382-3.214,2.058
							l-16.597-3.68c-1.446-0.318-2.366-1.758-2.05-3.209l0,0c0.326-1.447,1.764-2.361,3.217-2.049L359.582,401.721z"/>
						<path fill="#3C4957" d="M356.896,405.596c-0.632-1.345-0.05-2.945,1.299-3.578l0,0c1.347-0.635,2.948-0.047,3.577,1.295
							l2.043,4.367c0.626,1.346,0.052,2.949-1.296,3.582l0,0c-1.338,0.637-2.946,0.047-3.583-1.302L356.896,405.596z"/>
					</g>
				</g>
				<g>
					<g>
						<path fill="#3C4957" d="M397.307,400.582c0.741,1.287,0.306,2.93-0.98,3.68l0,0c-1.292,0.738-2.927,0.297-3.674-0.984
							l-8.51-14.737c-0.738-1.282-0.3-2.931,0.989-3.679l0,0c1.289-0.743,2.932-0.307,3.678,0.99L397.307,400.582z"/>
						<path fill="#3C4957" d="M387.495,417.615c-0.854,1.222-2.533,1.52-3.743,0.668l0,0c-1.222-0.856-1.52-2.535-0.668-3.762
							l9.746-13.933c0.854-1.221,2.533-1.513,3.749-0.662l0,0c1.216,0.853,1.512,2.534,0.666,3.751L387.495,417.615z"/>
						<path fill="#3C4957" d="M384.944,413.646c1.49-0.064,2.742,1.084,2.811,2.574l0,0c0.063,1.484-1.085,2.743-2.567,2.805
							l-4.811,0.222c-1.482,0.063-2.745-1.087-2.813-2.573l0,0c-0.068-1.482,1.088-2.744,2.573-2.811L384.944,413.646z"/>
					</g>
				</g>
				<g>
					<g>
						<path fill="#3C4957" d="M407.169,397.828c0.271,1.461-0.691,2.867-2.145,3.14l0,0c-1.472,0.271-2.873-0.688-3.146-2.149
							l-3.126-16.728c-0.271-1.458,0.681-2.868,2.152-3.137l0,0c1.458-0.279,2.864,0.687,3.139,2.151L407.169,397.828z"/>
						<path fill="#3C4957" d="M407.288,416.193c-0.022,1.486-1.252,2.67-2.738,2.644l0,0c-1.492-0.028-2.671-1.253-2.644-2.745
							l0.318-17.007c0.032-1.483,1.26-2.672,2.742-2.644l0,0c1.481,0.025,2.671,1.254,2.64,2.748L407.288,416.193z"/>
						<path fill="#3C4957" d="M404.474,413.488c1.483-0.02,2.706,1.176,2.729,2.669l0,0c0.019,1.483-1.166,2.702-2.655,2.724
							l-4.819,0.063c-1.487,0.021-2.698-1.17-2.727-2.651l0,0c-0.019-1.485,1.177-2.714,2.658-2.729L404.474,413.488z"/>
					</g>
				</g>
				<path fill="#3C4957" d="M382.572,351.25c-4.576,0-8.615,4.82-11.052,12.178c-2.432-7.357-6.47-12.178-11.046-12.178
					c-4.555,0-8.581,4.773-11.021,12.07c-1.13,3.402-11.218,8.775-19.011,11.627h38.854h4.447l27.142,0.332
					c-3.481-3.514-6.048-7.941-7.039-11.146C391.449,356.376,387.288,351.25,382.572,351.25z"/>
				<path fill="#3C4957" d="M503.264,381.801c0,4.428-3.582,8.014-8.002,8.014h-63.184c-4.414,0-7.999-3.586-7.999-8.014l0,0
					c0-4.419,3.584-8.005,7.999-8.005h63.184C499.682,373.796,503.264,377.382,503.264,381.801L503.264,381.801z"/>
				<path fill="#3C4957" d="M438.03,380.893l-2.163-22.957c-0.172-1.758-0.493-5.291-4.604-7.635
					c-2.387-1.363-5.283,1.596-8.811-0.57c-0.902-0.561-3.747-2.305-3.747-2.305c-1.795-1.111-4.152-0.543-5.256,1.26
					c-1.105,1.801-0.545,4.157,1.254,5.26l7.22,4.441c0.222,0.523,0.072,3.893,0.207,5.242l1.825,18.658
					c0.382,3.881,3.846,6.725,7.73,6.344C435.57,388.238,438.408,384.777,438.03,380.893z"/>
				<g>
					<g>
						<path fill="#3C4957" d="M448.651,400.582c0.741,1.287,0.303,2.93-0.986,3.68l0,0c-1.294,0.738-2.933,0.297-3.679-0.984
							l-8.5-14.737c-0.741-1.282-0.302-2.931,0.981-3.679l0,0c1.289-0.743,2.932-0.307,3.679,0.99L448.651,400.582z"/>
						<path fill="#3C4957" d="M438.83,417.615c-0.854,1.222-2.527,1.52-3.74,0.668l0,0c-1.222-0.856-1.52-2.535-0.663-3.762
							l9.736-13.933c0.855-1.221,2.536-1.513,3.751-0.662l0,0c1.222,0.853,1.52,2.534,0.668,3.751L438.83,417.615z"/>
						<path fill="#3C4957" d="M436.284,413.646c1.482-0.064,2.745,1.084,2.808,2.574l0,0c0.067,1.484-1.085,2.743-2.569,2.805
							l-4.813,0.222c-1.487,0.063-2.739-1.087-2.806-2.573l0,0c-0.073-1.482,1.083-2.744,2.565-2.811L436.284,413.646z"/>
					</g>
				</g>
				<g>
					<g>
						<path fill="#3C4957" d="M455.101,397.828c0.275,1.461-0.685,2.867-2.146,3.14l0,0c-1.461,0.271-2.864-0.688-3.141-2.149
							l-3.125-16.728c-0.269-1.458,0.689-2.868,2.15-3.137l0,0c1.461-0.279,2.87,0.687,3.141,2.151L455.101,397.828z"/>
						<path fill="#3C4957" d="M455.229,416.193c-0.023,1.486-1.255,2.67-2.743,2.644l0,0c-1.483-0.028-2.664-1.253-2.64-2.745
							l0.317-17.007c0.031-1.483,1.258-2.672,2.739-2.644l0,0c1.486,0.025,2.666,1.254,2.646,2.748L455.229,416.193z"/>
						<path fill="#3C4957" d="M452.412,413.488c1.49-0.02,2.707,1.176,2.73,2.669l0,0c0.016,1.483-1.169,2.702-2.657,2.724
							l-4.821,0.063c-1.479,0.021-2.702-1.17-2.724-2.651l0,0c-0.021-1.485,1.179-2.714,2.656-2.729L452.412,413.488z"/>
					</g>
				</g>
				<g>
					<g>
						<path fill="#3C4957" d="M502.694,416.891c0,1.492-1.193,2.693-2.688,2.693l0,0c-1.481,0-2.689-1.201-2.689-2.693v-30.619
							c0-1.492,1.208-2.694,2.689-2.694l0,0c1.495,0,2.688,1.202,2.688,2.694V416.891z"/>
						<path fill="#3C4957" d="M500.005,414.195c1.486,0,2.688,1.21,2.688,2.695l0,0c0,1.491-1.202,2.692-2.688,2.692h-4.813
							c-1.486,0-2.697-1.201-2.697-2.692l0,0c0-1.485,1.211-2.695,2.697-2.695H500.005z"/>
					</g>
				</g>
				<g>
					<g>
						<path fill="#3C4957" d="M492.47,402.164c-0.81,1.251-2.483,1.605-3.729,0.802l0,0c-1.244-0.808-1.608-2.476-0.793-3.724
							l9.229-14.287c0.809-1.245,2.477-1.607,3.721-0.801l0,0c1.244,0.809,1.604,2.476,0.798,3.724L492.47,402.164z"/>
						<path fill="#3C4957" d="M507.338,401.721c1.454,0.323,2.363,1.754,2.041,3.204l0,0c-0.318,1.462-1.757,2.382-3.201,2.058
							l-16.604-3.68c-1.45-0.318-2.366-1.758-2.045-3.209l0,0c0.317-1.447,1.759-2.361,3.211-2.049L507.338,401.721z"/>
						<path fill="#3C4957" d="M504.654,405.596c-0.637-1.345-0.053-2.945,1.294-3.578l0,0c1.343-0.635,2.948-0.047,3.574,1.295
							l2.043,4.367c0.628,1.346,0.05,2.949-1.295,3.582l0,0c-1.343,0.637-2.956,0.047-3.584-1.302L504.654,405.596z"/>
					</g>
				</g>
				<path fill="#3C4957" d="M481.597,351.25c-4.582,0-8.62,4.82-11.052,12.178c-2.432-7.357-6.471-12.178-11.055-12.178
					c-4.553,0-8.576,4.773-11.012,12.07c-1.133,3.402-11.229,8.775-19.014,11.627h38.855h4.447l27.143,0.332
					c-3.482-3.514-6.05-7.941-7.044-11.146C490.466,356.376,486.318,351.25,481.597,351.25z"/>
			</g>
			<g>
				<path fill="#EFD28B" d="M850.962,239.548c-49.198-31.771-178.281-54.461-329.778-54.461c-151.51,0-280.594,22.69-329.795,54.461
					H850.962z"/>
				<path fill="#DB9121" d="M504.33,260.279c-11.072-31.781-40.114-54.464-74.207-54.464c-34.085,0-63.116,22.683-74.194,54.464
					H504.33z"/>
				<path fill="#DB9121" d="M871.813,239.548c-22.771-47.245-82.51-80.972-152.635-80.972c-70.112,0-129.861,33.727-152.63,80.972
					H871.813z"/>
				<path fill="#D88044" d="M412.707,284.459c-22.763-63.318-82.515-108.518-152.621-108.518c-70.12,0-129.864,45.2-152.635,108.518
					H412.707z"/>
			</g>
			<g>
				<path fill="#007232" d="M650.651,264.717c1.907-4.291,2.982-9.028,2.982-14.03c0-19.125-15.497-34.639-34.615-34.639
					c-19.115,0-34.615,15.513-34.615,34.639c0,5.001,1.078,9.739,2.976,14.03H650.651z"/>
				<path fill="#00B545" d="M679.024,264.717c1.34-3.035,2.1-6.373,2.1-9.903c0-13.505-10.938-24.453-24.433-24.453
					c-13.499,0-24.438,10.948-24.438,24.453c0,3.531,0.759,6.869,2.1,9.903H679.024z"/>
				<path fill="#00B545" d="M731.69,264.717c0.869-1.959,1.358-4.119,1.358-6.394c0-8.723-7.069-15.792-15.781-15.792
					c-8.71,0-15.781,7.07-15.781,15.792c0,2.275,0.491,4.435,1.357,6.394H731.69z"/>
			</g>
			<g>
				<path fill="#EFD28B" d="M905.609,383.627c-15.326-0.355-30.786-0.605-46.502-0.605c-202.444,0-374.923,30.315-440.663,72.773
					h487.165V383.627z"/>
				<path fill="#DB9121" d="M836.587,483.497c-14.799-42.466-53.599-72.78-99.146-72.78s-84.339,30.314-99.139,72.78H836.587z"/>
				<path fill="#D88044" d="M714.163,515.804c-30.411-84.603-110.245-144.997-203.927-144.997
					c-93.687,0-173.515,60.396-203.941,144.997H714.163z"/>
			</g>
			<g>
				<path fill="#007232" d="M721.403,515.146c2.956-6.657,4.628-14.003,4.628-21.762c0-29.671-24.044-53.743-53.704-53.743
					c-29.655,0-53.705,24.072-53.705,53.743c0,7.759,1.667,15.104,4.626,21.762H721.403z"/>
				<path fill="#00B545" d="M765.418,515.146c2.076-4.701,3.265-9.884,3.265-15.359c0-20.954-16.979-37.934-37.918-37.934
					c-20.94,0-37.908,16.979-37.908,37.934c0,5.477,1.185,10.658,3.267,15.359H765.418z"/>
				<path fill="#00B545" d="M847.127,515.146c1.341-3.032,2.104-6.387,2.104-9.914c0-13.534-10.964-24.5-24.482-24.5
					c-13.515,0-24.481,10.966-24.481,24.5c0,3.527,0.762,6.882,2.103,9.914H847.127z"/>
			</g>
		</g>
	</g>
	<g>
		<path opacity="0.3" fill="#FFFFFF" enable-background="new    " d="M228.283,51.087c-7.81-15.803-36.747-27.54-71.269-27.54
			c-34.521,0-63.454,11.737-71.26,27.54H228.283z"/>
		<path opacity="0.7" fill="#FFFFFF" enable-background="new    " d="M409.026,51.087c-5.68-21.411-42.861-37.95-87.926-37.95
			c-45.061,0-82.249,16.54-87.923,37.95H409.026z"/>
		<path opacity="0.7" fill="#FFFFFF" enable-background="new    " d="M809.745,75.135c-5.677-21.411-42.863-37.95-87.926-37.95
			c-45.062,0-82.249,16.54-87.924,37.95H809.745z"/>
		<path fill="#FFFFFF" d="M324.703,51.087c-8.766-7.503-25.212-12.565-44.071-12.565c-14.208,0-27.055,2.875-36.271,7.503
			c-9.22-4.628-22.061-7.503-36.276-7.503c-18.855,0-35.308,5.062-44.072,12.565H324.703z"/>
	</g>
</g>
</svg>
