<?xml version="1.0" encoding="utf-8"?>
<!-- Generator: Adobe Illustrator 16.0.0, SVG Export Plug-In . SVG Version: 6.00 Build 0)  -->
<!DOCTYPE svg PUBLIC "-//W3C//DTD SVG 1.1//EN" "http://www.w3.org/Graphics/SVG/1.1/DTD/svg11.dtd">
<svg version="1.1" id="图层_1" xmlns="http://www.w3.org/2000/svg" xmlns:xlink="http://www.w3.org/1999/xlink" x="0px" y="0px"
	 width="906px" height="548px" viewBox="0 0 906 548" enable-background="new 0 0 906 548" xml:space="preserve">
<g>
	<rect x="0" fill="#F1513C" width="906" height="548"/>
	<g>
		<path fill="#FBB040" d="M889.229,219.045c-1.73-10.642-1.73-21.213,3.252-30.588c2.143-4.086,5.26-8.719,3.219-12.846
			c-2.354-4.838-9.442-4.307-14.383-2.187c-19.551,8.417-30.676,28.721-41.334,47.184c-10.684,18.428-24.521,37.873-45.397,42.081
			c-7.732,1.574-17.662-0.529-19.976-8.077c-2.922-9.439,7.832-16.714,15.711-22.645c19.574-14.731,28.629-42.081,21.691-65.609
			c-6.527,16.412-22.705,26.976-39.064,33.621c-16.358,6.647-33.889,10.528-49.322,19.113c-11.95,6.645-22.899,16.967-27.379,30.17
			c-6.362,18.805,2.398,22.218,19.597,27.966c34.737,11.553,71.78,12.767,108.053,13.844c15.139,0.438,50.775,8.266,63.563-0.231
			c14.326-9.515,10.222-35.854,6.834-49.446C892.5,234.151,890.418,226.58,889.229,219.045z"/>
		<path fill="#F2633A" d="M200.958,271.268c-52.854,21.3-77.015,27.699-103.989,18.39c0,0,15.219,34.193,103.653,9.558
			c0,0,45.752-5.805,44.596,21.146c0,0,39.048,6.088,58.432-22.494C303.65,297.866,253.846,249.977,200.958,271.268z"/>
		<path fill="#FFFFFF" d="M189.434,310.645c-2.96,2.373-13.897-13.281-13.897-13.281c-1.253,11.619,8.208,40.656,8.208,40.656
			l145.307-8.457l-10.66-42.724C318.39,286.839,192.403,308.264,189.434,310.645z"/>
		<path fill="#FFFFFF" d="M178.907,233.623c0,0-10.849,24.992-0.618,46.902c0,0,3.958-11.313,8.606-12.623
			c4.639-1.284,130.964-0.988,130.964-0.988l-12.74-32.087L178.907,233.623z"/>
		<path fill="#BE1E2D" d="M361.849,170.688c0,0-38.346-21.559-76.997-14.935c-25.379,4.374-37.152,14.999-52.879-1.684
			c0,0-11.913-17.551-36.189-9.599c-24.244,7.746-24.976,24.365-24.976,24.365s-6.604,26.577,23.15,15.976
			c0,0-0.228,6.039-6.139,6.692c-5.737,0.874-29.156,5.266-34.677,13.961c-4.2,6.691-18.118,7.348-16.67,25.698
			c0.508,5.265,2.162,11.954,5.952,20.833c0,0,5.508-16.752,16.51-16.206c15.934,0.885,22.6,11.164,36.848,17.493
			c18.777,8.562,40.732,7.929,60.704,5.364c12.746-1.646,26.207-3.868,38.291,0.511c12.085,4.351,21.807,18.423,16.609,30.21
			c-2.859,6.398-9.128,10.271-15.893,12.771c-4.689,1.223-9.128,2.252-12.868,2.713c-18.165,3.642-36.988,3.539-55.304,6.527
			c-20.076,3.407-40.617,11.153-52.606,27.605c-11.46,15.656-13.048,38.002-3.66,55.084c5.976,10.841,16.113,19.105,27.544,23.404
			c10.007,3.677,26.665,7.889,36.971,6.646c0,0-36.378-51.466-4.922-59.929c31.218-8.289,98.605-4.59,126.152-36.487
			c27.522-31.853,41.886-89.878,30.077-114.382C375.013,189.043,361.849,170.688,361.849,170.688z"/>
		<path fill="#FBB040" d="M6.327,118.794C15.315,109.058,24.718,98.917,23,96.497c-1.703-2.35-4.881-2.922-7.455-1.261
			c-3.164,2.251-6.246,4.627-9.218,7.113V118.794z"/>
		<path fill="#FBB040" d="M181.534,187.565c-24.497-5.725-51.499-2.402-73.637,9.915c-15.222,8.301-28.489,20.723-45.084,25.858
			c-19.487,5.864-41.195-0.146-56.486-13.418v21.878c19.153,12.335,43.537,16.889,65.491,10.284
			c20.809-6.166,38.439-20.726,59.084-27.33c20.666-6.619,42.914-4.208,62.257,5.083c2.481,1.145,4.687,2.684,6.936,4.011
			c5.256,3.381,10.152,6.096,16.743,1.379c3.299-2.442,5.041-4.618,5.966-7.127C228.796,202.926,190.824,189.668,181.534,187.565z"
			/>
		<path fill="#1FB78F" d="M905.481,285.363c-6.832-4.293-15.453-7.102-26.227-7.987c0,0-79.197-0.147-135.045-8.422
			c-56.5-8.17-141.927-31.181-257.021-89.721L441.77,372.566c0,0,34.271,25.441,89.595,50.351c4.539,2.021,9.08,4.043,13.854,5.878
			c21.109,9.021,45.053,17.717,71.148,24.693c23.972,6.743,49.814,11.947,76.781,14.903c1.715,0.203,3.435,0.378,5.365,0.378
			c28.725,2.945,58.785,3.2,89.719-0.359c0,0,91.105,34.707,111.566-17.693c1.77-4.548,3.698-9.565,5.68-14.934v-150.42H905.481z"/>
		<g>
			<path fill="#FDFFEF" d="M502.934,396.906c16.445,8.637,36.122,17.936,58.387,26.754c14.128-18.518,20.939-39.33,24.08-52.161
				c-22.06-8.679-41.8-17.787-58.979-26.494C522.826,358.807,515.885,378.335,502.934,396.906z"/>
			<path fill="#FDFFEF" d="M582.286,431.461c21.448,7.563,44.744,14.337,69.552,19.425c15.032-16.514,23.252-36.137,27.678-50.669
				c-26.223-5.744-50.994-13.035-73.764-21.126C602.24,392.811,595.323,412.63,582.286,431.461z"/>
			<path fill="#FDFFEF" d="M802.26,412.251c-3.365,12.501-9.42,29.294-19.992,45.849c1.953-0.186,3.93-0.271,5.889-0.476
				c0.402,0,40.115-0.604,57.666-45.587c0.334-0.877,0.742-1.905,1.103-2.813c-2.338,0.291-4.062,0.412-4.148,0.412
				C829.281,411.16,815.778,411.896,802.26,412.251z"/>
			<path fill="#FDFFEF" d="M736.047,409.639c-12.004-1.302-23.716-3.154-35.285-5.217c-4.117,14.248-11.619,33.121-24.656,50.716
				c6.1,0.918,12.236,1.8,18.48,2.486c0.021,0,0.021,0,0.021,0c19.951,2.184,39.787,2.84,59.563,2.225
				c13.545-15.654,21.299-33.69,25.618-47.509c-14.534-0.303-29.081-1.099-43.696-2.701
				C736.092,409.639,736.092,409.639,736.047,409.639z"/>
			<path fill="#FDFFEF" d="M453.95,368.001c5.854,3.968,16.074,10.584,29.896,18.495c13.66-18.891,20.115-39.686,22.895-51.803
				c-17.221-9.426-30.654-17.762-39.487-23.521L453.95,368.001z"/>
		</g>
		<path fill="#939598" d="M722.489,340.916c-74.182,46.486-101.727-18.518-101.727-18.518
			c82.049,0.316,112.377-29.521,123.447-53.445c-56.5-8.17-141.927-31.181-257.021-89.721L441.77,372.566
			c0,0,34.271,25.44,89.595,50.35c-1.541-3.846-2.334-6.547-2.446-7.43c1.182,1.011,7.258,6.883,16.302,13.308
			c6.812,5.07,15.704,10.812,25.398,15.335c10.912,5.117,28.38,7.899,45.75,9.358c21.002,2.066,41.974,2.428,51.726,2.403
			c10.854-0.1,19.826,6.947,25.057,12.5c3.521,3.429,5.365,6.437,5.365,6.437c0.231-2.144,0.231-4.083,0-6.059
			c-0.15-20.394-9.969-27.521-9.969-27.521c-25.504-16.456-39.545-12.797-54.156-23.734c-14.592-11.111-10.75-26.511-10.75-26.511
			c77.502,20.19,99.811-19.43,110.848-35.125c11.213-15.463,40.666-15.485,40.666-15.485
			C753.352,318.074,722.489,340.916,722.489,340.916z"/>
		<path fill="#184DA9" d="M785.315,178.193c-17.051-64.9-66.699-61.943-66.699-61.943c34.886-11.925,18.674-65.167,18.674-65.167
			c-12.846,40.614-69.403,39.656-69.403,39.656c39.697-39.522,23.563-68.234,12.09-80.77h-7.908
			c-2.944,55.763-49.125,77.142-105.592,77.023c-58.748-0.16-84.271,31.73-84.271,31.73
			c-42.368,22.633-79.115,99.497-80.578,131.906c-1.432,32.407-78.721,48.075-96.881,70.265
			c-18.167,22.174-15.916,59.162,3.826,89.699c19.741,30.536,17.266,62.803,33.762,84.563
			c16.532,21.759,38.087,26.243,38.087,26.243c-14.659-10.015-15.478-21.654-23.002-39.277c-7.512-17.643-1.776-31.716-4.231-47.73
			c-2.439-16.037-14.104-34.113-14.104-34.113c13.728,8.863,53.532,38.425,73.166,69.988c19.645,31.563,57.426,31.5,57.426,31.5
			c-19.615-12.669-17.795-29.247-17.795-29.247c-10.99-33.795-18.479-32.492-22.634-42.421c-4.175-9.892,24.174-0.48,24.174-0.48
			c40.41,52.748,77.604,38.945,97.895,45.389c20.291,6.437,45.795,32.32,45.795,32.32c-5.592-35.271-35.569-49.072-56.092-62.879
			c-20.527-13.803-31.316-49.612-31.316-49.612s17.998,17.718,41.992,28.74c23.987,11.02,79.521,11.862,97.371,11.723
			c17.873-0.15,30.451,19.081,30.451,19.081c1.695-25.018-9.955-33.648-9.955-33.648c-25.5-16.434-39.541-12.728-54.063-23.774
			c-14.557-11.043-10.774-26.39-10.774-26.39c77.563,20.063,99.742-19.539,110.887-35.114
			c11.164-15.567,40.543-15.536,40.543-15.536c-21.703-22.293-52.547,0.553-52.547,0.553
			c-74.349,46.485-101.875-18.518-101.875-18.518C739.185,302.34,731.577,218.5,731.577,218.5
			c-39.854,18.75-55.782-8.202-55.782-8.202s7.102-26.519,29.891-33.478c22.814-6.965,41.398,24.486,77.146,33.638
			c35.725,9.178,38.766-28.297,38.766-28.297C793.538,208.476,785.315,178.193,785.315,178.193z"/>
		<path fill="#939598" d="M677.764,204.861c-1.576-11.983-7.293-21.141-7.293-21.141c-26.648,34.181-58.979,23.757-101.391,7.13
			c-42.427-16.642-64.253,5.849-79.897,22.599c-15.669,16.732-65.138,14.077-65.138,14.077
			c-3.784,129.468-81.788,120.755-131.501,130.816c-0.116,17.043,5.24,35.584,16.027,52.249
			c6.455,9.968,10.427,20.115,13.583,30.043c8.581,8.149,22.326,17.065,22.326,17.065c-14.296-12.641-10.687-37.158-10.687-37.158
			c6.611,2.654,13.329,8.254,19.515,14.986c-0.064-0.385-0.064-0.768-0.122-1.14c-2.44-16.038-14.104-34.114-14.104-34.114
			c9.502,6.129,31.394,22.241,50.541,42.004c-3.777-17.229-12.4-24.892-12.4-24.892c26.932-4.043,35.514,14.58,35.514,14.58
			c11.263,24.224,25.857,38.407,39.681,46.689c-0.785-3.706-0.536-6.141-0.536-6.141c-10.99-33.795-18.479-32.493-22.635-42.421
			c-4.188-9.892,24.175-0.48,24.175-0.48c5.083,6.627,10.111,12.204,15.076,16.896c-0.442-3.834-0.713-7.877-0.713-12.204
			c-0.067-33.208-6.961-45.958-6.961-45.958c15.051-19.574,38.747-0.359,38.747-0.359c3.975,5.426,8.204,9.77,12.532,13.615
			c-1.563-4.09-2.4-6.772-2.4-6.772s11.799,11.483,28.892,21.713c35.452,10.473,70.482-10.103,70.482-10.103
			c-31.854,4.799-53.431-8.625-60.454-37.076c-7.047-28.428-31.051-34.842-31.051-34.842s18.726-4.299,78.048,1.261
			c14.143,1.354,25.803-0.38,35.553-3.622c-20.752-9.738-29.439-30.217-29.439-30.217c6.5,0.043,12.369-0.312,18.229-0.647
			c-7.735-3.224-14.757-7.683-20.075-13.002c-16.629-16.584-43.205-20.313-43.205-20.313c17.696-12.681,61.268-9.994,61.268-9.994
			c46.887-7.804,59.1-27.583,60.133-44.756c-1.43-1.656-2.287-2.939-2.287-2.939S676.44,208.062,677.764,204.861z"/>
		<path fill="#939598" d="M722.801,103.438c-10.34-5.051-15.543,8.266-22.515,13.235c-9.018,6.421-20.079,9.869-30.997,11.153
			c-15.519,1.792-31.183-0.444-46.636-2.713c15.75-25.401,31.687-51.087,53.049-71.987c5.39-5.263,11.142-10.197,17.244-14.69
			c-0.948-11.931-6.646-21.097-11.854-27.138c-3.328,1.873-6.586,3.845-9.787,5.931c-4.875,38.021-31.447,58.441-67.424,66.1
			c-4.689,5.803-9.312,11.688-13.919,17.54c-0.609,0.807-5.344-7.322-9.168-14.412c-4.688,0.317-9.44,0.535-14.319,0.535
			c-7.063-0.023-13.602,0.459-19.723,1.254c0.546,1.981,0.821,3.961,1.521,5.919c3.629,10.418,9.039,21.925,4.236,31.873
			c-4.099,8.498-14.09,12.123-23.17,14.693c-28.189,7.868-57.167,12.771-86.374,14.931c-14.505,19.593-26.409,42.743-33.656,62.754
			c0.369,0,0.746,0,1.128,0c30.885,0.104,61.235-8.019,90.204-18.1c34.795-12.073,68.625-27.249,104.457-35.848
			c26.281-6.32,53.256-8.969,79.648-14.777c20.702-4.583,32.225-13.194,43.016-31.858c0.104-0.255,0.104-0.529,0.189-0.801
			c-5.638-0.962-9.339-0.781-9.339-0.781c3.912-1.318,7.089-3.262,9.808-5.486C727.723,107.696,725.842,104.914,722.801,103.438z"/>
		<g>
			<path fill="#16A07D" d="M870.366,397.945c-3.157-89.092-53.28-69.943-70.334-63.506c-17.03,6.44-12.498,65.863-12.498,65.863
				c-2.221,47.66-77.725,90.099-82.623,92.834c-4.92,2.754-34.11-11.36-34.11-11.36s-44.867-21.545-87.104-6.569
				c-42.249,14.962-30.991,69.314-30.991,69.314c0.074,0.813,0.188,1.592,0.3,2.381h36.125c0.354-1.127,0.446-1.916,0.446-1.916
				s6.142-41.869,38.443-28.161c28.625,12.146,50.27,15.271,58.133,30.077h54.746c1.236-1.899,2.154-2.904,2.154-2.904
				c75.459-26.668,84.106-57.25,84.106-57.25C888.319,447.209,870.366,397.945,870.366,397.945z"/>
			<g>
				<path fill="#FFFFFF" d="M559.207,546.902l-6.503-2.381c0.074,0.813,0.188,1.592,0.3,2.381H559.207z"/>
			</g>
		</g>
		<path fill="#FBB040" d="M497.506,132.438c30.301-23.548,15.396-55.528,15.396-55.528c-24.019,43.324-75.86,20.304-75.86,20.304
			c-19.199-8.608-45.061-9.938-65.587-6.314c-22.303,3.825-42.679,15.904-52.392,37.373c-11.423,25.204-5.305,60.346,17.977,77.192
			c14.869,10.505,38.097,13.938,55.702,15.434c15.429,1.469,30.851,1.223,46.33,0.082
			c129.021-9.056,146.911-121.332,146.911-121.332C559.678,138.183,497.506,132.438,497.506,132.438z"/>
		<path fill="#FECA7A" d="M437.041,97.214c-19.198-8.608-45.06-9.938-65.586-6.314c-22.303,3.825-42.679,15.904-52.392,37.373
			c-11.423,25.204-5.305,60.346,17.976,77.192c-23.123-85.544,42.184-86.619,103.836-79.893
			c61.617,6.779,72.027-48.662,72.027-48.662C488.884,120.234,437.041,97.214,437.041,97.214z"/>
		<path fill="#FFFFFF" d="M712.127,93.105c-10.494-5.071-15.625,8.268-22.662,13.122c-8.965,6.596-19.943,9.971-30.918,11.35
			c-15.584,1.769-31.121-0.589-46.701-2.728c15.795-25.586,31.791-51.133,53.139-71.987c14.563-14.353,31.961-26.27,51.008-32.894
			h-60.219c-1.742,1.24-3.459,2.5-5.156,3.79c-27.875,21.21-49.764,49.159-71.401,76.697c-1.027,1.412-13.438-21.837-14.231-24.306
			c-2.864-9.631-3.62-20.569-2.528-30.417c0.977-8.96,3.578-17.728,7.562-25.764H542.01c-10.781,22.616-13.21,49.083-4.508,73.758
			c3.592,10.583,9.059,22.032,4.305,31.896c-4.203,8.649-14.107,12.105-23.298,14.801c-34.391,9.674-70.075,15.056-105.925,16.133
			c-24.537,0.566-67.454-5.242-65.348,32.923c1.915,30.135,30.471,28.492,52.337,28.492c14.293,0.046,28.336-1.641,42.278-4.458
			c16.423-3.407,32.324-8.161,48.071-13.583c26.318-9.056,51.995-19.895,78.468-28.251c6.076-2.158,12.572-4.037,18.811-5.756
			c2.437-0.595,4.695-1.226,7.138-1.813c26.237-6.23,53.164-8.922,79.582-14.693c20.854-4.641,32.211-13.38,43.127-31.89
			C719.579,102.158,717.485,95.655,712.127,93.105z"/>
		<path fill="#E4E5E6" d="M712.127,93.105c0,0-0.849,9.663-3.263,13.949c-2.418,4.295-32.383,32.665-87.54,25.968
			c-7.581-0.918-14.003-1.345-19.531-1.412l10.053-16.761c15.795-25.586,31.791-51.133,53.139-71.987
			c14.563-14.353,31.961-26.27,51.008-32.894h-27.453c-26.604,12.024-56.327,34.131-78.207,74.624
			c-13.18,24.379-33.848,43.862-57.858,57.692c-29.959,17.252-71.549,35.848-115.099,38.846l4.478,22.384
			c16.423-3.407,32.324-8.161,48.071-13.583c26.234-9.056,51.995-19.747,78.468-28.274v0.023c6.076-2.158,12.572-4.037,18.811-5.756
			c2.437-0.595,4.695-1.226,7.138-1.813c26.237-6.23,53.164-8.922,79.582-14.693c20.854-4.641,32.211-13.38,43.127-31.89
			C719.579,102.158,717.485,95.655,712.127,93.105z"/>
		<path fill="#71030D" d="M483.571,174.078c2.377-10.882,1.068-24.306-4.539-34.808c-18.651,41.334-62.897,13.052-92.076,7.853
			c-41.593-7.403-66.465,30.086-47.221,65.612c35.699,65.928,187.988,25.375,152.615-47.91
			C489.938,169.175,485.418,171.722,483.571,174.078z"/>
		<path fill="#FBB040" d="M656.047,219.609c11.123-14.6,10.342-35.07,0.479-50.013c-27.563,34.262-66.145,20.708-101.24,6.907
			c-42.6-16.59-64.34,5.948-80.022,22.657c-5.381,5.701-14.861,9.195-25.063,11.347c-19.05,3.758-39.947,2.771-39.947,2.771
			c-1.553,49.891-13.885,79.33-31.836,97.098c-5.401,5.672-11.729,10.181-18.202,13.819c-29.297,16.304-65.501,14.699-90.793,22.104
			c-48.532,13.999-58.22,43.271-55.068,64.001c3.334,20.742,29.938,31.023,44.322,50.163c14.597,18.931,7.066,54.096,7.066,54.096
			c15.176-12,17.073-29.334,14.43-56.522c-1.918-20.168-14.702-39.977-20.904-48.462c2.702,2.909,7.818,7.604,16.436,13.958
			c16.233,11.955,31.606,47.678,31.606,47.678c6.544-20.092-3.407-48.055-4.377-50.982c5.363,8.398,25.153,21.398,27.585,22.963
			c-14.211-12.635-10.468-36.914-10.468-36.914c15.767,6.272,32.738,29.38,40.035,45.789c7.505,16.642,34.578,20.47,34.578,20.47
			c-17.553-15.806-14.945-23.751-18.301-42.525c-3.559-19.04-13.083-27.017-13.083-27.017c27.082-3.955,35.667,14.727,35.667,14.727
			c28.586,61.233,78.741,58.289,82.897,57.871c-14.441-4.642-27.855-22.556-27.916-55.724c-0.064-29.065-5.326-42.414-6.544-45.162
			c-0.184-0.243-0.163-0.452-0.36-0.696c14.926-19.576,38.604-0.303,38.604-0.303c40.879,55.845,104.228,21.376,109.295,18.473
			c0.25-0.191,0.25-0.191,0.25-0.191c-31.75,4.984-53.449-8.463-60.302-36.943c-7.053-28.52-31.059-34.824-31.059-34.824
			s18.678-4.255,78.07,1.172c55.534,5.215,74.842-34.711,76.92-39.912c0.254-0.193,0.272-0.397,0.272-0.397
			c-24.227,19.438-56.471,9.425-73.094-7.159c-16.588-16.534-43.037-20.33-43.037-20.33c16.466-11.821,42.158-9.233,61.439-11.226
			C623.641,240.546,644.186,234.99,656.047,219.609z"/>
		<path fill="#FECA7A" d="M453.928,419.866c-0.064-29.065-5.326-42.414-6.544-45.162c-0.184-0.243-0.163-0.452-0.36-0.696
			c-16.923-31.32-50.856-53.686-68.605-63.633c-6.935-4.025-11.481-6.041-11.481-6.041l-7.739,19.309
			c0.397,0.272,0.811,0.528,1.02,0.553c37.735,29.982,52.56,69.916,72.727,109.393c19.45,37.92,46.55,41.753,48.902,42.003
			C467.403,470.948,453.989,453.034,453.928,419.866z"/>
		<path fill="#FECA7A" d="M534.87,355.042c-7.053-28.519-31.059-34.824-31.059-34.824c-44.887-23.149-93.559-21.762-93.559-21.762
			l-6.925,21.567c76.607,6.677,89.006,26.004,114.535,57.848c24.787,30.913,73.253,15.398,77.059,14.307
			c0.25-0.191,0.25-0.191,0.25-0.191C563.422,396.971,541.723,383.521,534.87,355.042z"/>
		<path fill="#FECA7A" d="M585.983,273.92c-16.588-16.534-43.037-20.33-43.037-20.33c-74.067-13.744-122.354,11.75-122.354,11.75
			l-6.703,23.549c42.16-19.013,122.876-8.445,166.257,10.834c41.1,18.172,75.014-14.734,78.658-18.246
			c0.254-0.193,0.272-0.397,0.272-0.397C634.85,300.518,602.606,290.504,585.983,273.92z"/>
		<path fill="#FECA7A" d="M555.286,176.503c-42.6-16.59-64.34,5.948-80.022,22.657c-5.381,5.701-14.861,9.195-25.063,11.347
			c-10.677,16.366-19.868,31.181-17.854,30.547c15.933-4.438,31.459-13.237,46.823-19.36c21.155-8.388,40.661-19.024,63.92-13.291
			c13.655,3.358,26.664,9.428,40.582,11.185c17.682,2.239,36.039-3.191,50.11-14.071c7.226-5.62,12.715-12.312,16.924-20.412
			c2.142-4.168,3.041-12.053,5.82-15.509C628.963,203.858,590.383,190.304,555.286,176.503z"/>
		<path fill="#F2633A" d="M470.897,224.137c7.92-13.781,22.996-25.747,22.996-25.747c-22.289-5.08-52.464,18.87-64.619,21.199
			c-12.171,2.335-23.854-15.398-23.854-15.398l-35.181-5.594c0,0,5.538-0.441,14.955,47.321
			c9.417,47.764-117.585,78.756-147.105,89.258c-29.54,10.499-37.433,40.797-37.695,59.988c-0.272,19.232,12.49,19.702,12.49,19.702
			s-3.936-14.166,3.3-13.39c7.232,0.803,28.551,15.068,28.551,15.068c-5.337-18.007-15.346-49.064-15.346-49.064
			s3.824,3.826,14.077,10.432c10.271,6.622,26.464,9.3,26.464,9.3c-10.979-8.521-19.975-35.88-19.975-35.88
			s11.478,4.738,21.839,10.438c10.366,5.729,22.36,21.695,22.36,21.695l-7.617-39.302c0,0,17.823,12.913,33.832,25.663
			c15.997,12.762,26.784,39.609,26.784,39.609s0.168-18.31-9.792-35.897c-9.992-17.601-4.986-38.111-4.986-38.111
			c16.088,3.597,34.926,32.222,54.146,49.015c19.209,16.74,32.878,9.084,32.878,9.084c-17.201-10.142-27.59-24.088-30.086-43.896
			c-2.505-19.804-12.537-26.769-12.537-26.769c33.583,11.029,32.869,0.865,52.354-1.57c19.5-2.439,35.6,9.398,35.6,9.398
			c-13.224-38.094-53.128-41.567-53.128-41.567c17.993,2.901,39.588-10.312,54.032-16.967c14.47-6.663,22.712-6.686,22.712-6.686
			c-6.058-11.664-16.611-15.576-33.012-13.795c-16.427,1.795-40.397-1.571-40.397-1.571
			C430.229,252.669,462.961,237.938,470.897,224.137z"/>
		<path fill="#BE1E2D" d="M465.565,182.384c-3.67,1.879-8.303,3.546-12.464,3.116c0.231-5.211,6.31-11.446,7.722-16.915
			c1.726-6.732,2.984-16.747-0.508-23.165c-4.854,4.821-7.922,11.088-13.454,15.57c-5.491,4.441-12.264,7.508-19.328,7.595
			c-6.663,0.104-13.03-2.422-19.386-4.461c-7.73-2.526-15.741-4.374-23.888-4.289c-8.105,0.078-16.383,2.184-22.893,7.02
			c-8.454,6.273-13.353,16.879-13.225,27.402c0.192,14.792,9.139,26.851,22.178,33.246c10.101,4.99,21.513,6.613,32.716,7.612
			c10.559,0.979,21.241,1.478,31.738-0.166c12.34-1.94,27.474-7.447,34.134-18.899c-2.666-1.124-5.864-2.056-8.151-3.674
			c5.146-4.635,10.141-8.068,13.287-14.626c2.694-5.556,5.825-16.918,1.87-22.602C476.334,175.759,466.555,181.902,465.565,182.384z
			"/>
		<path fill="#FFFFFF" d="M385.905,173.511c-11.461-1.263-21.746,7.026-23.002,18.466c-1.263,11.449,6.999,21.765,18.46,23.023
			c11.461,1.269,21.74-7.029,23.005-18.475C405.621,185.088,397.373,174.772,385.905,173.511z"/>
		<path fill="#71030D" d="M306.365,161.145c-18.775-1.231-25.616,5.001-25.616,5.001c-4.6,5.894,4.901,40.402,8.367,39.981
			l25.638-5.425C299.338,176.418,306.365,161.145,306.365,161.145z"/>
		<path fill="#71030D" d="M272.785,167.743l-25.017,3.436c-5.891,16.195,0.499,32.927,0.499,32.927
			c4.963,7.109,33.372,2.84,33.372,2.84C268.81,196.491,272.785,167.743,272.785,167.743z"/>
		<path fill="#71030D" d="M223.084,167.645c-5.407,0.651-10.394,16.131-10.394,16.131c5.971,9.285,25.193,17.551,25.193,17.551
			c-6.604-14.682,2.516-30.554,2.516-30.554L223.084,167.645z"/>
		<path fill="#E4E5E6" d="M564.984,66.15c-2.864-9.631-3.62-20.569-2.528-30.417c0.977-8.96,3.578-17.728,7.562-25.764H557.85
			c-9.293,19.639-12.293,49.527,11.673,91.792l9.692-11.304C578.188,91.868,565.779,68.618,564.984,66.15z"/>
		<path fill="#231F20" d="M385.986,180.203c-7.406-0.798-14.046,4.542-14.867,11.949c-0.798,7.412,4.551,14.06,11.947,14.855
			c7.401,0.822,14.047-4.504,14.842-11.905C398.732,187.693,393.381,181.022,385.986,180.203z"/>
		<path fill="#F79226" d="M205.884,216.46c-9.929-6.296-47.059-25.314-80.357-11.85c-29.938,11.853-56.886,51.533-119.199,20.14
			v7.049c19.153,12.335,43.538,16.889,65.491,10.284c20.809-6.166,38.439-20.726,59.084-27.33
			c20.666-6.619,42.914-4.208,62.257,5.083c2.481,1.145,4.687,2.684,6.936,4.011c5.256,3.381,10.152,6.096,16.743,1.379
			c3.299-2.442,5.041-4.618,5.966-7.127C218.353,219.336,211.725,220.35,205.884,216.46z"/>
	</g>
</g>
</svg>
