<?xml version="1.0" encoding="utf-8"?>
<!-- Generator: Adobe Illustrator 16.0.0, SVG Export Plug-In . SVG Version: 6.00 Build 0)  -->
<!DOCTYPE svg PUBLIC "-//W3C//DTD SVG 1.1//EN" "http://www.w3.org/Graphics/SVG/1.1/DTD/svg11.dtd">
<svg version="1.1" id="图层_1" xmlns="http://www.w3.org/2000/svg" xmlns:xlink="http://www.w3.org/1999/xlink" x="0px" y="0px"
	 width="906px" height="548px" viewBox="0 0 906 548" enable-background="new 0 0 906 548" xml:space="preserve">
<g>
	<rect x="0" y="0.571" fill="#F1D97A" width="906" height="547.429"/>
	<g>
		<g>
			<path fill="#F05722" d="M151.095,51.34C43.996,108.465,3.49,241.572,60.628,348.645
				c57.142,107.066,190.297,147.56,297.396,90.434C465.12,381.949,505.612,248.84,448.474,141.77
				C391.328,34.7,258.195-5.783,151.095,51.34z"/>
			<path fill="#A0C3FF" d="M162.612,72.928c-95.175,50.763-131.164,169.055-80.39,264.197
				c50.787,95.16,169.108,131.13,264.28,80.364c95.175-50.771,131.176-169.046,80.387-264.209
				C376.115,58.144,257.793,22.159,162.612,72.928z"/>
			<path fill="#A67C52" d="M167.728,82.512C77.852,130.453,43.873,242.161,91.821,332.008
				c47.957,89.859,159.685,123.826,249.563,75.887c89.872-47.938,123.867-159.631,75.91-249.494
				C369.345,68.556,257.603,34.571,167.728,82.512z"/>
			<path fill="#F89A3E" d="M368.652,202.896c-7.267,8.449-17.706,29.484-5.247,48.579c5.582,8.547,5.235,28.763-5.021,47.759
				c-10.234,18.959-37.923,50.798-108.367,51.013c-2.268,0.006-4.084,1.844-4.072,4.096c0.01,2.236,1.842,4.064,4.091,4.056
				c33.347-0.096,57.733-7.031,75.5-16.512c22.03-11.748,33.872-27.404,40.021-38.775c12.269-22.739,11.648-45.422,4.683-56.092
				c-12.208-18.692,3.906-37.995,4.606-38.811c1.452-1.715,1.252-4.295-0.451-5.746
				C372.675,200.997,370.128,201.178,368.652,202.896z"/>
			<path fill="#F89A3E" d="M359.39,199.88c-0.285,0.273-28.563,27.396-13.25,59.408c6.165,12.925,5.146,28.517-2.737,41.713
				c-7.503,12.563-27.856,34.004-79.695,36.507c-1.424,0.077-2.532,1.292-2.461,2.723c0.069,1.43,1.272,2.545,2.719,2.479
				c25.037-1.208,43.104-6.752,56.104-13.688c15.19-8.103,23.466-18.104,27.784-25.358c8.786-14.701,9.894-32.111,2.967-46.606
				c-13.64-28.562,11.081-52.389,12.146-53.38c1.03-0.994,1.086-2.629,0.098-3.678C362.091,198.951,360.486,198.88,359.39,199.88z"
				/>
			<path fill="#F89A3E" d="M343.007,206.046c-0.286,0.276-29.141,27.742-8.19,62.562c0.448,1.905,2.492,12.625-4.45,24.272
				c-8.073,13.544-24.872,23.192-49.945,28.712c-1.391,0.297-2.289,1.693-1.988,3.09c0.319,1.398,1.694,2.295,3.112,1.984
				c11.958-2.633,22.18-6.216,30.598-10.71c10.243-5.461,17.844-12.28,22.687-20.413c8.759-14.697,5.063-28.107,4.907-28.663
				l-0.095-0.334l-0.185-0.319c-19.099-31.292,6.027-55.361,7.102-56.377c1.046-0.969,1.107-2.623,0.135-3.669
				C345.698,205.135,344.115,205.068,343.007,206.046z"/>
			<path fill="#F89A3E" d="M304.418,248.106c-0.945,1.074-0.848,2.712,0.227,3.663c9.593,8.504,13.852,16.98,12.658,25.193
				c-2.363,16.313-25.175,27.129-25.384,27.265c-1.557,0.473-1.869,2.146-1.258,3.441c0.602,1.311,2.145,1.868,3.439,1.262
				c0.185-0.07,0.905-0.428,2.044-1.037c6.168-3.285,23.954-14.076,26.305-30.153c1.46-10.078-3.375-20.116-14.354-29.856
				C307.03,246.925,305.368,247.032,304.418,248.106z"/>
			<path fill="#F89A3E" d="M298.711,117.607c-2.259,0.249-3.86,2.249-3.606,4.491c2.357,21.555-15.334,39.897-32.813,47.742
				c-17.646,7.973-37.914,9.326-57.522,10.642l-6.785,0.46c-23.118,1.626-47.158,5.016-65.881,18.361
				c-14.119,10.053-22.529,23.791-24.344,39.738c-2.083,18.293,4.738,37.783,18.673,53.475c1.286,1.448,3.349,1.758,4.979,0.891
				c0.275-0.147,0.537-0.331,0.781-0.547c1.694-1.496,1.846-4.063,0.345-5.758c-12.403-13.964-18.479-31.136-16.669-47.127
				c1.527-13.597,8.801-25.355,20.965-34.035c17.964-12.802,41.295-15.413,61.729-16.864l6.757-0.466
				c20.321-1.347,41.342-2.743,60.33-11.333c19.983-9.081,40.365-30.481,37.562-56.067
				C302.973,118.985,300.96,117.362,298.711,117.607z"/>
			<path fill="#F89A3E" d="M309.482,125.958c-2.274,0.227-3.867,2.252-3.609,4.495c2.057,18.833-10.782,38.409-30.956,47.539
				c-18.498,8.372-37.441,12.857-62.067,14.625c-23.232,1.632-52.118,3.77-71.089,17.186c-12.885,9.179-20.127,20.002-21.505,32.163
				c-1.721,15.161,5.751,32.243,22.211,50.8c1.283,1.414,3.342,1.756,4.972,0.891c0.279-0.15,0.546-0.348,0.792-0.564
				c1.683-1.488,1.841-4.064,0.337-5.736c-14.852-16.741-21.648-31.707-20.213-44.465c1.12-9.771,7.225-18.667,18.143-26.441
				c17.107-12.139,44.744-14.13,67.63-15.756c24.941-1.779,44.729-6.482,64.146-15.262c23.859-10.833,38.193-33.225,35.701-55.865
				C313.735,127.323,311.728,125.713,309.482,125.958z"/>
			<path fill="#F89A3E" d="M320.491,127.231c-2.276,0.221-3.856,2.255-3.603,4.497c2.047,18.689-4.204,44.026-28.471,53.776
				c-18.309,7.387-40.206,13.176-65.049,17.229c-4.93,0.804-10.005,1.534-15.104,2.261c-17.881,2.568-36.358,5.225-50.176,11.299
				c-14.383,6.344-22.825,14.704-25.031,24.831c-3.633,16.683,10.473,34.97,21.397,47.271c1.276,1.439,3.348,1.766,4.975,0.894
				c0.276-0.146,0.54-0.331,0.786-0.546c1.688-1.503,1.835-4.074,0.347-5.756c-15.5-17.446-21.699-30.188-19.544-40.117
				c1.629-7.443,8.521-13.842,20.357-19.122c12.803-5.623,30.718-8.191,48.04-10.685c5.154-0.73,10.295-1.476,15.254-2.286
				c25.452-4.138,47.92-10.105,66.79-17.71c28.409-11.415,35.891-40.694,33.537-62.228
				C324.744,128.587,322.739,126.977,320.491,127.231z"/>
			<path fill="#F89A3E" d="M147.499,262.329c-0.666,2.153,0.559,4.436,2.716,5.086c3.854,1.178,14.469,5.642,17.16,12.06
				c0.997,2.362,0.764,4.852-0.755,7.789c-0.216,0.424-5.459,10.561-27.449,10.578c-2.243,0.004-4.075,1.825-4.079,4.083
				c0.009,2.245,1.838,4.064,4.084,4.071c11.032-0.016,18.768-2.344,24.077-5.18c8.026-4.278,10.559-9.696,10.667-9.937
				c2.564-4.911,2.909-9.946,0.976-14.562c-4.624-11.046-20.525-16.16-22.309-16.703
				C150.432,258.957,148.15,260.175,147.499,262.329z"/>
			<path fill="#F89A3E" d="M151.451,249.045c-2.234-0.221-4.229,1.402-4.469,3.629c-0.232,2.227,1.378,4.246,3.627,4.488
				c1.203,0.129,29.595,3.495,29.049,28.242c-0.156,1.062-4.005,25.632-35.781,23.205c-2.266-0.176-4.207,1.523-4.367,3.768
				c-0.175,2.236,1.513,4.203,3.753,4.361c11.238,0.865,19.67-1.172,25.995-4.539c15.969-8.522,18.458-25.592,18.516-26.15
				C188.37,259.84,164.291,250.386,151.451,249.045z"/>
			<path fill="#F89A3E" d="M154.738,239.437c-2.259-0.083-4.14,1.681-4.216,3.921c-0.089,2.249,1.675,4.129,3.918,4.233
				c0.219-0.006,21.708,0.954,32.755,13.774c5.245,6.096,7.359,14.1,6.264,23.787c-4.25,37.451-47.046,35.854-48.862,35.771
				c-2.237-0.096-4.167,1.629-4.266,3.878c-0.116,2.251,1.604,4.15,3.859,4.279c0.308,0,18.094,0.721,33.852-7.688
				c11.213-5.979,21.397-16.582,23.515-35.316c1.359-12.056-1.396-22.165-8.215-30.067
				C179.947,240.474,155.757,239.477,154.738,239.437z"/>
			<path fill="#F89A3E" d="M280.403,134.039c-21.204,5.789-34.713,24.764-35.276,25.564c-1.295,1.853-0.848,4.384,0.981,5.688
				c1.308,0.917,2.961,0.951,4.274,0.251c0.546-0.294,1.037-0.706,1.412-1.242c0.12-0.169,12.456-17.37,30.757-22.404
				c2.16-0.571,3.446-2.819,2.854-4.998C284.813,134.726,282.573,133.435,280.403,134.039z"/>
			<path fill="#F89A3E" d="M228.297,164.791c-1.083,1.988-0.362,4.451,1.623,5.525c1.252,0.688,2.697,0.647,3.882,0.019
				c0.669-0.359,1.261-0.908,1.645-1.638c0.23-0.402,22.208-40.136,52.029-37.587c2.255,0.181,4.216-1.476,4.407-3.718
				c0.193-2.233-1.476-4.221-3.71-4.411C253.089,120,229.279,162.968,228.297,164.791z"/>
			<path fill="#F89A3E" d="M211.895,166.275c-0.941,2.055-0.04,4.464,2.014,5.402c1.205,0.559,2.531,0.473,3.62-0.107
				c0.752-0.402,1.396-1.046,1.789-1.893c0.228-0.497,23.751-50.475,67.37-50.361c2.283-0.003,4.093-1.825,4.084-4.062
				c0.014-2.261-1.813-4.095-4.065-4.095C237.822,111.076,212.932,164.023,211.895,166.275z"/>
			<path fill="#F89A3E" d="M263.304,102.462c-40.2,12.201-63.927,59.825-64.921,61.826c-0.982,2.031-0.147,4.473,1.872,5.458
				c2.007,0.991,4.442,0.163,5.45-1.868c0.229-0.454,23.098-46.428,59.968-57.604c16-4.856,32.524-2.423,49.099,7.228
				c1.273,0.752,2.768,0.724,3.974,0.083c0.647-0.347,1.216-0.871,1.608-1.549c1.136-1.948,0.467-4.439-1.473-5.565
				C300.263,99.624,281.56,96.931,263.304,102.462z"/>
			<path fill="#F89A3E" d="M229.573,294.16c-0.141,0.146-15.493,14.68-34.485,16.057c-2.252,0.16-3.94,2.114-3.777,4.362
				c0.169,2.252,2.117,3.937,4.367,3.772c9.083-0.668,17.301-3.804,23.88-7.313c9.273-4.945,15.251-10.6,15.653-11.004
				c1.629-1.563,1.685-4.137,0.123-5.768C233.781,292.65,231.188,292.623,229.573,294.16z"/>
			<path fill="#F89A3E" d="M246.448,292.984c-0.294,0.354-29.505,35.107-58.276,26.884c-2.169-0.644-4.422,0.626-5.042,2.786
				c-0.617,2.169,0.635,4.436,2.802,5.049c13.45,3.835,26.547,0.222,37.551-5.65c16.646-8.875,28.453-22.893,29.241-23.863
				c1.449-1.729,1.2-4.293-0.537-5.729C250.462,291.014,247.869,291.264,246.448,292.984z"/>
			<path fill="#F89A3E" d="M262.298,295.438c-0.319,0.512-31.398,51.601-87.972,34.387c-2.148-0.65-4.436,0.566-5.085,2.712
				c-0.663,2.157,0.555,4.438,2.709,5.084c25.458,7.752,46.227,3.006,61.972-5.394c22.975-12.25,35.183-32.289,35.379-32.643
				c1.154-1.93,0.516-4.424-1.424-5.577C265.944,292.854,263.427,293.477,262.298,295.438z"/>
			<path fill="#F89A3E" d="M274.99,306.618c-0.304,0.411-31.586,41.121-69.935,44.989c-16.623,1.679-32.377-3.891-46.785-16.551
				c-1.697-1.488-4.308-1.326-5.753,0.371c-1.495,1.682-1.316,4.268,0.371,5.749c16.181,14.22,34.019,20.462,52.987,18.546
				c11.107-1.107,21.536-4.902,30.903-9.904c25.961-13.842,43.729-36.961,44.718-38.273c1.368-1.794,1.006-4.355-0.776-5.715
				C278.908,304.475,276.359,304.824,274.99,306.618z"/>
			<path fill="#F89A3E" d="M331.79,125.952c-2.116,0.589-3.415,2.884-2.805,5.034c4.897,17.106,3.146,31.841-5.18,43.781
				c-15.371,22.042-53.484,35.964-110.288,40.259c-39.488,3-56.415,14.244-57.145,14.713c-1.872,1.273-2.352,3.798-1.086,5.645
				c1.249,1.875,3.716,2.332,5.657,1.114c0.139-0.104,16.157-10.538,53.192-13.336c29.045-2.2,64.203-7.854,89.921-21.57
				c10.899-5.813,20.109-13.081,26.446-22.156c9.789-14.063,11.922-31.12,6.333-50.689
				C336.216,126.59,333.964,125.329,331.79,125.952z"/>
			<path fill="#F89A3E" d="M239.688,224.778c-0.138,0.239-14.774,22.54-39.543,22.199c-2.272-0.031-4.104,1.773-4.143,4.007
				c-0.027,2.255,1.771,4.12,4.02,4.135c9.514,0.141,17.7-2.454,24.42-6.043c13.933-7.43,21.641-19.162,22.11-19.883
				c1.215-1.89,0.669-4.42-1.221-5.626C243.435,222.336,240.934,222.867,239.688,224.778z"/>
			<path fill="#F89A3E" d="M259.266,221.361c-0.224,0.411-22.223,40.127-52.022,37.599c-2.226-0.184-4.198,1.463-4.41,3.709
				c-0.188,2.243,1.476,4.215,3.73,4.399c9.197,0.794,17.608-1.592,25.054-5.559c20.925-11.164,34.073-34.893,34.808-36.249
				c1.086-1.979,0.353-4.445-1.632-5.522C262.832,218.658,260.337,219.379,259.266,221.361z"/>
			<path fill="#F89A3E" d="M275.416,220.382c-0.219,0.503-23.688,50.478-67.389,50.361c-2.273-0.009-4.084,1.813-4.082,4.067
				c0,2.256,1.817,4.08,4.066,4.097c12.069,0.006,22.668-3.183,31.813-8.06c27.915-14.888,42.222-45.37,43.01-47.063
				c0.927-2.049,0.031-4.473-2.007-5.418C278.755,217.437,276.343,218.309,275.416,220.382z"/>
			<path fill="#F89A3E" d="M295.298,211.105c-34.363,84.834-84.76,73.029-86.886,72.489c-2.18-0.583-4.429,0.727-4.966,2.908
				c-0.57,2.172,0.725,4.387,2.892,4.973c1.341,0.336,19.501,4.813,41.773-7.064c17.802-9.497,38.227-29.435,54.742-70.252
				c0.85-2.086-0.166-4.448-2.25-5.304C298.514,207.995,296.139,209.022,295.298,211.105z"/>
			<path fill="#F89A3E" d="M343.903,178.013c-20.843,9.56-44.993,57.117-46.015,59.126c-1.021,1.997-0.222,4.458,1.783,5.467
				c2.004,1.031,4.452,0.227,5.483-1.789c6.61-12.989,27.136-48.266,42.243-55.429c12.839-6.059,31.131-1.129,39.138,10.553
				c7.297,10.661,3.763,23.693-9.958,36.713c-1.642,1.552-1.702,4.126-0.149,5.764c1.289,1.356,3.29,1.632,4.879,0.785
				c0.307-0.166,0.611-0.383,0.884-0.641c23.751-22.545,15.663-40.522,11.084-47.21
				C382.994,176.335,360.394,170.239,343.903,178.013z"/>
			<path fill="#F89A3E" d="M351.234,188.824c-12.729,5.967-38.101,48.125-40.918,52.901c-0.727,1.233-0.319,2.832,0.909,3.571
				c1.246,0.733,2.838,0.313,3.56-0.92c7.46-12.596,29.307-46.281,38.675-50.861c8.192-3.859,19.842-0.724,24.958,6.73
				c4.646,6.789,2.394,15.087-6.35,23.389c-1.04,0.985-1.089,2.626-0.089,3.672c0.816,0.859,2.102,1.034,3.105,0.497
				c0.202-0.107,0.396-0.236,0.567-0.408c15.119-14.364,9.967-25.819,7.048-30.086C376.163,187.75,361.74,183.854,351.234,188.824z"
				/>
			<path fill="#F89A3E" d="M344.594,156.704c-1.402-0.245-2.737,0.7-2.975,2.126c-0.242,1.415,0.712,2.758,2.121,2.991
				c0.331,0.055,8.325,1.497,8.811,7.817c0.109,1.433,1.364,2.509,2.795,2.399c0.361-0.027,0.712-0.129,1.019-0.297
				c0.884-0.47,1.458-1.424,1.372-2.488C356.927,158.836,345.091,156.784,344.594,156.704z"/>
			<path fill="#F89A3E" d="M346.714,141.908c-2.249-0.353-4.312,1.147-4.674,3.347c-0.377,2.224,1.13,4.325,3.335,4.697
				c0.716,0.117,17.342,3.089,18.385,16.532c0.166,2.233,2.136,3.917,4.379,3.749c0.58-0.062,1.123-0.208,1.604-0.469
				c1.388-0.74,2.273-2.249,2.146-3.912C370.349,146.009,347.687,142.064,346.714,141.908z"/>
			<g>
				<path fill="#829D40" d="M134.902,216.996l-5.741,2.39l3.75,4.918c4.605,6.065,11.084,10.403,18.415,12.372L201.44,250.1
					c7.142-4.138,9.528-10.903,5.662-21.094l-50.17-13.455C149.632,213.584,141.877,214.093,134.902,216.996z"/>
				<path fill="#59702A" d="M133.889,221.063c5.131,6.188,14.981,11.654,14.981,11.654c12.352-9.133,3.287-14.394,3.287-14.394
					C142.067,215.903,133.889,221.063,133.889,221.063z"/>
			</g>
			<g>
				<path fill="#829D40" d="M144.292,188.655l-6.005,1.543l2.988,5.402c3.72,6.654,9.504,11.869,16.497,14.854l47.703,20.397
					c7.65-3.086,10.978-9.452,8.592-20.088l-47.758-20.422C159.353,187.373,151.617,186.769,144.292,188.655z"/>
				<path fill="#59702A" d="M142.712,192.539c4.21,6.847,13.186,13.661,13.186,13.661c13.53-7.295,5.304-13.78,5.304-13.78
					C151.543,188.575,142.712,192.539,142.712,192.539z"/>
			</g>
			<path fill="#829D40" d="M215.059,190.195c-8.789,4.688-12.511,14.848-8.322,22.699c4.192,7.859,14.715,10.434,23.504,5.749
				c8.788-4.691,12.52-14.867,8.321-22.727C234.373,188.066,223.847,185.504,215.059,190.195z M228.279,214.971
				c-6.512,3.473-14.337,1.574-17.451-4.261c-3.108-5.826-0.332-13.382,6.184-16.854c6.527-3.485,14.337-1.577,17.448,4.252
				C237.571,203.939,234.805,211.489,228.279,214.971z"/>
			<path fill="#829D40" d="M228.886,232.362c-8.789,4.69-12.52,14.857-8.331,22.705c4.195,7.863,14.726,10.428,23.515,5.743
				c8.789-4.688,12.521-14.864,8.322-22.727C248.203,230.233,237.675,227.674,228.886,232.362z M242.118,257.147
				c-6.53,3.482-14.35,1.568-17.465-4.267c-3.104-5.826-0.341-13.373,6.188-16.855c6.527-3.482,14.349-1.583,17.458,4.246
				C251.41,246.103,248.642,253.668,242.118,257.147z"/>
			<path fill="#43591B" d="M265.517,161.106c-8.789,4.688-12.52,14.854-8.325,22.717c4.187,7.844,14.714,10.406,23.503,5.722
				c8.789-4.691,12.521-14.857,8.334-22.705C284.834,158.98,274.305,156.421,265.517,161.106z M278.74,185.882
				c-6.523,3.482-14.33,1.589-17.444-4.249c-3.115-5.835-0.351-13.385,6.177-16.864c6.53-3.482,14.34-1.574,17.452,4.258
				C288.038,174.865,285.267,182.403,278.74,185.882z"/>
			<path fill="#43591B" d="M250.1,178.473c-8.789,4.688-12.522,14.854-8.332,22.705c4.195,7.86,14.729,10.431,23.512,5.743
				c8.796-4.691,12.512-14.857,8.316-22.72C269.408,176.353,258.891,173.782,250.1,178.473z M263.329,203.258
				c-6.527,3.482-14.355,1.571-17.468-4.261c-3.111-5.829-0.334-13.382,6.196-16.867c6.516-3.473,14.324-1.564,17.434,4.258
				C272.609,192.223,269.844,199.782,263.329,203.258z"/>
			<path fill="#43591B" d="M274.695,272.336c-8.789,4.686-12.508,14.857-8.313,22.717c4.188,7.852,14.705,10.415,23.491,5.729
				c8.795-4.69,12.514-14.852,8.324-22.701C294.003,270.222,283.484,267.645,274.695,272.336z M287.921,297.117
				c-6.524,3.482-14.337,1.576-17.445-4.252c-3.115-5.832-0.353-13.391,6.171-16.873c6.53-3.481,14.343-1.561,17.455,4.273
				C297.213,286.089,294.451,293.636,287.921,297.117z"/>
			<path fill="#43591B" d="M283.87,203.037c-8.792,4.688-12.521,14.854-8.334,22.705c4.194,7.86,14.724,10.428,23.519,5.743
				c8.782-4.691,12.505-14.861,8.31-22.72C303.173,200.917,292.656,198.349,283.87,203.037z M297.096,227.822
				c-6.527,3.482-14.346,1.563-17.458-4.271c-3.104-5.823-0.344-13.373,6.183-16.854c6.516-3.476,14.34-1.577,17.449,4.252
				C306.385,216.781,303.611,224.346,297.096,227.822z"/>
			<path fill="#AA3B2F" d="M303.537,207.405c-8.788,4.685-12.504,14.854-8.313,22.717c4.188,7.851,14.705,10.412,23.494,5.725
				c8.786-4.688,12.52-14.854,8.331-22.702C322.855,205.283,312.323,202.718,303.537,207.405z M316.767,232.19
				c-6.53,3.482-14.331,1.567-17.439-4.258c-3.111-5.835-0.361-13.388,6.162-16.87c6.527-3.482,14.353-1.568,17.471,4.267
				C326.068,221.152,323.29,228.708,316.767,232.19z"/>
			<path fill="#AA3B2F" d="M312.868,268.391c-8.789,4.688-12.522,14.854-8.328,22.714c4.191,7.858,14.721,10.418,23.51,5.732
				c8.789-4.688,12.511-14.848,8.315-22.708C332.171,266.271,321.655,263.703,312.868,268.391z M326.089,293.166
				c-6.524,3.482-14.341,1.589-17.458-4.242c-3.112-5.839-0.337-13.389,6.188-16.87c6.524-3.482,14.331-1.568,17.442,4.264
				C335.375,282.152,332.615,289.688,326.089,293.166z"/>
			<path fill="#AA3B2F" d="M254.54,222.386c-8.789,4.69-12.505,14.86-8.308,22.72c4.187,7.851,14.702,10.415,23.494,5.728
				c8.789-4.688,12.508-14.845,8.319-22.696C273.854,220.275,263.329,217.698,254.54,222.386z M267.772,247.173
				c-6.529,3.482-14.34,1.574-17.447-4.249c-3.115-5.838-0.356-13.397,6.174-16.879c6.523-3.476,14.343-1.564,17.458,4.273
				C277.061,236.142,274.296,243.691,267.772,247.173z"/>
			<path fill="#829D40" d="M207.102,277.432c-8.792,4.688-12.521,14.854-8.332,22.705c4.192,7.859,14.728,10.428,23.513,5.742
				c8.788-4.688,12.508-14.863,8.313-22.72C226.406,275.313,215.89,272.744,207.102,277.432z M220.322,302.207
				c-6.526,3.482-14.334,1.574-17.448-4.262c-3.108-5.825-0.348-13.372,6.181-16.854c6.527-3.479,14.34-1.575,17.448,4.252
				C229.614,291.178,226.848,298.729,220.322,302.207z"/>
			<path fill="#FFFFFF" d="M201.627,237c-8.789,4.688-12.515,14.836-8.322,22.696c4.192,7.863,14.708,10.428,23.497,5.737
				c8.789-4.685,12.514-14.845,8.316-22.705C220.926,234.865,210.416,232.313,201.627,237z M214.85,261.776
				c-6.526,3.482-14.34,1.574-17.455-4.264c-3.11-5.832-0.34-13.37,6.185-16.852c6.529-3.482,14.333-1.586,17.451,4.249
				C224.142,250.748,221.374,258.294,214.85,261.776z"/>
			<path fill="#FFFFFF" d="M268.705,230.93c-8.789,4.69-12.509,14.863-8.311,22.723c4.188,7.847,14.705,10.418,23.494,5.728
				c8.789-4.688,12.523-14.854,8.329-22.705C288.023,228.816,277.494,226.245,268.705,230.93z M281.934,255.717
				c-6.527,3.482-14.34,1.58-17.452-4.249c-3.111-5.832-0.344-13.385,6.185-16.867c6.523-3.479,14.336-1.571,17.451,4.264
				C291.223,244.692,288.458,252.235,281.934,255.717z"/>
			<path fill="#FFFFFF" d="M231.863,291.911c-7.195,3.841-10.23,12.157-6.797,18.585c3.429,6.424,12.026,8.531,19.22,4.697
				c7.192-3.838,10.242-12.155,6.812-18.586C247.666,290.182,239.059,288.076,231.863,291.911z M242.686,312.202
				c-5.339,2.847-11.736,1.282-14.285-3.491c-2.544-4.771-0.275-10.939,5.066-13.79c5.339-2.853,11.73-1.298,14.279,3.474
				C250.29,303.167,248.031,309.35,242.686,312.202z"/>
			<path fill="#FFFFFF" d="M256.97,285.837c-7.187,3.835-10.237,12.161-6.809,18.588c3.428,6.418,12.044,8.517,19.228,4.685
				c7.193-3.838,10.24-12.156,6.815-18.574C272.774,284.105,264.163,282.002,256.97,285.837z M267.794,306.111
				c-5.333,2.845-11.729,1.289-14.272-3.479c-2.547-4.771-0.278-10.945,5.055-13.79c5.343-2.851,11.726-1.288,14.27,3.481
				S273.13,303.266,267.794,306.111z"/>
			<path fill="#FFFFFF" d="M229.988,206.682c-7.184,3.834-10.228,12.158-6.806,18.576c3.44,6.436,12.048,8.538,19.229,4.706
				c7.195-3.837,10.252-12.161,6.814-18.597C245.801,204.948,237.181,202.847,229.988,206.682z M240.805,226.957
				c-5.327,2.847-11.719,1.289-14.271-3.488c-2.541-4.761-0.279-10.946,5.054-13.79c5.339-2.847,11.738-1.282,14.277,3.479
				C248.418,217.938,246.151,224.11,240.805,226.957z"/>
			<path fill="#FFFFFF" d="M288.836,178.093c-8.789,4.688-12.523,14.851-8.334,22.702c4.194,7.86,14.727,10.431,23.515,5.746
				c8.789-4.691,12.517-14.87,8.319-22.729C308.147,175.96,297.623,173.402,288.836,178.093z M302.062,202.877
				c-6.523,3.482-14.354,1.568-17.467-4.268c-3.109-5.822-0.332-13.375,6.192-16.857c6.526-3.482,14.327-1.568,17.436,4.255
				C311.338,191.846,308.592,199.396,302.062,202.877z"/>
			<path fill="#829D40" d="M249.796,264.562c-8.789,4.688-12.508,14.86-8.316,22.708c4.189,7.852,14.705,10.426,23.497,5.74
				c8.786-4.688,12.505-14.857,8.316-22.708C269.104,262.451,258.582,259.874,249.796,264.562z M263.022,289.348
				c-6.529,3.481-14.343,1.563-17.452-4.259c-3.107-5.829-0.35-13.382,6.178-16.864c6.523-3.482,14.343-1.564,17.452,4.261
				C272.308,278.307,269.546,285.865,263.022,289.348z"/>
			<path fill="#829D40" d="M283.579,259.35c-8.786,4.688-12.509,14.848-8.322,22.699c4.195,7.859,14.711,10.424,23.5,5.736
				c8.786-4.688,12.52-14.854,8.325-22.714C302.893,257.221,292.367,254.662,283.579,259.35z M296.802,284.128
				c-6.515,3.474-14.331,1.567-17.439-4.271c-3.114-5.834-0.347-13.373,6.172-16.845c6.523-3.482,14.343-1.592,17.457,4.243
				C306.107,273.09,303.328,280.646,296.802,284.128z"/>
			<path fill="#829D40" d="M262.835,253.815c-8.792,4.69-12.518,14.863-8.328,22.714c4.188,7.851,14.72,10.422,23.509,5.732
				c8.789-4.685,12.518-14.866,8.329-22.714C282.152,251.702,271.623,249.128,262.835,253.815z M276.064,278.604
				c-6.526,3.481-14.354,1.57-17.47-4.254c-3.108-5.835-0.332-13.391,6.192-16.867c6.526-3.485,14.34-1.58,17.451,4.255
				C285.35,267.562,282.588,275.121,276.064,278.604z"/>
			<path fill="#829D40" d="M230.365,254.677c-8.789,4.688-12.512,14.857-8.319,22.708c4.188,7.848,14.711,10.424,23.5,5.736
				c8.785-4.688,12.511-14.863,8.325-22.714C249.679,252.558,239.151,249.99,230.365,254.677z M243.591,279.465
				c-6.527,3.479-14.328,1.568-17.442-4.27c-3.104-5.823-0.361-13.379,6.168-16.861c6.527-3.479,14.354-1.567,17.461,4.258
				C252.892,268.427,250.118,275.982,243.591,279.465z"/>
			<path fill="#829D40" d="M251.438,197.981c-10.61,5.66-15.106,17.922-10.044,27.408c5.054,9.473,17.75,12.569,28.354,6.909
				c10.6-5.651,15.101-17.913,10.044-27.387C274.726,195.426,262.034,192.33,251.438,197.981z M267.392,227.871
				c-7.887,4.206-17.307,1.902-21.051-5.121c-3.762-7.041-0.43-16.149,7.454-20.352c7.862-4.194,17.295-1.896,21.054,5.145
				C278.595,214.563,275.254,223.677,267.392,227.871z"/>
			<path fill="#5A7229" d="M297.354,232.942c-10.61,5.657-15.101,17.935-10.047,27.405c5.057,9.477,17.755,12.581,28.367,6.921
				c10.599-5.651,15.089-17.922,10.031-27.398C320.645,230.393,307.949,227.288,297.354,232.942z M313.311,262.841
				c-7.883,4.206-17.301,1.915-21.057-5.129c-3.759-7.043-0.423-16.14,7.46-20.343c7.861-4.197,17.301-1.911,21.057,5.129
				C324.532,249.542,321.173,258.65,313.311,262.841z"/>
			<path fill="#5A7229" d="M219.137,209.758c-10.608,5.664-15.11,17.925-10.047,27.411c5.057,9.473,17.749,12.566,28.356,6.909
				c10.612-5.657,15.104-17.919,10.051-27.398C242.437,207.197,229.742,204.107,219.137,209.758z M235.091,239.648
				c-7.877,4.203-17.298,1.893-21.045-5.124c-3.759-7.041-0.423-16.149,7.448-20.349c7.871-4.2,17.292-1.89,21.051,5.147
				C246.288,226.346,242.962,235.452,235.091,239.648z"/>
			<polygon fill="#43591B" points="174.623,167.938 194.351,162.799 191.497,151.832 171.766,156.986 			"/>
			<polygon fill="#43591B" points="209.293,380.441 229.027,375.316 226.177,364.346 206.439,369.493 			"/>
			<polygon fill="#43591B" points="166.089,131.938 178.222,148.316 187.327,141.576 175.194,125.197 			"/>
			<polygon fill="#43591B" points="282.447,99.802 294.565,116.19 303.676,109.466 291.557,93.081 			"/>
			
				<rect x="350.706" y="147.482" transform="matrix(0.5948 0.8039 -0.8039 0.5948 269.3579 -228.0627)" fill="#43591B" width="20.379" height="11.33"/>
			<polygon fill="#43591B" points="352.332,308.634 358.298,318.258 375.633,307.518 369.663,297.895 			"/>
			<polygon fill="#43591B" points="242.514,377.775 254.648,394.154 263.746,387.434 251.625,371.049 			"/>
			<polygon fill="#43591B" points="348.453,340.41 356.972,341.678 359.265,326.346 350.748,325.081 			"/>
			<polygon fill="#43591B" points="133.708,305.857 142.221,307.137 144.513,291.807 135.991,290.546 			"/>
			<polygon fill="#43591B" points="124.146,251.079 132.668,252.343 134.96,237.013 126.448,235.74 			"/>
			<polygon fill="#43591B" points="159.979,258.383 172.097,274.771 181.211,268.044 169.09,251.656 			"/>
			<polygon fill="#829D40" points="198.782,141.371 208.998,136.478 200.188,118.104 189.975,122.998 			"/>
			<polygon fill="#829D40" points="377.498,307.85 387.711,302.955 378.901,284.586 368.685,289.477 			"/>
			<polygon fill="#829D40" points="355.714,165.119 362.57,174.132 378.786,161.799 371.945,152.783 			"/>
			
				<rect x="285.06" y="362.612" transform="matrix(0.9017 -0.4324 0.4324 0.9017 -132.6077 162.3394)" fill="#829D40" width="11.323" height="20.39"/>
			
				<rect x="383.381" y="261.45" transform="matrix(0.9017 -0.4324 0.4324 0.9017 -79.2042 194.9067)" fill="#829D40" width="11.325" height="20.385"/>
			<polygon fill="#AA3B2F" points="228.082,355.041 238.307,350.139 229.503,331.766 219.284,336.658 			"/>
			<polygon fill="#AA3B2F" points="372.813,207.688 383.025,202.792 374.215,184.418 364.015,189.306 			"/>
			
				<rect x="160.275" y="306.836" transform="matrix(0.9018 -0.4322 0.4322 0.9018 -120.7233 102.8645)" fill="#AA3B2F" width="11.329" height="20.373"/>
			<polygon fill="#AA3B2F" points="280.468,138.871 290.683,133.978 281.87,115.604 271.654,120.5 			"/>
			
				<rect x="141.547" y="161.11" transform="matrix(0.9019 -0.432 0.432 0.9019 -59.5567 80.3989)" fill="#829D40" width="11.327" height="20.394"/>
			<polygon fill="#829D40" points="267.22,365.814 277.436,360.922 268.622,342.549 258.413,347.441 			"/>
			<g>
				<g>
					<path fill="#594A42" d="M185.882,0L55.908,408.706c-2.041,6.396,1.549,13.223,7.979,15.186
						c6.419,1.945,13.205-1.729,15.076-8.179L199.774,0H185.882z"/>
					<path fill="#808285" d="M192.863,0L65.185,419.605c3.996,1.215,8.243-1.053,9.485-5.146L195.1,0H192.863z"/>
				</g>
				<g>
					<path fill="#594A42" d="M167.05,0L27.922,400.239c-2.219,6.341,1.188,13.265,7.57,15.397c6.377,2.131,13.257-1.373,15.3-7.76
						L181.177,0H167.05z"/>
					<path fill="#808285" d="M174.147,0L36.916,411.389c3.956,1.321,8.246-0.83,9.604-4.873L176.483,0H174.147z"/>
				</g>
			</g>
		</g>
		<g>
			<path fill="#8B5E3C" d="M693.838,546.092c0.958-25.012-4.492-50.598-17.129-74.273c-38.01-71.223-126.593-98.158-197.848-60.154
				c-51.001,27.206-79.294,80.314-77.309,134.429L693.838,546.092L693.838,546.092z"/>
			<path fill="#C49A6C" d="M665.573,546.092c0.971-20.521-3.389-41.554-13.764-60.994c-30.681-57.483-102.159-79.207-159.659-48.539
				c-41.498,22.132-64.358,65.498-62.353,109.533H665.573z"/>
			<path fill="#754C29" d="M646.063,546.092c0.119-2.172,0.19-4.341,0.165-6.507c-0.006-5.461-0.515-10.995-1.58-16.474
				c-1.725-9.787-5.063-19.513-10.037-28.835c-4.978-9.326-11.201-17.518-18.366-24.387c-3.956-3.937-8.275-7.441-12.817-10.495
				c-4.952-3.404-10.266-6.381-15.739-8.813c-2.878-1.246-5.849-2.455-8.905-3.384c-4.127-1.411-8.42-2.482-12.856-3.378
				c-2.581-0.479-5.198-0.825-7.828-1.163c-3.77-0.328-7.497-0.536-11.303-0.487c-2.345-0.037-4.731,0.076-7.012,0.368
				c-3.489,0.227-6.877,0.65-10.348,1.325c-2.143,0.341-4.287,0.908-6.426,1.463c-3.201,0.768-6.391,1.775-9.482,2.958
				c-1.948,0.689-3.857,1.476-5.813,2.408c-2.176,0.923-4.3,1.943-6.39,3.062c-0.81,0.43-1.626,0.865-2.396,1.391
				c-1.896,1.009-3.658,2.062-5.373,3.209c-2.753,1.815-5.407,3.811-7.928,5.861c-1.699,1.375-3.415,2.749-4.982,4.166
				c-2.461,2.362-4.876,4.813-7.098,7.396c-1.52,1.735-2.989,3.574-4.314,5.441c-2.311,2.848-4.303,5.889-6.229,9.021
				c-1.275,2.189-2.411,4.424-3.548,6.646c-1.918,3.82-3.557,7.727-4.919,11.704c-0.933,2.819-1.735,5.694-2.535,8.558
				c-1.282,5.218-2.102,10.646-2.516,15.988c-0.334,4.313-0.454,8.617-0.196,12.955L646.063,546.092L646.063,546.092z"/>
			<g>
				<path fill="#603913" d="M467.452,546.092l-15.45-28.943c-1.283,5.218-2.103,10.646-2.517,15.988l6.907,12.955H467.452z"/>
				<path fill="#603913" d="M485.715,546.092l-26.26-49.205c-1.918,3.82-3.557,7.727-4.919,11.704l20.012,37.501H485.715z"/>
				<path fill="#603913" d="M503.851,546.092l-34.617-64.872c-2.311,2.848-4.303,5.889-6.229,9.021l29.809,55.853L503.851,546.092
					L503.851,546.092z"/>
				<path fill="#603913" d="M522.118,546.092l-41.474-77.711c-2.461,2.362-4.876,4.813-7.098,7.396l37.525,70.313L522.118,546.092
					L522.118,546.092z"/>
				<path fill="#603913" d="M540.38,546.092l-46.824-87.739c-2.753,1.816-5.407,3.812-7.927,5.862l43.694,81.877H540.38z"/>
				<path fill="#603913" d="M558.633,546.092l-50.918-95.398c-2.177,0.923-4.301,1.943-6.391,3.062
					c-0.81,0.43-1.626,0.865-2.396,1.39l48.537,90.948L558.633,546.092L558.633,546.092z"/>
				<path fill="#603913" d="M576.783,546.092l-53.774-100.766c-3.201,0.768-6.391,1.775-9.482,2.958l52.201,97.808H576.783z"/>
				<path fill="#603913" d="M595.046,546.092l-55.265-103.554c-3.488,0.227-6.877,0.649-10.348,1.325l54.558,102.229H595.046z"/>
				<path fill="#603913" d="M613.301,546.092l-55.205-103.435c-3.77-0.328-7.497-0.536-11.302-0.487l55.46,103.922H613.301z"/>
				<path fill="#603913" d="M631.557,546.092l-52.775-98.894c-4.127-1.411-8.42-2.482-12.856-3.378l54.579,102.271L631.557,546.092
					L631.557,546.092z"/>
				<path fill="#603913" d="M646.063,546.092c0.119-2.172,0.19-4.341,0.165-6.507l-42.802-80.189
					c-4.952-3.404-10.266-6.381-15.739-8.813l50.971,95.51L646.063,546.092L646.063,546.092z"/>
				<path fill="#603913" d="M644.648,523.111c-1.725-9.787-5.063-19.513-10.037-28.835c-4.978-9.326-11.201-17.518-18.366-24.387
					L644.648,523.111z"/>
			</g>
			<g>
				<path fill="#BCBEC0" d="M455.371,546.092h69.023c12.416-14.121,15.398-35.166,5.926-52.92
					c-12.171-22.803-40.292-31.556-62.813-19.545c-22.524,12.014-30.911,40.24-18.741,63.047
					C450.621,540.146,452.853,543.291,455.371,546.092z"/>
				<path fill="#F1F2F2" d="M461.979,546.092h49.093c18.879-12.563,25.384-37.848,14.351-58.521
					c-11.729-21.976-38.822-30.402-60.523-18.83c-21.693,11.574-29.782,38.768-18.053,60.742
					C450.561,536.453,455.828,542.052,461.979,546.092z"/>
				<path fill="#BE1E2D" d="M484.068,504.661c-2.133,1.135-2.939,3.798-1.802,5.927c1.136,2.136,3.799,2.939,5.929,1.804
					c2.133-1.138,2.952-3.801,1.813-5.933C488.865,504.326,486.199,503.522,484.068,504.661z"/>
				<g>
					<g>
						<path fill="#E6E7E8" d="M516.384,534.306c0,0,8.092-6.408,7.116-12.167l-30.394-8.891L516.384,534.306z"/>
						<path fill="#E6E7E8" d="M524.841,518.089c0,0,4.603-9.233,1.281-14.032l-31.287,4.809L524.841,518.089z"/>
					</g>
					<g>
						<polygon fill="#E6E7E8" points="489.369,546.092 485.191,517.469 476.154,546.092 						"/>
						<path fill="#E6E7E8" d="M469.295,546.092h2.375l8.924-29.635l-21.426,23.314C460.669,543.586,466.156,545.365,469.295,546.092
							z"/>
					</g>
					<g>
						<path fill="#E6E7E8" d="M447.931,495.693l30.386,8.899l-23.275-21.063C455.04,483.53,446.946,489.936,447.931,495.693z"/>
						<path fill="#E6E7E8" d="M445.295,513.781l31.3-4.819l-30.016-9.216C446.579,499.746,441.969,508.972,445.295,513.781z"/>
					</g>
					<g>
						<path fill="#E6E7E8" d="M481.696,469.313l4.538,31.06l9.534-30.199C491.528,466.16,481.696,469.313,481.696,469.313z"/>
						<path fill="#E6E7E8" d="M499.88,471.317l-9.043,30.052l21.416-23.303C510.112,472.624,499.88,471.317,499.88,471.317z"/>
					</g>
				</g>
			</g>
			<g>
				<path fill="#BCBEC0" d="M554.661,443.093c-22.523,12.011-30.911,40.234-18.739,63.041c12.176,22.815,40.301,31.567,62.82,19.554
					c22.53-12.02,30.92-40.242,18.74-63.059C605.317,439.823,577.196,431.073,554.661,443.093z"/>
				<path fill="#F1F2F2" d="M552.054,438.203c-21.692,11.568-29.784,38.765-18.058,60.742c11.729,21.979,38.834,30.408,60.523,18.84
					c21.705-11.578,29.785-38.777,18.054-60.755C600.849,435.056,573.752,426.628,552.054,438.203z"/>
				<path fill="#BE1E2D" d="M571.224,474.124c-2.133,1.135-2.939,3.795-1.802,5.924c1.139,2.146,3.8,2.954,5.932,1.816
					c2.143-1.146,2.955-3.801,1.808-5.945C576.024,473.786,573.365,472.979,571.224,474.124z"/>
				<g>
					<g>
						<path fill="#E6E7E8" d="M603.552,503.769c0,0,8.086-6.415,7.106-12.17l-30.39-8.896L603.552,503.769z"/>
						<path fill="#E6E7E8" d="M611.996,487.549c0,0,4.624-9.23,1.302-14.022l-31.311,4.799L611.996,487.549z"/>
					</g>
					<g>
						<path fill="#E6E7E8" d="M576.882,517.994l-4.538-31.065l-9.525,30.188C567.05,521.139,576.882,517.994,576.882,517.994z"/>
						<path fill="#E6E7E8" d="M558.705,515.976l9.045-30.056l-21.413,23.318C548.463,514.671,558.705,515.976,558.705,515.976z"/>
					</g>
					<g>
						<path fill="#E6E7E8" d="M535.087,465.157l30.383,8.896l-23.275-21.061C542.195,452.993,534.102,459.398,535.087,465.157z"/>
						<path fill="#E6E7E8" d="M532.456,483.232l31.298-4.796l-30.009-9.233C533.745,469.203,529.123,478.44,532.456,483.232z"/>
					</g>
					<g>
						<path fill="#E6E7E8" d="M568.861,438.768l4.539,31.06l9.525-30.19C578.69,435.614,568.861,438.768,568.861,438.768z"/>
						<path fill="#E6E7E8" d="M587.035,440.777l-9.04,30.063l21.423-23.322C597.28,442.09,587.035,440.777,587.035,440.777z"/>
					</g>
				</g>
			</g>
			<g>
				<path fill="#BCBEC0" d="M644.884,546.092c-13.876-16.597-37.721-21.88-57.329-11.422c-5.514,2.939-10.172,6.857-13.897,11.422
					H644.884z"/>
				<path fill="#F1F2F2" d="M644.006,546.092c-12.397-20.072-38.229-27.426-59.058-16.312c-7.346,3.918-13.121,9.627-17.104,16.312
					H644.006z"/>
				<g>
					<g>
						<path fill="#E6E7E8" d="M611.118,546.092l4.687-14.873c-4.237-4.021-14.062-0.868-14.062-0.868l2.3,15.741H611.118
							L611.118,546.092z"/>
						<path fill="#E6E7E8" d="M625.886,546.092l6.413-6.988c-2.137-5.43-12.383-6.742-12.383-6.742l-4.127,13.73H625.886
							L625.886,546.092z"/>
					</g>
				</g>
			</g>
		</g>
		<g>
			<path fill="#8B5E3C" d="M604.513,102.692c-71.245,37.998-98.187,126.557-60.177,197.779
				c38.015,71.237,126.598,98.174,197.84,60.172c71.255-38.006,98.201-126.56,60.183-197.796
				C764.341,91.62,675.767,64.685,604.513,102.692z"/>
			<path fill="#C49A6C" d="M617.797,127.584c-57.488,30.666-79.248,102.134-48.571,159.611
				c30.687,57.498,102.175,79.218,159.663,48.552c57.504-30.672,79.255-102.121,48.563-159.624
				C746.784,118.651,675.301,96.915,617.797,127.584z"/>
			<path fill="#754C29" d="M729.078,150.421c-4.946-3.393-10.268-6.381-15.741-8.811c-2.88-1.246-5.85-2.458-8.905-3.384
				c-4.121-1.399-8.424-2.482-12.858-3.381c-2.577-0.479-5.198-0.819-7.831-1.16c-3.762-0.316-7.492-0.54-11.299-0.488
				c-2.355-0.031-4.734,0.077-7.023,0.368c-3.475,0.239-6.873,0.638-10.339,1.325c-2.142,0.341-4.286,0.902-6.426,1.466
				c-3.2,0.767-6.383,1.771-9.484,2.951c-1.942,0.697-3.853,1.476-5.807,2.409c-2.179,0.923-4.306,1.936-6.397,3.052
				c-0.805,0.43-1.626,0.865-2.395,1.402c-1.891,1.006-3.646,2.071-5.37,3.209c-2.743,1.825-5.399,3.823-7.927,5.863
				c-1.699,1.374-3.415,2.749-4.974,4.178c-2.469,2.347-4.884,4.801-7.113,7.387c-1.51,1.73-2.983,3.565-4.309,5.436
				c-2.312,2.847-4.294,5.903-6.232,9.01c-1.276,2.2-2.406,4.436-3.538,6.672c-1.924,3.808-3.563,7.709-4.929,11.688
				c-0.938,2.822-1.73,5.694-2.528,8.556c-1.282,5.222-2.099,10.667-2.517,16.005c-0.345,4.359-0.451,8.719-0.202,13.124
				c0.878,13.833,4.548,27.684,11.504,40.713c6.96,13.041,16.424,23.804,27.425,32.233c3.526,2.658,7.209,4.997,11.029,7.15
				c4.664,2.623,9.636,4.971,14.681,6.801c2.829,0.941,5.655,1.882,8.527,2.673c4.068,1.096,8.218,1.896,12.462,2.43
				c2.479,0.295,4.965,0.599,7.503,0.759c3.674,0.141,7.298,0.168,10.958-0.15c2.296-0.063,4.637-0.258,6.917-0.549
				c3.391-0.412,6.77-1.054,10.103-1.779c2.048-0.516,4.148-1.18,6.238-1.819c3.105-0.95,6.245-2.046,9.279-3.329
				c1.915-0.771,3.769-1.652,5.662-2.662c0.864-0.35,1.685-0.789,2.498-1.215c2.087-1.117,4.114-2.313,6.098-3.604
				c1.856-1.114,3.571-2.252,5.231-3.498c2.71-1.898,5.313-3.994,7.738-6.213c1.654-1.463,3.317-2.932,4.787-4.536
				c2.504-2.491,4.738-5.071,6.861-7.836c1.513-1.748,2.928-3.662,4.22-5.626c2.157-3.129,4.06-6.342,5.886-9.654
				c1.186-2.371,2.356-4.743,3.389-7.16c1.729-4.175,3.23-8.333,4.359-12.547c0.932-3.056,1.577-6.194,2.144-9.29
				c1.029-5.89,1.516-11.955,1.444-17.978c-0.007-5.46-0.519-10.998-1.584-16.471c-1.722-9.79-5.06-19.515-10.037-28.841
				c-4.977-9.326-11.197-17.517-18.368-24.386C737.936,156.983,733.615,153.477,729.078,150.421z"/>
			<g>
				<path fill="#603913" d="M613.863,310.248l-38.929-72.947c0.878,13.833,4.548,27.684,11.504,40.713
					C593.398,291.057,602.862,301.816,613.863,310.248z"/>
				<path fill="#603913" d="M624.892,317.398c4.664,2.623,9.636,4.971,14.681,6.802l-61.92-116.028
					c-1.282,5.222-2.099,10.667-2.517,16.005L624.892,317.398z"/>
				<path fill="#603913" d="M648.1,326.872c4.068,1.096,8.218,1.896,12.462,2.43L585.11,187.928
					c-1.924,3.808-3.563,7.709-4.929,11.688L648.1,326.872z"/>
				<path fill="#603913" d="M668.065,330.061c3.674,0.142,7.298,0.168,10.958-0.15L594.88,172.245
					c-2.312,2.847-4.293,5.903-6.232,9.01L668.065,330.061z"/>
				<path fill="#603913" d="M685.94,329.359c3.391-0.41,6.771-1.053,10.104-1.778l-89.74-168.159
					c-2.468,2.347-4.883,4.801-7.113,7.387L685.94,329.359z"/>
				<path fill="#603913" d="M702.281,325.762c3.105-0.951,6.245-2.046,9.279-3.328l-92.357-173.053
					c-2.742,1.825-5.399,3.823-7.927,5.863L702.281,325.762z"/>
				<path fill="#603913" d="M624.573,146.172l92.649,173.6c0.865-0.351,1.685-0.789,2.498-1.215
					c2.087-1.117,4.114-2.313,6.098-3.604l-92.453-173.233c-2.179,0.923-4.306,1.936-6.397,3.052
					C626.161,145.2,625.34,145.635,624.573,146.172z"/>
				<path fill="#603913" d="M731.049,311.453c2.71-1.898,5.313-3.994,7.738-6.212l-90.133-168.883
					c-3.2,0.767-6.383,1.771-9.484,2.951L731.049,311.453z"/>
				<path fill="#603913" d="M743.574,300.704c2.504-2.491,4.738-5.071,6.861-7.836l-85.018-159.302
					c-3.475,0.239-6.873,0.638-10.339,1.325L743.574,300.704z"/>
				<path fill="#603913" d="M754.656,287.242c2.157-3.129,4.061-6.342,5.886-9.654l-76.8-143.902
					c-3.762-0.316-7.493-0.54-11.299-0.488L754.656,287.242z"/>
				<path fill="#603913" d="M763.93,270.428c1.729-4.175,3.23-8.333,4.359-12.547l-63.857-119.654
					c-4.121-1.399-8.424-2.482-12.858-3.381L763.93,270.428z"/>
				<path fill="#603913" d="M770.433,248.591c1.03-5.89,1.516-11.955,1.445-17.978l-42.8-80.192
					c-4.946-3.393-10.268-6.381-15.741-8.811L770.433,248.591z"/>
				<path fill="#603913" d="M770.294,214.143c-1.723-9.79-5.061-19.515-10.037-28.841c-4.978-9.326-11.198-17.517-18.369-24.386
					L770.294,214.143z"/>
			</g>
			<g>
				<path fill="#BCBEC0" d="M624.809,175.853c-2.643-1.635-6.268-1.037-9.225-1.942c-2.955-0.899-5.655-2.709-8.759-2.822
					c-3.07-0.107-6.334-0.384-9.387,0.331c-2.949,0.69-5.803,2.264-8.602,3.758c-2.803,1.497-4.801,3.942-7.021,6.013
					c-2.289,2.135-3.982,4.531-5.597,7.136c-1.633,2.642-2.962,5.231-3.857,8.197c-0.904,2.945-2.974,5.789-3.084,8.896
					c-0.102,3.071,0.768,6.258,1.471,9.311c0.688,2.954,2.896,5.372,4.385,8.173c1.498,2.801,3.06,5.233,5.128,7.445
					c2.136,2.295,4.554,3.896,7.159,5.504c2.627,1.641,5.226,2.804,8.185,3.7c2.958,0.899,5.729,2.23,8.837,2.328
					c3.061,0.107,6.211,0.282,9.269-0.42c2.951-0.69,6.058-1.586,8.858-3.077c2.802-1.497,4.296-4.592,6.519-6.663
					c2.293-2.132,4.379-4.132,5.989-6.734c1.651-2.639,3.913-4.961,4.813-7.921c0.896-2.954,2.354-6.083,2.471-9.182
					c0.104-3.077-1.693-6.157-2.409-9.204c-0.688-2.954-1.436-5.988-2.928-8.789c-1.494-2.798-3.759-4.937-5.824-7.151
					C629.053,180.452,627.413,177.482,624.809,175.853z"/>
				<g>
					<path fill="#FEC46D" d="M622.13,169.509c-2.646-1.635-6.271-1.04-9.229-1.936c-2.949-0.89-5.648-2.712-8.758-2.829
						c-3.075-0.104-6.318-0.38-9.381,0.331c-2.955,0.688-5.808,2.267-8.608,3.758c-2.802,1.494-4.799,3.945-7.018,6.013
						c-2.292,2.132-3.983,4.531-5.599,7.136c-1.636,2.645-2.958,5.246-3.859,8.2c-0.902,2.945-2.967,5.789-3.084,8.891
						c-0.102,3.074,0.771,6.262,1.474,9.326c0.693,2.951,2.902,5.356,4.397,8.154c1.491,2.801,3.044,5.237,5.111,7.452
						c2.143,2.307,4.555,3.893,7.159,5.507c2.636,1.653,5.227,2.801,8.189,3.709c2.952,0.887,5.724,2.221,8.842,2.325
						c3.05,0.102,6.207,0.286,9.264-0.417c2.952-0.693,6.053-1.599,8.854-3.092c2.802-1.494,4.305-4.593,6.518-6.654
						c2.306-2.147,4.379-4.138,6.002-6.728c1.648-2.642,3.903-4.976,4.8-7.927c0.899-2.96,2.356-6.09,2.472-9.194
						c0.104-3.071-1.691-6.151-2.403-9.197c-0.689-2.954-1.439-5.985-2.934-8.786c-1.495-2.801-3.756-4.942-5.824-7.154
						C626.38,174.102,624.74,171.135,622.13,169.509z"/>
					<path fill="#FFE8CF" d="M624.253,180.412c-0.716-0.767-1.365-1.598-2.022-2.438c-1.067-1.362-2.077-2.651-3.237-3.375
						c-0.893-0.561-2.301-0.678-3.773-0.822c-1.289-0.114-2.63-0.23-3.972-0.647c-1.039-0.316-2.063-0.755-3.067-1.184
						c-1.482-0.626-2.885-1.23-4.201-1.27l-1.209-0.056c-2.256-0.089-4.578-0.178-6.613,0.279c-2.001,0.476-4.051,1.513-6.3,2.715
						l-0.874,0.463c-1.541,0.822-2.849,2.129-4.231,3.531c-0.527,0.515-1.047,1.024-1.574,1.531
						c-1.979,1.847-3.391,3.939-4.641,5.933c-1.556,2.513-2.55,4.608-3.216,6.805c-0.332,1.12-0.832,2.211-1.341,3.301
						c-0.663,1.476-1.305,2.872-1.354,4.099c-0.06,2.12,0.503,4.519,1.062,6.832l0.221,0.933c0.299,1.31,1.177,2.641,2.091,4.046
						c0.567,0.887,1.156,1.779,1.656,2.724c1.452,2.715,2.72,4.568,4.231,6.209c1.765,1.883,3.83,3.212,5.963,4.54
						c2.157,1.341,4.324,2.313,6.8,3.08c0.766,0.23,1.51,0.482,2.259,0.749c1.769,0.617,3.438,1.206,5.085,1.255l0.616,0.021
						c2.518,0.095,4.89,0.187,7.113-0.337c2.157-0.519,4.95-1.258,7.381-2.556c1.099-0.583,2.028-1.749,3.001-2.982
						c0.761-0.933,1.516-1.877,2.356-2.672c1.811-1.684,3.677-3.427,5.005-5.571c0.51-0.813,1.083-1.604,1.647-2.387
						c1.037-1.426,2.008-2.773,2.435-4.178c0.229-0.758,0.5-1.525,0.782-2.31c0.663-1.905,1.281-3.7,1.341-5.338
						c0.04-1.264-0.494-2.749-1.063-4.329c-0.401-1.117-0.798-2.23-1.059-3.335c-0.65-2.834-1.249-5.172-2.396-7.329
						c-0.967-1.804-2.431-3.332-3.965-4.933L624.253,180.412z"/>
					<path fill="#BE1E2D" d="M599.375,192.907c-4.071,2.172-5.621,7.228-3.435,11.32c2.173,4.071,7.242,5.611,11.313,3.439
						c4.084-2.178,5.628-7.246,3.454-11.314C608.524,192.26,603.46,190.729,599.375,192.907z"/>
					<path fill="#43591B" d="M589.331,182.191c-3.462,1.847-4.769,6.139-2.928,9.581c1.852,3.47,6.145,4.776,9.604,2.933
						c3.456-1.847,4.771-6.142,2.919-9.614C597.09,181.651,592.786,180.351,589.331,182.191z"/>
					<path fill="#43591B" d="M589.954,205.758c-3.459,1.847-4.766,6.142-2.925,9.599c1.846,3.454,6.142,4.761,9.6,2.914
						c3.455-1.844,4.763-6.135,2.918-9.59C597.705,205.224,593.406,203.917,589.954,205.758z"/>
					<path fill="#43591B" d="M611.247,204.706c-3.454,1.847-4.756,6.147-2.918,9.596c1.852,3.464,6.146,4.771,9.604,2.927
						c3.456-1.844,4.763-6.139,2.909-9.602C619.003,204.178,614.706,202.865,611.247,204.706z"/>
					<path fill="#43591B" d="M610.966,181.771c-3.455,1.847-4.764,6.139-2.921,9.596c1.844,3.454,6.137,4.761,9.599,2.917
						c3.458-1.847,4.763-6.139,2.918-9.593C618.718,181.234,614.424,179.927,610.966,181.771z"/>
				</g>
			</g>
			<g>
				<path fill="#BCBEC0" d="M705.916,131.888c-2.646-1.647-6.27-1.043-9.222-1.942c-2.961-0.899-5.662-2.721-8.768-2.838
					c-3.065-0.092-6.321-0.362-9.378,0.344c-2.952,0.688-5.804,2.267-8.604,3.758c-2.811,1.5-4.809,3.936-7.018,6.013
					c-2.306,2.142-3.983,4.543-5.602,7.136c-1.649,2.632-2.958,5.243-3.872,8.191c-0.891,2.951-2.971,5.795-3.068,8.9
					c-0.11,3.062,0.755,6.265,1.474,9.326c0.69,2.948,2.884,5.347,4.385,8.157c1.494,2.801,3.061,5.246,5.135,7.464
					c2.13,2.289,4.545,3.881,7.146,5.492c2.639,1.653,5.234,2.81,8.189,3.697c2.952,0.902,5.721,2.233,8.832,2.344
					c3.07,0.104,6.217,0.279,9.271-0.439c2.955-0.687,6.045-1.577,8.856-3.074c2.805-1.497,4.302-4.596,6.518-6.66
					c2.289-2.147,4.385-4.136,6.002-6.728c1.643-2.645,3.9-4.973,4.8-7.927c0.899-2.957,2.359-6.086,2.475-9.188
					c0.109-3.062-1.707-6.148-2.412-9.212c-0.688-2.955-1.435-5.973-2.925-8.774c-1.494-2.795-3.763-4.952-5.833-7.167
					C710.152,136.472,708.513,133.502,705.916,131.888z"/>
				<g>
					<path fill="#FEC46D" d="M703.24,125.544c-2.645-1.635-6.274-1.046-9.227-1.942c-2.962-0.896-5.659-2.721-8.759-2.825
						c-3.071-0.107-6.33-0.375-9.381,0.34c-2.955,0.681-5.813,2.255-8.61,3.749c-2.802,1.497-4.8,3.942-7.019,6.013
						c-2.299,2.15-3.979,4.541-5.595,7.148c-1.645,2.635-2.974,5.237-3.866,8.179c-0.896,2.964-2.974,5.789-3.081,8.903
						c-0.109,3.059,0.762,6.274,1.479,9.32c0.688,2.954,2.896,5.359,4.392,8.16c1.501,2.807,3.052,5.246,5.122,7.461
						c2.129,2.292,4.544,3.881,7.155,5.504c2.631,1.641,5.229,2.801,8.182,3.69c2.958,0.908,5.724,2.227,8.832,2.344
						c3.071,0.104,6.218,0.276,9.271-0.438c2.955-0.69,6.055-1.571,8.866-3.068c2.798-1.497,4.296-4.602,6.509-6.669
						c2.289-2.147,4.394-4.124,6.002-6.725c1.646-2.648,3.903-4.973,4.803-7.934c0.901-2.951,2.362-6.071,2.474-9.185
						c0.106-3.059-1.69-6.154-2.415-9.216c-0.688-2.948-1.422-5.958-2.925-8.768c-1.49-2.801-3.757-4.942-5.823-7.16
						C707.47,130.133,705.83,127.161,703.24,125.544z"/>
					<path fill="#FFE8CF" d="M705.346,136.438c-0.696-0.764-1.365-1.595-2.004-2.43c-1.074-1.365-2.077-2.654-3.243-3.381
						c-0.884-0.546-2.296-0.678-3.771-0.816c-1.295-0.126-2.633-0.243-3.971-0.65c-1.04-0.319-2.057-0.743-3.063-1.178
						c-1.488-0.641-2.9-1.23-4.215-1.279l-1.198-0.049c-2.263-0.092-4.602-0.19-6.616,0.279c-2.01,0.46-4.051,1.51-6.315,2.718
						l-0.861,0.457c-1.547,0.828-2.843,2.142-4.235,3.519c-0.521,0.53-1.03,1.049-1.577,1.534c-1.97,1.853-3.385,3.951-4.621,5.952
						c-1.564,2.491-2.56,4.599-3.219,6.804c-0.354,1.104-0.838,2.193-1.341,3.295c-0.676,1.46-1.312,2.865-1.363,4.096
						c-0.061,2.11,0.507,4.519,1.063,6.835l0.227,0.942c0.295,1.297,1.166,2.617,2.087,4.037c0.564,0.883,1.153,1.776,1.657,2.712
						c1.445,2.712,2.722,4.58,4.226,6.209c1.771,1.89,3.833,3.239,5.976,4.562c2.15,1.341,4.302,2.307,6.8,3.068
						c0.762,0.23,1.507,0.494,2.256,0.761c1.765,0.607,3.434,1.184,5.078,1.246l0.626,0.028c2.508,0.083,4.873,0.159,7.102-0.359
						c2.169-0.494,4.959-1.233,7.394-2.531c1.099-0.586,2.023-1.758,3.004-2.988c0.749-0.951,1.497-1.877,2.351-2.666
						c1.806-1.697,3.67-3.448,5.012-5.574c0.496-0.822,1.07-1.611,1.639-2.399c1.028-1.436,2.001-2.78,2.434-4.172
						c0.23-0.758,0.494-1.537,0.769-2.322c0.669-1.905,1.298-3.688,1.355-5.338c0.043-1.243-0.491-2.743-1.059-4.316
						c-0.402-1.117-0.802-2.23-1.061-3.338c-0.665-2.826-1.264-5.163-2.418-7.329c-0.963-1.81-2.415-3.334-3.955-4.945
						L705.346,136.438z"/>
					<path fill="#BE1E2D" d="M680.478,148.927c-4.069,2.169-5.609,7.252-3.434,11.323c2.175,4.081,7.244,5.617,11.315,3.448
						c4.085-2.178,5.625-7.243,3.443-11.326C689.635,148.304,684.562,146.749,680.478,148.927z"/>
					<path fill="#43591B" d="M670.431,138.214c-3.462,1.844-4.763,6.136-2.912,9.603c1.838,3.445,6.134,4.752,9.59,2.905
						c3.455-1.838,4.771-6.139,2.938-9.584C678.192,137.665,673.886,136.37,670.431,138.214z"/>
					<path fill="#43591B" d="M671.063,161.793c-3.461,1.847-4.769,6.139-2.921,9.593c1.844,3.455,6.144,4.773,9.602,2.93
						c3.455-1.847,4.761-6.145,2.915-9.602C678.811,161.253,674.522,159.95,671.063,161.793z"/>
					<path fill="#43591B" d="M692.357,160.738c-3.456,1.847-4.771,6.145-2.925,9.612c1.842,3.442,6.146,4.743,9.604,2.902
						c3.455-1.844,4.76-6.139,2.921-9.583C700.111,160.201,695.815,158.894,692.357,160.738z"/>
					<path fill="#43591B" d="M692.073,137.806c-3.456,1.844-4.766,6.136-2.919,9.593c1.852,3.467,6.145,4.774,9.6,2.927
						c3.455-1.844,4.763-6.132,2.916-9.605C699.824,137.266,695.531,135.959,692.073,137.806z"/>
				</g>
			</g>
			<g>
				<path fill="#BCBEC0" d="M694.49,206.491c-2.637-1.635-6.254-1.034-9.219-1.945c-2.949-0.884-5.661-2.703-8.767-2.816
					c-3.063-0.11-6.318-0.383-9.389,0.328c-2.949,0.69-5.806,2.267-8.602,3.761c-2.802,1.494-4.802,3.945-7.019,6.01
					c-2.289,2.135-3.978,4.528-5.601,7.139c-1.633,2.638-2.955,5.243-3.857,8.197c-0.904,2.945-2.971,5.792-3.084,8.894
					c-0.095,3.067,0.769,6.258,1.478,9.323c0.687,2.951,2.896,5.356,4.391,8.157c1.498,2.801,3.054,5.246,5.115,7.452
					c2.151,2.294,4.551,3.893,7.153,5.506c2.65,1.642,5.237,2.813,8.195,3.709c2.949,0.89,5.725,2.228,8.835,2.329
					c3.061,0.107,6.211,0.279,9.279-0.43c2.952-0.687,6.04-1.586,8.841-3.08c2.803-1.497,4.315-4.599,6.52-6.66
					c2.302-2.141,4.382-4.135,6.005-6.737c1.647-2.629,3.913-4.97,4.814-7.915c0.896-2.966,2.352-6.096,2.454-9.191
					c0.107-3.062-1.689-6.154-2.401-9.204c-0.693-2.954-1.425-5.979-2.926-8.789c-1.49-2.798-3.768-4.933-5.836-7.151
					C698.74,211.087,697.094,208.117,694.49,206.491z"/>
				<g>
					<path fill="#FEC46D" d="M691.804,200.15c-2.63-1.641-6.251-1.037-9.215-1.945c-2.949-0.89-5.659-2.706-8.766-2.822
						c-3.063-0.107-6.317-0.375-9.378,0.344c-2.961,0.678-5.803,2.251-8.613,3.752c-2.802,1.491-4.797,3.939-7.019,6.01
						c-2.283,2.144-3.971,4.537-5.594,7.148c-1.64,2.629-2.961,5.23-3.863,8.185c-0.898,2.955-2.971,5.789-3.081,8.894
						c-0.096,3.064,0.771,6.267,1.482,9.317c0.678,2.957,2.891,5.362,4.385,8.16c1.504,2.816,3.047,5.252,5.118,7.467
						c2.147,2.285,4.555,3.893,7.156,5.503c2.65,1.645,5.234,2.801,8.188,3.697c2.958,0.905,5.729,2.23,8.838,2.329
						c3.063,0.11,6.214,0.294,9.279-0.423c2.949-0.693,6.046-1.583,8.848-3.074c2.802-1.494,4.293-4.602,6.523-6.675
						c2.292-2.135,4.373-4.117,5.996-6.728c1.642-2.635,3.905-4.973,4.809-7.918c0.896-2.97,2.36-6.083,2.458-9.194
						c0.107-3.059-1.693-6.151-2.405-9.203c-0.679-2.951-1.421-5.976-2.919-8.786c-1.494-2.801-3.769-4.933-5.84-7.151
						C696.057,204.746,694.414,201.776,691.804,200.15z"/>
					<path fill="#FFE8CF" d="M693.931,211.053c-0.712-0.758-1.362-1.599-2.021-2.436c-1.062-1.371-2.08-2.653-3.233-3.368
						c-0.894-0.559-2.289-0.684-3.78-0.834c-1.292-0.107-2.615-0.233-3.962-0.65c-1.05-0.313-2.063-0.74-3.075-1.172
						c-1.48-0.632-2.884-1.24-4.197-1.286l-1.213-0.046c-2.255-0.098-4.584-0.181-6.611,0.288c-2.008,0.466-4.042,1.497-6.308,2.703
						l-0.862,0.463c-1.553,0.822-2.851,2.145-4.23,3.528c-0.524,0.515-1.05,1.043-1.574,1.534c-1.981,1.856-3.402,3.939-4.634,5.939
						c-1.564,2.509-2.556,4.614-3.225,6.811c-0.342,1.107-0.832,2.203-1.332,3.295c-0.683,1.469-1.312,2.859-1.354,4.098
						c-0.07,2.117,0.507,4.519,1.057,6.823l0.215,0.951c0.304,1.295,1.166,2.629,2.084,4.031c0.586,0.896,1.156,1.779,1.663,2.727
						c1.447,2.715,2.719,4.581,4.239,6.207c1.763,1.88,3.824,3.227,5.954,4.553c2.16,1.343,4.317,2.307,6.8,3.067
						c0.776,0.236,1.521,0.491,2.271,0.755c1.756,0.61,3.425,1.206,5.076,1.264l0.616,0.012c2.52,0.086,4.883,0.181,7.109-0.347
						c2.16-0.5,4.946-1.243,7.394-2.543c1.102-0.589,2.016-1.751,2.995-2.982c0.752-0.938,1.513-1.871,2.354-2.681
						c1.805-1.681,3.676-3.43,5.005-5.559c0.507-0.813,1.077-1.613,1.643-2.399c1.037-1.423,2.02-2.776,2.438-4.163
						c0.236-0.773,0.507-1.54,0.776-2.325c0.663-1.899,1.289-3.703,1.348-5.335c0.049-1.258-0.488-2.755-1.064-4.332
						c-0.404-1.111-0.802-2.224-1.06-3.335c-0.656-2.832-1.255-5.169-2.401-7.32c-0.968-1.81-2.412-3.338-3.952-4.948
						L693.931,211.053z"/>
					<path fill="#BE1E2D" d="M669.062,223.542c-4.081,2.175-5.621,7.247-3.445,11.323c2.175,4.071,7.241,5.614,11.326,3.436
						c4.069-2.172,5.612-7.24,3.439-11.311C678.206,222.91,673.137,221.37,669.062,223.542z"/>
					<path fill="#43591B" d="M659.015,212.83c-3.458,1.84-4.774,6.142-2.927,9.596c1.841,3.458,6.146,4.758,9.604,2.915
						c3.458-1.843,4.763-6.139,2.918-9.596C666.767,212.29,662.474,210.982,659.015,212.83z"/>
					<path fill="#43591B" d="M659.629,236.405c-3.455,1.841-4.764,6.136-2.918,9.6c1.844,3.445,6.146,4.761,9.602,2.92
						c3.458-1.844,4.766-6.154,2.928-9.599C667.393,235.859,663.087,234.559,659.629,236.405z"/>
					<path fill="#43591B" d="M680.932,235.356c-3.459,1.847-4.766,6.139-2.918,9.596c1.844,3.454,6.137,4.761,9.596,2.914
						c3.458-1.84,4.762-6.135,2.921-9.59C688.683,234.819,684.39,233.513,680.932,235.356z"/>
					<path fill="#43591B" d="M680.643,212.415c-3.461,1.841-4.766,6.136-2.915,9.603c1.842,3.445,6.138,4.761,9.599,2.915
						c3.456-1.841,4.771-6.151,2.929-9.596C688.404,211.869,684.099,210.568,680.643,212.415z"/>
				</g>
			</g>
			<g>
				<path fill="#BCBEC0" d="M674.46,277.648c-2.631-1.639-6.258-1.045-9.217-1.944c-2.955-0.897-5.648-2.712-8.767-2.819
					c-3.063-0.11-6.325-0.39-9.375,0.325c-2.964,0.696-5.806,2.265-8.614,3.765c-2.801,1.49-4.799,3.941-7.018,6.014
					c-2.292,2.138-3.978,4.527-5.602,7.133c-1.632,2.645-2.961,5.232-3.856,8.203c-0.905,2.941-2.971,5.785-3.084,8.894
					c-0.096,3.063,0.768,6.255,1.481,9.308c0.686,2.968,2.895,5.373,4.393,8.174c1.487,2.795,3.041,5.236,5.108,7.451
					c2.15,2.295,4.566,3.888,7.159,5.504c2.643,1.645,5.235,2.795,8.202,3.703c2.939,0.893,5.72,2.218,8.822,2.33
					c3.06,0.1,6.227,0.279,9.28-0.426c2.954-0.685,6.038-1.59,8.844-3.082c2.811-1.498,4.312-4.594,6.526-6.664
					c2.292-2.133,4.369-4.127,5.996-6.736c1.643-2.62,3.906-4.961,4.81-7.918c0.896-2.955,2.354-6.084,2.458-9.184
					c0.104-3.072-1.694-6.152-2.406-9.203c-0.685-2.957-1.427-5.99-2.915-8.789c-1.498-2.797-3.774-4.934-5.84-7.15
					C678.713,282.245,677.072,279.271,674.46,277.648z"/>
				<g>
					<path fill="#FEC46D" d="M671.781,271.305c-2.631-1.638-6.255-1.034-9.219-1.945c-2.949-0.887-5.649-2.712-8.768-2.819
						c-3.06-0.107-6.313-0.38-9.371,0.325c-2.955,0.688-5.808,2.267-8.617,3.764c-2.802,1.497-4.796,3.945-7.019,6.011
						c-2.282,2.152-3.968,4.543-5.595,7.135c-1.639,2.647-2.961,5.246-3.862,8.201c-0.902,2.947-2.972,5.791-3.071,8.891
						c-0.104,3.07,0.761,6.273,1.476,9.326c0.678,2.951,2.889,5.355,4.385,8.156c1.495,2.801,3.049,5.25,5.119,7.467
						c2.146,2.283,4.563,3.889,7.149,5.492c2.647,1.645,5.245,2.801,8.203,3.703c2.955,0.901,5.726,2.228,8.828,2.334
						c3.06,0.107,6.221,0.273,9.275-0.43c2.952-0.688,6.043-1.586,8.841-3.08c2.813-1.5,4.313-4.6,6.53-6.666
						c2.293-2.139,4.386-4.123,5.999-6.73c1.64-2.627,3.904-4.967,4.807-7.912c0.896-2.969,2.354-6.096,2.468-9.203
						c0.102-3.053-1.703-6.145-2.415-9.19c-0.679-2.961-1.418-5.979-2.919-8.793c-1.494-2.798-3.769-4.933-5.839-7.147
						C676.033,275.896,674.393,272.928,671.781,271.305z"/>
					<path fill="#FFE8CF" d="M673.905,282.208c-0.706-0.758-1.361-1.603-2.02-2.438c-1.063-1.365-2.068-2.656-3.237-3.362
						c-0.896-0.573-2.286-0.685-3.777-0.834c-1.288-0.113-2.613-0.236-3.962-0.656c-1.04-0.315-2.053-0.74-3.078-1.175
						c-1.479-0.623-2.881-1.23-4.193-1.273l-1.212-0.049c-2.256-0.101-4.582-0.184-6.61,0.289c-2.007,0.463-4.048,1.497-6.306,2.703
						l-0.865,0.457c-1.55,0.828-2.856,2.135-4.231,3.533c-0.524,0.516-1.057,1.027-1.574,1.531
						c-1.988,1.846-3.399,3.941-4.641,5.926c-1.559,2.522-2.547,4.615-3.225,6.817c-0.335,1.116-0.829,2.208-1.326,3.304
						c-0.666,1.463-1.308,2.856-1.354,4.097c-0.07,2.12,0.501,4.507,1.056,6.825l0.212,0.938c0.307,1.302,1.173,2.638,2.09,4.043
						c0.577,0.882,1.157,1.779,1.66,2.726c1.448,2.715,2.713,4.566,4.238,6.205c1.764,1.877,3.82,3.219,5.953,4.543
						c2.166,1.336,4.322,2.313,6.806,3.08c0.776,0.236,1.521,0.485,2.262,0.739c1.766,0.623,3.443,1.212,5.076,1.269l0.616,0.012
						c2.525,0.093,4.901,0.186,7.113-0.331c2.163-0.509,4.942-1.255,7.393-2.562c1.1-0.59,2.016-1.742,3.007-2.974
						c0.743-0.938,1.501-1.878,2.349-2.678c1.813-1.685,3.677-3.427,5.002-5.56c0.51-0.828,1.077-1.613,1.653-2.401
						c1.025-1.421,2.005-2.771,2.438-4.167c0.228-0.77,0.497-1.533,0.764-2.315c0.663-1.901,1.295-3.702,1.349-5.335
						c0.049-1.265-0.485-2.762-1.063-4.332c-0.398-1.117-0.795-2.232-1.05-3.338c-0.663-2.828-1.261-5.166-2.412-7.322
						c-0.964-1.805-2.415-3.328-3.955-4.941L673.905,282.208z"/>
					<path fill="#BE1E2D" d="M649.035,294.693c-4.082,2.182-5.625,7.252-3.442,11.33c2.173,4.07,7.242,5.61,11.323,3.436
						c4.071-2.172,5.615-7.243,3.442-11.311C658.178,294.068,653.112,292.521,649.035,294.693z"/>
					<path fill="#43591B" d="M638.991,283.98c-3.459,1.848-4.766,6.14-2.925,9.597c1.848,3.458,6.145,4.762,9.604,2.918
						c3.455-1.849,4.762-6.136,2.915-9.595C646.74,283.443,642.448,282.141,638.991,283.98z"/>
					<path fill="#43591B" d="M639.603,307.559c-3.449,1.836-4.763,6.135-2.912,9.602c1.838,3.447,6.145,4.752,9.59,2.912
						c3.469-1.852,4.774-6.143,2.938-9.592C647.364,307.016,643.071,305.704,639.603,307.559z"/>
					<path fill="#43591B" d="M660.907,306.511c-3.458,1.849-4.763,6.14-2.928,9.584c1.854,3.47,6.147,4.773,9.605,2.927
						c3.454-1.84,4.763-6.136,2.911-9.602C668.656,305.979,664.364,304.671,660.907,306.511z"/>
					<path fill="#43591B" d="M660.625,283.563c-3.457,1.849-4.771,6.144-2.925,9.608c1.843,3.448,6.147,4.749,9.604,2.905
						c3.458-1.844,4.763-6.139,2.924-9.583C668.375,283.023,664.085,281.717,660.625,283.563z"/>
				</g>
			</g>
			<g>
				<path fill="#BCBEC0" d="M766.726,228.813c-2.64-1.653-6.261-1.049-9.219-1.945c-2.958-0.899-5.658-2.721-8.776-2.832
					c-3.06-0.11-6.309-0.368-9.365,0.334c-2.952,0.693-5.803,2.267-8.613,3.767c-2.806,1.494-4.81,3.933-7.023,6
					c-2.286,2.145-3.968,4.541-5.595,7.145c-1.643,2.632-2.964,5.231-3.863,8.191c-0.899,2.954-2.971,5.789-3.065,8.896
					c-0.116,3.062,0.753,6.261,1.477,9.326c0.676,2.958,2.882,5.35,4.379,8.161c1.495,2.797,3.054,5.246,5.113,7.451
					c2.156,2.299,4.557,3.894,7.154,5.504c2.651,1.646,5.245,2.795,8.2,3.693c2.945,0.9,5.727,2.227,8.831,2.348
					c3.058,0.098,6.214,0.278,9.276-0.438c2.952-0.69,6.039-1.583,8.845-3.077c2.798-1.491,4.313-4.593,6.523-6.67
					c2.289-2.139,4.376-4.12,6.003-6.719c1.639-2.641,3.902-4.984,4.805-7.93c0.899-2.954,2.357-6.081,2.455-9.194
					c0.107-3.062-1.69-6.148-2.408-9.2c-0.676-2.955-1.418-5.976-2.912-8.78c-1.501-2.81-3.771-4.942-5.844-7.16
					C770.966,233.393,769.326,230.429,766.726,228.813z"/>
				<g>
					<path fill="#FEC46D" d="M764.047,222.468c-2.644-1.65-6.265-1.046-9.22-1.948c-2.958-0.899-5.661-2.721-8.768-2.819
						c-3.065-0.107-6.321-0.377-9.377,0.325c-2.952,0.69-5.804,2.264-8.614,3.764c-2.802,1.497-4.803,3.945-7.019,6.013
						c-2.282,2.147-3.972,4.541-5.588,7.133c-1.646,2.647-2.971,5.249-3.872,8.194c-0.896,2.966-2.972,5.786-3.069,8.899
						c-0.113,3.059,0.762,6.271,1.477,9.323c0.683,2.954,2.889,5.362,4.38,8.157c1.504,2.813,3.054,5.246,5.12,7.468
						c2.148,2.285,4.553,3.877,7.156,5.502c2.644,1.633,5.242,2.795,8.193,3.686c2.949,0.915,5.727,2.229,8.829,2.341
						c3.064,0.106,6.227,0.279,9.272-0.437c2.955-0.689,6.052-1.579,8.854-3.073c2.796-1.493,4.309-4.595,6.526-6.666
						c2.283-2.146,4.376-4.111,5.999-6.725c1.634-2.645,3.903-4.976,4.804-7.933c0.898-2.951,2.362-6.071,2.461-9.179
						c0.104-3.062-1.69-6.151-2.415-9.215c-0.679-2.952-1.414-5.964-2.912-8.774c-1.494-2.801-3.774-4.945-5.84-7.151
						C768.289,227.052,766.646,224.082,764.047,222.468z"/>
					<path fill="#FFE8CF" d="M766.16,233.356c-0.709-0.754-1.365-1.595-2.014-2.423c-1.067-1.368-2.071-2.66-3.24-3.375
						c-0.887-0.552-2.289-0.69-3.773-0.822c-1.298-0.126-2.624-0.249-3.959-0.657c-1.043-0.313-2.068-0.739-3.081-1.178
						c-1.485-0.632-2.881-1.23-4.197-1.289l-1.209-0.034c-2.256-0.095-4.591-0.193-6.616,0.279c-2.01,0.463-4.042,1.503-6.303,2.712
						l-0.859,0.46c-1.553,0.828-2.862,2.132-4.24,3.519c-0.521,0.528-1.051,1.043-1.577,1.531c-1.982,1.859-3.396,3.958-4.625,5.955
						c-1.574,2.497-2.554,4.599-3.23,6.801c-0.338,1.104-0.823,2.193-1.332,3.295c-0.679,1.469-1.308,2.853-1.351,4.095
						c-0.076,2.117,0.503,4.519,1.056,6.826l0.215,0.948c0.308,1.304,1.166,2.632,2.091,4.046c0.576,0.877,1.152,1.776,1.656,2.715
						c1.445,2.712,2.72,4.577,4.234,6.2c1.765,1.883,3.833,3.246,5.966,4.567c2.157,1.326,4.314,2.305,6.797,3.068
						c0.771,0.225,1.522,0.487,2.271,0.754c1.749,0.617,3.428,1.186,5.068,1.252l0.623,0.027c2.518,0.071,4.877,0.166,7.103-0.355
						c2.169-0.496,4.952-1.244,7.397-2.549c1.1-0.586,2.021-1.742,3.004-2.977c0.736-0.943,1.505-1.877,2.349-2.675
						c1.813-1.688,3.67-3.442,5.005-5.559c0.5-0.825,1.068-1.626,1.639-2.399c1.034-1.436,2.018-2.786,2.435-4.175
						c0.242-0.767,0.507-1.54,0.781-2.319c0.66-1.905,1.292-3.697,1.346-5.341c0.052-1.249-0.482-2.746-1.06-4.316
						c-0.408-1.126-0.792-2.236-1.05-3.341c-0.666-2.829-1.265-5.163-2.418-7.329c-0.967-1.81-2.412-3.335-3.953-4.948
						L766.16,233.356z"/>
					<path fill="#BE1E2D" d="M741.295,245.848c-4.084,2.178-5.618,7.258-3.445,11.327c2.172,4.071,7.241,5.623,11.329,3.448
						c4.068-2.172,5.608-7.252,3.437-11.327C750.44,245.229,745.365,243.673,741.295,245.848z"/>
					<path fill="#43591B" d="M731.244,235.135c-3.458,1.844-4.766,6.136-2.912,9.605c1.843,3.445,6.133,4.749,9.591,2.905
						c3.455-1.844,4.763-6.136,2.925-9.581C738.996,234.596,734.706,233.289,731.244,235.135z"/>
					<path fill="#43591B" d="M731.863,258.718c-3.442,1.841-4.76,6.139-2.918,9.596c1.847,3.454,6.158,4.767,9.603,2.927
						c3.471-1.85,4.769-6.151,2.925-9.605C739.629,258.178,735.332,256.868,731.863,258.718z"/>
					<path fill="#43591B" d="M753.161,257.663c-3.455,1.847-4.763,6.139-2.911,9.605c1.838,3.448,6.131,4.752,9.589,2.908
						c3.462-1.844,4.766-6.139,2.925-9.583C760.916,257.125,756.622,255.819,753.161,257.663z"/>
					<path fill="#43591B" d="M752.877,234.728c-3.463,1.847-4.764,6.139-2.916,9.599c1.845,3.454,6.141,4.771,9.603,2.927
						c3.464-1.85,4.769-6.154,2.921-9.608C760.641,234.185,756.344,232.88,752.877,234.728z"/>
				</g>
			</g>
		</g>
	</g>
</g>
</svg>
