<?xml version="1.0" encoding="utf-8"?>
<!-- Generator: Adobe Illustrator 16.0.0, SVG Export Plug-In . SVG Version: 6.00 Build 0)  -->
<!DOCTYPE svg PUBLIC "-//W3C//DTD SVG 1.1//EN" "http://www.w3.org/Graphics/SVG/1.1/DTD/svg11.dtd">
<svg version="1.1" id="图层_1" xmlns="http://www.w3.org/2000/svg" xmlns:xlink="http://www.w3.org/1999/xlink" x="0px" y="0px"
	 width="906px" height="548px" viewBox="0 0 906 548" enable-background="new 0 0 906 548" xml:space="preserve">
<g>
	<rect x="0" fill="#83D8E8" width="906" height="548"/>
	<g>
		<g>
			<path fill="#FDD5AE" d="M131.942,308.991c0,0-12.188,6.151-14.547,31.434c-2.335,25.29-12.332,134.684-3.515,168.201
				c0,0,25.852,4.703,32.309-15.293c6.481-20.01,16.471-138.783,16.471-138.783l-1.173-10.582L131.942,308.991z"/>
			<path fill="#FDD5AE" d="M358.628,308.991l-29.532,34.977l-1.192,10.582c0,0,9.989,118.773,16.466,138.783
				c6.457,19.996,32.31,15.293,32.31,15.293c8.825-33.519-1.168-142.911-3.511-168.201
				C370.815,315.145,358.628,308.991,358.628,308.991z"/>
			<rect x="219.284" y="224.975" fill="#E4B58F" width="45.813" height="80.47"/>
			<path fill="#B3171B" d="M161.924,359.184c-0.326,1.824-0.83,4.33-1.663,7.002c-2.323,9.01-5.995,21.83-5.995,31
				c0,0.183,0,0.344,0,0.344c0,3.662,0.495,6.65,1.828,8.662l10.335,22.173l4.666,10.174l-1.329,46.517l-12.839,39.172
				l-7.467,22.681h194.88l-5.339-16.347l-14.98-45.506l-1.333-46.517l14.815-32.347c5.846-9.17-3.813-36.334-5.821-47.008
				l2.492-13.168l32.485-43.357l-31.313-6.17l-4.674-0.824l-29.153-5.665H192.244l-65.129,12.659l32.485,43.357L161.924,359.184z"/>
			<path fill="#FDD5AE" d="M242.529,93.5c-34.793,0-63.009,37.925-63.009,72.753c0,34.811,28.216,53.338,63.009,53.338
				c34.784,0,62.992-18.527,62.992-53.338C305.521,131.425,277.313,93.5,242.529,93.5z"/>
			<path fill="#FDD5AE" d="M242.529,93.5c-34.793,0-63.009,37.925-63.009,72.753c0,34.811,28.216,98.604,63.009,98.604
				c34.784,0,62.992-63.793,62.992-98.604C305.521,131.425,277.313,93.5,242.529,93.5z"/>
			<path fill="#FD9592" d="M206.119,216.609c6.691,16.491,20.483,33.494,36.409,33.494c15.93,0,29.705-17.003,36.401-33.494H206.119
				z"/>
			<g>
				<path fill="#FDD5AE" d="M297.455,163.016c-8.937,0-16.156,10.863-16.156,24.245c0,13.402,7.22,24.262,16.156,24.262
					c8.92,0,16.151-10.859,16.151-24.262C313.607,173.879,306.375,163.016,297.455,163.016z"/>
				<path fill="#FDD5AE" d="M187.611,163.016c-8.937,0-16.151,10.863-16.151,24.245c0,13.402,7.216,24.262,16.151,24.262
					c8.912,0,16.152-10.859,16.152-24.262C203.763,173.879,196.523,163.016,187.611,163.016z"/>
			</g>
			<path fill="#231F20" d="M242.529,64.407c-36.001,0-65.464,29.485-65.464,65.511v37.888c0,11.205,2.848,21.779,7.86,31.028
				c-0.025-0.892-0.128-1.788-0.128-2.696V173.9c0-29.716,24.305-54.044,53.998-54.044h7.483c29.682,0,53.994,24.328,53.994,54.044
				v22.238c0,0.908-0.095,1.805-0.148,2.696c5.014-9.249,7.876-19.823,7.876-31.028v-37.888
				C308,93.893,278.534,64.407,242.529,64.407z"/>
			<g>
				<path fill="#FBB040" d="M307.244,307.348c-1.922,0-3.481,1.564-3.481,3.484c0,1.925,1.56,3.48,3.481,3.48
					c1.924,0,3.475-1.557,3.475-3.48C310.719,308.912,309.168,307.348,307.244,307.348z"/>
				<path fill="#FBB040" d="M307.244,317.102c-1.922,0-3.481,1.543-3.481,3.467c0,1.916,1.56,3.48,3.481,3.48
					c1.924,0,3.475-1.564,3.475-3.48C310.719,318.645,309.168,317.102,307.244,317.102z"/>
				<path fill="#FBB040" d="M297.798,316.803c-1.923,0-3.486,1.562-3.486,3.493c0,1.916,1.563,3.47,3.486,3.47
					c1.922,0,3.485-1.554,3.485-3.47C301.283,318.363,299.72,316.803,297.798,316.803z"/>
				<path fill="#FBB040" d="M271.69,351.718c-1.923,0-3.485,1.562-3.485,3.484c0,1.92,1.563,3.46,3.485,3.46
					c1.91,0,3.458-1.54,3.458-3.46C275.147,353.277,273.6,351.718,271.69,351.718z"/>
				<path fill="#FBB040" d="M290.573,351.718c-1.923,0-3.458,1.562-3.458,3.484c0,1.92,1.535,3.46,3.458,3.46
					c1.919,0,3.486-1.54,3.486-3.46C294.059,353.277,292.492,351.718,290.573,351.718z"/>
				<path fill="#FBB040" d="M313.408,375.95c-1.918,0-3.478,1.544-3.478,3.473c0,1.925,1.56,3.493,3.478,3.493
					s3.461-1.568,3.461-3.493C316.87,377.494,315.327,375.95,313.408,375.95z"/>
				<path fill="#FBB040" d="M322.853,385.4c-1.931,0-3.47,1.554-3.47,3.48c0,1.92,1.539,3.48,3.47,3.48
					c1.918,0,3.478-1.562,3.478-3.48C326.33,386.954,324.772,385.4,322.853,385.4z"/>
				<path fill="#FBB040" d="M261.078,453.612c-1.924,0-3.471,1.567-3.471,3.479c0,1.928,1.547,3.497,3.471,3.497
					c1.918,0,3.478-1.569,3.478-3.497C264.556,455.181,262.997,453.612,261.078,453.612z"/>
				<path fill="#FBB040" d="M261.078,434.718c-1.924,0-3.471,1.544-3.471,3.464c0,1.938,1.547,3.481,3.471,3.481
					c1.918,0,3.478-1.545,3.478-3.481C264.556,436.262,262.997,434.718,261.078,434.718z"/>
				<path fill="#FBB040" d="M270.534,444.173c-1.923,0-3.482,1.553-3.482,3.465c0,1.92,1.56,3.492,3.482,3.492
					c1.915,0,3.481-1.572,3.481-3.492C274.017,445.726,272.449,444.173,270.534,444.173z"/>
				<path fill="#FBB040" d="M269.396,546.905h5.838c-16.943-17.733-34.796-36.179-45.181-46.187
					c-3.66-3.328-5.157-7.164-4.654-11.339c1.012-11.846,16.306-25.934,33.534-38.854c0.604,0.482,1.3,0.871,2.146,0.871
					c1.918,0,3.478-1.544,3.478-3.469c0-0.482-0.334-0.816-0.503-1.233c6.849-4.963,13.796-9.695,20.146-14.015
					c5.178-3.484,9.84-6.651,13.82-9.477c12.831-9.349,19.667-18.015,20.167-26.021c0.173-3.191-0.685-5.6-1.613-7.252
					c0.063-0.264,0.297-0.466,0.297-0.76c0-1.924-1.543-3.488-3.461-3.488c-0.351,0-0.582,0.289-0.887,0.385
					c-18.211-11.528-27.977-20.739-29.503-27.896c0.899-0.636,1.576-1.507,1.576-2.699c0-1.058-0.507-1.925-1.246-2.553
					c2.62-6.809,13.095-12.732,24.841-19.41c2.508-1.342,4.997-2.837,7.662-4.348c11.325-6.66,18-14.484,19.651-23.329
					c0.668-3.501,0.512-6.672-0.157-9.349l-4.674-0.824c0.85,2.667,1.341,5.83,0.672,9.504c-1.036,5.88-5.046,11.33-11.664,16.318
					c0.161-0.414,0.475-0.719,0.475-1.189c0-1.934-1.539-3.493-3.474-3.493c-1.906,0-3.465,1.562-3.465,3.493
					c0,1.825,1.439,3.221,3.226,3.365c-0.949,0.607-1.725,1.26-2.756,1.842c-1.267,0.764-2.537,1.461-3.808,2.217
					c-0.632-0.834-1.507-1.453-2.633-1.453c-1.922,0-3.481,1.562-3.481,3.484c0,0.459,0.33,0.779,0.487,1.186
					c-8.306,4.729-15.48,8.998-20.117,13.672c-0.508-1.313-1.535-2.351-3.012-2.351c-1.928,0-3.471,1.558-3.471,3.479
					c0,1.728,1.336,3.016,2.987,3.271c-0.718,1.238-1.238,2.527-1.576,3.848c-0.82,0.638-1.411,1.508-1.411,2.619
					c0,1.012,0.458,1.887,1.151,2.521c0.173,1.201,0.512,2.453,1.02,3.713c-1.201,0.553-2.171,1.527-2.171,2.947
					c0,1.925,1.543,3.469,3.471,3.469c0.733,0,1.304-0.393,1.848-0.768c4.051,5.42,10.941,11.35,20.909,18.076
					c-1.869,0.058-3.399,1.557-3.399,3.446c0,1.92,1.56,3.481,3.479,3.481c1.922,0,3.485-1.563,3.485-3.481
					c0-0.619-0.372-1.081-0.651-1.567c1.06,0.688,2.12,1.398,3.233,2.092c0.128,1.711,1.448,3.049,3.177,3.156
					c0.311,0.655,0.558,1.52,0.697,2.506c-0.198-0.037-0.309-0.211-0.491-0.211c-1.918,0-3.478,1.561-3.478,3.484
					c0,1.691,1.287,2.911,2.896,3.245c-1.935,4.55-6.617,10.62-17.125,18.112c-4.172,2.838-8.838,6.001-13.83,9.498
					c-7.518,5.091-15.504,10.583-23.188,16.242c-0.017,0.014-0.045,0.033-0.074,0.07c-1.274,0.941-2.542,1.887-3.792,2.833
					c0.066-0.257,0.289-0.422,0.289-0.706c0-1.912-1.56-3.465-3.478-3.465c-1.922,0-3.465,1.553-3.465,3.465
					c0,1.81,1.397,3.184,3.151,3.36c-16.023,12.563-29.054,25.813-30.081,38.057c-0.503,5.509,1.498,10.504,5.826,14.675
					C236.823,513.16,253.301,530.113,269.396,546.905z"/>
				<path fill="#FBB040" d="M246.762,529.465c-1.915,0-3.47,1.573-3.47,3.481c0,1.924,1.555,3.492,3.47,3.492
					c1.918,0,3.478-1.568,3.478-3.492C250.24,531.038,248.68,529.465,246.762,529.465z"/>
				<path fill="#FBB040" d="M246.762,539.214c-1.915,0-3.47,1.552-3.47,3.474c0,1.928,1.555,3.487,3.47,3.487
					c1.918,0,3.478-1.561,3.478-3.487C250.24,540.766,248.68,539.214,246.762,539.214z"/>
				<path fill="#FBB040" d="M237.322,538.925c-1.909,0-3.474,1.568-3.474,3.484c0,1.924,1.563,3.469,3.474,3.469
					c1.919,0,3.475-1.545,3.475-3.469C240.796,540.493,239.24,538.925,237.322,538.925z"/>
				<path fill="#FBB040" d="M256.214,538.925c-1.918,0-3.466,1.568-3.466,3.484c0,1.924,1.547,3.469,3.466,3.469
					s3.486-1.545,3.486-3.469C259.7,540.493,258.133,538.925,256.214,538.925z"/>
				<path fill="#FBB040" d="M242.599,494.885c-1.914,0-3.486,1.565-3.486,3.489c0,1.92,1.572,3.489,3.486,3.489
					c1.927,0,3.482-1.569,3.482-3.489C246.081,496.45,244.526,494.885,242.599,494.885z"/>
				<path fill="#FBB040" d="M242.599,475.986c-1.914,0-3.486,1.549-3.486,3.473c0,1.916,1.572,3.485,3.486,3.485
					c1.927,0,3.482-1.569,3.482-3.485C246.081,477.535,244.526,475.986,242.599,475.986z"/>
				<path fill="#FBB040" d="M242.599,485.719c-1.914,0-3.486,1.564-3.486,3.489c0,1.92,1.572,3.468,3.486,3.468
					c1.927,0,3.482-1.548,3.482-3.468C246.081,487.283,244.526,485.719,242.599,485.719z"/>
				<path fill="#FBB040" d="M233.143,485.43c-1.918,0-3.461,1.558-3.461,3.485c0,1.92,1.543,3.484,3.461,3.484
					s3.486-1.564,3.486-3.484C236.629,486.986,235.061,485.43,233.143,485.43z"/>
				<path fill="#FBB040" d="M252.043,485.43c-1.91,0-3.479,1.558-3.479,3.485c0,1.92,1.568,3.484,3.479,3.484
					c1.935,0,3.491-1.564,3.491-3.484C255.533,486.986,253.978,485.43,252.043,485.43z"/>
			</g>
			<polygon fill="#A7A9AC" points="344.34,546.905 339.001,530.56 315.513,546.905 			"/>
			<polygon fill="#A7A9AC" points="186.753,546.905 156.927,524.226 149.46,546.905 			"/>
			<g>
				
					<linearGradient id="SVGID_1_" gradientUnits="userSpaceOnUse" x1="395.4924" y1="-207.1235" x2="557.907" y2="-207.1235" gradientTransform="matrix(1 0 0 -1 -177.5996 301.0098)">
					<stop  offset="0" style="stop-color:#E4B58F"/>
					<stop  offset="0.3768" style="stop-color:#FDD5AE"/>
					<stop  offset="1" style="stop-color:#FDD5AE"/>
				</linearGradient>
				<path fill="url(#SVGID_1_)" d="M342.326,546.905l37.338-40.442c6.338-69.768-36.272-19.729-36.272-19.729l-45.285,60.171
					H342.326z"/>
			</g>
			<g>
				<path fill="#FDD5AE" d="M201.931,546.905l-53.965-62.979c0,0-25.279-11.834-33.349,25.129l36.963,37.851H201.931z"/>
			</g>
			<path fill="#231F20" d="M204.493,118.679c-28.612,16.574-23.72,51.992-23.72,51.992s79.426,7.911,89.203-49.346
				C269.977,121.325,233.097,102.117,204.493,118.679z"/>
			<path fill="#231F20" d="M243.638,20.38c-17.472,0-31.624,14.167-31.624,31.632c0,17.465,14.151,31.636,31.624,31.636
				c17.457,0,31.612-14.171,31.612-31.636C275.25,34.547,261.095,20.38,243.638,20.38z"/>
			<polygon fill="#B3171B" points="207.217,290.029 249.852,301.604 250.149,290.923 218.67,259.423 			"/>
			<path fill="#FBB040" d="M237.083,308.165c-28.979,15.335-49.633,35.015-61.465,58.021c-2.327,9.01-5.995,21.83-5.995,31
				c5.656-35.17,28.992-63.857,69.296-85.172c23.813-12.691,47.652-19.349,59.48-22.016h-15.986
				C269.746,293.656,253.421,299.498,237.083,308.165z"/>
			<path fill="#FBB040" d="M176.76,363.684c-5.838,11.834-11.337,41.014-10.331,64.681l4.666,10.174
				c-5.496-33.841,7.001-68.363,7.001-68.363L176.76,363.684z"/>
			<polygon fill="#B3171B" points="267.531,259.484 236.055,290.988 236.402,301.666 237.557,301.323 279.038,289.998 
				269.544,264.827 			"/>
			<polygon fill="#FBB040" points="233.894,293.169 230.238,314.012 235.734,311.332 237.557,301.323 238.721,294.316 
				269.544,264.827 267.531,259.484 			"/>
			<path fill="#FBB040" d="M221.591,326.452c-0.689,0-1.167,0.483-1.774,0.739l-9.848-8.268c0.091-0.388,0.433-0.652,0.433-1.068
				c0-2.726-2.22-4.959-4.95-4.959c-2.728,0-4.931,2.233-4.931,4.959c0,2.729,2.203,4.945,4.931,4.945
				c0.705,0,1.191-0.475,1.795-0.738l9.84,8.278c-0.095,0.388-0.438,0.64-0.438,1.054c0,2.732,2.216,4.955,4.943,4.955
				c2.735,0,4.947-2.223,4.947-4.955C226.537,328.678,224.326,326.452,221.591,326.452z"/>
			<path fill="#FBB040" d="M209.622,337.646c-0.697,0-1.164,0.482-1.774,0.752l-9.861-8.274c0.096-0.39,0.441-0.651,0.441-1.073
				c0-2.717-2.207-4.947-4.942-4.947c-2.739,0-4.942,2.23-4.942,4.947c0,2.732,2.203,4.946,4.942,4.946
				c0.697,0,1.188-0.472,1.791-0.731l9.845,8.274c-0.1,0.394-0.441,0.653-0.441,1.058c0,2.729,2.208,4.967,4.943,4.967
				c2.738,0,4.941-2.237,4.941-4.967C214.564,339.88,212.361,337.646,209.622,337.646z"/>
			<path opacity="0.41" fill="#A7A9AC" enable-background="new    " d="M254.197,404.98h-14.968
				c-27.556,7.213-54.617,6.086-81.389,0l21.379,19.896c8.503,7.928,21.685,10.435,33.105,6.148
				c6.864-2.576,15.55-5.945,25.955-10.24c2.769-1.123,5.587-1.816,8.43-2.271c2.854,0.454,5.673,1.147,8.433,2.271
				c10.409,4.295,19.098,7.664,25.967,10.24c11.42,4.285,24.603,1.778,33.105-6.148l21.371-19.896
				C308.145,412.289,280.989,412.471,254.197,404.98z"/>
		</g>
		<g>
			<rect x="601.185" y="195.993" fill="#C79F7E" width="58.421" height="85.021"/>
			<g>
				<path fill="#E4B58F" d="M693.656,131.817c-8.635-34.815-33.698-74.838-63.289-74.838c-29.44,0-54.642,40.022-63.269,74.838
					c-6.845,3.295-11.771,12.891-11.771,24.266c0,12.061,5.479,21.929,12.729,24.662c9.185,29.613,33.704,57.418,62.312,57.418
					c28.762,0,53.156-27.805,62.46-57.418c7.397-2.733,12.732-12.742,12.732-24.662
					C705.559,144.708,700.632,134.972,693.656,131.817z"/>
			</g>
			<g>
				<path fill="#E49572" d="M591.551,192.018c6.47,20.628,21.459,39.217,38.84,39.217c17.465,0,32.4-18.589,38.919-39.217H591.551z"
					/>
			</g>
			<path fill="#231F20" d="M693.328,58.441c3.252-6.181,4.163-10.772,4.163-10.772l-17.894-0.636
				c-12.566-12.783-29.975-20.74-49.199-20.74c-38.027,0-69.177,31.149-69.177,69.227v49.531l8.173,6.42
				c0-19.014,5.706-34.563,14.82-45.942c12.134,5.953,37.691,12.424,79.792-4.653c2.203-0.524,4.258-1.123,6.237-1.759
				c12.803,11.82,21.179,30.55,21.179,55.323l8.164-6.449V95.52c0-4.596-0.503-9.071-1.361-13.398
				c10.707-11.4,12.947-23.04,12.947-23.04L693.328,58.441z"/>
		</g>
		<polygon fill="#B3171B" points="763.67,546.905 763.67,264.827 639.563,264.827 629.232,273.663 627.739,272.491 617.745,264.827 
			503.293,264.827 503.293,546.905 		"/>
		<polygon fill="#B3171B" points="630.869,272.045 684.491,267.618 671.74,238.712 		"/>
		<polygon fill="#B3171B" points="574.388,267.618 628.007,272.045 587.141,238.712 		"/>
		<polygon fill="#FBB040" points="630.662,546.905 630.662,275.354 643.663,264.856 672.982,241.338 671.48,236.672 627.668,272.52 
			626.495,273.354 626.495,546.905 		"/>
		<polygon opacity="0.5" fill="#A7A9AC" enable-background="new    " points="593.832,546.905 678.597,546.905 666.892,529.729 
			640.223,518.564 618.574,524.568 618.897,526.229 603.577,532.57 		"/>
		<path opacity="0.5" fill="#A7A9AC" enable-background="new    " d="M586.093,546.905v-7.167h-16.664v1.829
			c-1.497,0-2.838,0-4.328-0.166v-1.663h-7.661v1.498c-22.984-1.677-40.659-5.848-54.146-11.009v16.678H586.093L586.093,546.905z"/>
		<path opacity="0.5" fill="#A7A9AC" enable-background="new    " d="M763.67,546.905v-16.833
			c-12.163,4.656-27.985,8.497-47.468,10.339v-0.673h-7.848v1.498c-1.489,0-3.317,0-4.992,0.165v-1.663h-16.655v7.167H763.67
			L763.67,546.905z"/>
		<polygon fill="#FBB040" points="586.102,240.789 627.246,275.922 629.979,272.768 587.99,236.342 		"/>
		<g>
			<path fill="#FBB040" d="M648.933,305.313c-2.521,0-4.634,1.599-5.487,3.812h-30.7c-0.842-2.213-2.958-3.812-5.458-3.812
				c-3.271,0-5.907,2.639-5.907,5.883c0,3.287,2.637,5.922,5.907,5.922c2.514,0,4.638-1.594,5.458-3.823h30.7
				c0.854,2.229,2.949,3.823,5.487,3.823c3.251,0,5.887-2.635,5.887-5.922C654.82,307.95,652.184,305.313,648.933,305.313z"/>
			<path fill="#FBB040" d="M648.933,325.457c-2.521,0-4.634,1.586-5.487,3.799h-30.7c-0.842-2.213-2.958-3.799-5.458-3.799
				c-3.271,0-5.907,2.635-5.907,5.904c0,3.254,2.637,5.893,5.907,5.893c2.514,0,4.638-1.59,5.458-3.822h30.7
				c0.854,2.232,2.949,3.822,5.487,3.822c3.251,0,5.887-2.639,5.887-5.893C654.82,328.092,652.184,325.457,648.933,325.457z"/>
		</g>
		<g>
			<path fill="#FBB040" d="M648.933,413.677c-2.521,0-4.634,1.603-5.487,3.812h-30.7c-0.842-2.209-2.958-3.812-5.458-3.812
				c-3.271,0-5.907,2.634-5.907,5.896c0,3.27,2.637,5.903,5.907,5.903c2.514,0,4.638-1.586,5.458-3.814h30.7
				c0.854,2.229,2.949,3.814,5.487,3.814c3.251,0,5.887-2.635,5.887-5.903C654.82,416.311,652.184,413.677,648.933,413.677z"/>
			<path fill="#FBB040" d="M648.933,433.817c-2.521,0-4.634,1.603-5.487,3.812h-30.7c-0.842-2.209-2.958-3.812-5.458-3.812
				c-3.271,0-5.907,2.635-5.907,5.913c0,3.254,2.637,5.88,5.907,5.88c2.514,0,4.638-1.578,5.458-3.819h30.7
				c0.854,2.241,2.949,3.819,5.487,3.819c3.251,0,5.887-2.626,5.887-5.88C654.82,436.452,652.184,433.817,648.933,433.817z"/>
		</g>
		<g>
			<path fill="#FBB040" d="M648.933,522.045c-2.521,0-4.634,1.599-5.487,3.808h-30.7c-0.842-2.209-2.958-3.808-5.458-3.808
				c-3.271,0-5.907,2.643-5.907,5.896c0,3.271,2.637,5.912,5.907,5.912c2.514,0,4.638-1.594,5.458-3.831h30.7
				c0.854,2.237,2.949,3.831,5.487,3.831c3.251,0,5.887-2.643,5.887-5.912C654.82,524.688,652.184,522.045,648.933,522.045z"/>
			<path fill="#FBB040" d="M654.703,546.905c-0.549-2.704-2.925-4.72-5.771-4.72c-2.521,0-4.634,1.599-5.487,3.808h-30.7
				c-0.842-2.209-2.958-3.808-5.458-3.808c-2.866,0-5.239,2.016-5.783,4.72H654.703z"/>
		</g>
		<polygon fill="#D4A986" points="661.483,546.905 663.281,524.061 641.199,524.061 647.743,517.524 648.961,510.546 
			628.642,504.869 603.656,515.29 590.123,535.076 578.671,535.076 568.248,534.044 567.09,546.905 		"/>
		<polygon fill="#FDCFA5" points="705.86,546.905 704.531,532.302 693.442,533.412 681.24,533.412 666.825,512.326 640.21,501.215 
			618.559,507.28 619.859,514.688 626.835,521.67 603.314,521.67 597.472,538.189 600.957,546.905 		"/>
		<path fill="#780A0B" d="M836.166,546.905c16.165-13.649,23.263-25.958,24.884-29.146c4.006-7.672,5.021-16.669,2.505-25.005
			l-54.296-180.552c0,0-14.658-47.347-45.655-47.347v126.862l30.997,103.034c-6.003,5.33-15.822,12.172-30.997,18.011
			c-17.576,6.796-42.313,11.893-76.359,11.842l0.896,22.301L836.166,546.905L836.166,546.905z"/>
		<path fill="#780A0B" d="M430.35,546.905h150.569l-1.354-22.3c-34.198,0.082-59.026-5.037-76.64-11.843
			c-15.166-5.839-24.99-12.681-30.992-18.011l30.992-103.033V264.856c-30.992,0-45.651,47.347-45.651,47.347l-54.303,180.552
			c-2.509,8.336-1.494,17.333,2.504,25.005C407.105,520.947,414.2,533.256,430.35,546.905z"/>
		<rect x="686.762" y="522.354" fill="#FBB040" width="16.65" height="24.552"/>
		<rect x="569.442" y="522.354" fill="#FBB040" width="16.66" height="24.552"/>
		<rect x="708.356" y="522.354" fill="#FBB040" width="7.77" height="24.552"/>
		<rect x="557.386" y="522.354" fill="#FBB040" width="7.761" height="24.552"/>
	</g>
</g>
</svg>
