<?xml version="1.0" encoding="utf-8"?>
<!-- Generator: Adobe Illustrator 16.0.0, SVG Export Plug-In . SVG Version: 6.00 Build 0)  -->
<!DOCTYPE svg PUBLIC "-//W3C//DTD SVG 1.1//EN" "http://www.w3.org/Graphics/SVG/1.1/DTD/svg11.dtd">
<svg version="1.1" id="图层_1" xmlns="http://www.w3.org/2000/svg" xmlns:xlink="http://www.w3.org/1999/xlink" x="0px" y="0px"
	 width="906px" height="548px" viewBox="0 0 906 548" enable-background="new 0 0 906 548" xml:space="preserve">
<g>
	<path fill="#BADBAB" d="M627.143,0c-0.256,0.004-0.504,0.028-0.768,0.028h-59.007c-0.207,0-0.396-0.028-0.604-0.028H0v548h906.004
		V0H627.143z"/>
	<g>
		<g>
			<g>
				<path fill="#1F0700" d="M41.225,209.747V190.77l-25.299,2.064C23.996,200.052,32.305,206.286,41.225,209.747z"/>
				<path fill="#1F0700" d="M525.567,209.747c8.672-3.213,17.098-8.956,25.299-16.913l-25.299-2.064V209.747z"/>
			</g>
			<rect x="39.905" y="187.624" fill="#4A3122" width="485.744" height="129.303"/>
			<g>
				<path fill="#1F0700" d="M97.327,154.592v-18.968l-25.3,2.06C80.09,144.897,88.407,151.141,97.327,154.592z"/>
				<path fill="#1F0700" d="M470.073,154.592c8.689-3.225,17.105-8.968,25.31-16.908l-25.31-2.06V154.592z"/>
			</g>
			<rect x="96.007" y="132.478" fill="#4A3122" width="375.396" height="32.532"/>
			<g>
				<g>
					<g>
						<rect x="109.622" y="147.544" fill="#576B72" width="9.185" height="11.945"/>
						<rect x="122.808" y="147.544" fill="#576B72" width="9.167" height="11.945"/>
						<rect x="135.994" y="147.544" fill="#576B72" width="9.158" height="11.945"/>
						<rect x="149.168" y="147.544" fill="#576B72" width="9.18" height="11.945"/>
					</g>
					<g>
						<rect x="168.085" y="147.544" fill="#576B72" width="9.175" height="11.945"/>
						<rect x="181.27" y="147.544" fill="#576B72" width="9.176" height="11.945"/>
						<rect x="194.457" y="147.544" fill="#576B72" width="9.167" height="11.945"/>
						<rect x="207.635" y="147.544" fill="#576B72" width="9.167" height="11.945"/>
					</g>
				</g>
				<g>
					<g>
						<rect x="230.111" y="147.544" fill="#576B72" width="9.177" height="11.945"/>
						<rect x="243.305" y="147.544" fill="#576B72" width="9.159" height="11.945"/>
						<rect x="256.475" y="147.544" fill="#576B72" width="9.167" height="11.945"/>
						<rect x="269.661" y="147.544" fill="#576B72" width="9.167" height="11.945"/>
					</g>
					<g>
						<rect x="288.574" y="147.544" fill="#576B72" width="9.176" height="11.945"/>
						<rect x="301.76" y="147.544" fill="#576B72" width="9.168" height="11.945"/>
						<rect x="314.945" y="147.544" fill="#576B72" width="9.168" height="11.945"/>
						<rect x="328.122" y="147.544" fill="#576B72" width="9.177" height="11.945"/>
					</g>
				</g>
				<g>
					<g>
						<rect x="350.6" y="147.544" fill="#576B72" width="9.176" height="11.945"/>
						<rect x="363.795" y="147.544" fill="#576B72" width="9.168" height="11.945"/>
						<rect x="376.972" y="147.544" fill="#576B72" width="9.168" height="11.945"/>
						<rect x="390.142" y="147.544" fill="#576B72" width="9.184" height="11.945"/>
					</g>
					<g>
						<rect x="409.054" y="147.544" fill="#576B72" width="9.184" height="11.945"/>
						<rect x="422.248" y="147.544" fill="#576B72" width="9.177" height="11.945"/>
						<rect x="435.434" y="147.544" fill="#576B72" width="9.159" height="11.945"/>
						<rect x="448.612" y="147.544" fill="#576B72" width="9.175" height="11.945"/>
					</g>
				</g>
			</g>
			<path fill="#220C00" d="M77.16,246.222c-10.299,0-18.674,8.37-18.674,18.688v52.018H95.85V264.91
				C95.85,254.592,87.483,246.222,77.16,246.222z"/>
			<path fill="#220C00" d="M137.735,246.222L137.735,246.222c-10.313,0-18.673,8.37-18.673,18.688v52.018h37.347V264.91
				C156.408,254.592,148.05,246.222,137.735,246.222z"/>
			<path fill="#220C00" d="M202.337,246.222c-10.323,0-18.683,8.37-18.683,18.688v52.018h37.354V264.91
				C221.01,254.592,212.642,246.222,202.337,246.222z"/>
			<path fill="#220C00" d="M294.077,246.222h-23.104c-14.77,0-26.747,11.982-26.747,26.765v43.94h76.604v-43.94
				C320.828,258.204,308.856,246.222,294.077,246.222z"/>
			<path fill="#220C00" d="M363.827,246.222c-10.298,0-18.665,8.37-18.665,18.688v52.018h37.348V264.91
				C382.51,254.592,374.15,246.222,363.827,246.222z"/>
			<path fill="#220C00" d="M426.415,246.222c-10.313,0-18.665,8.37-18.665,18.688v52.018h37.339V264.91
				C445.089,254.592,436.73,246.222,426.415,246.222z"/>
			<path fill="#220C00" d="M488.995,246.222c-10.307,0-18.674,8.37-18.674,18.688v52.018h37.347V264.91
				C507.668,254.592,499.311,246.222,488.995,246.222z"/>
			<path fill="#E19D43" d="M415.647,102.86H151.771c-3.136,14.315-40.151,25.331-79.743,27.577v7.246h423.355v-7.246
				C455.79,128.191,418.775,117.176,415.647,102.86z"/>
			<rect x="72.028" y="130.438" fill="#DE772A" width="423.355" height="7.246"/>
			<rect x="151.771" y="97.798" fill="#E19D43" width="263.876" height="5.063"/>
			<g>
				<path fill="#E19D43" d="M404.854,84.11c-0.396-0.396-0.883-0.71-1.444-0.925l-0.023-0.008c0-0.009,0,0.008,0,0.008
					c-0.47-0.182-0.949-0.301-1.469-0.301c-2.303,0-4.159,1.866-4.159,4.161c0,2.288,1.856,4.15,4.159,4.15
					c0.52,0,1.022-0.116,1.484-0.294c0.174,4.026,0.404,8.146,0.404,8.146h10.051C416.3,90.159,409.681,85.226,404.854,84.11z"/>
				<path fill="#E19D43" d="M165.502,82.885c-0.521,0-1.021,0.119-1.479,0.301c0,0,0-0.017,0-0.008l-0.031,0.008
					c-0.546,0.215-1.05,0.528-1.453,0.925c-4.812,1.115-11.42,6.049-8.979,14.938h10.047c0,0,0.228-4.12,0.385-8.146
					c0.47,0.178,0.965,0.294,1.51,0.294c2.294,0,4.149-1.862,4.149-4.15C169.652,84.751,167.796,82.885,165.502,82.885z"/>
			</g>
			<g>
				<rect x="271.996" y="137.828" fill="#FBB040" width="23.409" height="25.848"/>
				<rect x="274.983" y="141.119" fill="#184DA9" width="17.444" height="19.262"/>
			</g>
			<rect x="96.007" y="137.771" fill="#BCBEC0" width="375.396" height="10.401"/>
			<g>
				<path fill="#E19D43" d="M487.725,119.715c-0.297-0.289-0.652-0.508-1.039-0.661l-0.01-0.017l-0.008,0.013
					c-0.339-0.128-0.685-0.206-1.039-0.206c-1.644,0-2.972,1.321-2.972,2.96c0,1.631,1.328,2.952,2.972,2.952
					c0.371,0,0.717-0.087,1.057-0.206c0.115,2.878,0.279,5.797,0.279,5.797h7.146C495.868,124.017,491.156,120.508,487.725,119.715z
					"/>
				<path fill="#E19D43" d="M81.79,118.844c-0.372,0-0.719,0.078-1.04,0.206l-0.008-0.013l-0.025,0.017
					c-0.388,0.153-0.734,0.372-1.031,0.661c-3.424,0.793-8.136,4.302-6.395,10.632h7.153c0,0,0.165-2.919,0.272-5.797
					c0.339,0.119,0.693,0.206,1.073,0.206c1.634,0,2.962-1.321,2.962-2.952C84.752,120.165,83.424,118.844,81.79,118.844z"/>
				<g>
					<path fill="#E19D43" d="M472.715,129.381l2.524,0.495c0,0,1.396-1.949,3.261-2.667c0.229-0.087,0.196-0.475-0.033-0.545
						C477.022,126.292,474.176,126.057,472.715,129.381z"/>
					<path fill="#E19D43" d="M466.94,128.237l2.525,0.508c0,0,1.401-1.958,3.258-2.664c0.223-0.091,0.215-0.475-0.023-0.536
						C471.245,125.156,468.401,124.913,466.94,128.237z"/>
					<path fill="#E19D43" d="M461.155,127.109l2.533,0.496c0,0,1.402-1.945,3.26-2.651c0.224-0.091,0.215-0.487-0.018-0.549
						C465.461,124.033,462.631,123.781,461.155,127.109z"/>
					<path fill="#E19D43" d="M455.493,125.846l2.533,0.496c0,0,1.396-1.949,3.242-2.672c0.24-0.074,0.223-0.458-0.016-0.52
						C459.801,122.762,456.963,122.519,455.493,125.846z"/>
					<path fill="#E19D43" d="M449.719,124.331l2.533,0.504c0,0,1.385-1.953,3.25-2.663c0.229-0.083,0.215-0.487-0.017-0.537
						C454.026,121.251,451.171,121.016,449.719,124.331z"/>
				</g>
				<g>
					<path fill="#E19D43" d="M86.848,126.664c-0.24,0.07-0.256,0.458-0.025,0.545c1.856,0.718,3.26,2.667,3.26,2.667l2.517-0.495
						C91.138,126.057,88.292,126.292,86.848,126.664z"/>
					<path fill="#E19D43" d="M92.615,125.545c-0.231,0.062-0.239,0.445-0.025,0.536c1.865,0.706,3.268,2.664,3.268,2.664
						l2.518-0.508C96.915,124.913,94.068,125.156,92.615,125.545z"/>
					<path fill="#E19D43" d="M98.4,124.405c-0.238,0.062-0.256,0.458-0.024,0.549c1.855,0.706,3.251,2.651,3.251,2.651l2.542-0.496
						C102.695,123.781,99.852,124.033,98.4,124.405z"/>
					<path fill="#E19D43" d="M104.06,123.15c-0.23,0.062-0.256,0.445-0.017,0.52c1.856,0.723,3.251,2.672,3.251,2.672l2.524-0.496
						C108.359,122.519,105.521,122.762,104.06,123.15z"/>
					<path fill="#E19D43" d="M109.844,121.635c-0.239,0.05-0.256,0.454-0.032,0.537c1.864,0.71,3.259,2.663,3.259,2.663l2.533-0.504
						C114.128,121.016,111.297,121.251,109.844,121.635z"/>
				</g>
			</g>
			<path fill="#E19D43" d="M471.651,169.068v-4.129H95.57v4.129c-3.481,1.783-5.453,2.354-12.36,5.376
				c-14.655,6.544-40.399,11.156-67.35,12.428v5.95h535.56v-5.95c-26.949-1.271-52.753-5.884-67.406-12.428
				C477.114,171.422,473.911,170.472,471.651,169.068z"/>
			<rect x="15.843" y="186.872" fill="#DE772A" width="535.566" height="5.954"/>
			<rect x="95.57" y="164.939" fill="#BCBEC0" width="376.081" height="4.129"/>
			<g>
				<g>
					<g>
						<rect x="42.108" y="207.979" fill="#576B72" width="32.75" height="11.941"/>
					</g>
					<g>
						<g>
							<rect x="40.309" y="223.596" fill="#BE1E2D" width="10.307" height="93.125"/>
							<rect x="39.178" y="223.596" fill="#BE1E2D" width="12.435" height="5.979"/>
							<rect x="39.178" y="310.741" fill="#BE1E2D" width="12.435" height="5.979"/>
						</g>
						<rect x="40.309" y="231.729" fill="#FBB040" width="10.307" height="11.99"/>
						<rect x="40.309" y="247.155" fill="#FBB040" width="10.307" height="2.37"/>
					</g>
					<g>
						<path fill="#BCBEC0" d="M53.66,244.059c0,0,21.71-1.004,21.71-20.203H53.66V244.059z M56.68,228.546
							c1.906-1.747,4.827-1.896,6.791-0.145c1.634,1.449,1.791,3.951,0.347,5.599c-0.544,0.604-1.295,0.971-2.111,1.021
							c-0.743,0.062-1.594-0.207-2.203-0.76c-0.47-0.417-0.743-0.983-0.784-1.615c-0.041-0.619,0.173-1.218,0.578-1.685
							c0.652-0.73,1.758-0.792,2.476-0.148c0.272,0.231,0.413,0.537,0.445,0.892c0.017,0.339-0.099,0.669-0.321,0.934l0.825,0.73
							c0.429-0.482,0.635-1.106,0.594-1.742c-0.023-0.64-0.313-1.23-0.809-1.639c-1.176-1.062-2.995-0.95-4.035,0.23
							c-0.61,0.706-0.916,1.582-0.858,2.503c0.05,0.912,0.471,1.754,1.155,2.361c0.768,0.682,1.741,1.057,2.756,1.057
							c0.083,0,0.173-0.012,0.248-0.012c1.122-0.063,2.138-0.566,2.872-1.4c1.849-2.089,1.659-5.31-0.438-7.151
							c-0.248-0.227-0.569-0.326-0.851-0.495h5.958c0,11.16-12.633,11.747-12.633,11.747v-10.282H56.68z"/>
					</g>
				</g>
				<g>
					<g>
						<rect x="78.2" y="207.979" fill="#576B72" width="26.404" height="11.941"/>
						<rect x="110.719" y="207.979" fill="#576B72" width="26.405" height="11.941"/>
					</g>
					<g>
						<g>
							<rect x="102.584" y="223.596" fill="#BE1E2D" width="10.289" height="93.125"/>
							<rect x="101.453" y="223.596" fill="#BE1E2D" width="12.427" height="5.979"/>
							<rect x="101.453" y="310.741" fill="#BE1E2D" width="12.427" height="5.979"/>
						</g>
						<rect x="102.584" y="231.729" fill="#FBB040" width="10.289" height="11.99"/>
						<rect x="102.584" y="247.155" fill="#FBB040" width="10.289" height="2.37"/>
					</g>
					<g>
						<path fill="#BCBEC0" d="M115.927,244.059c0,0,21.701-1.004,21.701-20.203h-21.701V244.059z M118.955,228.546
							c1.89-1.747,4.802-1.896,6.791-0.145c1.616,1.449,1.781,3.951,0.338,5.599c-0.545,0.604-1.279,0.971-2.112,1.021
							c-0.742,0.062-1.593-0.207-2.203-0.76c-0.462-0.417-0.743-0.983-0.774-1.615c-0.042-0.619,0.165-1.218,0.568-1.685
							c0.645-0.73,1.749-0.792,2.483-0.148c0.256,0.231,0.421,0.537,0.429,0.892c0.025,0.339-0.082,0.669-0.321,0.934l0.833,0.73
							c0.422-0.482,0.645-1.106,0.6-1.742c-0.046-0.64-0.334-1.23-0.796-1.639c-1.197-1.062-3.013-0.95-4.053,0.23
							c-0.614,0.706-0.916,1.582-0.857,2.503c0.058,0.912,0.471,1.754,1.155,2.361c0.759,0.682,1.74,1.057,2.756,1.057
							c0.091,0,0.165-0.012,0.256-0.012c1.104-0.063,2.121-0.566,2.872-1.4c1.848-2.089,1.642-5.31-0.438-7.151
							c-0.265-0.227-0.578-0.326-0.851-0.495h5.95c0,11.16-12.625,11.747-12.625,11.747V228.546L118.955,228.546z"/>
						<path fill="#BCBEC0" d="M99.398,244.059v-20.203H77.701C77.701,243.055,99.398,244.059,99.398,244.059z M89.703,227.08
							c-0.281,0.169-0.604,0.269-0.843,0.495c-2.104,1.842-2.302,5.063-0.444,7.151c0.726,0.834,1.757,1.338,2.862,1.4
							c0.082,0,0.165,0.012,0.257,0.012c1.022,0,1.979-0.375,2.748-1.057c0.7-0.607,1.113-1.449,1.171-2.361
							c0.05-0.921-0.255-1.797-0.866-2.503c-1.044-1.181-2.863-1.292-4.043-0.23c-0.479,0.408-0.769,0.999-0.81,1.639
							c-0.032,0.636,0.174,1.26,0.61,1.742l0.817-0.73c-0.224-0.265-0.338-0.595-0.322-0.934c0.024-0.354,0.165-0.66,0.438-0.892
							c0.727-0.644,1.849-0.582,2.476,0.148c0.413,0.467,0.619,1.065,0.578,1.685c-0.041,0.632-0.306,1.198-0.775,1.615
							c-0.611,0.553-1.469,0.821-2.203,0.76c-0.816-0.05-1.567-0.417-2.111-1.021c-1.437-1.647-1.288-4.149,0.338-5.599
							c1.972-1.751,4.885-1.603,6.782,0.145v10.281c0,0-12.607-0.587-12.607-11.747L89.703,227.08L89.703,227.08z"/>
					</g>
				</g>
				<g>
					<g>
						<rect x="140.928" y="207.979" fill="#576B72" width="26.405" height="11.941"/>
						<rect x="173.456" y="207.979" fill="#576B72" width="26.404" height="11.941"/>
					</g>
					<g>
						<g>
							<rect x="165.312" y="223.596" fill="#BE1E2D" width="10.289" height="93.125"/>
							<rect x="164.174" y="223.596" fill="#BE1E2D" width="12.435" height="5.979"/>
							<rect x="164.174" y="310.741" fill="#BE1E2D" width="12.435" height="5.979"/>
						</g>
						<rect x="165.312" y="231.729" fill="#FBB040" width="10.289" height="11.99"/>
						<rect x="165.312" y="247.155" fill="#FBB040" width="10.289" height="2.37"/>
					</g>
					<g>
						<path fill="#BCBEC0" d="M178.663,244.059c0,0,21.692-1.004,21.692-20.203h-21.692V244.059z M181.683,228.546
							c1.897-1.747,4.806-1.896,6.791-0.145c1.625,1.449,1.773,3.951,0.33,5.599c-0.537,0.604-1.279,0.971-2.104,1.021
							c-0.738,0.062-1.586-0.207-2.195-0.76c-0.479-0.417-0.751-0.983-0.792-1.615c-0.024-0.619,0.165-1.218,0.586-1.685
							c0.636-0.73,1.758-0.792,2.482-0.148c0.257,0.231,0.404,0.537,0.431,0.892c0.017,0.339-0.101,0.669-0.33,0.934l0.833,0.73
							c0.421-0.482,0.644-1.106,0.594-1.742c-0.032-0.64-0.321-1.23-0.8-1.639c-1.18-1.062-3.004-0.95-4.043,0.23
							c-0.611,0.706-0.908,1.582-0.858,2.503c0.049,0.912,0.462,1.754,1.155,2.361c0.768,0.682,1.741,1.057,2.756,1.057
							c0.091,0,0.173-0.012,0.264-0.012c1.106-0.063,2.13-0.566,2.863-1.4c1.85-2.089,1.644-5.31-0.437-7.151
							c-0.256-0.227-0.57-0.326-0.852-0.495h5.941c0,11.16-12.616,11.747-12.616,11.747V228.546L181.683,228.546z"/>
						<path fill="#BCBEC0" d="M162.135,244.059v-20.203h-21.709C140.426,243.055,162.135,244.059,162.135,244.059z M152.431,227.08
							c-0.281,0.169-0.586,0.269-0.858,0.495c-2.078,1.842-2.276,5.063-0.429,7.151c0.734,0.834,1.749,1.338,2.863,1.4
							c0.074,0,0.164,0.012,0.256,0.012c1.022,0,1.988-0.375,2.764-1.057c0.678-0.607,1.091-1.449,1.147-2.361
							c0.058-0.921-0.248-1.797-0.858-2.503c-1.04-1.181-2.854-1.292-4.043-0.23c-0.479,0.408-0.76,0.999-0.801,1.639
							c-0.041,0.636,0.165,1.26,0.594,1.742l0.834-0.73c-0.23-0.265-0.347-0.595-0.321-0.934c0.017-0.354,0.174-0.66,0.43-0.892
							c0.726-0.644,1.848-0.582,2.483,0.148c0.411,0.467,0.627,1.065,0.576,1.685c-0.031,0.632-0.313,1.198-0.782,1.615
							c-0.619,0.553-1.461,0.821-2.221,0.76c-0.809-0.05-1.552-0.417-2.088-1.021c-1.452-1.647-1.296-4.149,0.338-5.599
							c1.98-1.751,4.887-1.603,6.774,0.145v10.281c0,0-12.607-0.587-12.607-11.747L152.431,227.08L152.431,227.08z"/>
					</g>
				</g>
				<g>
					<g>
						<rect x="203.657" y="207.979" fill="#576B72" width="26.396" height="11.941"/>
						<rect x="236.177" y="207.979" fill="#576B72" width="26.404" height="11.941"/>
					</g>
					<g>
						<g>
							<rect x="228.032" y="223.596" fill="#BE1E2D" width="10.306" height="93.125"/>
							<rect x="226.893" y="223.596" fill="#BE1E2D" width="12.443" height="5.979"/>
							<rect x="226.893" y="310.741" fill="#BE1E2D" width="12.443" height="5.979"/>
						</g>
						<rect x="228.032" y="231.729" fill="#FBB040" width="10.306" height="11.99"/>
						<rect x="228.032" y="247.155" fill="#FBB040" width="10.306" height="2.37"/>
					</g>
					<g>
						<path fill="#BCBEC0" d="M241.383,244.059c0,0,21.71-1.004,21.71-20.203h-21.71V244.059z M244.407,228.546
							c1.901-1.747,4.822-1.896,6.795-0.145c1.626,1.449,1.781,3.951,0.347,5.599c-0.553,0.604-1.304,0.971-2.112,1.021
							c-0.742,0.062-1.601-0.207-2.211-0.76c-0.471-0.417-0.743-0.983-0.784-1.615c-0.032-0.619,0.165-1.218,0.586-1.685
							c0.636-0.73,1.749-0.792,2.479-0.148c0.26,0.231,0.417,0.537,0.433,0.892c0.018,0.339-0.099,0.669-0.32,0.934l0.833,0.73
							c0.421-0.482,0.627-1.106,0.595-1.742c-0.033-0.64-0.33-1.23-0.817-1.639c-1.172-1.062-2.995-0.95-4.035,0.23
							c-0.602,0.706-0.916,1.582-0.85,2.503c0.041,0.912,0.454,1.754,1.155,2.361c0.759,0.682,1.732,1.057,2.756,1.057
							c0.074,0,0.157-0.012,0.252-0.012c1.109-0.063,2.133-0.566,2.859-1.4c1.855-2.089,1.657-5.31-0.438-7.151
							c-0.248-0.227-0.569-0.326-0.851-0.495h5.958c0,11.16-12.63,11.747-12.63,11.747L244.407,228.546L244.407,228.546z"/>
						<path fill="#BCBEC0" d="M224.855,244.059v-20.203h-21.702C203.153,243.055,224.855,244.059,224.855,244.059z M215.168,227.08
							c-0.289,0.169-0.604,0.269-0.858,0.495c-2.096,1.842-2.276,5.063-0.438,7.151c0.733,0.834,1.75,1.338,2.872,1.4
							c0.082,0,0.165,0.012,0.247,0.012c1.016,0,1.988-0.375,2.757-1.057c0.691-0.607,1.104-1.449,1.153-2.361
							c0.06-0.921-0.247-1.797-0.856-2.503c-1.04-1.181-2.855-1.292-4.035-0.23c-0.479,0.408-0.775,0.999-0.809,1.639
							c-0.041,0.636,0.173,1.26,0.586,1.742l0.842-0.73c-0.24-0.265-0.348-0.595-0.33-0.934c0.023-0.354,0.181-0.66,0.445-0.892
							c0.718-0.644,1.84-0.582,2.482,0.148c0.404,0.467,0.61,1.065,0.569,1.685c-0.033,0.632-0.313,1.198-0.775,1.615
							c-0.619,0.553-1.469,0.821-2.212,0.76c-0.825-0.05-1.575-0.417-2.112-1.021c-1.447-1.647-1.286-4.149,0.355-5.599
							c1.964-1.751,4.893-1.603,6.774,0.145v10.281c0,0-12.617-0.587-12.617-11.747L215.168,227.08L215.168,227.08z"/>
					</g>
				</g>
			</g>
			<g>
				<g>
					<g>
						<rect x="490.967" y="207.979" fill="#576B72" width="32.76" height="11.941"/>
					</g>
					<g>
						<g>
							<rect x="515.219" y="223.596" fill="#BE1E2D" width="10.307" height="93.125"/>
							<rect x="514.221" y="223.596" fill="#BE1E2D" width="12.436" height="5.979"/>
							<rect x="514.221" y="310.741" fill="#BE1E2D" width="12.436" height="5.979"/>
						</g>
						<rect x="515.219" y="231.729" fill="#FBB040" width="10.307" height="11.99"/>
						<rect x="515.219" y="247.155" fill="#FBB040" width="10.307" height="2.37"/>
					</g>
					<g>
						<path fill="#BCBEC0" d="M512.174,244.059v-20.203h-21.693C490.481,243.055,512.174,244.059,512.174,244.059z M502.479,227.08
							c-0.273,0.169-0.602,0.269-0.85,0.495c-2.097,1.842-2.287,5.063-0.438,7.151c0.734,0.834,1.75,1.338,2.859,1.4
							c0.086,0,0.178,0.012,0.268,0.012c1.006,0,1.98-0.375,2.74-1.057c0.693-0.607,1.113-1.449,1.162-2.361
							c0.059-0.921-0.256-1.797-0.851-2.503c-1.047-1.181-2.862-1.292-4.051-0.23c-0.479,0.408-0.768,0.999-0.809,1.639
							c-0.033,0.636,0.174,1.26,0.602,1.742l0.834-0.73c-0.229-0.265-0.338-0.595-0.33-0.934c0.033-0.354,0.183-0.66,0.435-0.892
							c0.737-0.644,1.844-0.582,2.487,0.148c0.404,0.467,0.617,1.065,0.584,1.685c-0.049,0.632-0.319,1.198-0.791,1.615
							c-0.618,0.553-1.469,0.821-2.202,0.76c-0.826-0.05-1.568-0.417-2.113-1.021c-1.443-1.647-1.295-4.149,0.348-5.599
							c1.972-1.751,4.886-1.603,6.783,0.145v10.281c0,0-12.617-0.587-12.617-11.747L502.479,227.08L502.479,227.08z"/>
					</g>
				</g>
				<g>
					<g>
						<rect x="461.229" y="207.979" fill="#576B72" width="26.406" height="11.941"/>
						<rect x="428.71" y="207.979" fill="#576B72" width="26.396" height="11.941"/>
					</g>
					<g>
						<g>
							<rect x="452.961" y="223.596" fill="#BE1E2D" width="10.297" height="93.125"/>
							<rect x="451.953" y="223.596" fill="#BE1E2D" width="12.436" height="5.979"/>
							<rect x="451.953" y="310.741" fill="#BE1E2D" width="12.436" height="5.979"/>
						</g>
						<rect x="452.961" y="231.729" fill="#FBB040" width="10.297" height="11.99"/>
						<rect x="452.961" y="247.155" fill="#FBB040" width="10.297" height="2.37"/>
					</g>
					<g>
						<path fill="#BCBEC0" d="M449.907,244.059v-20.203h-21.701C428.206,243.055,449.907,244.059,449.907,244.059z M440.213,227.08
							c-0.281,0.169-0.591,0.269-0.858,0.495c-2.079,1.842-2.277,5.063-0.434,7.151c0.747,0.834,1.754,1.338,2.867,1.4
							c0.091,0,0.174,0.012,0.257,0.012c1.021,0,1.996-0.375,2.756-1.057c0.691-0.607,1.097-1.449,1.154-2.361
							c0.059-0.921-0.247-1.797-0.866-2.503c-1.031-1.181-2.848-1.292-4.034-0.23c-0.479,0.408-0.76,0.999-0.801,1.639
							c-0.041,0.636,0.165,1.26,0.594,1.742l0.834-0.73c-0.239-0.265-0.347-0.595-0.313-0.934c0-0.354,0.165-0.66,0.422-0.892
							c0.726-0.644,1.848-0.582,2.482,0.148c0.412,0.467,0.619,1.065,0.577,1.685c-0.033,0.632-0.321,1.198-0.783,1.615
							c-0.619,0.553-1.461,0.821-2.212,0.76c-0.815-0.05-1.56-0.417-2.104-1.021c-1.443-1.647-1.287-4.149,0.347-5.599
							c1.979-1.751,4.894-1.603,6.783,0.145v10.281c0,0-12.616-0.587-12.616-11.747L440.213,227.08L440.213,227.08z"/>
						<path fill="#BCBEC0" d="M466.436,244.059c0,0,21.701-1.004,21.701-20.203h-21.701V244.059z M469.465,228.546
							c1.896-1.747,4.817-1.896,6.791-0.145c1.633,1.449,1.772,3.951,0.338,5.599c-0.537,0.604-1.297,0.971-2.105,1.021
							c-0.75,0.062-1.592-0.207-2.211-0.76c-0.461-0.417-0.733-0.983-0.783-1.615c-0.032-0.619,0.168-1.218,0.578-1.685
							c0.644-0.73,1.756-0.792,2.482-0.148c0.272,0.231,0.412,0.537,0.43,0.892c0.025,0.339-0.092,0.669-0.305,0.934l0.815,0.73
							c0.431-0.482,0.644-1.106,0.603-1.742c-0.041-0.64-0.33-1.23-0.816-1.639c-1.172-1.062-2.985-0.95-4.035,0.23
							c-0.61,0.706-0.907,1.582-0.856,2.503c0.049,0.912,0.469,1.754,1.154,2.361c0.768,0.682,1.741,1.057,2.756,1.057
							c0.092,0,0.174-0.012,0.256-0.012c1.115-0.063,2.129-0.566,2.871-1.4c1.842-2.089,1.643-5.31-0.453-7.151
							c-0.248-0.227-0.558-0.326-0.834-0.495h5.94c0,11.16-12.614,11.747-12.614,11.747L469.465,228.546L469.465,228.546z"/>
					</g>
				</g>
				<g>
					<g>
						<rect x="398.509" y="207.979" fill="#576B72" width="26.396" height="11.941"/>
						<rect x="365.981" y="207.979" fill="#576B72" width="26.405" height="11.941"/>
					</g>
					<g>
						<g>
							<rect x="390.224" y="223.596" fill="#BE1E2D" width="10.307" height="93.125"/>
							<rect x="389.226" y="223.596" fill="#BE1E2D" width="12.435" height="5.979"/>
							<rect x="389.226" y="310.741" fill="#BE1E2D" width="12.435" height="5.979"/>
						</g>
						<rect x="390.224" y="231.729" fill="#FBB040" width="10.307" height="11.99"/>
						<rect x="390.224" y="247.155" fill="#FBB040" width="10.307" height="2.37"/>
					</g>
					<g>
						<path fill="#BCBEC0" d="M387.179,244.059v-20.203h-21.71C365.469,243.055,387.179,244.059,387.179,244.059z M377.475,227.08
							c-0.271,0.169-0.585,0.269-0.841,0.495c-2.088,1.842-2.295,5.063-0.446,7.151c0.743,0.834,1.758,1.338,2.872,1.4
							c0.082,0,0.165,0.012,0.256,0.012c1.015,0,1.988-0.375,2.756-1.057c0.693-0.607,1.099-1.449,1.155-2.361
							c0.058-0.921-0.248-1.797-0.866-2.503c-1.022-1.181-2.854-1.292-4.035-0.23c-0.479,0.408-0.76,0.999-0.809,1.639
							c-0.042,0.636,0.182,1.26,0.602,1.742l0.825-0.73c-0.229-0.265-0.347-0.595-0.313-0.934c0.017-0.354,0.165-0.66,0.43-0.892
							c0.726-0.644,1.84-0.582,2.483,0.148c0.403,0.467,0.627,1.065,0.576,1.685c-0.031,0.632-0.32,1.198-0.782,1.615
							c-0.611,0.553-1.47,0.821-2.203,0.76c-0.825-0.05-1.568-0.417-2.104-1.021c-1.443-1.647-1.304-4.149,0.33-5.599
							c1.98-1.751,4.901-1.603,6.791,0.145v10.281c0,0-12.616-0.587-12.616-11.747L377.475,227.08L377.475,227.08z"/>
						<path fill="#BCBEC0" d="M403.707,244.059c0,0,21.701-1.004,21.701-20.203h-21.701V244.059z M406.736,228.546
							c1.891-1.747,4.812-1.896,6.791-0.145c1.629,1.449,1.773,3.951,0.338,5.599c-0.545,0.604-1.287,0.971-2.104,1.021
							c-0.752,0.062-1.603-0.207-2.212-0.76c-0.462-0.417-0.751-0.983-0.775-1.615c-0.05-0.619,0.156-1.218,0.573-1.685
							c0.631-0.73,1.754-0.792,2.472-0.148c0.264,0.231,0.421,0.537,0.438,0.892c0.032,0.339-0.082,0.669-0.33,0.934l0.842,0.73
							c0.43-0.482,0.644-1.106,0.603-1.742c-0.05-0.64-0.325-1.23-0.809-1.639c-1.188-1.062-3.004-0.95-4.043,0.23
							c-0.603,0.706-0.908,1.582-0.858,2.503c0.066,0.912,0.472,1.754,1.155,2.361c0.775,0.682,1.732,1.057,2.765,1.057
							c0.082,0,0.174-0.012,0.239-0.012c1.122-0.063,2.138-0.566,2.871-1.4c1.849-2.089,1.658-5.31-0.438-7.151
							c-0.265-0.227-0.569-0.326-0.854-0.495h5.953c0,11.16-12.616,11.747-12.616,11.747V228.546L406.736,228.546z"/>
					</g>
				</g>
				<g>
					<g>
						<rect x="335.768" y="207.979" fill="#576B72" width="26.405" height="11.941"/>
						<rect x="303.253" y="207.979" fill="#576B72" width="26.396" height="11.941"/>
					</g>
					<g>
						<g>
							<rect x="327.495" y="223.596" fill="#BE1E2D" width="10.299" height="93.125"/>
							<rect x="326.497" y="223.596" fill="#BE1E2D" width="12.439" height="5.979"/>
							<rect x="326.497" y="310.741" fill="#BE1E2D" width="12.439" height="5.979"/>
						</g>
						<rect x="327.495" y="231.729" fill="#FBB040" width="10.299" height="11.99"/>
						<rect x="327.495" y="247.155" fill="#FBB040" width="10.299" height="2.37"/>
					</g>
					<g>
						<path fill="#BCBEC0" d="M324.45,244.059v-20.203h-21.709C302.741,243.055,324.45,244.059,324.45,244.059z M314.756,227.08
							c-0.28,0.169-0.595,0.269-0.858,0.495c-2.087,1.842-2.285,5.063-0.429,7.151c0.733,0.834,1.749,1.338,2.863,1.4
							c0.081,0,0.164,0.012,0.271,0.012c0.998,0,1.972-0.375,2.739-1.057c0.685-0.607,1.098-1.449,1.155-2.361
							c0.05-0.921-0.257-1.797-0.858-2.503c-1.048-1.181-2.854-1.292-4.035-0.23c-0.479,0.408-0.783,0.999-0.809,1.639
							c-0.041,0.636,0.165,1.26,0.586,1.742l0.825-0.73c-0.215-0.265-0.334-0.595-0.313-0.934c0.017-0.354,0.165-0.66,0.438-0.892
							c0.727-0.644,1.832-0.582,2.476,0.148c0.408,0.467,0.61,1.065,0.586,1.685c-0.042,0.632-0.322,1.198-0.792,1.615
							c-0.611,0.553-1.453,0.821-2.199,0.76c-0.82-0.05-1.563-0.417-2.101-1.021c-1.46-1.647-1.304-4.149,0.339-5.599
							c1.964-1.751,4.893-1.603,6.782,0.145v10.281c0,0-12.624-0.587-12.624-11.747L314.756,227.08L314.756,227.08z"/>
						<path fill="#BCBEC0" d="M340.979,244.059c0,0,21.701-1.004,21.701-20.203h-21.701V244.059z M344.008,228.546
							c1.89-1.747,4.803-1.896,6.791-0.145c1.625,1.449,1.791,3.951,0.338,5.599c-0.536,0.604-1.287,0.971-2.112,1.021
							c-0.742,0.062-1.593-0.207-2.211-0.76c-0.462-0.417-0.743-0.983-0.776-1.615c-0.031-0.619,0.166-1.218,0.578-1.685
							c0.636-0.73,1.758-0.792,2.483-0.148c0.256,0.231,0.413,0.537,0.438,0.892c0.018,0.339-0.091,0.669-0.33,0.934l0.843,0.73
							c0.413-0.482,0.619-1.106,0.594-1.742c-0.041-0.64-0.338-1.23-0.809-1.639c-1.188-1.062-3.004-0.95-4.035,0.23
							c-0.61,0.706-0.924,1.582-0.857,2.503c0.049,0.912,0.462,1.754,1.155,2.361c0.759,0.682,1.725,1.057,2.747,1.057
							c0.083,0,0.165-0.012,0.256-0.012c1.114-0.063,2.129-0.566,2.859-1.4c1.845-2.089,1.671-5.31-0.434-7.151
							c-0.256-0.227-0.562-0.326-0.857-0.495h5.957c0,11.16-12.616,11.747-12.616,11.747L344.008,228.546L344.008,228.546z"/>
					</g>
				</g>
			</g>
			<rect x="266.055" y="207.979" fill="#576B72" width="34.104" height="11.941"/>
			<path fill="#BCBEC0" d="M282.583,223.855h-17.46c0,14.24,14.25,16.499,17.46,16.817v0.065c0,0,0.141,0,0.33-0.017
				c0.206,0.017,0.339,0.017,0.339,0.017v-0.065c3.201-0.318,17.46-2.577,17.46-16.817h-17.46H282.583z M280.719,236.362
				c0,0-10.546-0.487-10.546-9.811h4.976c-0.238,0.148-0.495,0.231-0.718,0.413c-1.741,1.552-1.914,4.224-0.371,5.975
				c0.627,0.693,1.485,1.11,2.401,1.168c0.074,0.009,0.147,0.009,0.214,0.009c0.851,0,1.675-0.302,2.311-0.876
				c0.577-0.508,0.916-1.214,0.975-1.981c0.033-0.76-0.224-1.503-0.727-2.077c-0.875-0.986-2.4-1.09-3.392-0.202
				c-0.396,0.355-0.636,0.834-0.677,1.371c-0.018,0.54,0.156,1.053,0.512,1.457l0.692-0.619c-0.189-0.215-0.288-0.495-0.265-0.772
				c0.009-0.297,0.148-0.558,0.355-0.755c0.618-0.533,1.543-0.476,2.079,0.128c0.338,0.388,0.512,0.892,0.485,1.407
				c-0.041,0.533-0.264,1.004-0.66,1.342c-0.503,0.463-1.221,0.702-1.848,0.648c-0.686-0.041-1.304-0.351-1.741-0.854
				c-1.229-1.371-1.098-3.473,0.265-4.683c1.649-1.461,4.102-1.342,5.678,0.12L280.719,236.362L280.719,236.362z M285.116,227.77
				c1.585-1.462,4.034-1.581,5.677-0.12c1.361,1.21,1.484,3.312,0.281,4.683c-0.454,0.504-1.081,0.813-1.759,0.854
				c-0.636,0.054-1.345-0.186-1.855-0.648c-0.371-0.338-0.604-0.809-0.645-1.342c-0.041-0.516,0.132-1.021,0.479-1.407
				c0.528-0.604,1.46-0.661,2.079-0.128c0.206,0.197,0.339,0.458,0.354,0.755c0.025,0.277-0.064,0.558-0.264,0.772l0.693,0.619
				c0.354-0.404,0.527-0.917,0.503-1.457c-0.041-0.537-0.272-1.016-0.668-1.371c-0.999-0.888-2.518-0.784-3.393,0.202
				c-0.512,0.574-0.759,1.317-0.71,2.077c0.042,0.768,0.388,1.474,0.966,1.981c0.627,0.574,1.452,0.876,2.303,0.876
				c0.074,0,0.141,0,0.215-0.009c0.925-0.058,1.766-0.475,2.394-1.168c1.543-1.751,1.386-4.423-0.363-5.975
				c-0.215-0.182-0.479-0.265-0.718-0.413h4.977c0,9.323-10.546,9.811-10.546,9.811V227.77L285.116,227.77z"/>
			<rect x="39.905" y="193.186" fill="#BCBEC0" width="485.744" height="38.841"/>
		</g>
		<rect x="29.268" y="314.04" fill="#FFFFFF" width="508.724" height="36.364"/>
		<rect x="29.268" y="325.654" fill="#BCBEC0" width="508.724" height="3.593"/>
		<rect x="231.761" y="314.04" fill="#D1D3D4" width="103.729" height="7.42"/>
		<rect x="231.761" y="323.689" fill="#D1D3D4" width="103.729" height="7.416"/>
		<rect x="231.761" y="333.343" fill="#D1D3D4" width="103.729" height="7.416"/>
		<rect x="231.761" y="342.996" fill="#D1D3D4" width="103.729" height="7.408"/>
		<rect x="270.972" y="315.415" fill="#FFFFFF" width="25.324" height="33.494"/>
		<rect x="272.953" y="318.041" fill="#E6E7E8" width="21.354" height="28.246"/>
		<rect x="219.45" y="314.04" fill="#BCBEC0" width="8.036" height="36.364"/>
		<rect x="223.997" y="314.04" fill="#FFFFFF" width="8.037" height="36.364"/>
		<rect x="330.87" y="314.04" fill="#BCBEC0" width="8.029" height="36.364"/>
		<rect x="335.418" y="314.04" fill="#FFFFFF" width="8.027" height="36.364"/>
	</g>
	<g>
		<rect x="630.84" y="492.787" fill="#939598" width="261.862" height="22.271"/>
		<rect x="280.883" y="492.787" fill="#939598" width="261.863" height="22.271"/>
		<rect x="539.676" y="473.005" fill="#58595B" width="91.766" height="51.69"/>
		<rect x="539.676" y="473.811" fill="#939598" width="91.766" height="7.168"/>
		<rect x="539.676" y="482.308" fill="#939598" width="91.766" height="7.173"/>
		<rect x="539.676" y="490.805" fill="#939598" width="91.766" height="7.168"/>
		<rect x="539.676" y="499.319" fill="#939598" width="91.766" height="7.158"/>
		<rect x="539.676" y="507.8" fill="#939598" width="91.766" height="7.186"/>
		<rect x="539.676" y="516.313" fill="#939598" width="91.766" height="7.178"/>
		<g>
			<path fill="#4B0402" d="M705.096,100.746H467.532C467.532,145.735,705.096,145.735,705.096,100.746z"/>
			<path fill="#601312" d="M705.077,95.226C665.01,78.273,605.697,43.66,586.288,22.73c-19.35,20.93-78.715,55.543-118.797,72.496
				c-2.854,1.177-1.973,5.476,1.131,5.476h235.326C707.133,100.701,708,96.402,705.077,95.226z"/>
			<rect x="581.997" y="0.028" fill="#F7941E" width="8.623" height="26.508"/>
			<path fill="#FBB040" d="M574.365,0.028v5.483c0,5.198,4.201,9.41,9.398,9.41h5.084c5.199,0,9.414-4.212,9.414-9.41V0.028H574.365
				z"/>
			<rect x="580.323" y="24.732" fill="#601312" width="11.98" height="3.835"/>
			<rect x="580.323" y="20.219" fill="#601312" width="11.98" height="2.957"/>
			<rect x="504.641" y="124.847" fill="#BCBEC0" width="163.34" height="45.084"/>
			<rect x="504.641" y="158.383" fill="#A85647" width="163.34" height="11.548"/>
			<rect x="457.045" y="238.212" fill="#BCBEC0" width="258.528" height="48.054"/>
			<rect x="457.045" y="269.881" fill="#A85647" width="258.528" height="16.385"/>
			<path fill="#9D3132" d="M705.077,95.226c-78.348,3.291-157.555,3.291-237.586,0c-2.854,1.177-1.973,5.476,1.131,5.476
				c80.566,3.922,159.14,4.157,235.326,0C707.133,100.701,708,96.402,705.077,95.226z"/>
			<path fill="#4B0402" d="M686.206,90.589c-41.899-15.876-91.459-57.05-95.534-60.469h-8.716
				c-4.075,3.419-53.635,44.593-95.545,60.469c-0.411,0.141-0.608,0.603-0.461,1.02c0.107,0.343,0.412,0.537,0.726,0.537
				c0.084,0,0.182-0.017,0.266-0.05c29.424-11.147,62.555-34.654,81.312-49.048c-15.621,13.597-41.316,34.53-65.369,47.57
				c-0.379,0.215-0.521,0.701-0.33,1.103c0.141,0.26,0.412,0.425,0.686,0.425c0.131,0,0.256-0.024,0.371-0.095
				c26.041-14.121,54.021-37.467,69.14-50.819c-12.328,12.763-33.378,33.726-53.412,49.461c-0.33,0.269-0.404,0.78-0.148,1.131
				c0.156,0.219,0.404,0.322,0.627,0.322c0.166,0,0.322-0.05,0.471-0.165c22.955-18.035,47.33-42.986,58.339-54.605
				c-8.392,11.438-25.447,34.052-42.816,53.412c-0.289,0.33-0.273,0.843,0.049,1.144c0.142,0.145,0.338,0.215,0.529,0.215
				c0.205,0,0.404-0.095,0.561-0.256c18.931-21.12,37.486-46.063,44.904-56.266c-4.922,10.059-16.123,32.367-29.564,55.3
				c-0.223,0.371-0.106,0.879,0.257,1.106c0.131,0.074,0.274,0.115,0.403,0.115c0.265,0,0.521-0.145,0.66-0.388
				c14.291-24.365,26.049-47.995,30.432-57.071c-2.079,8.812-7.282,29.906-15.266,56.41c-0.133,0.43,0.107,0.884,0.521,1.008
				c0.069,0.024,0.147,0.041,0.223,0.041c0.33,0,0.635-0.215,0.742-0.565c7.854-26.079,12.987-46.794,15.149-55.882
				c0.019,5.054,0.06,13.733,0.125,25.963c-0.059,8.279-0.125,18.151-0.225,29.667c0,0.446,0.34,0.817,0.777,0.817l0,0
				c0.09,0,0.147-0.07,0.223-0.104c0.09,0.033,0.139,0.104,0.223,0.104h0.017c0.438,0,0.771-0.371,0.771-0.817
				c-0.104-11.516-0.178-21.388-0.233-29.667c0.09-12.229,0.114-20.909,0.131-25.963c2.17,9.088,7.295,29.803,15.149,55.882
				c0.107,0.351,0.404,0.565,0.742,0.565c0.066,0,0.158-0.017,0.224-0.041c0.403-0.124,0.651-0.578,0.521-1.008
				c-7.988-26.504-13.19-47.599-15.283-56.41c4.416,9.076,16.166,32.706,30.433,57.071c0.157,0.243,0.414,0.388,0.686,0.388
				c0.133,0,0.271-0.041,0.396-0.115c0.362-0.228,0.479-0.735,0.256-1.106c-13.435-22.933-24.648-45.241-29.56-55.3
				c7.41,10.203,25.961,35.146,44.89,56.266c0.157,0.161,0.362,0.256,0.577,0.256c0.187,0,0.38-0.07,0.537-0.215
				c0.313-0.301,0.33-0.813,0.033-1.144c-17.371-19.36-34.41-41.975-42.811-53.412c11,11.619,35.375,36.57,58.33,54.605
				c0.141,0.115,0.299,0.165,0.463,0.165c0.239,0,0.479-0.104,0.635-0.322c0.252-0.351,0.182-0.862-0.156-1.131
				c-20.018-15.735-41.084-36.698-53.396-49.461c15.108,13.353,43.1,36.698,69.141,50.819c0.107,0.07,0.23,0.095,0.355,0.095
				c0.271,0,0.553-0.165,0.692-0.425c0.197-0.401,0.041-0.888-0.33-1.103c-24.045-13.04-49.741-33.974-65.354-47.57
				c18.756,14.394,51.877,37.9,81.287,49.048c0.09,0.033,0.182,0.05,0.271,0.05c0.305,0,0.611-0.194,0.728-0.537
				C686.819,91.191,686.612,90.729,686.206,90.589z"/>
			<g>
				<rect x="513.065" y="130.041" fill="#E6E7E8" width="31.381" height="19.431"/>
				<rect x="551.444" y="130.041" fill="#E6E7E8" width="31.363" height="19.431"/>
				<rect x="589.805" y="130.041" fill="#E6E7E8" width="31.381" height="19.431"/>
				<rect x="628.182" y="130.041" fill="#E6E7E8" width="31.373" height="19.431"/>
			</g>
			<g>
				<g>
					<rect x="467.829" y="244.124" fill="#E6E7E8" width="31.793" height="19.436"/>
					<rect x="506.711" y="244.124" fill="#E6E7E8" width="31.793" height="19.436"/>
				</g>
				<g>
					<rect x="550.973" y="244.124" fill="#E6E7E8" width="31.793" height="19.436"/>
					<rect x="589.854" y="244.124" fill="#E6E7E8" width="31.793" height="19.436"/>
				</g>
				<g>
					<rect x="634.115" y="244.124" fill="#E6E7E8" width="31.793" height="19.436"/>
					<rect x="673.006" y="244.124" fill="#E6E7E8" width="31.793" height="19.436"/>
				</g>
			</g>
			<rect x="504.641" y="124.563" fill="#BCBEC0" width="163.34" height="10.982"/>
			<path fill="#601312" d="M503.995,168.424c0,0-38.551,23.229-62.175,39.002v7.466l15.406,23.841h258.166l15.414-23.841v-7.466
				c-23.633-15.772-62.176-39.002-62.176-39.002H503.995z"/>
			<path fill="#9D3132" d="M730.362,207.426H442.267c-2.055,0-3.738,1.681-3.738,3.729c0,2.057,1.685,3.737,3.738,3.737h288.094
				c2.047,0,3.73-1.681,3.73-3.737C734.092,209.106,732.407,207.426,730.362,207.426z"/>
			<polygon fill="#4B0402" points="457.227,238.732 715.393,238.732 730.807,214.892 441.821,214.892 			"/>
			<rect x="387.657" y="354.975" fill="#BCBEC0" width="397.321" height="118.877"/>
			<g>
				<g>
					<rect x="404.202" y="360.893" fill="#E6E7E8" width="48.874" height="32.924"/>
					<rect x="463.977" y="360.893" fill="#E6E7E8" width="48.865" height="32.924"/>
				</g>
				<g>
					<rect x="531.987" y="360.893" fill="#E6E7E8" width="48.881" height="32.924"/>
					<rect x="591.76" y="360.893" fill="#E6E7E8" width="48.865" height="32.924"/>
				</g>
				<g>
					<rect x="659.778" y="360.893" fill="#E6E7E8" width="48.875" height="32.924"/>
					<rect x="719.553" y="360.893" fill="#E6E7E8" width="48.865" height="32.924"/>
				</g>
			</g>
			<path fill="#601312" d="M459.793,285.184c0,0-59.23,23.237-95.545,39.01v7.457l23.675,23.842h396.774l23.674-23.842v-7.457
				c-36.321-15.771-95.539-39.01-95.539-39.01H459.793L459.793,285.184z"/>
			<path fill="#9D3132" d="M809.692,324.193H362.928c-2.071,0-3.738,1.676-3.738,3.731c0,2.048,1.667,3.726,3.738,3.726h446.763
				c2.055,0,3.73-1.678,3.73-3.726C813.422,325.869,811.745,324.193,809.692,324.193z"/>
			<polygon fill="#4B0402" points="387.923,355.491 784.698,355.491 808.37,331.65 364.248,331.65 			"/>
			<g>
				<rect x="569.688" y="105.053" fill="#FBB040" width="33.254" height="62.979"/>
				<rect x="575.901" y="111.865" fill="#184DA9" width="20.818" height="49.346"/>
			</g>
			<g>
				<rect x="619.569" y="121.251" fill="#4B0402" width="8.986" height="48.573"/>
				<rect x="544.067" y="121.251" fill="#4B0402" width="8.986" height="48.573"/>
			</g>
			<g>
				<g>
					<rect x="459.752" y="238.683" fill="#4B0402" width="8.993" height="46.633"/>
					<rect x="458.762" y="238.683" fill="#4B0402" width="10.858" height="3.46"/>
					<rect x="458.762" y="281.854" fill="#4B0402" width="10.858" height="3.461"/>
				</g>
				<g>
					<rect x="541.178" y="238.683" fill="#4B0402" width="8.979" height="46.633"/>
					<rect x="540.172" y="238.683" fill="#4B0402" width="10.858" height="3.46"/>
					<rect x="540.172" y="281.854" fill="#4B0402" width="10.858" height="3.461"/>
				</g>
				<g>
					<rect x="622.579" y="238.683" fill="#4B0402" width="8.986" height="46.633"/>
					<rect x="621.581" y="238.683" fill="#4B0402" width="10.857" height="3.46"/>
					<rect x="621.581" y="281.854" fill="#4B0402" width="10.857" height="3.461"/>
				</g>
				<g>
					<rect x="703.99" y="238.683" fill="#4B0402" width="8.994" height="46.633"/>
					<rect x="703" y="238.683" fill="#4B0402" width="10.85" height="3.46"/>
					<rect x="703" y="281.854" fill="#4B0402" width="10.85" height="3.461"/>
				</g>
			</g>
			<rect x="457.045" y="238.212" fill="#BCBEC0" width="258.528" height="12.737"/>
			<rect x="387.657" y="417.111" fill="#A85647" width="397.321" height="56.739"/>
			<g>
				<rect x="390.661" y="422.678" fill="#882B33" width="29.523" height="45.881"/>
				<rect x="423.535" y="422.678" fill="#882B33" width="29.541" height="45.881"/>
				<rect x="456.426" y="422.678" fill="#3C2415" width="29.541" height="45.881"/>
				<rect x="489.334" y="422.678" fill="#882B33" width="29.53" height="45.881"/>
				<rect x="522.225" y="422.678" fill="#882B33" width="29.516" height="45.881"/>
				<polygon fill="#3C2415" points="587.981,422.678 555.098,422.678 555.098,468.559 587.981,468.559 590.323,468.559 
					617.522,468.559 617.522,422.678 590.323,422.678 				"/>
				<rect x="620.87" y="422.678" fill="#882B33" width="29.55" height="45.881"/>
				<rect x="653.772" y="422.678" fill="#882B33" width="29.523" height="45.881"/>
				<rect x="686.653" y="422.678" fill="#3C2415" width="29.533" height="45.881"/>
				<rect x="719.543" y="422.678" fill="#882B33" width="29.524" height="45.881"/>
				<rect x="752.426" y="422.678" fill="#882B33" width="29.541" height="45.881"/>
			</g>
			<g>
				<rect x="746.676" y="400.348" fill="#A85647" width="30.694" height="11.354"/>
				<rect x="707.612" y="400.348" fill="#A85647" width="30.713" height="11.354"/>
				<rect x="668.573" y="400.348" fill="#A85647" width="30.703" height="11.354"/>
				<rect x="629.528" y="400.348" fill="#A85647" width="30.705" height="11.354"/>
				<rect x="590.473" y="400.348" fill="#A85647" width="30.713" height="11.354"/>
				<rect x="551.444" y="400.348" fill="#A85647" width="30.703" height="11.354"/>
				<rect x="512.37" y="400.348" fill="#A85647" width="30.722" height="11.354"/>
				<rect x="473.334" y="400.348" fill="#A85647" width="30.713" height="11.354"/>
				<rect x="434.287" y="400.348" fill="#A85647" width="30.713" height="11.354"/>
				<rect x="395.24" y="400.348" fill="#A85647" width="30.722" height="11.354"/>
			</g>
			<g>
				<g>
					<g>
						<rect x="387.773" y="354.863" fill="#4B0402" width="15.365" height="119.959"/>
						<rect x="386.073" y="354.863" fill="#4B0402" width="18.566" height="8.935"/>
						<rect x="386.073" y="465.883" fill="#4B0402" width="18.566" height="8.939"/>
					</g>
					<rect x="387.773" y="367.011" fill="#FBB040" width="15.365" height="17.888"/>
					<rect x="387.773" y="390.042" fill="#FBB040" width="15.365" height="3.556"/>
				</g>
				<g>
					<g>
						<rect x="515.063" y="354.863" fill="#4B0402" width="15.389" height="119.959"/>
						<rect x="513.37" y="354.863" fill="#4B0402" width="18.582" height="8.935"/>
						<rect x="513.37" y="465.883" fill="#4B0402" width="18.582" height="8.939"/>
					</g>
					<rect x="515.063" y="367.011" fill="#FBB040" width="15.389" height="17.888"/>
					<rect x="515.063" y="390.042" fill="#FBB040" width="15.389" height="3.556"/>
				</g>
				<g>
					<g>
						<rect x="642.366" y="354.863" fill="#4B0402" width="15.381" height="119.959"/>
						<rect x="640.676" y="354.863" fill="#4B0402" width="18.565" height="8.935"/>
						<rect x="640.676" y="465.883" fill="#4B0402" width="18.565" height="8.939"/>
					</g>
					<rect x="642.366" y="367.011" fill="#FBB040" width="15.381" height="17.888"/>
					<rect x="642.366" y="390.042" fill="#FBB040" width="15.381" height="3.556"/>
				</g>
				<g>
					<g>
						<rect x="769.672" y="354.863" fill="#4B0402" width="15.381" height="119.959"/>
						<rect x="767.973" y="354.863" fill="#4B0402" width="18.582" height="8.935"/>
						<rect x="767.973" y="465.883" fill="#4B0402" width="18.582" height="8.939"/>
					</g>
					<rect x="769.672" y="367.011" fill="#FBB040" width="15.381" height="17.888"/>
					<rect x="769.672" y="390.042" fill="#FBB040" width="15.381" height="3.556"/>
				</g>
			</g>
			<rect x="387.657" y="354.975" fill="#BCBEC0" width="397.321" height="18.068"/>
		</g>
		<g>
			<g>
				<g>
					<rect x="525.262" y="462.208" fill="#BCBEC0" width="6.205" height="13.667"/>
					<rect x="511.506" y="462.208" fill="#BCBEC0" width="6.213" height="13.667"/>
					<rect x="484.424" y="462.208" fill="#BCBEC0" width="6.223" height="13.667"/>
					<rect x="470.678" y="462.208" fill="#BCBEC0" width="6.213" height="13.667"/>
					<rect x="443.588" y="462.208" fill="#BCBEC0" width="6.221" height="13.667"/>
					<rect x="429.831" y="462.208" fill="#BCBEC0" width="6.215" height="13.667"/>
					<rect x="402.75" y="462.208" fill="#BCBEC0" width="6.223" height="13.667"/>
					<rect x="388.994" y="462.208" fill="#BCBEC0" width="6.223" height="13.667"/>
					<rect x="361.922" y="462.208" fill="#BCBEC0" width="6.222" height="13.667"/>
					<rect x="348.165" y="462.208" fill="#BCBEC0" width="6.215" height="13.667"/>
					<rect x="321.085" y="462.208" fill="#BCBEC0" width="6.222" height="13.667"/>
					<rect x="307.321" y="462.208" fill="#BCBEC0" width="6.223" height="13.667"/>
				</g>
				<path fill="#FFFFFF" d="M538.274,455.659h-34.607v-6.49h-6.229v6.49h-34.608v-6.49H456.6v6.49h-34.607v-6.49h-6.222v6.49
					h-34.607v-6.49h-6.229v6.49H340.32v-6.49h-6.214v6.49H301.43v-6.49h-6.222v6.49v7.978v8.621v16.293v0.363h6.222v-0.363h32.676
					v0.363h6.214v-0.363h34.615v0.363h6.229v-0.363h34.607v0.363h6.222v-0.363H456.6v0.363h6.229v-0.363h34.607v0.363h6.229v-0.363
					h34.606v0.363h6.23v-0.363v-16.293v-8.621v-7.978v-6.49h-6.23L538.274,455.659L538.274,455.659z M334.105,472.258h-32.676
					v-8.621h32.676V472.258z M374.934,472.258h-34.615v-8.621h34.615V472.258z M415.771,472.258h-34.607v-8.621h34.607V472.258z
					 M456.6,472.258h-34.607v-8.621H456.6V472.258z M497.438,472.258h-34.608v-8.621h34.607L497.438,472.258L497.438,472.258z
					 M538.274,472.258h-34.607v-8.621h34.607V472.258z"/>
			</g>
			<g>
				<g>
					<rect x="858.17" y="462.208" fill="#BCBEC0" width="6.213" height="13.667"/>
					<rect x="844.406" y="462.208" fill="#BCBEC0" width="6.213" height="13.667"/>
					<rect x="817.331" y="462.208" fill="#BCBEC0" width="6.216" height="13.667"/>
					<rect x="803.561" y="462.208" fill="#BCBEC0" width="6.229" height="13.667"/>
					<rect x="776.489" y="462.208" fill="#BCBEC0" width="6.222" height="13.667"/>
					<rect x="762.74" y="462.208" fill="#BCBEC0" width="6.215" height="13.667"/>
					<rect x="735.657" y="462.208" fill="#BCBEC0" width="6.224" height="13.667"/>
					<rect x="721.905" y="462.208" fill="#BCBEC0" width="6.213" height="13.667"/>
					<rect x="694.823" y="462.208" fill="#BCBEC0" width="6.222" height="13.667"/>
					<rect x="681.067" y="462.208" fill="#BCBEC0" width="6.223" height="13.667"/>
					<rect x="653.977" y="462.208" fill="#BCBEC0" width="6.229" height="13.667"/>
					<rect x="640.239" y="462.208" fill="#BCBEC0" width="6.222" height="13.667"/>
				</g>
				<path fill="#FFFFFF" d="M871.182,455.659h-34.605v-6.49h-6.229v6.49h-34.604v-6.49h-6.233v6.49h-34.615v-6.49h-6.213v6.49
					h-34.623v-6.49h-6.223v6.49h-34.599v-6.49h-6.223v6.49h-32.685v-6.49h-6.213v6.49v7.978v8.621v16.293v0.363h6.213v-0.363h32.685
					v0.363h6.223v-0.363h34.599v0.363h6.223v-0.363h34.623v0.363h6.213v-0.363h34.615v0.363h6.233v-0.363h34.604v0.363h6.229v-0.363
					h34.605v0.363h6.229v-0.363v-16.293v-8.621v-7.978v-6.49h-6.229V455.659L871.182,455.659z M667.014,472.258h-32.685v-8.621
					h32.685V472.258L667.014,472.258z M707.834,472.258h-34.599v-8.621h34.599V472.258z M748.68,472.258h-34.623v-8.621h34.623
					V472.258z M789.508,472.258h-34.615v-8.621h34.615V472.258z M830.346,472.258h-34.604v-8.621h34.604V472.258z M871.182,472.258
					h-34.605v-8.621h34.605V472.258z"/>
			</g>
		</g>
		<path fill="#D1D3D4" d="M537.795,488.856h-37.33v-6.994h-6.699v6.994h-37.34v-6.994h-6.708v6.994h-37.322v-6.994h-6.709v6.994
			h-37.321v-6.994h-6.708v6.994h-37.321v-6.994h-6.709v6.994h-35.227v-6.994h-6.717v6.994v8.616v9.29v17.568v0.389h268.82v-0.389
			v-17.568v-9.29v-8.616v-6.994h-6.709V488.856L537.795,488.856z M288.738,506.764h-6.337v-9.29h6.337V506.764z M303.574,506.764
			h-8.119v-9.29h8.119V506.764z M317.627,506.764H310.3v-9.29h7.327V506.764L317.627,506.764z M332.773,506.764h-8.438v-9.29h8.438
			V506.764z M347.621,506.764h-8.136v-9.29h8.136V506.764z M361.657,506.764h-7.336v-9.29h7.336V506.764z M376.823,506.764h-8.458
			v-9.29h8.458V506.764z M391.643,506.764h-8.128v-9.29h8.128V506.764z M405.687,506.764h-7.335v-9.29h7.335V506.764z
			 M420.854,506.764h-8.458v-9.29h8.458V506.764z M435.674,506.764h-8.111v-9.29h8.111V506.764z M449.719,506.764H442.4v-9.29h7.319
			V506.764z M464.877,506.764h-8.451v-9.29h8.451V506.764z M479.713,506.764h-8.119v-9.29h8.119V506.764z M493.766,506.764h-7.328
			v-9.29h7.328V506.764z M508.913,506.764h-8.448v-9.29h8.448V506.764z M523.75,506.764h-8.119v-9.29h8.119V506.764z
			 M537.795,506.764h-7.341v-9.29h7.341V506.764z"/>
		<path fill="#D1D3D4" d="M890.227,488.856h-37.32v-6.994h-6.717v6.994h-37.322v-6.994h-6.717v6.994h-37.305v-6.994h-6.728v6.994
			h-37.313v-6.994h-6.717v6.994h-37.322v-6.994h-6.717v6.994h-35.217v-6.994h-6.718v6.994v8.616v9.29v17.568v0.389h268.818v-0.389
			v-17.568v-9.29v-8.616v-6.994h-6.709v6.994H890.227z M641.18,506.764h-6.346v-9.29h6.346V506.764z M656.016,506.764h-8.129v-9.29
			h8.129V506.764z M670.051,506.764h-7.328v-9.29h7.328V506.764z M685.209,506.764h-8.441v-9.29h8.441V506.764z M700.045,506.764
			h-8.119v-9.29h8.119V506.764z M714.09,506.764h-7.32v-9.29h7.32V506.764z M729.247,506.764h-8.44v-9.29h8.44V506.764z
			 M744.075,506.764h-8.11v-9.29h8.11V506.764z M758.118,506.764h-7.325v-9.29h7.325V506.764z M773.295,506.764h-8.449v-9.29h8.449
			V506.764z M788.106,506.764h-8.111v-9.29h8.111V506.764z M802.151,506.764h-7.328v-9.29h7.328V506.764z M817.317,506.764h-8.449
			v-9.29h8.449V506.764z M832.145,506.764h-8.127v-9.29h8.127V506.764z M846.19,506.764h-7.328v-9.29h7.328V506.764z
			 M861.348,506.764h-8.441v-9.29h8.441V506.764z M876.184,506.764h-8.129v-9.29h8.129V506.764z M890.227,506.764h-7.326v-9.29
			h7.326V506.764z"/>
	</g>
</g>
</svg>
