<?xml version="1.0" encoding="utf-8"?>
<!-- Generator: Adobe Illustrator 16.0.0, SVG Export Plug-In . SVG Version: 6.00 Build 0)  -->
<!DOCTYPE svg PUBLIC "-//W3C//DTD SVG 1.1//EN" "http://www.w3.org/Graphics/SVG/1.1/DTD/svg11.dtd">
<svg version="1.1" id="图层_1" xmlns="http://www.w3.org/2000/svg" xmlns:xlink="http://www.w3.org/1999/xlink" x="0px" y="0px"
	 width="906px" height="548px" viewBox="0 0 906 548" enable-background="new 0 0 906 548" xml:space="preserve">
<g>
	<rect x="0" fill="#D8E26D" width="906" height="546.933"/>
	<g>
		<g>
			<path fill="#3D993D" d="M296.831,267.633c47.482,54.891,156.015-2.06,156.015-2.06
				C353.069,232.833,296.831,267.633,296.831,267.633z"/>
			<path fill="#3D993D" d="M308.241,148.145c32.062,65.081,151.47,37.435,151.47,37.435
				C371.49,128.674,308.241,148.145,308.241,148.145z"/>
			<path fill="#3D993D" d="M54.708,308.648c103.416-18.284,136.475-75.552,136.475-75.552
				C123.339,207.213,54.708,308.648,54.708,308.648z"/>
			<polygon fill="#8DC63F" points="309.051,112.779 262.661,518.796 279.424,521.557 319.386,118.471 			"/>
			<polygon fill="#8DC63F" points="337.234,66.461 290.82,472.477 307.607,475.229 347.565,72.127 			"/>
			<path fill="#8DC63F" d="M342.951,136.235c97.682,38.563,155.874,7.101,155.874,7.101
				C454.64,85.771,342.951,136.235,342.951,136.235z"/>
			<path fill="#8DC63F" d="M182.411,142.615c97.655,38.563,155.866,7.096,155.866,7.096
				C294.091,92.15,182.411,142.615,182.411,142.615z"/>
			<path fill="#8DC63F" d="M228.822,68.633c61.036,51.812,110.789,43.364,110.789,43.364
				C321.878,59.6,228.822,68.633,228.822,68.633z"/>
			<path fill="#8DC63F" d="M183.41,238.202c105.017-2.135,146.513-53.616,146.513-53.616
				C266.899,148.545,183.41,238.202,183.41,238.202z"/>
			<path fill="#8DC63F" d="M334.944,203.995c18.586,70.124,141.129,66.494,141.129,66.494
				C400.795,197.34,334.944,203.995,334.944,203.995z"/>
			<path fill="#8DC63F" d="M201.142,325.438c47.496,54.864,156.022-2.062,156.022-2.062
				C257.393,290.607,201.142,325.438,201.142,325.438z"/>
		</g>
		<g>
			<path fill="#221F20" d="M473.75,548c-1.391-2.514-3.013-4.949-4.89-7.257c-9.167-11.268-0.561-22.945,4.959-33.247
				c6.147-11.514,10.281-24.243,12.163-37.137c3.676-25.184-2.001-54.129-27.778-65.18c-28.002-12.005-64.267,9.799-80.964,48.688
				c-11.44,26.592-14.226,63.049-8.256,94.133H473.75z"/>
			<path fill="#221F20" d="M643.495,510.867c9.773,8.611,21.169,15.667,33.304,20.477c9.345,3.681,21.064,6.7,24.387,16.656h113.636
				c0.558-9.256-2.835-18.193-10.921-24.771c-2.806-2.286-6.3-3.478-10.038-4.216c-11.274-35.565-44.521-74.245-78.092-90.95
				c-37.92-18.892-79.681-12.096-93.283,15.159C609.979,468.286,624.385,494.029,643.495,510.867z"/>
			<path fill="#FFFFFF" d="M573.631,212.698c-83.098,0-150.45,70.644-150.45,157.763c0,87.145,67.353,157.775,150.45,157.775
				c83.092,0,150.461-70.633,150.461-157.775C724.092,283.342,656.723,212.698,573.631,212.698z"/>
			<path fill="#524D4E" d="M801.718,548c-2.459-10.566-12.831-16.521-12.831-16.521c-16.346-8.25-30.712,2.398-41.538,16.521
				H801.718z"/>
			<path fill="#F1F2F2" d="M573.631,478.576c-73.766,0-134.706-56.983-145.354-131.229c-1.093,7.562-1.823,15.233-1.823,23.112
				c0,85.257,65.9,154.355,147.179,154.355c81.293,0,147.182-69.1,147.182-154.355c0-7.879-0.734-15.552-1.82-23.112
				C708.326,421.593,647.414,478.576,573.631,478.576z"/>
			<path fill="#D3D4D5" d="M573.631,212.698c-64.11,0-118.724,38.118-140.379,91.7c21.655,53.602,76.269,91.719,140.379,91.719
				c64.122,0,118.714-38.117,140.382-91.719C692.345,250.816,637.753,212.698,573.631,212.698z"/>
			<path fill="#0F090A" d="M558.785,446.887c-88.859-50.402-72.117-108.799-67.675-120.338
				c10.143-24.461-1.209-52.606-25.616-63.156c-24.639-10.632-53.259,0.676-63.929,25.294
				c-21.709,50.188-26.83,165.465,109.18,242.623c10.702,6.082,22.732,7.652,33.905,5.32c13.202-2.729,25.2-10.916,32.37-23.543
				C590.289,489.764,582.12,460.119,558.785,446.887z"/>
			<path fill="#0F090A" d="M804.565,69.16c-26.281,5.398-43.209,31.076-37.8,57.338c20.323,98.616-33.113,119.06-50.194,122.995
				c-25.982,5.345-42.932,30.604-37.906,56.72c4.469,23.225,24.842,39.383,47.686,39.383c3.028,0,6.123-0.283,9.232-0.869
				c6.535-1.266,64.961-13.896,102.785-70.467c29.479-44.057,37.412-100.359,23.607-167.348
				C856.553,80.625,830.828,63.643,804.565,69.16z"/>
			<path fill="#3D993D" d="M782.488,2.411c-40.378,48.56-35.209,88.323-35.209,88.323c38.011-11.238,41.983-67.479,42.138-88.323
				H782.488z"/>
			<path fill="#3D993D" d="M702.272,2.411c-22.387,26.303-25.18,48.189-25.18,48.189c26.999-0.869,43.997-25.932,53.812-48.189
				H702.272z"/>
			<path fill="#3D993D" d="M745.541,188.438c17.447-68.402-8.539-104.529-8.539-104.529
				C702.304,118.269,745.541,188.438,745.541,188.438z"/>
			<g>
				<path fill="#231F20" d="M468.658,65.271c-26.553-5.534-47.486,23.773-48.547,64.586c-0.527,19.071,7.257,28.99,15.687,34.311
					c9.704,5.963,20.281,5.744,20.281,5.744c13.014-26.2,31.472-46.775,57.281-59.987c-0.842-7.24-3.09-13.949-6.613-19.821
					C499.401,77.954,486.59,69.111,468.658,65.271z"/>
				<path fill="#231F20" d="M674.161,65.271c-17.931,3.841-30.729,12.684-38.089,24.832c-3.522,5.872-5.771,12.581-6.617,19.821
					c25.823,13.212,44.273,33.787,57.188,59.987c0,0,10.669,0.219,20.373-5.843c8.438-5.341,16.223-15.235,15.686-34.212
					C721.646,89.044,700.615,59.736,674.161,65.271z"/>
			</g>
			<path fill="#0F090A" d="M435.798,164.167c9.704,5.963,20.281,5.744,20.281,5.744c13.014-26.2,31.472-46.775,57.281-59.987
				c-0.842-7.24-3.09-13.949-6.613-19.821C475.81,106.73,450.74,134.006,435.798,164.167z"/>
			<path fill="#0F090A" d="M636.073,90.103c-3.522,5.872-5.771,12.581-6.617,19.821c25.823,13.212,44.273,33.787,57.188,59.987
				c0,0,10.669,0.219,20.373-5.843C692.079,133.907,667.004,106.619,636.073,90.103z"/>
			<g>
				<path fill="#FFFFFF" d="M571.399,82.809c-77.521,0-140.378,75.23-140.378,140.69c0,65.468,62.856,118.536,140.378,118.536
					c77.526,0,140.378-53.068,140.378-118.536C711.777,158.039,648.925,82.809,571.399,82.809z"/>
				<path fill="#FFFFFF" d="M571.399,256.713c-37.561,0-68.017,21.577-68.017,48.189c0,26.611,30.456,48.186,68.017,48.186
					c37.557,0,68.013-21.572,68.013-48.186S608.954,256.713,571.399,256.713z"/>
				<path fill="#231F20" d="M594.437,240.844h-46.608c-7.225,0-11.695,7.838-8.023,14.031l7.661,12.928
					c3.92,6.576,11.004,10.623,18.665,10.623h9.979c7.665,0,14.767-4.047,18.673-10.623l7.653-12.928
					C606.125,248.682,601.649,240.844,594.437,240.844z"/>
				<path fill="#58595B" d="M594.437,246.176h-46.608c-2.096,0-3.127,1.405-3.466,1.995c-0.343,0.613-1.035,2.204,0.029,3.993
					l3.181,5.356c9.264,4.187,34.578,6.412,48.188-1.834l2.092-3.522c1.068-1.797,0.376-3.38,0.037-3.993
					C597.552,247.561,596.52,246.176,594.437,246.176z"/>
				<path fill="#F1F2F2" d="M625.663,285.563l-1.143,0.408l-0.846,0.883c0.495,19.664-31.277,39.494-52.277,39.494
					s-52.281-21.75-52.281-39.494l-0.846-0.883l-1.139-0.408c-41.447-15.306-70.428-46.723-78.451-83.125
					c-1.469,7.088-2.327,14.163-2.327,21.062c0,44.839,31.706,85.512,80.778,103.619l1.139,0.42l0.846,0.87
					c11.737,12.109,31.281,19.343,52.281,19.343s40.548-7.231,52.277-19.343l0.846-0.87l1.143-0.42
					c49.063-18.107,80.773-58.78,80.773-103.619c0-6.898-0.861-13.974-2.33-21.062C696.077,238.841,667.112,270.258,625.663,285.563
					z"/>
				<path fill="#231F20" d="M570.557,291.525c-19.036,18.646-44.93,1.129-44.93,1.129c14.86,24.182,46.121,22.27,46.121,22.27
					c31.052,0.549,43.366-21.49,43.366-21.49C594.94,309.406,570.557,291.525,570.557,291.525z"/>
				<g>
					<g>
						<path fill="#231F20" d="M651.714,193.354c-23.221-13.331-44.157-28.586-56.671-15.041
							c-12.525,13.55-6.704,39.235,12.982,57.371c19.686,18.152,45.788,21.89,58.284,8.365
							C678.837,230.509,679.464,209.262,651.714,193.354z"/>
						<path fill="#FFFFFF" d="M616.468,188.806c-5.854,0-10.607,4.747-10.607,10.595c0,5.859,4.753,10.606,10.607,10.606
							c5.867,0,10.616-4.747,10.616-10.606C627.084,193.553,622.335,188.806,616.468,188.806z M616.468,206.934
							c-4.493,0-8.141-3.651-8.141-8.131c0-4.5,3.646-8.155,8.141-8.155c4.506,0,8.141,3.655,8.141,8.155
							C624.609,203.282,620.974,206.934,616.468,206.934z"/>
					</g>
					<path fill="#070102" d="M649.948,226.363c-13.582,4.125-32.767,0-53.717-18.28c0,0,10.029,39.515,54.014,39.218
						c0,0,15.634-2.064,16.528-12.68C666.774,234.621,666.472,221.36,649.948,226.363z"/>
				</g>
				<g>
					<g>
						<path fill="#231F20" d="M488.599,193.354c-27.737,15.907-27.105,37.154-14.593,50.695c12.51,13.524,38.608,9.787,58.297-8.365
							c19.68-18.136,25.493-43.821,12.979-57.371C532.77,164.769,511.826,180.023,488.599,193.354z"/>
						<path fill="#FFFFFF" d="M523.862,188.806c-5.871,0-10.623,4.747-10.623,10.595c0,5.859,4.752,10.606,10.623,10.606
							c5.843,0,10.596-4.747,10.596-10.606C534.456,193.553,529.703,188.806,523.862,188.806z M523.862,206.934
							c-4.509,0-8.151-3.651-8.151-8.131c0-4.5,3.644-8.155,8.151-8.155c4.478,0,8.137,3.655,8.137,8.155
							C531.997,203.282,528.338,206.934,523.862,206.934z"/>
					</g>
					<path fill="#070102" d="M490.368,226.363c-16.522-5.003-16.815,8.258-16.815,8.258c0.887,10.615,16.526,12.68,16.526,12.68
						c43.984,0.297,54.011-39.218,54.011-39.218C523.144,226.363,503.954,230.488,490.368,226.363z"/>
				</g>
			</g>
			<polygon fill="#8DC63F" points="655.61,40.307 891.981,181.317 898.323,171.823 661.957,35.559 			"/>
			<polygon fill="#8DC63F" points="634.985,10.187 871.357,151.215 877.705,141.708 641.322,5.444 			"/>
			<path fill="#8DC63F" d="M681.432,2.411c-2.025,13.57-2.025,23.637-2.025,23.637c8.33-8.073,15.19-16.005,20.859-23.637H681.432z"
				/>
			<path fill="#8DC63F" d="M627.055,121.116c50.759-49.116,47.59-93.49,47.59-93.49C627.055,38.72,627.055,121.116,627.055,121.116z
				"/>
			<path fill="#8DC63F" d="M594.52,72.177c48.737-23.011,57.352-55.825,57.352-55.825C614.788,12.684,594.52,72.177,594.52,72.177z"
				/>
			<path fill="#8DC63F" d="M697.744,152.035c27.824-64.908,7.729-104.604,7.729-104.604
				C665.862,76.042,697.744,152.035,697.744,152.035z"/>
			<path fill="#8DC63F" d="M759.741,2.411c-32.754,23.002-40.964,47.328-40.964,47.328c31.541,5.283,56.04-25.454,69.209-47.328
				H759.741z"/>
			<path fill="#8DC63F" d="M796.452,103.413c46.854-13.867,42-96.123,42-96.123C790.678,59.304,796.452,103.413,796.452,103.413z"/>
			<path fill="#0F090A" d="M790.447,94.178c-12.683,4.752,1.584,49.113,1.584,49.113l39.669,14.262c0,0-14.273-45.938-15.871-53.876
				C814.247,95.761,803.146,89.423,790.447,94.178z"/>
		</g>
	</g>
</g>
</svg>
