<?xml version="1.0" encoding="utf-8"?>
<!-- Generator: Adobe Illustrator 16.0.0, SVG Export Plug-In . SVG Version: 6.00 Build 0)  -->
<!DOCTYPE svg PUBLIC "-//W3C//DTD SVG 1.1//EN" "http://www.w3.org/Graphics/SVG/1.1/DTD/svg11.dtd">
<svg version="1.1" id="图层_1" xmlns="http://www.w3.org/2000/svg" xmlns:xlink="http://www.w3.org/1999/xlink" x="0px" y="0px"
	 width="506px" height="282px" viewBox="-10 -27 506 282" enable-background="new -10 -27 506 282" xml:space="preserve">
<g>
	<g>
		<g>
			<path fill="#0044E4" d="M186.899,251.373c0,1.797-1.457,3.253-3.252,3.253H-6.613c-1.797,0-3.253-1.456-3.253-3.253V142.422
				c0-1.797,1.456-3.253,3.253-3.253h190.26c1.795,0,3.252,1.456,3.252,3.253V251.373z"/>
			<path opacity="0.5" fill="#6895FF" d="M176.682,242.586c0,1.508-1.305,2.729-2.915,2.729H3.267c-1.61,0-2.915-1.221-2.915-2.729
				v-91.378c0-1.507,1.305-2.728,2.915-2.728h170.5c1.61,0,2.915,1.221,2.915,2.728V242.586z"/>
			<g>
				<g>
					<path fill="#FFB539" d="M17.321,196.615c-4.345-11.838-4.887-21.523-1.205-21.523s8.049,4.413,9.705,9.807
						s4.158,13.896,5.562,18.891c0,0,0,0,1.558,4.688l0,0c0.194,0,1.533-4.114,2.976-9.142c0,0,0,0,1.486-4.631l0,0
						c3.273-10.787,8.852-19.613,12.397-19.613s2.875,9.686-1.487,21.523c-4.364,11.838-11.345,21.524-15.515,21.524
						C28.63,218.14,21.664,208.453,17.321,196.615z"/>
				</g>
				<g>
					<path fill="#FFB539" d="M61.698,196.615c0-11.838,2.854-21.523,6.341-21.523c3.486,0,6.34,9.686,6.34,21.523
						s-2.854,21.524-6.34,21.524C64.552,218.14,61.698,208.453,61.698,196.615z"/>
				</g>
				<g>
					<path fill="#FFB539" d="M83.162,212.759L83.162,212.759c3.934-3.915,11.043-5.14,15.796-2.72c0,0,0,0,4.179,0
						c4.676,0,6.872-1.446,6.872-3.761c0-2.489-2.904-3.298-7.438-4.86l0,0c-3.701-1.273-11.543-4.814-17.426-7.869c0,0,0,0,0-6.248
						c0-7.233,7.935-13.02,19.126-13.02c6.093,0,12.538,1.91,17.144,5.671l0,0c-3.469,3.563-9.334,4.996-13.034,3.181
						c0,0,0,0-4.109,0c-3.896,0-6.304,1.273-6.304,3.589c0,2.371,3.33,3.298,8.004,4.802l0,0c3.623,1.178,11.274,4.719,17.002,7.869
						c0,0,0,0,0,6.075c0,7.175-7.367,13.481-20.118,13.481C95.985,218.949,88.615,216.867,83.162,212.759z"/>
				</g>
				<g>
					<path fill="#FFB539" d="M158.143,213.192c-0.838-2.721-5.031-4.947-9.315-4.947c-4.285,0-8.478,2.227-9.314,4.947
						c-0.839,2.722-4.425,4.947-7.97,4.947s-2.766-9.687,1.736-21.524c4.499-11.838,11.592-21.523,15.762-21.523
						c4.167,0,11.26,9.686,15.76,21.523c4.501,11.838,5.186,21.524,1.523,21.524C162.66,218.14,158.981,215.914,158.143,213.192z
						 M148.827,200.26c2.961,0,5.128-0.818,4.817-1.822c-0.313-1.002-1.811-6.066-3.33-11.254c0,0,0,0-1.416-4.396l0,0
						c-0.156,0-1.494,4.295-2.976,9.547c0,0,0,0-1.347,4.281l0,0C143.953,198.62,145.867,200.26,148.827,200.26z"/>
				</g>
			</g>
		</g>
		<path opacity="0.3" fill="#0000DD" d="M123.707,139.169H-6.613c-1.797,0-3.253,1.456-3.253,3.253v9.213
			c28.443,28.389,56.9,56.763,85.354,85.143c5.964,5.947,11.923,11.898,17.886,17.849h90.273c1.795,0,3.252-1.456,3.252-3.253
			V202.56C165.83,181.434,144.772,160.299,123.707,139.169z"/>
	</g>
	<path fill="#F7C690" d="M409.232,27.662l-68.876,0.359c-36.842,17.088-62.853,29.184-62.853,29.184s-43.889,8.148-84.365,15.929
		c-40.484,7.788-99.948,35.571-107.271,41.599c-7.321,6.027-21.403,16.396-32.594,24.506h51.466
		c7.693-2.679,20.897-6.726,31.047-6.957c15.244-0.349,27.766,12.215,51.021,12.301c23.258,0.062,33.53-2.85,33.53-2.85
		s-11.513,17.771-24.474,24.602c-12.951,6.812-46.446,19.457-54.893,32.244c-8.422,12.794,7.258,21.693,7.258,21.693
		s32.949-17.756,65.715-30.075c32.748-12.313,34.789-7.881,62.85-42.155c28.075-34.282,79.611-53.228,124.38-68.725
		c2.745-0.95,5.432-1.981,8.059-3.076V27.662z"/>
</g>
<g>
	
		<rect x="336.902" y="20.077" transform="matrix(0.9195 -0.393 0.393 0.9195 3.6137 144.3872)" fill="#FFFFFF" width="35.016" height="86.583"/>
	
		<rect x="365.572" y="-9.017" transform="matrix(0.9195 -0.393 0.393 0.9195 15.35 169.6233)" fill="#A09F9F" width="112.685" height="112.685"/>
</g>
</svg>
